G04 #@! TF.FileFunction,Soldermask,Bot*
%FSLAX46Y46*%
G04 Gerber Fmt 4.6, Leading zero omitted, Abs format (unit mm)*
G04 Created by KiCad (PCBNEW 4.0.1-stable) date 10/30/2017 21:56:46*
%MOMM*%
G01*
G04 APERTURE LIST*
%ADD10C,0.100000*%
%ADD11R,2.100000X2.100000*%
%ADD12O,2.100000X2.100000*%
%ADD13C,1.400000*%
%ADD14R,1.400000X1.400000*%
%ADD15O,2.899360X1.901140*%
%ADD16C,3.400000*%
%ADD17C,4.700000*%
%ADD18R,2.200000X2.200000*%
%ADD19C,2.200000*%
%ADD20C,2.800000*%
%ADD21O,2.800000X2.800000*%
%ADD22C,2.000000*%
%ADD23R,3.900000X3.900000*%
%ADD24C,4.900880*%
%ADD25C,0.254000*%
G04 APERTURE END LIST*
D10*
D11*
X160909000Y-110617000D03*
D12*
X163449000Y-110617000D03*
D11*
X162306000Y-98425000D03*
D12*
X162306000Y-95885000D03*
D13*
X161544000Y-91059000D03*
X162814000Y-89789000D03*
D14*
X162814000Y-92329000D03*
D15*
X115697000Y-93345000D03*
X115697000Y-95885000D03*
X115697000Y-90805000D03*
D16*
X111887000Y-80645000D03*
X111887000Y-106045000D03*
D17*
X104140000Y-66548000D03*
X165735000Y-77470000D03*
X165735000Y-104140000D03*
D18*
X149479000Y-63119000D03*
D19*
X149479000Y-65659000D03*
D18*
X141224000Y-63119000D03*
D19*
X141224000Y-65659000D03*
D20*
X127762000Y-111760000D03*
D21*
X132842000Y-111760000D03*
D20*
X127698500Y-106489500D03*
D21*
X132778500Y-106489500D03*
D20*
X127698500Y-101155500D03*
D21*
X132778500Y-101155500D03*
D20*
X127698500Y-95821500D03*
D21*
X132778500Y-95821500D03*
D20*
X127698500Y-90487500D03*
D21*
X132778500Y-90487500D03*
D20*
X127698500Y-85153500D03*
D21*
X132778500Y-85153500D03*
D20*
X127698500Y-79819500D03*
D21*
X132778500Y-79819500D03*
D20*
X127698500Y-74485500D03*
D21*
X132778500Y-74485500D03*
D20*
X127698500Y-69151500D03*
D21*
X132778500Y-69151500D03*
D20*
X127698500Y-63817500D03*
D21*
X132778500Y-63817500D03*
D11*
X148463000Y-82042000D03*
D12*
X148463000Y-79502000D03*
X148463000Y-76962000D03*
D11*
X145669000Y-97663000D03*
D12*
X145669000Y-100203000D03*
X145669000Y-102743000D03*
D11*
X156210000Y-104902000D03*
D12*
X153670000Y-104902000D03*
X151130000Y-104902000D03*
D22*
X136906000Y-83820000D03*
X139406000Y-83820000D03*
D20*
X120650000Y-69469000D03*
X120650000Y-64469000D03*
D23*
X162306000Y-68961000D03*
X162306000Y-62961000D03*
X157606000Y-65961000D03*
D11*
X152781000Y-110617000D03*
D12*
X155321000Y-110617000D03*
D24*
X112966500Y-63944500D03*
X112966500Y-70294500D03*
D25*
G36*
X170053000Y-114173000D02*
X167513000Y-114173000D01*
X167513000Y-112268000D01*
X170053000Y-112268000D01*
X170053000Y-114173000D01*
X170053000Y-114173000D01*
G37*
X170053000Y-114173000D02*
X167513000Y-114173000D01*
X167513000Y-112268000D01*
X170053000Y-112268000D01*
X170053000Y-114173000D01*
M02*
