G04 #@! TF.FileFunction,Paste,Top*
%FSLAX46Y46*%
G04 Gerber Fmt 4.6, Leading zero omitted, Abs format (unit mm)*
G04 Created by KiCad (PCBNEW 4.0.1-stable) date 10/30/2017 21:56:45*
%MOMM*%
G01*
G04 APERTURE LIST*
%ADD10C,0.100000*%
%ADD11R,1.500000X1.300000*%
%ADD12R,1.250000X1.500000*%
%ADD13R,1.300000X1.500000*%
%ADD14R,0.900000X0.800000*%
%ADD15R,2.500000X2.000000*%
%ADD16R,1.500000X1.250000*%
%ADD17R,1.680000X1.680000*%
%ADD18R,1.300000X2.000000*%
%ADD19R,1.300000X1.300000*%
%ADD20R,2.000000X1.300000*%
%ADD21R,0.600000X1.500000*%
G04 APERTURE END LIST*
D10*
D11*
X136826000Y-79375000D03*
X139526000Y-79375000D03*
D12*
X153543000Y-91420000D03*
X153543000Y-88920000D03*
D11*
X139526000Y-76327000D03*
X136826000Y-76327000D03*
D13*
X151511000Y-84789000D03*
X151511000Y-82089000D03*
D11*
X142414000Y-76327000D03*
X145114000Y-76327000D03*
X145114000Y-79375000D03*
X142414000Y-79375000D03*
X142287000Y-82169000D03*
X144987000Y-82169000D03*
D13*
X149352000Y-71835000D03*
X149352000Y-69135000D03*
X151511000Y-79328000D03*
X151511000Y-76628000D03*
X141224000Y-71835000D03*
X141224000Y-69135000D03*
D11*
X139239000Y-98806000D03*
X141939000Y-98806000D03*
X139239000Y-95758000D03*
X141939000Y-95758000D03*
D13*
X149860000Y-96186000D03*
X149860000Y-98886000D03*
X138303000Y-111205000D03*
X138303000Y-108505000D03*
D14*
X136414000Y-89601000D03*
X136414000Y-91501000D03*
X138414000Y-90551000D03*
D15*
X156464000Y-76232000D03*
X156464000Y-80232000D03*
D16*
X154920000Y-72771000D03*
X152420000Y-72771000D03*
X139339000Y-101600000D03*
X141839000Y-101600000D03*
D12*
X136652000Y-95905000D03*
X136652000Y-98405000D03*
X164719000Y-85324000D03*
X164719000Y-82824000D03*
D17*
X166370000Y-99264000D03*
X166370000Y-95504000D03*
D18*
X161163000Y-84836000D03*
D19*
X155663000Y-85986000D03*
X155663000Y-83686000D03*
D20*
X156083000Y-100838000D03*
D19*
X154933000Y-95338000D03*
X157233000Y-95338000D03*
D18*
X148463000Y-109855000D03*
D19*
X142963000Y-111005000D03*
X142963000Y-108705000D03*
D21*
X149987000Y-87470000D03*
X148717000Y-87470000D03*
X147447000Y-87470000D03*
X146177000Y-87470000D03*
X144907000Y-87470000D03*
X143637000Y-87470000D03*
X142367000Y-87470000D03*
X142367000Y-92870000D03*
X143637000Y-92870000D03*
X144907000Y-92870000D03*
X146177000Y-92870000D03*
X147447000Y-92870000D03*
X148717000Y-92870000D03*
X149987000Y-92870000D03*
M02*
