G04 #@! TF.FileFunction,Legend,Top*
%FSLAX46Y46*%
G04 Gerber Fmt 4.6, Leading zero omitted, Abs format (unit mm)*
G04 Created by KiCad (PCBNEW 4.0.1-stable) date 10/30/2017 21:56:45*
%MOMM*%
G01*
G04 APERTURE LIST*
%ADD10C,0.100000*%
%ADD11C,0.200000*%
%ADD12C,0.150000*%
%ADD13C,0.120000*%
G04 APERTURE END LIST*
D10*
D11*
X151130000Y-88011000D02*
G75*
G03X151130000Y-88011000I-127000J0D01*
G01*
D12*
X138776000Y-80250000D02*
X137576000Y-80250000D01*
X137576000Y-78500000D02*
X138776000Y-78500000D01*
D13*
X152693000Y-89670000D02*
X152693000Y-90670000D01*
X154393000Y-90670000D02*
X154393000Y-89670000D01*
X162179000Y-112007000D02*
X164839000Y-112007000D01*
X164839000Y-112007000D02*
X164839000Y-109227000D01*
X164839000Y-109227000D02*
X162179000Y-109227000D01*
X162179000Y-109227000D02*
X162179000Y-112007000D01*
X160909000Y-112007000D02*
X159519000Y-112007000D01*
X159519000Y-112007000D02*
X159519000Y-110617000D01*
X163696000Y-97155000D02*
X163696000Y-94495000D01*
X163696000Y-94495000D02*
X160916000Y-94495000D01*
X160916000Y-94495000D02*
X160916000Y-97155000D01*
X160916000Y-97155000D02*
X163696000Y-97155000D01*
X163696000Y-98425000D02*
X163696000Y-99815000D01*
X163696000Y-99815000D02*
X162306000Y-99815000D01*
X164664000Y-92859000D02*
X164664000Y-89259000D01*
X164652478Y-92897478D02*
G75*
G02X160214000Y-91059000I-1838478J1838478D01*
G01*
X164652478Y-89220522D02*
G75*
G03X160214000Y-91059000I-1838478J-1838478D01*
G01*
D12*
X112649000Y-94869000D02*
X113792000Y-94869000D01*
X112649000Y-91821000D02*
X113792000Y-91821000D01*
X113792000Y-88011000D02*
X117475000Y-88011000D01*
X117475000Y-88011000D02*
X117475000Y-98679000D01*
X117475000Y-98679000D02*
X113792000Y-98679000D01*
X112649000Y-88011000D02*
X113792000Y-88011000D01*
X113792000Y-88011000D02*
X113792000Y-98679000D01*
X113792000Y-98679000D02*
X112649000Y-98679000D01*
X112649000Y-93345000D02*
X112649000Y-98679000D01*
X112649000Y-93345000D02*
X112649000Y-88011000D01*
X137576000Y-75452000D02*
X138776000Y-75452000D01*
X138776000Y-77202000D02*
X137576000Y-77202000D01*
X152386000Y-82839000D02*
X152386000Y-84039000D01*
X150636000Y-84039000D02*
X150636000Y-82839000D01*
X144364000Y-77202000D02*
X143164000Y-77202000D01*
X143164000Y-75452000D02*
X144364000Y-75452000D01*
X143164000Y-78500000D02*
X144364000Y-78500000D01*
X144364000Y-80250000D02*
X143164000Y-80250000D01*
X144237000Y-83044000D02*
X143037000Y-83044000D01*
X143037000Y-81294000D02*
X144237000Y-81294000D01*
X150227000Y-69885000D02*
X150227000Y-71085000D01*
X148477000Y-71085000D02*
X148477000Y-69885000D01*
X152386000Y-77378000D02*
X152386000Y-78578000D01*
X150636000Y-78578000D02*
X150636000Y-77378000D01*
X142099000Y-69885000D02*
X142099000Y-71085000D01*
X140349000Y-71085000D02*
X140349000Y-69885000D01*
X141189000Y-99681000D02*
X139989000Y-99681000D01*
X139989000Y-97931000D02*
X141189000Y-97931000D01*
X141189000Y-96633000D02*
X139989000Y-96633000D01*
X139989000Y-94883000D02*
X141189000Y-94883000D01*
X148985000Y-98136000D02*
X148985000Y-96936000D01*
X150735000Y-96936000D02*
X150735000Y-98136000D01*
X139178000Y-109255000D02*
X139178000Y-110455000D01*
X137428000Y-110455000D02*
X137428000Y-109255000D01*
X111102000Y-106045000D02*
X111102000Y-80645000D01*
X111102000Y-80645000D02*
X112672000Y-80645000D01*
X112672000Y-80645000D02*
X112672000Y-106045000D01*
X112672000Y-106045000D02*
X111102000Y-106045000D01*
X99187000Y-93345000D02*
X124587000Y-93345000D01*
X111887000Y-106045000D02*
X111887000Y-80645000D01*
X99187000Y-114300000D02*
X124587000Y-114300000D01*
X124587000Y-114300000D02*
X124587000Y-73025000D01*
X124587000Y-73025000D02*
X99187000Y-73025000D01*
X99187000Y-73025000D02*
X99187000Y-114300000D01*
D13*
X138174000Y-92131000D02*
X138174000Y-91201000D01*
X138174000Y-88971000D02*
X138174000Y-89901000D01*
X138174000Y-88971000D02*
X136014000Y-88971000D01*
X138174000Y-92131000D02*
X136714000Y-92131000D01*
X157939000Y-79232000D02*
X157939000Y-77232000D01*
X154989000Y-77232000D02*
X154989000Y-79232000D01*
X153170000Y-73621000D02*
X154170000Y-73621000D01*
X154170000Y-71921000D02*
X153170000Y-71921000D01*
X141089000Y-100750000D02*
X140089000Y-100750000D01*
X140089000Y-102450000D02*
X141089000Y-102450000D01*
X137502000Y-97655000D02*
X137502000Y-96655000D01*
X135802000Y-96655000D02*
X135802000Y-97655000D01*
X163869000Y-83574000D02*
X163869000Y-84574000D01*
X165569000Y-84574000D02*
X165569000Y-83574000D01*
X149478538Y-67379000D02*
G75*
G03X151023830Y-61829000I462J2990000D01*
G01*
X149479462Y-67379000D02*
G75*
G02X147934170Y-61829000I-462J2990000D01*
G01*
X151979000Y-64389000D02*
G75*
G03X151979000Y-64389000I-2500000J0D01*
G01*
X151024000Y-61829000D02*
X147934000Y-61829000D01*
X141223538Y-67379000D02*
G75*
G03X142768830Y-61829000I462J2990000D01*
G01*
X141224462Y-67379000D02*
G75*
G02X139679170Y-61829000I-462J2990000D01*
G01*
X143724000Y-64389000D02*
G75*
G03X143724000Y-64389000I-2500000J0D01*
G01*
X142769000Y-61829000D02*
X139679000Y-61829000D01*
D12*
X165354000Y-97790000D02*
X163830000Y-97790000D01*
X164592000Y-96774000D02*
X164084000Y-96774000D01*
X164084000Y-96774000D02*
X163830000Y-96774000D01*
X163830000Y-96774000D02*
X164592000Y-97790000D01*
X164592000Y-95250000D02*
X164592000Y-96774000D01*
X164592000Y-96774000D02*
X165354000Y-96774000D01*
X165354000Y-96774000D02*
X164592000Y-97790000D01*
X164592000Y-97790000D02*
X164592000Y-99314000D01*
D13*
X130072000Y-111760000D02*
G75*
G03X130072000Y-111760000I-2310000J0D01*
G01*
X130072000Y-111760000D02*
X131342000Y-111760000D01*
X130008500Y-106489500D02*
G75*
G03X130008500Y-106489500I-2310000J0D01*
G01*
X130008500Y-106489500D02*
X131278500Y-106489500D01*
X130008500Y-101155500D02*
G75*
G03X130008500Y-101155500I-2310000J0D01*
G01*
X130008500Y-101155500D02*
X131278500Y-101155500D01*
X130008500Y-95821500D02*
G75*
G03X130008500Y-95821500I-2310000J0D01*
G01*
X130008500Y-95821500D02*
X131278500Y-95821500D01*
X130008500Y-90487500D02*
G75*
G03X130008500Y-90487500I-2310000J0D01*
G01*
X130008500Y-90487500D02*
X131278500Y-90487500D01*
X130008500Y-85153500D02*
G75*
G03X130008500Y-85153500I-2310000J0D01*
G01*
X130008500Y-85153500D02*
X131278500Y-85153500D01*
X130008500Y-79819500D02*
G75*
G03X130008500Y-79819500I-2310000J0D01*
G01*
X130008500Y-79819500D02*
X131278500Y-79819500D01*
X130008500Y-74485500D02*
G75*
G03X130008500Y-74485500I-2310000J0D01*
G01*
X130008500Y-74485500D02*
X131278500Y-74485500D01*
X130008500Y-69151500D02*
G75*
G03X130008500Y-69151500I-2310000J0D01*
G01*
X130008500Y-69151500D02*
X131278500Y-69151500D01*
X130008500Y-63817500D02*
G75*
G03X130008500Y-63817500I-2310000J0D01*
G01*
X130008500Y-63817500D02*
X131278500Y-63817500D01*
D12*
X160163000Y-87336000D02*
X156663000Y-87336000D01*
X156663000Y-87336000D02*
X156663000Y-82336000D01*
X156663000Y-82336000D02*
X160163000Y-82336000D01*
X160163000Y-82336000D02*
X160163000Y-87336000D01*
D13*
X149853000Y-80772000D02*
X149853000Y-75572000D01*
X149853000Y-75572000D02*
X147073000Y-75572000D01*
X147073000Y-75572000D02*
X147073000Y-80772000D01*
X147073000Y-80772000D02*
X149853000Y-80772000D01*
X149853000Y-82042000D02*
X149853000Y-83432000D01*
X149853000Y-83432000D02*
X148463000Y-83432000D01*
D12*
X153583000Y-99838000D02*
X153583000Y-96338000D01*
X153583000Y-96338000D02*
X158583000Y-96338000D01*
X158583000Y-96338000D02*
X158583000Y-99838000D01*
X158583000Y-99838000D02*
X153583000Y-99838000D01*
X147463000Y-112355000D02*
X143963000Y-112355000D01*
X143963000Y-112355000D02*
X143963000Y-107355000D01*
X143963000Y-107355000D02*
X147463000Y-107355000D01*
X147463000Y-107355000D02*
X147463000Y-112355000D01*
D13*
X144279000Y-98933000D02*
X144279000Y-104133000D01*
X144279000Y-104133000D02*
X147059000Y-104133000D01*
X147059000Y-104133000D02*
X147059000Y-98933000D01*
X147059000Y-98933000D02*
X144279000Y-98933000D01*
X144279000Y-97663000D02*
X144279000Y-96273000D01*
X144279000Y-96273000D02*
X145669000Y-96273000D01*
X154940000Y-103512000D02*
X149740000Y-103512000D01*
X149740000Y-103512000D02*
X149740000Y-106292000D01*
X149740000Y-106292000D02*
X154940000Y-106292000D01*
X154940000Y-106292000D02*
X154940000Y-103512000D01*
X156210000Y-103512000D02*
X157600000Y-103512000D01*
X157600000Y-103512000D02*
X157600000Y-104902000D01*
X136596000Y-82760000D02*
X139716000Y-82760000D01*
X136596000Y-84880000D02*
X139716000Y-84880000D01*
X136596000Y-82760000D02*
X136596000Y-82824000D01*
X136596000Y-84816000D02*
X136596000Y-84880000D01*
X139716000Y-82760000D02*
X139716000Y-82824000D01*
X139716000Y-84816000D02*
X139716000Y-84880000D01*
X117090000Y-72529000D02*
X117090000Y-61409000D01*
X124210000Y-72529000D02*
X124210000Y-61409000D01*
X117090000Y-72529000D02*
X124210000Y-72529000D01*
X117090000Y-61409000D02*
X124210000Y-61409000D01*
X117090000Y-71469000D02*
X124210000Y-71469000D01*
X117090000Y-62469000D02*
X124210000Y-62469000D01*
D12*
X150627000Y-88095000D02*
X150602000Y-88095000D01*
X150627000Y-92245000D02*
X150512000Y-92245000D01*
X141727000Y-92245000D02*
X141842000Y-92245000D01*
X141727000Y-88095000D02*
X141842000Y-88095000D01*
X150627000Y-88095000D02*
X150627000Y-92245000D01*
X141727000Y-88095000D02*
X141727000Y-92245000D01*
X150602000Y-88095000D02*
X150602000Y-86720000D01*
D13*
X157706000Y-63961000D02*
X157706000Y-55161000D01*
X157706000Y-55161000D02*
X166906000Y-55161000D01*
X160406000Y-69861000D02*
X157706000Y-69861000D01*
X157706000Y-69861000D02*
X157706000Y-67961000D01*
X166906000Y-55161000D02*
X166906000Y-69861000D01*
X166906000Y-69861000D02*
X164306000Y-69861000D01*
X154051000Y-112007000D02*
X156711000Y-112007000D01*
X156711000Y-112007000D02*
X156711000Y-109227000D01*
X156711000Y-109227000D02*
X154051000Y-109227000D01*
X154051000Y-109227000D02*
X154051000Y-112007000D01*
X152781000Y-112007000D02*
X151391000Y-112007000D01*
X151391000Y-112007000D02*
X151391000Y-110617000D01*
D12*
X137017286Y-80478381D02*
X137588715Y-80478381D01*
X137303000Y-81478381D02*
X137303000Y-80478381D01*
X137922048Y-81478381D02*
X137922048Y-80478381D01*
X137922048Y-80954571D02*
X138493477Y-80954571D01*
X138493477Y-81478381D02*
X138493477Y-80478381D01*
X138922048Y-80573619D02*
X138969667Y-80526000D01*
X139064905Y-80478381D01*
X139303001Y-80478381D01*
X139398239Y-80526000D01*
X139445858Y-80573619D01*
X139493477Y-80668857D01*
X139493477Y-80764095D01*
X139445858Y-80906952D01*
X138874429Y-81478381D01*
X139493477Y-81478381D01*
X155535334Y-90400143D02*
X155487715Y-90447762D01*
X155344858Y-90495381D01*
X155249620Y-90495381D01*
X155106762Y-90447762D01*
X155011524Y-90352524D01*
X154963905Y-90257286D01*
X154916286Y-90066810D01*
X154916286Y-89923952D01*
X154963905Y-89733476D01*
X155011524Y-89638238D01*
X155106762Y-89543000D01*
X155249620Y-89495381D01*
X155344858Y-89495381D01*
X155487715Y-89543000D01*
X155535334Y-89590619D01*
X156487715Y-90495381D02*
X155916286Y-90495381D01*
X156202000Y-90495381D02*
X156202000Y-89495381D01*
X156106762Y-89638238D01*
X156011524Y-89733476D01*
X155916286Y-89781095D01*
X161313905Y-113355381D02*
X161313905Y-112355381D01*
X161694858Y-112355381D01*
X161790096Y-112403000D01*
X161837715Y-112450619D01*
X161885334Y-112545857D01*
X161885334Y-112688714D01*
X161837715Y-112783952D01*
X161790096Y-112831571D01*
X161694858Y-112879190D01*
X161313905Y-112879190D01*
X162266286Y-112450619D02*
X162313905Y-112403000D01*
X162409143Y-112355381D01*
X162647239Y-112355381D01*
X162742477Y-112403000D01*
X162790096Y-112450619D01*
X162837715Y-112545857D01*
X162837715Y-112641095D01*
X162790096Y-112783952D01*
X162218667Y-113355381D01*
X162837715Y-113355381D01*
X161821905Y-101163381D02*
X161821905Y-100163381D01*
X162202858Y-100163381D01*
X162298096Y-100211000D01*
X162345715Y-100258619D01*
X162393334Y-100353857D01*
X162393334Y-100496714D01*
X162345715Y-100591952D01*
X162298096Y-100639571D01*
X162202858Y-100687190D01*
X161821905Y-100687190D01*
X163250477Y-100496714D02*
X163250477Y-101163381D01*
X163012381Y-100115762D02*
X162774286Y-100830048D01*
X163393334Y-100830048D01*
X159162762Y-91606619D02*
X159067524Y-91559000D01*
X158972286Y-91463762D01*
X158829429Y-91320905D01*
X158734190Y-91273286D01*
X158638952Y-91273286D01*
X158686571Y-91511381D02*
X158591333Y-91463762D01*
X158496095Y-91368524D01*
X158448476Y-91178048D01*
X158448476Y-90844714D01*
X158496095Y-90654238D01*
X158591333Y-90559000D01*
X158686571Y-90511381D01*
X158877048Y-90511381D01*
X158972286Y-90559000D01*
X159067524Y-90654238D01*
X159115143Y-90844714D01*
X159115143Y-91178048D01*
X159067524Y-91368524D01*
X158972286Y-91463762D01*
X158877048Y-91511381D01*
X158686571Y-91511381D01*
X160067524Y-91511381D02*
X159496095Y-91511381D01*
X159781809Y-91511381D02*
X159781809Y-90511381D01*
X159686571Y-90654238D01*
X159591333Y-90749476D01*
X159496095Y-90797095D01*
X115474762Y-87161619D02*
X115379524Y-87114000D01*
X115284286Y-87018762D01*
X115141429Y-86875905D01*
X115046190Y-86828286D01*
X114950952Y-86828286D01*
X114998571Y-87066381D02*
X114903333Y-87018762D01*
X114808095Y-86923524D01*
X114760476Y-86733048D01*
X114760476Y-86399714D01*
X114808095Y-86209238D01*
X114903333Y-86114000D01*
X114998571Y-86066381D01*
X115189048Y-86066381D01*
X115284286Y-86114000D01*
X115379524Y-86209238D01*
X115427143Y-86399714D01*
X115427143Y-86733048D01*
X115379524Y-86923524D01*
X115284286Y-87018762D01*
X115189048Y-87066381D01*
X114998571Y-87066381D01*
X115760476Y-86066381D02*
X116379524Y-86066381D01*
X116046190Y-86447333D01*
X116189048Y-86447333D01*
X116284286Y-86494952D01*
X116331905Y-86542571D01*
X116379524Y-86637810D01*
X116379524Y-86875905D01*
X116331905Y-86971143D01*
X116284286Y-87018762D01*
X116189048Y-87066381D01*
X115903333Y-87066381D01*
X115808095Y-87018762D01*
X115760476Y-86971143D01*
X138136334Y-75128381D02*
X137803000Y-74652190D01*
X137564905Y-75128381D02*
X137564905Y-74128381D01*
X137945858Y-74128381D01*
X138041096Y-74176000D01*
X138088715Y-74223619D01*
X138136334Y-74318857D01*
X138136334Y-74461714D01*
X138088715Y-74556952D01*
X138041096Y-74604571D01*
X137945858Y-74652190D01*
X137564905Y-74652190D01*
X139088715Y-75128381D02*
X138517286Y-75128381D01*
X138803000Y-75128381D02*
X138803000Y-74128381D01*
X138707762Y-74271238D01*
X138612524Y-74366476D01*
X138517286Y-74414095D01*
X153376334Y-83891381D02*
X153043000Y-83415190D01*
X152804905Y-83891381D02*
X152804905Y-82891381D01*
X153185858Y-82891381D01*
X153281096Y-82939000D01*
X153328715Y-82986619D01*
X153376334Y-83081857D01*
X153376334Y-83224714D01*
X153328715Y-83319952D01*
X153281096Y-83367571D01*
X153185858Y-83415190D01*
X152804905Y-83415190D01*
X153757286Y-82986619D02*
X153804905Y-82939000D01*
X153900143Y-82891381D01*
X154138239Y-82891381D01*
X154233477Y-82939000D01*
X154281096Y-82986619D01*
X154328715Y-83081857D01*
X154328715Y-83177095D01*
X154281096Y-83319952D01*
X153709667Y-83891381D01*
X154328715Y-83891381D01*
X143597334Y-75128381D02*
X143264000Y-74652190D01*
X143025905Y-75128381D02*
X143025905Y-74128381D01*
X143406858Y-74128381D01*
X143502096Y-74176000D01*
X143549715Y-74223619D01*
X143597334Y-74318857D01*
X143597334Y-74461714D01*
X143549715Y-74556952D01*
X143502096Y-74604571D01*
X143406858Y-74652190D01*
X143025905Y-74652190D01*
X143930667Y-74128381D02*
X144549715Y-74128381D01*
X144216381Y-74509333D01*
X144359239Y-74509333D01*
X144454477Y-74556952D01*
X144502096Y-74604571D01*
X144549715Y-74699810D01*
X144549715Y-74937905D01*
X144502096Y-75033143D01*
X144454477Y-75080762D01*
X144359239Y-75128381D01*
X144073524Y-75128381D01*
X143978286Y-75080762D01*
X143930667Y-75033143D01*
X143470334Y-84399381D02*
X143137000Y-83923190D01*
X142898905Y-84399381D02*
X142898905Y-83399381D01*
X143279858Y-83399381D01*
X143375096Y-83447000D01*
X143422715Y-83494619D01*
X143470334Y-83589857D01*
X143470334Y-83732714D01*
X143422715Y-83827952D01*
X143375096Y-83875571D01*
X143279858Y-83923190D01*
X142898905Y-83923190D01*
X144327477Y-83732714D02*
X144327477Y-84399381D01*
X144089381Y-83351762D02*
X143851286Y-84066048D01*
X144470334Y-84066048D01*
X143724334Y-78303381D02*
X143391000Y-77827190D01*
X143152905Y-78303381D02*
X143152905Y-77303381D01*
X143533858Y-77303381D01*
X143629096Y-77351000D01*
X143676715Y-77398619D01*
X143724334Y-77493857D01*
X143724334Y-77636714D01*
X143676715Y-77731952D01*
X143629096Y-77779571D01*
X143533858Y-77827190D01*
X143152905Y-77827190D01*
X144629096Y-77303381D02*
X144152905Y-77303381D01*
X144105286Y-77779571D01*
X144152905Y-77731952D01*
X144248143Y-77684333D01*
X144486239Y-77684333D01*
X144581477Y-77731952D01*
X144629096Y-77779571D01*
X144676715Y-77874810D01*
X144676715Y-78112905D01*
X144629096Y-78208143D01*
X144581477Y-78255762D01*
X144486239Y-78303381D01*
X144248143Y-78303381D01*
X144152905Y-78255762D01*
X144105286Y-78208143D01*
X147026334Y-70937381D02*
X146693000Y-70461190D01*
X146454905Y-70937381D02*
X146454905Y-69937381D01*
X146835858Y-69937381D01*
X146931096Y-69985000D01*
X146978715Y-70032619D01*
X147026334Y-70127857D01*
X147026334Y-70270714D01*
X146978715Y-70365952D01*
X146931096Y-70413571D01*
X146835858Y-70461190D01*
X146454905Y-70461190D01*
X147883477Y-69937381D02*
X147693000Y-69937381D01*
X147597762Y-69985000D01*
X147550143Y-70032619D01*
X147454905Y-70175476D01*
X147407286Y-70365952D01*
X147407286Y-70746905D01*
X147454905Y-70842143D01*
X147502524Y-70889762D01*
X147597762Y-70937381D01*
X147788239Y-70937381D01*
X147883477Y-70889762D01*
X147931096Y-70842143D01*
X147978715Y-70746905D01*
X147978715Y-70508810D01*
X147931096Y-70413571D01*
X147883477Y-70365952D01*
X147788239Y-70318333D01*
X147597762Y-70318333D01*
X147502524Y-70365952D01*
X147454905Y-70413571D01*
X147407286Y-70508810D01*
X153249334Y-78684381D02*
X152916000Y-78208190D01*
X152677905Y-78684381D02*
X152677905Y-77684381D01*
X153058858Y-77684381D01*
X153154096Y-77732000D01*
X153201715Y-77779619D01*
X153249334Y-77874857D01*
X153249334Y-78017714D01*
X153201715Y-78112952D01*
X153154096Y-78160571D01*
X153058858Y-78208190D01*
X152677905Y-78208190D01*
X153582667Y-77684381D02*
X154249334Y-77684381D01*
X153820762Y-78684381D01*
X138771334Y-70937381D02*
X138438000Y-70461190D01*
X138199905Y-70937381D02*
X138199905Y-69937381D01*
X138580858Y-69937381D01*
X138676096Y-69985000D01*
X138723715Y-70032619D01*
X138771334Y-70127857D01*
X138771334Y-70270714D01*
X138723715Y-70365952D01*
X138676096Y-70413571D01*
X138580858Y-70461190D01*
X138199905Y-70461190D01*
X139342762Y-70365952D02*
X139247524Y-70318333D01*
X139199905Y-70270714D01*
X139152286Y-70175476D01*
X139152286Y-70127857D01*
X139199905Y-70032619D01*
X139247524Y-69985000D01*
X139342762Y-69937381D01*
X139533239Y-69937381D01*
X139628477Y-69985000D01*
X139676096Y-70032619D01*
X139723715Y-70127857D01*
X139723715Y-70175476D01*
X139676096Y-70270714D01*
X139628477Y-70318333D01*
X139533239Y-70365952D01*
X139342762Y-70365952D01*
X139247524Y-70413571D01*
X139199905Y-70461190D01*
X139152286Y-70556429D01*
X139152286Y-70746905D01*
X139199905Y-70842143D01*
X139247524Y-70889762D01*
X139342762Y-70937381D01*
X139533239Y-70937381D01*
X139628477Y-70889762D01*
X139676096Y-70842143D01*
X139723715Y-70746905D01*
X139723715Y-70556429D01*
X139676096Y-70461190D01*
X139628477Y-70413571D01*
X139533239Y-70365952D01*
X138898334Y-97861381D02*
X138565000Y-97385190D01*
X138326905Y-97861381D02*
X138326905Y-96861381D01*
X138707858Y-96861381D01*
X138803096Y-96909000D01*
X138850715Y-96956619D01*
X138898334Y-97051857D01*
X138898334Y-97194714D01*
X138850715Y-97289952D01*
X138803096Y-97337571D01*
X138707858Y-97385190D01*
X138326905Y-97385190D01*
X139374524Y-97861381D02*
X139565000Y-97861381D01*
X139660239Y-97813762D01*
X139707858Y-97766143D01*
X139803096Y-97623286D01*
X139850715Y-97432810D01*
X139850715Y-97051857D01*
X139803096Y-96956619D01*
X139755477Y-96909000D01*
X139660239Y-96861381D01*
X139469762Y-96861381D01*
X139374524Y-96909000D01*
X139326905Y-96956619D01*
X139279286Y-97051857D01*
X139279286Y-97289952D01*
X139326905Y-97385190D01*
X139374524Y-97432810D01*
X139469762Y-97480429D01*
X139660239Y-97480429D01*
X139755477Y-97432810D01*
X139803096Y-97385190D01*
X139850715Y-97289952D01*
X138803143Y-94686381D02*
X138469809Y-94210190D01*
X138231714Y-94686381D02*
X138231714Y-93686381D01*
X138612667Y-93686381D01*
X138707905Y-93734000D01*
X138755524Y-93781619D01*
X138803143Y-93876857D01*
X138803143Y-94019714D01*
X138755524Y-94114952D01*
X138707905Y-94162571D01*
X138612667Y-94210190D01*
X138231714Y-94210190D01*
X139755524Y-94686381D02*
X139184095Y-94686381D01*
X139469809Y-94686381D02*
X139469809Y-93686381D01*
X139374571Y-93829238D01*
X139279333Y-93924476D01*
X139184095Y-93972095D01*
X140374571Y-93686381D02*
X140469810Y-93686381D01*
X140565048Y-93734000D01*
X140612667Y-93781619D01*
X140660286Y-93876857D01*
X140707905Y-94067333D01*
X140707905Y-94305429D01*
X140660286Y-94495905D01*
X140612667Y-94591143D01*
X140565048Y-94638762D01*
X140469810Y-94686381D01*
X140374571Y-94686381D01*
X140279333Y-94638762D01*
X140231714Y-94591143D01*
X140184095Y-94495905D01*
X140136476Y-94305429D01*
X140136476Y-94067333D01*
X140184095Y-93876857D01*
X140231714Y-93781619D01*
X140279333Y-93734000D01*
X140374571Y-93686381D01*
X150233143Y-101290381D02*
X149899809Y-100814190D01*
X149661714Y-101290381D02*
X149661714Y-100290381D01*
X150042667Y-100290381D01*
X150137905Y-100338000D01*
X150185524Y-100385619D01*
X150233143Y-100480857D01*
X150233143Y-100623714D01*
X150185524Y-100718952D01*
X150137905Y-100766571D01*
X150042667Y-100814190D01*
X149661714Y-100814190D01*
X151185524Y-101290381D02*
X150614095Y-101290381D01*
X150899809Y-101290381D02*
X150899809Y-100290381D01*
X150804571Y-100433238D01*
X150709333Y-100528476D01*
X150614095Y-100576095D01*
X151756952Y-100718952D02*
X151661714Y-100671333D01*
X151614095Y-100623714D01*
X151566476Y-100528476D01*
X151566476Y-100480857D01*
X151614095Y-100385619D01*
X151661714Y-100338000D01*
X151756952Y-100290381D01*
X151947429Y-100290381D01*
X152042667Y-100338000D01*
X152090286Y-100385619D01*
X152137905Y-100480857D01*
X152137905Y-100528476D01*
X152090286Y-100623714D01*
X152042667Y-100671333D01*
X151947429Y-100718952D01*
X151756952Y-100718952D01*
X151661714Y-100766571D01*
X151614095Y-100814190D01*
X151566476Y-100909429D01*
X151566476Y-101099905D01*
X151614095Y-101195143D01*
X151661714Y-101242762D01*
X151756952Y-101290381D01*
X151947429Y-101290381D01*
X152042667Y-101242762D01*
X152090286Y-101195143D01*
X152137905Y-101099905D01*
X152137905Y-100909429D01*
X152090286Y-100814190D01*
X152042667Y-100766571D01*
X151947429Y-100718952D01*
X138041143Y-107386381D02*
X137707809Y-106910190D01*
X137469714Y-107386381D02*
X137469714Y-106386381D01*
X137850667Y-106386381D01*
X137945905Y-106434000D01*
X137993524Y-106481619D01*
X138041143Y-106576857D01*
X138041143Y-106719714D01*
X137993524Y-106814952D01*
X137945905Y-106862571D01*
X137850667Y-106910190D01*
X137469714Y-106910190D01*
X138422095Y-106481619D02*
X138469714Y-106434000D01*
X138564952Y-106386381D01*
X138803048Y-106386381D01*
X138898286Y-106434000D01*
X138945905Y-106481619D01*
X138993524Y-106576857D01*
X138993524Y-106672095D01*
X138945905Y-106814952D01*
X138374476Y-107386381D01*
X138993524Y-107386381D01*
X139374476Y-106481619D02*
X139422095Y-106434000D01*
X139517333Y-106386381D01*
X139755429Y-106386381D01*
X139850667Y-106434000D01*
X139898286Y-106481619D01*
X139945905Y-106576857D01*
X139945905Y-106672095D01*
X139898286Y-106814952D01*
X139326857Y-107386381D01*
X139945905Y-107386381D01*
X120808905Y-111577381D02*
X120808905Y-110577381D01*
X120808905Y-111053571D02*
X121380334Y-111053571D01*
X121380334Y-111577381D02*
X121380334Y-110577381D01*
X121808905Y-111529762D02*
X121951762Y-111577381D01*
X122189858Y-111577381D01*
X122285096Y-111529762D01*
X122332715Y-111482143D01*
X122380334Y-111386905D01*
X122380334Y-111291667D01*
X122332715Y-111196429D01*
X122285096Y-111148810D01*
X122189858Y-111101190D01*
X121999381Y-111053571D01*
X121904143Y-111005952D01*
X121856524Y-110958333D01*
X121808905Y-110863095D01*
X121808905Y-110767857D01*
X121856524Y-110672619D01*
X121904143Y-110625000D01*
X121999381Y-110577381D01*
X122237477Y-110577381D01*
X122380334Y-110625000D01*
X123332715Y-111577381D02*
X122761286Y-111577381D01*
X123047000Y-111577381D02*
X123047000Y-110577381D01*
X122951762Y-110720238D01*
X122856524Y-110815476D01*
X122761286Y-110863095D01*
X137318762Y-88598619D02*
X137223524Y-88551000D01*
X137128286Y-88455762D01*
X136985429Y-88312905D01*
X136890190Y-88265286D01*
X136794952Y-88265286D01*
X136842571Y-88503381D02*
X136747333Y-88455762D01*
X136652095Y-88360524D01*
X136604476Y-88170048D01*
X136604476Y-87836714D01*
X136652095Y-87646238D01*
X136747333Y-87551000D01*
X136842571Y-87503381D01*
X137033048Y-87503381D01*
X137128286Y-87551000D01*
X137223524Y-87646238D01*
X137271143Y-87836714D01*
X137271143Y-88170048D01*
X137223524Y-88360524D01*
X137128286Y-88455762D01*
X137033048Y-88503381D01*
X136842571Y-88503381D01*
X137652095Y-87598619D02*
X137699714Y-87551000D01*
X137794952Y-87503381D01*
X138033048Y-87503381D01*
X138128286Y-87551000D01*
X138175905Y-87598619D01*
X138223524Y-87693857D01*
X138223524Y-87789095D01*
X138175905Y-87931952D01*
X137604476Y-88503381D01*
X138223524Y-88503381D01*
X158837334Y-78716143D02*
X158789715Y-78763762D01*
X158646858Y-78811381D01*
X158551620Y-78811381D01*
X158408762Y-78763762D01*
X158313524Y-78668524D01*
X158265905Y-78573286D01*
X158218286Y-78382810D01*
X158218286Y-78239952D01*
X158265905Y-78049476D01*
X158313524Y-77954238D01*
X158408762Y-77859000D01*
X158551620Y-77811381D01*
X158646858Y-77811381D01*
X158789715Y-77859000D01*
X158837334Y-77906619D01*
X159218286Y-77906619D02*
X159265905Y-77859000D01*
X159361143Y-77811381D01*
X159599239Y-77811381D01*
X159694477Y-77859000D01*
X159742096Y-77906619D01*
X159789715Y-78001857D01*
X159789715Y-78097095D01*
X159742096Y-78239952D01*
X159170667Y-78811381D01*
X159789715Y-78811381D01*
X153503334Y-75228143D02*
X153455715Y-75275762D01*
X153312858Y-75323381D01*
X153217620Y-75323381D01*
X153074762Y-75275762D01*
X152979524Y-75180524D01*
X152931905Y-75085286D01*
X152884286Y-74894810D01*
X152884286Y-74751952D01*
X152931905Y-74561476D01*
X152979524Y-74466238D01*
X153074762Y-74371000D01*
X153217620Y-74323381D01*
X153312858Y-74323381D01*
X153455715Y-74371000D01*
X153503334Y-74418619D01*
X153836667Y-74323381D02*
X154455715Y-74323381D01*
X154122381Y-74704333D01*
X154265239Y-74704333D01*
X154360477Y-74751952D01*
X154408096Y-74799571D01*
X154455715Y-74894810D01*
X154455715Y-75132905D01*
X154408096Y-75228143D01*
X154360477Y-75275762D01*
X154265239Y-75323381D01*
X153979524Y-75323381D01*
X153884286Y-75275762D01*
X153836667Y-75228143D01*
X139152334Y-103608143D02*
X139104715Y-103655762D01*
X138961858Y-103703381D01*
X138866620Y-103703381D01*
X138723762Y-103655762D01*
X138628524Y-103560524D01*
X138580905Y-103465286D01*
X138533286Y-103274810D01*
X138533286Y-103131952D01*
X138580905Y-102941476D01*
X138628524Y-102846238D01*
X138723762Y-102751000D01*
X138866620Y-102703381D01*
X138961858Y-102703381D01*
X139104715Y-102751000D01*
X139152334Y-102798619D01*
X140009477Y-103036714D02*
X140009477Y-103703381D01*
X139771381Y-102655762D02*
X139533286Y-103370048D01*
X140152334Y-103370048D01*
X136485334Y-100560143D02*
X136437715Y-100607762D01*
X136294858Y-100655381D01*
X136199620Y-100655381D01*
X136056762Y-100607762D01*
X135961524Y-100512524D01*
X135913905Y-100417286D01*
X135866286Y-100226810D01*
X135866286Y-100083952D01*
X135913905Y-99893476D01*
X135961524Y-99798238D01*
X136056762Y-99703000D01*
X136199620Y-99655381D01*
X136294858Y-99655381D01*
X136437715Y-99703000D01*
X136485334Y-99750619D01*
X137390096Y-99655381D02*
X136913905Y-99655381D01*
X136866286Y-100131571D01*
X136913905Y-100083952D01*
X137009143Y-100036333D01*
X137247239Y-100036333D01*
X137342477Y-100083952D01*
X137390096Y-100131571D01*
X137437715Y-100226810D01*
X137437715Y-100464905D01*
X137390096Y-100560143D01*
X137342477Y-100607762D01*
X137247239Y-100655381D01*
X137009143Y-100655381D01*
X136913905Y-100607762D01*
X136866286Y-100560143D01*
X166584334Y-84431143D02*
X166536715Y-84478762D01*
X166393858Y-84526381D01*
X166298620Y-84526381D01*
X166155762Y-84478762D01*
X166060524Y-84383524D01*
X166012905Y-84288286D01*
X165965286Y-84097810D01*
X165965286Y-83954952D01*
X166012905Y-83764476D01*
X166060524Y-83669238D01*
X166155762Y-83574000D01*
X166298620Y-83526381D01*
X166393858Y-83526381D01*
X166536715Y-83574000D01*
X166584334Y-83621619D01*
X167441477Y-83526381D02*
X167251000Y-83526381D01*
X167155762Y-83574000D01*
X167108143Y-83621619D01*
X167012905Y-83764476D01*
X166965286Y-83954952D01*
X166965286Y-84335905D01*
X167012905Y-84431143D01*
X167060524Y-84478762D01*
X167155762Y-84526381D01*
X167346239Y-84526381D01*
X167441477Y-84478762D01*
X167489096Y-84431143D01*
X167536715Y-84335905D01*
X167536715Y-84097810D01*
X167489096Y-84002571D01*
X167441477Y-83954952D01*
X167346239Y-83907333D01*
X167155762Y-83907333D01*
X167060524Y-83954952D01*
X167012905Y-84002571D01*
X166965286Y-84097810D01*
X145311905Y-62301381D02*
X145311905Y-61301381D01*
X145550000Y-61301381D01*
X145692858Y-61349000D01*
X145788096Y-61444238D01*
X145835715Y-61539476D01*
X145883334Y-61729952D01*
X145883334Y-61872810D01*
X145835715Y-62063286D01*
X145788096Y-62158524D01*
X145692858Y-62253762D01*
X145550000Y-62301381D01*
X145311905Y-62301381D01*
X146835715Y-62301381D02*
X146264286Y-62301381D01*
X146550000Y-62301381D02*
X146550000Y-61301381D01*
X146454762Y-61444238D01*
X146359524Y-61539476D01*
X146264286Y-61587095D01*
X137056905Y-62174381D02*
X137056905Y-61174381D01*
X137295000Y-61174381D01*
X137437858Y-61222000D01*
X137533096Y-61317238D01*
X137580715Y-61412476D01*
X137628334Y-61602952D01*
X137628334Y-61745810D01*
X137580715Y-61936286D01*
X137533096Y-62031524D01*
X137437858Y-62126762D01*
X137295000Y-62174381D01*
X137056905Y-62174381D01*
X138009286Y-61269619D02*
X138056905Y-61222000D01*
X138152143Y-61174381D01*
X138390239Y-61174381D01*
X138485477Y-61222000D01*
X138533096Y-61269619D01*
X138580715Y-61364857D01*
X138580715Y-61460095D01*
X138533096Y-61602952D01*
X137961667Y-62174381D01*
X138580715Y-62174381D01*
X167917905Y-97988381D02*
X167917905Y-96988381D01*
X168156000Y-96988381D01*
X168298858Y-97036000D01*
X168394096Y-97131238D01*
X168441715Y-97226476D01*
X168489334Y-97416952D01*
X168489334Y-97559810D01*
X168441715Y-97750286D01*
X168394096Y-97845524D01*
X168298858Y-97940762D01*
X168156000Y-97988381D01*
X167917905Y-97988381D01*
X168822667Y-96988381D02*
X169441715Y-96988381D01*
X169108381Y-97369333D01*
X169251239Y-97369333D01*
X169346477Y-97416952D01*
X169394096Y-97464571D01*
X169441715Y-97559810D01*
X169441715Y-97797905D01*
X169394096Y-97893143D01*
X169346477Y-97940762D01*
X169251239Y-97988381D01*
X168965524Y-97988381D01*
X168870286Y-97940762D01*
X168822667Y-97893143D01*
X130167143Y-110053381D02*
X129833809Y-109577190D01*
X129595714Y-110053381D02*
X129595714Y-109053381D01*
X129976667Y-109053381D01*
X130071905Y-109101000D01*
X130119524Y-109148619D01*
X130167143Y-109243857D01*
X130167143Y-109386714D01*
X130119524Y-109481952D01*
X130071905Y-109529571D01*
X129976667Y-109577190D01*
X129595714Y-109577190D01*
X131119524Y-110053381D02*
X130548095Y-110053381D01*
X130833809Y-110053381D02*
X130833809Y-109053381D01*
X130738571Y-109196238D01*
X130643333Y-109291476D01*
X130548095Y-109339095D01*
X132071905Y-110053381D02*
X131500476Y-110053381D01*
X131786190Y-110053381D02*
X131786190Y-109053381D01*
X131690952Y-109196238D01*
X131595714Y-109291476D01*
X131500476Y-109339095D01*
X130040143Y-104465381D02*
X129706809Y-103989190D01*
X129468714Y-104465381D02*
X129468714Y-103465381D01*
X129849667Y-103465381D01*
X129944905Y-103513000D01*
X129992524Y-103560619D01*
X130040143Y-103655857D01*
X130040143Y-103798714D01*
X129992524Y-103893952D01*
X129944905Y-103941571D01*
X129849667Y-103989190D01*
X129468714Y-103989190D01*
X130992524Y-104465381D02*
X130421095Y-104465381D01*
X130706809Y-104465381D02*
X130706809Y-103465381D01*
X130611571Y-103608238D01*
X130516333Y-103703476D01*
X130421095Y-103751095D01*
X131373476Y-103560619D02*
X131421095Y-103513000D01*
X131516333Y-103465381D01*
X131754429Y-103465381D01*
X131849667Y-103513000D01*
X131897286Y-103560619D01*
X131944905Y-103655857D01*
X131944905Y-103751095D01*
X131897286Y-103893952D01*
X131325857Y-104465381D01*
X131944905Y-104465381D01*
X130040143Y-99131381D02*
X129706809Y-98655190D01*
X129468714Y-99131381D02*
X129468714Y-98131381D01*
X129849667Y-98131381D01*
X129944905Y-98179000D01*
X129992524Y-98226619D01*
X130040143Y-98321857D01*
X130040143Y-98464714D01*
X129992524Y-98559952D01*
X129944905Y-98607571D01*
X129849667Y-98655190D01*
X129468714Y-98655190D01*
X130992524Y-99131381D02*
X130421095Y-99131381D01*
X130706809Y-99131381D02*
X130706809Y-98131381D01*
X130611571Y-98274238D01*
X130516333Y-98369476D01*
X130421095Y-98417095D01*
X131325857Y-98131381D02*
X131944905Y-98131381D01*
X131611571Y-98512333D01*
X131754429Y-98512333D01*
X131849667Y-98559952D01*
X131897286Y-98607571D01*
X131944905Y-98702810D01*
X131944905Y-98940905D01*
X131897286Y-99036143D01*
X131849667Y-99083762D01*
X131754429Y-99131381D01*
X131468714Y-99131381D01*
X131373476Y-99083762D01*
X131325857Y-99036143D01*
X130040143Y-93797381D02*
X129706809Y-93321190D01*
X129468714Y-93797381D02*
X129468714Y-92797381D01*
X129849667Y-92797381D01*
X129944905Y-92845000D01*
X129992524Y-92892619D01*
X130040143Y-92987857D01*
X130040143Y-93130714D01*
X129992524Y-93225952D01*
X129944905Y-93273571D01*
X129849667Y-93321190D01*
X129468714Y-93321190D01*
X130992524Y-93797381D02*
X130421095Y-93797381D01*
X130706809Y-93797381D02*
X130706809Y-92797381D01*
X130611571Y-92940238D01*
X130516333Y-93035476D01*
X130421095Y-93083095D01*
X131849667Y-93130714D02*
X131849667Y-93797381D01*
X131611571Y-92749762D02*
X131373476Y-93464048D01*
X131992524Y-93464048D01*
X129913143Y-88717381D02*
X129579809Y-88241190D01*
X129341714Y-88717381D02*
X129341714Y-87717381D01*
X129722667Y-87717381D01*
X129817905Y-87765000D01*
X129865524Y-87812619D01*
X129913143Y-87907857D01*
X129913143Y-88050714D01*
X129865524Y-88145952D01*
X129817905Y-88193571D01*
X129722667Y-88241190D01*
X129341714Y-88241190D01*
X130865524Y-88717381D02*
X130294095Y-88717381D01*
X130579809Y-88717381D02*
X130579809Y-87717381D01*
X130484571Y-87860238D01*
X130389333Y-87955476D01*
X130294095Y-88003095D01*
X131770286Y-87717381D02*
X131294095Y-87717381D01*
X131246476Y-88193571D01*
X131294095Y-88145952D01*
X131389333Y-88098333D01*
X131627429Y-88098333D01*
X131722667Y-88145952D01*
X131770286Y-88193571D01*
X131817905Y-88288810D01*
X131817905Y-88526905D01*
X131770286Y-88622143D01*
X131722667Y-88669762D01*
X131627429Y-88717381D01*
X131389333Y-88717381D01*
X131294095Y-88669762D01*
X131246476Y-88622143D01*
X130167143Y-83129381D02*
X129833809Y-82653190D01*
X129595714Y-83129381D02*
X129595714Y-82129381D01*
X129976667Y-82129381D01*
X130071905Y-82177000D01*
X130119524Y-82224619D01*
X130167143Y-82319857D01*
X130167143Y-82462714D01*
X130119524Y-82557952D01*
X130071905Y-82605571D01*
X129976667Y-82653190D01*
X129595714Y-82653190D01*
X131119524Y-83129381D02*
X130548095Y-83129381D01*
X130833809Y-83129381D02*
X130833809Y-82129381D01*
X130738571Y-82272238D01*
X130643333Y-82367476D01*
X130548095Y-82415095D01*
X131976667Y-82129381D02*
X131786190Y-82129381D01*
X131690952Y-82177000D01*
X131643333Y-82224619D01*
X131548095Y-82367476D01*
X131500476Y-82557952D01*
X131500476Y-82938905D01*
X131548095Y-83034143D01*
X131595714Y-83081762D01*
X131690952Y-83129381D01*
X131881429Y-83129381D01*
X131976667Y-83081762D01*
X132024286Y-83034143D01*
X132071905Y-82938905D01*
X132071905Y-82700810D01*
X132024286Y-82605571D01*
X131976667Y-82557952D01*
X131881429Y-82510333D01*
X131690952Y-82510333D01*
X131595714Y-82557952D01*
X131548095Y-82605571D01*
X131500476Y-82700810D01*
X129913143Y-77795381D02*
X129579809Y-77319190D01*
X129341714Y-77795381D02*
X129341714Y-76795381D01*
X129722667Y-76795381D01*
X129817905Y-76843000D01*
X129865524Y-76890619D01*
X129913143Y-76985857D01*
X129913143Y-77128714D01*
X129865524Y-77223952D01*
X129817905Y-77271571D01*
X129722667Y-77319190D01*
X129341714Y-77319190D01*
X130865524Y-77795381D02*
X130294095Y-77795381D01*
X130579809Y-77795381D02*
X130579809Y-76795381D01*
X130484571Y-76938238D01*
X130389333Y-77033476D01*
X130294095Y-77081095D01*
X131198857Y-76795381D02*
X131865524Y-76795381D01*
X131436952Y-77795381D01*
X130040143Y-72461381D02*
X129706809Y-71985190D01*
X129468714Y-72461381D02*
X129468714Y-71461381D01*
X129849667Y-71461381D01*
X129944905Y-71509000D01*
X129992524Y-71556619D01*
X130040143Y-71651857D01*
X130040143Y-71794714D01*
X129992524Y-71889952D01*
X129944905Y-71937571D01*
X129849667Y-71985190D01*
X129468714Y-71985190D01*
X130992524Y-72461381D02*
X130421095Y-72461381D01*
X130706809Y-72461381D02*
X130706809Y-71461381D01*
X130611571Y-71604238D01*
X130516333Y-71699476D01*
X130421095Y-71747095D01*
X131468714Y-72461381D02*
X131659190Y-72461381D01*
X131754429Y-72413762D01*
X131802048Y-72366143D01*
X131897286Y-72223286D01*
X131944905Y-72032810D01*
X131944905Y-71651857D01*
X131897286Y-71556619D01*
X131849667Y-71509000D01*
X131754429Y-71461381D01*
X131563952Y-71461381D01*
X131468714Y-71509000D01*
X131421095Y-71556619D01*
X131373476Y-71651857D01*
X131373476Y-71889952D01*
X131421095Y-71985190D01*
X131468714Y-72032810D01*
X131563952Y-72080429D01*
X131754429Y-72080429D01*
X131849667Y-72032810D01*
X131897286Y-71985190D01*
X131944905Y-71889952D01*
X130294143Y-67254381D02*
X129960809Y-66778190D01*
X129722714Y-67254381D02*
X129722714Y-66254381D01*
X130103667Y-66254381D01*
X130198905Y-66302000D01*
X130246524Y-66349619D01*
X130294143Y-66444857D01*
X130294143Y-66587714D01*
X130246524Y-66682952D01*
X130198905Y-66730571D01*
X130103667Y-66778190D01*
X129722714Y-66778190D01*
X130675095Y-66349619D02*
X130722714Y-66302000D01*
X130817952Y-66254381D01*
X131056048Y-66254381D01*
X131151286Y-66302000D01*
X131198905Y-66349619D01*
X131246524Y-66444857D01*
X131246524Y-66540095D01*
X131198905Y-66682952D01*
X130627476Y-67254381D01*
X131246524Y-67254381D01*
X131865571Y-66254381D02*
X131960810Y-66254381D01*
X132056048Y-66302000D01*
X132103667Y-66349619D01*
X132151286Y-66444857D01*
X132198905Y-66635333D01*
X132198905Y-66873429D01*
X132151286Y-67063905D01*
X132103667Y-67159143D01*
X132056048Y-67206762D01*
X131960810Y-67254381D01*
X131865571Y-67254381D01*
X131770333Y-67206762D01*
X131722714Y-67159143D01*
X131675095Y-67063905D01*
X131627476Y-66873429D01*
X131627476Y-66635333D01*
X131675095Y-66444857D01*
X131722714Y-66349619D01*
X131770333Y-66302000D01*
X131865571Y-66254381D01*
X130167143Y-61920381D02*
X129833809Y-61444190D01*
X129595714Y-61920381D02*
X129595714Y-60920381D01*
X129976667Y-60920381D01*
X130071905Y-60968000D01*
X130119524Y-61015619D01*
X130167143Y-61110857D01*
X130167143Y-61253714D01*
X130119524Y-61348952D01*
X130071905Y-61396571D01*
X129976667Y-61444190D01*
X129595714Y-61444190D01*
X130548095Y-61015619D02*
X130595714Y-60968000D01*
X130690952Y-60920381D01*
X130929048Y-60920381D01*
X131024286Y-60968000D01*
X131071905Y-61015619D01*
X131119524Y-61110857D01*
X131119524Y-61206095D01*
X131071905Y-61348952D01*
X130500476Y-61920381D01*
X131119524Y-61920381D01*
X132071905Y-61920381D02*
X131500476Y-61920381D01*
X131786190Y-61920381D02*
X131786190Y-60920381D01*
X131690952Y-61063238D01*
X131595714Y-61158476D01*
X131500476Y-61206095D01*
X157900762Y-88717381D02*
X157567428Y-88241190D01*
X157329333Y-88717381D02*
X157329333Y-87717381D01*
X157710286Y-87717381D01*
X157805524Y-87765000D01*
X157853143Y-87812619D01*
X157900762Y-87907857D01*
X157900762Y-88050714D01*
X157853143Y-88145952D01*
X157805524Y-88193571D01*
X157710286Y-88241190D01*
X157329333Y-88241190D01*
X158186476Y-87717381D02*
X158519809Y-88717381D01*
X158853143Y-87717381D01*
X159710286Y-88717381D02*
X159138857Y-88717381D01*
X159424571Y-88717381D02*
X159424571Y-87717381D01*
X159329333Y-87860238D01*
X159234095Y-87955476D01*
X159138857Y-88003095D01*
X147867762Y-84399381D02*
X147534428Y-83923190D01*
X147296333Y-84399381D02*
X147296333Y-83399381D01*
X147677286Y-83399381D01*
X147772524Y-83447000D01*
X147820143Y-83494619D01*
X147867762Y-83589857D01*
X147867762Y-83732714D01*
X147820143Y-83827952D01*
X147772524Y-83875571D01*
X147677286Y-83923190D01*
X147296333Y-83923190D01*
X148153476Y-83399381D02*
X148486809Y-84399381D01*
X148820143Y-83399381D01*
X149105857Y-83494619D02*
X149153476Y-83447000D01*
X149248714Y-83399381D01*
X149486810Y-83399381D01*
X149582048Y-83447000D01*
X149629667Y-83494619D01*
X149677286Y-83589857D01*
X149677286Y-83685095D01*
X149629667Y-83827952D01*
X149058238Y-84399381D01*
X149677286Y-84399381D01*
X158535762Y-101290381D02*
X158202428Y-100814190D01*
X157964333Y-101290381D02*
X157964333Y-100290381D01*
X158345286Y-100290381D01*
X158440524Y-100338000D01*
X158488143Y-100385619D01*
X158535762Y-100480857D01*
X158535762Y-100623714D01*
X158488143Y-100718952D01*
X158440524Y-100766571D01*
X158345286Y-100814190D01*
X157964333Y-100814190D01*
X158821476Y-100290381D02*
X159154809Y-101290381D01*
X159488143Y-100290381D01*
X159726238Y-100290381D02*
X160345286Y-100290381D01*
X160011952Y-100671333D01*
X160154810Y-100671333D01*
X160250048Y-100718952D01*
X160297667Y-100766571D01*
X160345286Y-100861810D01*
X160345286Y-101099905D01*
X160297667Y-101195143D01*
X160250048Y-101242762D01*
X160154810Y-101290381D01*
X159869095Y-101290381D01*
X159773857Y-101242762D01*
X159726238Y-101195143D01*
X145327762Y-113609381D02*
X144994428Y-113133190D01*
X144756333Y-113609381D02*
X144756333Y-112609381D01*
X145137286Y-112609381D01*
X145232524Y-112657000D01*
X145280143Y-112704619D01*
X145327762Y-112799857D01*
X145327762Y-112942714D01*
X145280143Y-113037952D01*
X145232524Y-113085571D01*
X145137286Y-113133190D01*
X144756333Y-113133190D01*
X145613476Y-112609381D02*
X145946809Y-113609381D01*
X146280143Y-112609381D01*
X147042048Y-112942714D02*
X147042048Y-113609381D01*
X146803952Y-112561762D02*
X146565857Y-113276048D01*
X147184905Y-113276048D01*
X144335667Y-95677762D02*
X144478524Y-95725381D01*
X144716620Y-95725381D01*
X144811858Y-95677762D01*
X144859477Y-95630143D01*
X144907096Y-95534905D01*
X144907096Y-95439667D01*
X144859477Y-95344429D01*
X144811858Y-95296810D01*
X144716620Y-95249190D01*
X144526143Y-95201571D01*
X144430905Y-95153952D01*
X144383286Y-95106333D01*
X144335667Y-95011095D01*
X144335667Y-94915857D01*
X144383286Y-94820619D01*
X144430905Y-94773000D01*
X144526143Y-94725381D01*
X144764239Y-94725381D01*
X144907096Y-94773000D01*
X145240429Y-94725381D02*
X145478524Y-95725381D01*
X145669001Y-95011095D01*
X145859477Y-95725381D01*
X146097572Y-94725381D01*
X147002334Y-95725381D02*
X146430905Y-95725381D01*
X146716619Y-95725381D02*
X146716619Y-94725381D01*
X146621381Y-94868238D01*
X146526143Y-94963476D01*
X146430905Y-95011095D01*
X152971667Y-107465762D02*
X153114524Y-107513381D01*
X153352620Y-107513381D01*
X153447858Y-107465762D01*
X153495477Y-107418143D01*
X153543096Y-107322905D01*
X153543096Y-107227667D01*
X153495477Y-107132429D01*
X153447858Y-107084810D01*
X153352620Y-107037190D01*
X153162143Y-106989571D01*
X153066905Y-106941952D01*
X153019286Y-106894333D01*
X152971667Y-106799095D01*
X152971667Y-106703857D01*
X153019286Y-106608619D01*
X153066905Y-106561000D01*
X153162143Y-106513381D01*
X153400239Y-106513381D01*
X153543096Y-106561000D01*
X153876429Y-106513381D02*
X154114524Y-107513381D01*
X154305001Y-106799095D01*
X154495477Y-107513381D01*
X154733572Y-106513381D01*
X155066905Y-106608619D02*
X155114524Y-106561000D01*
X155209762Y-106513381D01*
X155447858Y-106513381D01*
X155543096Y-106561000D01*
X155590715Y-106608619D01*
X155638334Y-106703857D01*
X155638334Y-106799095D01*
X155590715Y-106941952D01*
X155019286Y-107513381D01*
X155638334Y-107513381D01*
X137017286Y-85177381D02*
X137588715Y-85177381D01*
X137303000Y-86177381D02*
X137303000Y-85177381D01*
X137922048Y-86177381D02*
X137922048Y-85177381D01*
X137922048Y-85653571D02*
X138493477Y-85653571D01*
X138493477Y-86177381D02*
X138493477Y-85177381D01*
X139493477Y-86177381D02*
X138922048Y-86177381D01*
X139207762Y-86177381D02*
X139207762Y-85177381D01*
X139112524Y-85320238D01*
X139017286Y-85415476D01*
X138922048Y-85463095D01*
X114133476Y-66508381D02*
X114466809Y-67508381D01*
X114800143Y-66508381D01*
X115704905Y-67508381D02*
X115371571Y-67032190D01*
X115133476Y-67508381D02*
X115133476Y-66508381D01*
X115514429Y-66508381D01*
X115609667Y-66556000D01*
X115657286Y-66603619D01*
X115704905Y-66698857D01*
X115704905Y-66841714D01*
X115657286Y-66936952D01*
X115609667Y-66984571D01*
X115514429Y-67032190D01*
X115133476Y-67032190D01*
X116657286Y-67508381D02*
X116085857Y-67508381D01*
X116371571Y-67508381D02*
X116371571Y-66508381D01*
X116276333Y-66651238D01*
X116181095Y-66746476D01*
X116085857Y-66794095D01*
X150790095Y-89622381D02*
X150790095Y-90431905D01*
X150837714Y-90527143D01*
X150885333Y-90574762D01*
X150980571Y-90622381D01*
X151171048Y-90622381D01*
X151266286Y-90574762D01*
X151313905Y-90527143D01*
X151361524Y-90431905D01*
X151361524Y-89622381D01*
X152361524Y-90622381D02*
X151790095Y-90622381D01*
X152075809Y-90622381D02*
X152075809Y-89622381D01*
X151980571Y-89765238D01*
X151885333Y-89860476D01*
X151790095Y-89908095D01*
X155622667Y-62444381D02*
X155622667Y-63158667D01*
X155575047Y-63301524D01*
X155479809Y-63396762D01*
X155336952Y-63444381D01*
X155241714Y-63444381D01*
X156622667Y-63444381D02*
X156051238Y-63444381D01*
X156336952Y-63444381D02*
X156336952Y-62444381D01*
X156241714Y-62587238D01*
X156146476Y-62682476D01*
X156051238Y-62730095D01*
X153312905Y-113482381D02*
X153312905Y-112482381D01*
X153693858Y-112482381D01*
X153789096Y-112530000D01*
X153836715Y-112577619D01*
X153884334Y-112672857D01*
X153884334Y-112815714D01*
X153836715Y-112910952D01*
X153789096Y-112958571D01*
X153693858Y-113006190D01*
X153312905Y-113006190D01*
X154836715Y-113482381D02*
X154265286Y-113482381D01*
X154551000Y-113482381D02*
X154551000Y-112482381D01*
X154455762Y-112625238D01*
X154360524Y-112720476D01*
X154265286Y-112768095D01*
X109370905Y-62174381D02*
X109370905Y-61174381D01*
X109751858Y-61174381D01*
X109847096Y-61222000D01*
X109894715Y-61269619D01*
X109942334Y-61364857D01*
X109942334Y-61507714D01*
X109894715Y-61602952D01*
X109847096Y-61650571D01*
X109751858Y-61698190D01*
X109370905Y-61698190D01*
X110275667Y-61174381D02*
X110894715Y-61174381D01*
X110561381Y-61555333D01*
X110704239Y-61555333D01*
X110799477Y-61602952D01*
X110847096Y-61650571D01*
X110894715Y-61745810D01*
X110894715Y-61983905D01*
X110847096Y-62079143D01*
X110799477Y-62126762D01*
X110704239Y-62174381D01*
X110418524Y-62174381D01*
X110323286Y-62126762D01*
X110275667Y-62079143D01*
M02*
