G04 #@! TF.FileFunction,Copper,L2,Bot,Signal*
%FSLAX46Y46*%
G04 Gerber Fmt 4.6, Leading zero omitted, Abs format (unit mm)*
G04 Created by KiCad (PCBNEW 4.0.1-stable) date 10/30/2017 21:56:45*
%MOMM*%
G01*
G04 APERTURE LIST*
%ADD10C,0.100000*%
%ADD11C,0.300000*%
%ADD12R,1.700000X1.700000*%
%ADD13O,1.700000X1.700000*%
%ADD14C,1.000000*%
%ADD15R,1.000000X1.000000*%
%ADD16O,2.499360X1.501140*%
%ADD17C,3.000000*%
%ADD18R,1.800000X1.800000*%
%ADD19C,1.800000*%
%ADD20C,2.400000*%
%ADD21O,2.400000X2.400000*%
%ADD22C,1.600000*%
%ADD23R,3.500000X3.500000*%
%ADD24C,4.500880*%
%ADD25C,0.685800*%
%ADD26C,0.254000*%
G04 APERTURE END LIST*
D10*
D11*
X169116429Y-112605429D02*
X169187858Y-112534000D01*
X169330715Y-112462571D01*
X169687858Y-112462571D01*
X169830715Y-112534000D01*
X169902144Y-112605429D01*
X169973572Y-112748286D01*
X169973572Y-112891143D01*
X169902144Y-113105429D01*
X169045001Y-113962571D01*
X169973572Y-113962571D01*
D12*
X160909000Y-110617000D03*
D13*
X163449000Y-110617000D03*
D12*
X162306000Y-98425000D03*
D13*
X162306000Y-95885000D03*
D14*
X161544000Y-91059000D03*
X162814000Y-89789000D03*
D15*
X162814000Y-92329000D03*
D16*
X115697000Y-93345000D03*
X115697000Y-95885000D03*
X115697000Y-90805000D03*
D17*
X111887000Y-80645000D03*
X111887000Y-106045000D03*
D18*
X149479000Y-63119000D03*
D19*
X149479000Y-65659000D03*
D18*
X141224000Y-63119000D03*
D19*
X141224000Y-65659000D03*
D20*
X127762000Y-111760000D03*
D21*
X132842000Y-111760000D03*
D20*
X127698500Y-106489500D03*
D21*
X132778500Y-106489500D03*
D20*
X127698500Y-101155500D03*
D21*
X132778500Y-101155500D03*
D20*
X127698500Y-95821500D03*
D21*
X132778500Y-95821500D03*
D20*
X127698500Y-90487500D03*
D21*
X132778500Y-90487500D03*
D20*
X127698500Y-85153500D03*
D21*
X132778500Y-85153500D03*
D20*
X127698500Y-79819500D03*
D21*
X132778500Y-79819500D03*
D20*
X127698500Y-74485500D03*
D21*
X132778500Y-74485500D03*
D20*
X127698500Y-69151500D03*
D21*
X132778500Y-69151500D03*
D20*
X127698500Y-63817500D03*
D21*
X132778500Y-63817500D03*
D12*
X148463000Y-82042000D03*
D13*
X148463000Y-79502000D03*
X148463000Y-76962000D03*
D12*
X145669000Y-97663000D03*
D13*
X145669000Y-100203000D03*
X145669000Y-102743000D03*
D12*
X156210000Y-104902000D03*
D13*
X153670000Y-104902000D03*
X151130000Y-104902000D03*
D22*
X136906000Y-83820000D03*
X139406000Y-83820000D03*
D20*
X120650000Y-69469000D03*
X120650000Y-64469000D03*
D23*
X162306000Y-68961000D03*
X162306000Y-62961000D03*
X157606000Y-65961000D03*
D12*
X152781000Y-110617000D03*
D13*
X155321000Y-110617000D03*
D24*
X112966500Y-63944500D03*
X112966500Y-70294500D03*
D25*
X163068000Y-84836000D03*
X162687000Y-88011000D03*
X158750000Y-80137000D03*
X156845000Y-72771000D03*
X153543000Y-93091000D03*
X136652000Y-100330000D03*
X135255000Y-91440000D03*
X140970000Y-79375000D03*
X146177000Y-94361000D03*
X157226000Y-97409000D03*
X145161000Y-108712000D03*
X141224000Y-84201000D03*
X141224000Y-86868000D03*
X136652000Y-94234000D03*
X146177000Y-90678000D03*
D26*
X141224000Y-86868000D02*
X141224000Y-84201000D01*
X118364000Y-93218000D02*
X115697000Y-95885000D01*
X135636000Y-93218000D02*
X118364000Y-93218000D01*
X136652000Y-94234000D02*
X135636000Y-93218000D01*
X148463000Y-82042000D02*
X148463000Y-88392000D01*
X148463000Y-88392000D02*
X146177000Y-90678000D01*
G36*
X111334165Y-61496917D02*
X110521769Y-62307896D01*
X110081562Y-63368033D01*
X110080560Y-64515931D01*
X110518917Y-65576835D01*
X111329896Y-66389231D01*
X112390033Y-66829438D01*
X113537931Y-66830440D01*
X114598835Y-66392083D01*
X115411231Y-65581104D01*
X115722118Y-64832403D01*
X118814682Y-64832403D01*
X119093455Y-65507086D01*
X119609199Y-66023730D01*
X120283395Y-66303681D01*
X121013403Y-66304318D01*
X121688086Y-66025545D01*
X121750749Y-65962991D01*
X139688735Y-65962991D01*
X139921932Y-66527371D01*
X140353357Y-66959551D01*
X140917330Y-67193733D01*
X141527991Y-67194265D01*
X142092371Y-66961068D01*
X142524551Y-66529643D01*
X142758733Y-65965670D01*
X142758735Y-65962991D01*
X147943735Y-65962991D01*
X148176932Y-66527371D01*
X148608357Y-66959551D01*
X149172330Y-67193733D01*
X149782991Y-67194265D01*
X150347371Y-66961068D01*
X150779551Y-66529643D01*
X150897018Y-66246750D01*
X155221000Y-66246750D01*
X155221000Y-67837309D01*
X155317673Y-68070698D01*
X155496301Y-68249327D01*
X155729690Y-68346000D01*
X157320250Y-68346000D01*
X157479000Y-68187250D01*
X157479000Y-66088000D01*
X157733000Y-66088000D01*
X157733000Y-68187250D01*
X157891750Y-68346000D01*
X159482310Y-68346000D01*
X159715699Y-68249327D01*
X159894327Y-68070698D01*
X159908560Y-68036337D01*
X159908560Y-70711000D01*
X159952838Y-70946317D01*
X160091910Y-71162441D01*
X160304110Y-71307431D01*
X160556000Y-71358440D01*
X164056000Y-71358440D01*
X164291317Y-71314162D01*
X164507441Y-71175090D01*
X164652431Y-70962890D01*
X164703440Y-70711000D01*
X164703440Y-67211000D01*
X164659162Y-66975683D01*
X164520090Y-66759559D01*
X164307890Y-66614569D01*
X164056000Y-66563560D01*
X160556000Y-66563560D01*
X160320683Y-66607838D01*
X160104559Y-66746910D01*
X159991000Y-66913109D01*
X159991000Y-66246750D01*
X159832250Y-66088000D01*
X157733000Y-66088000D01*
X157479000Y-66088000D01*
X155379750Y-66088000D01*
X155221000Y-66246750D01*
X150897018Y-66246750D01*
X151013733Y-65965670D01*
X151014265Y-65355009D01*
X150781068Y-64790629D01*
X150603908Y-64613159D01*
X150738699Y-64557327D01*
X150917327Y-64378698D01*
X151014000Y-64145309D01*
X151014000Y-64084691D01*
X155221000Y-64084691D01*
X155221000Y-65675250D01*
X155379750Y-65834000D01*
X157479000Y-65834000D01*
X157479000Y-63734750D01*
X157733000Y-63734750D01*
X157733000Y-65834000D01*
X159832250Y-65834000D01*
X159991000Y-65675250D01*
X159991000Y-65006304D01*
X160017673Y-65070698D01*
X160196301Y-65249327D01*
X160429690Y-65346000D01*
X162020250Y-65346000D01*
X162179000Y-65187250D01*
X162179000Y-63088000D01*
X162433000Y-63088000D01*
X162433000Y-65187250D01*
X162591750Y-65346000D01*
X164182310Y-65346000D01*
X164415699Y-65249327D01*
X164594327Y-65070698D01*
X164691000Y-64837309D01*
X164691000Y-63246750D01*
X164532250Y-63088000D01*
X162433000Y-63088000D01*
X162179000Y-63088000D01*
X160079750Y-63088000D01*
X159921000Y-63246750D01*
X159921000Y-63915696D01*
X159894327Y-63851302D01*
X159715699Y-63672673D01*
X159482310Y-63576000D01*
X157891750Y-63576000D01*
X157733000Y-63734750D01*
X157479000Y-63734750D01*
X157320250Y-63576000D01*
X155729690Y-63576000D01*
X155496301Y-63672673D01*
X155317673Y-63851302D01*
X155221000Y-64084691D01*
X151014000Y-64084691D01*
X151014000Y-63404750D01*
X150855250Y-63246000D01*
X149606000Y-63246000D01*
X149606000Y-63266000D01*
X149352000Y-63266000D01*
X149352000Y-63246000D01*
X148102750Y-63246000D01*
X147944000Y-63404750D01*
X147944000Y-64145309D01*
X148040673Y-64378698D01*
X148219301Y-64557327D01*
X148353994Y-64613119D01*
X148178449Y-64788357D01*
X147944267Y-65352330D01*
X147943735Y-65962991D01*
X142758735Y-65962991D01*
X142759265Y-65355009D01*
X142526068Y-64790629D01*
X142348908Y-64613159D01*
X142483699Y-64557327D01*
X142662327Y-64378698D01*
X142759000Y-64145309D01*
X142759000Y-63404750D01*
X142600250Y-63246000D01*
X141351000Y-63246000D01*
X141351000Y-63266000D01*
X141097000Y-63266000D01*
X141097000Y-63246000D01*
X139847750Y-63246000D01*
X139689000Y-63404750D01*
X139689000Y-64145309D01*
X139785673Y-64378698D01*
X139964301Y-64557327D01*
X140098994Y-64613119D01*
X139923449Y-64788357D01*
X139689267Y-65352330D01*
X139688735Y-65962991D01*
X121750749Y-65962991D01*
X122204730Y-65509801D01*
X122484681Y-64835605D01*
X122485252Y-64180903D01*
X125863182Y-64180903D01*
X126141955Y-64855586D01*
X126657699Y-65372230D01*
X127331895Y-65652181D01*
X128061903Y-65652818D01*
X128736586Y-65374045D01*
X129253230Y-64858301D01*
X129514412Y-64229305D01*
X130990305Y-64229305D01*
X131222858Y-64790758D01*
X131713724Y-65311992D01*
X132366693Y-65605703D01*
X132651500Y-65489358D01*
X132651500Y-63944500D01*
X132905500Y-63944500D01*
X132905500Y-65489358D01*
X133190307Y-65605703D01*
X133843276Y-65311992D01*
X134334142Y-64790758D01*
X134566695Y-64229305D01*
X134449932Y-63944500D01*
X132905500Y-63944500D01*
X132651500Y-63944500D01*
X131107068Y-63944500D01*
X130990305Y-64229305D01*
X129514412Y-64229305D01*
X129533181Y-64184105D01*
X129533818Y-63454097D01*
X129513819Y-63405695D01*
X130990305Y-63405695D01*
X131107068Y-63690500D01*
X132651500Y-63690500D01*
X132651500Y-62145642D01*
X132905500Y-62145642D01*
X132905500Y-63690500D01*
X134449932Y-63690500D01*
X134566695Y-63405695D01*
X134334142Y-62844242D01*
X133843276Y-62323008D01*
X133331243Y-62092691D01*
X139689000Y-62092691D01*
X139689000Y-62833250D01*
X139847750Y-62992000D01*
X141097000Y-62992000D01*
X141097000Y-61742750D01*
X141351000Y-61742750D01*
X141351000Y-62992000D01*
X142600250Y-62992000D01*
X142759000Y-62833250D01*
X142759000Y-62092691D01*
X147944000Y-62092691D01*
X147944000Y-62833250D01*
X148102750Y-62992000D01*
X149352000Y-62992000D01*
X149352000Y-61742750D01*
X149606000Y-61742750D01*
X149606000Y-62992000D01*
X150855250Y-62992000D01*
X151014000Y-62833250D01*
X151014000Y-62092691D01*
X150917327Y-61859302D01*
X150738699Y-61680673D01*
X150505310Y-61584000D01*
X149764750Y-61584000D01*
X149606000Y-61742750D01*
X149352000Y-61742750D01*
X149193250Y-61584000D01*
X148452690Y-61584000D01*
X148219301Y-61680673D01*
X148040673Y-61859302D01*
X147944000Y-62092691D01*
X142759000Y-62092691D01*
X142662327Y-61859302D01*
X142483699Y-61680673D01*
X142250310Y-61584000D01*
X141509750Y-61584000D01*
X141351000Y-61742750D01*
X141097000Y-61742750D01*
X140938250Y-61584000D01*
X140197690Y-61584000D01*
X139964301Y-61680673D01*
X139785673Y-61859302D01*
X139689000Y-62092691D01*
X133331243Y-62092691D01*
X133190307Y-62029297D01*
X132905500Y-62145642D01*
X132651500Y-62145642D01*
X132366693Y-62029297D01*
X131713724Y-62323008D01*
X131222858Y-62844242D01*
X130990305Y-63405695D01*
X129513819Y-63405695D01*
X129255045Y-62779414D01*
X128739301Y-62262770D01*
X128065105Y-61982819D01*
X127335097Y-61982182D01*
X126660414Y-62260955D01*
X126143770Y-62776699D01*
X125863819Y-63450895D01*
X125863182Y-64180903D01*
X122485252Y-64180903D01*
X122485318Y-64105597D01*
X122206545Y-63430914D01*
X121690801Y-62914270D01*
X121016605Y-62634319D01*
X120286597Y-62633682D01*
X119611914Y-62912455D01*
X119095270Y-63428199D01*
X118815319Y-64102395D01*
X118814682Y-64832403D01*
X115722118Y-64832403D01*
X115851438Y-64520967D01*
X115852440Y-63373069D01*
X115414083Y-62312165D01*
X114603104Y-61499769D01*
X113609045Y-61087000D01*
X159921000Y-61087000D01*
X159921000Y-62675250D01*
X160079750Y-62834000D01*
X162179000Y-62834000D01*
X162179000Y-62814000D01*
X162433000Y-62814000D01*
X162433000Y-62834000D01*
X164532250Y-62834000D01*
X164691000Y-62675250D01*
X164691000Y-61087000D01*
X170053000Y-61087000D01*
X170053000Y-111149000D01*
X168045715Y-111149000D01*
X168045715Y-112014000D01*
X167386000Y-112014000D01*
X167336590Y-112024006D01*
X167294965Y-112052447D01*
X167267685Y-112094841D01*
X167259000Y-112141000D01*
X167259000Y-114173000D01*
X99822000Y-114173000D01*
X99822000Y-112123403D01*
X125926682Y-112123403D01*
X126205455Y-112798086D01*
X126721199Y-113314730D01*
X127395395Y-113594681D01*
X128125403Y-113595318D01*
X128800086Y-113316545D01*
X129316730Y-112800801D01*
X129577912Y-112171805D01*
X131053805Y-112171805D01*
X131286358Y-112733258D01*
X131777224Y-113254492D01*
X132430193Y-113548203D01*
X132715000Y-113431858D01*
X132715000Y-111887000D01*
X132969000Y-111887000D01*
X132969000Y-113431858D01*
X133253807Y-113548203D01*
X133906776Y-113254492D01*
X134397642Y-112733258D01*
X134630195Y-112171805D01*
X134513432Y-111887000D01*
X132969000Y-111887000D01*
X132715000Y-111887000D01*
X131170568Y-111887000D01*
X131053805Y-112171805D01*
X129577912Y-112171805D01*
X129596681Y-112126605D01*
X129597318Y-111396597D01*
X129577319Y-111348195D01*
X131053805Y-111348195D01*
X131170568Y-111633000D01*
X132715000Y-111633000D01*
X132715000Y-110088142D01*
X132969000Y-110088142D01*
X132969000Y-111633000D01*
X134513432Y-111633000D01*
X134630195Y-111348195D01*
X134397642Y-110786742D01*
X133906776Y-110265508D01*
X133253807Y-109971797D01*
X132969000Y-110088142D01*
X132715000Y-110088142D01*
X132430193Y-109971797D01*
X131777224Y-110265508D01*
X131286358Y-110786742D01*
X131053805Y-111348195D01*
X129577319Y-111348195D01*
X129318545Y-110721914D01*
X128802801Y-110205270D01*
X128128605Y-109925319D01*
X127398597Y-109924682D01*
X126723914Y-110203455D01*
X126207270Y-110719199D01*
X125927319Y-111393395D01*
X125926682Y-112123403D01*
X99822000Y-112123403D01*
X99822000Y-109767000D01*
X151283560Y-109767000D01*
X151283560Y-111467000D01*
X151327838Y-111702317D01*
X151466910Y-111918441D01*
X151679110Y-112063431D01*
X151931000Y-112114440D01*
X153631000Y-112114440D01*
X153866317Y-112070162D01*
X154082441Y-111931090D01*
X154227431Y-111718890D01*
X154249301Y-111610893D01*
X154554076Y-111888645D01*
X154964110Y-112058476D01*
X155194000Y-111937155D01*
X155194000Y-110744000D01*
X155448000Y-110744000D01*
X155448000Y-111937155D01*
X155677890Y-112058476D01*
X156087924Y-111888645D01*
X156516183Y-111498358D01*
X156762486Y-110973892D01*
X156641819Y-110744000D01*
X155448000Y-110744000D01*
X155194000Y-110744000D01*
X155174000Y-110744000D01*
X155174000Y-110490000D01*
X155194000Y-110490000D01*
X155194000Y-109296845D01*
X155448000Y-109296845D01*
X155448000Y-110490000D01*
X156641819Y-110490000D01*
X156762486Y-110260108D01*
X156530910Y-109767000D01*
X159411560Y-109767000D01*
X159411560Y-111467000D01*
X159455838Y-111702317D01*
X159594910Y-111918441D01*
X159807110Y-112063431D01*
X160059000Y-112114440D01*
X161759000Y-112114440D01*
X161994317Y-112070162D01*
X162210441Y-111931090D01*
X162355431Y-111718890D01*
X162377301Y-111610893D01*
X162682076Y-111888645D01*
X163092110Y-112058476D01*
X163322000Y-111937155D01*
X163322000Y-110744000D01*
X163576000Y-110744000D01*
X163576000Y-111937155D01*
X163805890Y-112058476D01*
X164215924Y-111888645D01*
X164644183Y-111498358D01*
X164890486Y-110973892D01*
X164769819Y-110744000D01*
X163576000Y-110744000D01*
X163322000Y-110744000D01*
X163302000Y-110744000D01*
X163302000Y-110490000D01*
X163322000Y-110490000D01*
X163322000Y-109296845D01*
X163576000Y-109296845D01*
X163576000Y-110490000D01*
X164769819Y-110490000D01*
X164890486Y-110260108D01*
X164644183Y-109735642D01*
X164215924Y-109345355D01*
X163805890Y-109175524D01*
X163576000Y-109296845D01*
X163322000Y-109296845D01*
X163092110Y-109175524D01*
X162682076Y-109345355D01*
X162379063Y-109621501D01*
X162362162Y-109531683D01*
X162223090Y-109315559D01*
X162010890Y-109170569D01*
X161759000Y-109119560D01*
X160059000Y-109119560D01*
X159823683Y-109163838D01*
X159607559Y-109302910D01*
X159462569Y-109515110D01*
X159411560Y-109767000D01*
X156530910Y-109767000D01*
X156516183Y-109735642D01*
X156087924Y-109345355D01*
X155677890Y-109175524D01*
X155448000Y-109296845D01*
X155194000Y-109296845D01*
X154964110Y-109175524D01*
X154554076Y-109345355D01*
X154251063Y-109621501D01*
X154234162Y-109531683D01*
X154095090Y-109315559D01*
X153882890Y-109170569D01*
X153631000Y-109119560D01*
X151931000Y-109119560D01*
X151695683Y-109163838D01*
X151479559Y-109302910D01*
X151334569Y-109515110D01*
X151283560Y-109767000D01*
X99822000Y-109767000D01*
X99822000Y-106467815D01*
X109751630Y-106467815D01*
X110075980Y-107252800D01*
X110676041Y-107853909D01*
X111460459Y-108179628D01*
X112309815Y-108180370D01*
X113094800Y-107856020D01*
X113695909Y-107255959D01*
X113863272Y-106852903D01*
X125863182Y-106852903D01*
X126141955Y-107527586D01*
X126657699Y-108044230D01*
X127331895Y-108324181D01*
X128061903Y-108324818D01*
X128736586Y-108046045D01*
X129253230Y-107530301D01*
X129514412Y-106901305D01*
X130990305Y-106901305D01*
X131222858Y-107462758D01*
X131713724Y-107983992D01*
X132366693Y-108277703D01*
X132651500Y-108161358D01*
X132651500Y-106616500D01*
X132905500Y-106616500D01*
X132905500Y-108161358D01*
X133190307Y-108277703D01*
X133843276Y-107983992D01*
X134334142Y-107462758D01*
X134566695Y-106901305D01*
X134449932Y-106616500D01*
X132905500Y-106616500D01*
X132651500Y-106616500D01*
X131107068Y-106616500D01*
X130990305Y-106901305D01*
X129514412Y-106901305D01*
X129533181Y-106856105D01*
X129533818Y-106126097D01*
X129513819Y-106077695D01*
X130990305Y-106077695D01*
X131107068Y-106362500D01*
X132651500Y-106362500D01*
X132651500Y-104817642D01*
X132905500Y-104817642D01*
X132905500Y-106362500D01*
X134449932Y-106362500D01*
X134566695Y-106077695D01*
X134334142Y-105516242D01*
X133843276Y-104995008D01*
X133571825Y-104872907D01*
X149645000Y-104872907D01*
X149645000Y-104931093D01*
X149758039Y-105499378D01*
X150079946Y-105981147D01*
X150561715Y-106303054D01*
X151130000Y-106416093D01*
X151698285Y-106303054D01*
X152180054Y-105981147D01*
X152400000Y-105651974D01*
X152619946Y-105981147D01*
X153101715Y-106303054D01*
X153670000Y-106416093D01*
X154238285Y-106303054D01*
X154720054Y-105981147D01*
X154747850Y-105939548D01*
X154756838Y-105987317D01*
X154895910Y-106203441D01*
X155108110Y-106348431D01*
X155360000Y-106399440D01*
X157060000Y-106399440D01*
X157295317Y-106355162D01*
X157511441Y-106216090D01*
X157656431Y-106003890D01*
X157707440Y-105752000D01*
X157707440Y-104691540D01*
X162949518Y-104691540D01*
X163372616Y-105715515D01*
X164155365Y-106499631D01*
X165178599Y-106924515D01*
X166286540Y-106925482D01*
X167310515Y-106502384D01*
X168094631Y-105719635D01*
X168519515Y-104696401D01*
X168520482Y-103588460D01*
X168097384Y-102564485D01*
X167314635Y-101780369D01*
X166291401Y-101355485D01*
X165183460Y-101354518D01*
X164159485Y-101777616D01*
X163375369Y-102560365D01*
X162950485Y-103583599D01*
X162949518Y-104691540D01*
X157707440Y-104691540D01*
X157707440Y-104052000D01*
X157663162Y-103816683D01*
X157524090Y-103600559D01*
X157311890Y-103455569D01*
X157060000Y-103404560D01*
X155360000Y-103404560D01*
X155124683Y-103448838D01*
X154908559Y-103587910D01*
X154763569Y-103800110D01*
X154749914Y-103867541D01*
X154720054Y-103822853D01*
X154238285Y-103500946D01*
X153670000Y-103387907D01*
X153101715Y-103500946D01*
X152619946Y-103822853D01*
X152400000Y-104152026D01*
X152180054Y-103822853D01*
X151698285Y-103500946D01*
X151130000Y-103387907D01*
X150561715Y-103500946D01*
X150079946Y-103822853D01*
X149758039Y-104304622D01*
X149645000Y-104872907D01*
X133571825Y-104872907D01*
X133190307Y-104701297D01*
X132905500Y-104817642D01*
X132651500Y-104817642D01*
X132366693Y-104701297D01*
X131713724Y-104995008D01*
X131222858Y-105516242D01*
X130990305Y-106077695D01*
X129513819Y-106077695D01*
X129255045Y-105451414D01*
X128739301Y-104934770D01*
X128065105Y-104654819D01*
X127335097Y-104654182D01*
X126660414Y-104932955D01*
X126143770Y-105448699D01*
X125863819Y-106122895D01*
X125863182Y-106852903D01*
X113863272Y-106852903D01*
X114021628Y-106471541D01*
X114022370Y-105622185D01*
X113698020Y-104837200D01*
X113097959Y-104236091D01*
X112313541Y-103910372D01*
X111464185Y-103909630D01*
X110679200Y-104233980D01*
X110078091Y-104834041D01*
X109752372Y-105618459D01*
X109751630Y-106467815D01*
X99822000Y-106467815D01*
X99822000Y-101518903D01*
X125863182Y-101518903D01*
X126141955Y-102193586D01*
X126657699Y-102710230D01*
X127331895Y-102990181D01*
X128061903Y-102990818D01*
X128736586Y-102712045D01*
X129253230Y-102196301D01*
X129514412Y-101567305D01*
X130990305Y-101567305D01*
X131222858Y-102128758D01*
X131713724Y-102649992D01*
X132366693Y-102943703D01*
X132651500Y-102827358D01*
X132651500Y-101282500D01*
X132905500Y-101282500D01*
X132905500Y-102827358D01*
X133190307Y-102943703D01*
X133843276Y-102649992D01*
X134334142Y-102128758D01*
X134566695Y-101567305D01*
X134449932Y-101282500D01*
X132905500Y-101282500D01*
X132651500Y-101282500D01*
X131107068Y-101282500D01*
X130990305Y-101567305D01*
X129514412Y-101567305D01*
X129533181Y-101522105D01*
X129533818Y-100792097D01*
X129513819Y-100743695D01*
X130990305Y-100743695D01*
X131107068Y-101028500D01*
X132651500Y-101028500D01*
X132651500Y-99483642D01*
X132905500Y-99483642D01*
X132905500Y-101028500D01*
X134449932Y-101028500D01*
X134566695Y-100743695D01*
X134342740Y-100203000D01*
X144154907Y-100203000D01*
X144267946Y-100771285D01*
X144589853Y-101253054D01*
X144919026Y-101473000D01*
X144589853Y-101692946D01*
X144267946Y-102174715D01*
X144154907Y-102743000D01*
X144267946Y-103311285D01*
X144589853Y-103793054D01*
X145071622Y-104114961D01*
X145639907Y-104228000D01*
X145698093Y-104228000D01*
X146266378Y-104114961D01*
X146748147Y-103793054D01*
X147070054Y-103311285D01*
X147183093Y-102743000D01*
X147070054Y-102174715D01*
X146748147Y-101692946D01*
X146418974Y-101473000D01*
X146748147Y-101253054D01*
X147070054Y-100771285D01*
X147183093Y-100203000D01*
X147070054Y-99634715D01*
X146748147Y-99152946D01*
X146706548Y-99125150D01*
X146754317Y-99116162D01*
X146970441Y-98977090D01*
X147115431Y-98764890D01*
X147166440Y-98513000D01*
X147166440Y-96813000D01*
X147122162Y-96577683D01*
X146983090Y-96361559D01*
X146770890Y-96216569D01*
X146519000Y-96165560D01*
X144819000Y-96165560D01*
X144583683Y-96209838D01*
X144367559Y-96348910D01*
X144222569Y-96561110D01*
X144171560Y-96813000D01*
X144171560Y-98513000D01*
X144215838Y-98748317D01*
X144354910Y-98964441D01*
X144567110Y-99109431D01*
X144634541Y-99123086D01*
X144589853Y-99152946D01*
X144267946Y-99634715D01*
X144154907Y-100203000D01*
X134342740Y-100203000D01*
X134334142Y-100182242D01*
X133843276Y-99661008D01*
X133190307Y-99367297D01*
X132905500Y-99483642D01*
X132651500Y-99483642D01*
X132366693Y-99367297D01*
X131713724Y-99661008D01*
X131222858Y-100182242D01*
X130990305Y-100743695D01*
X129513819Y-100743695D01*
X129255045Y-100117414D01*
X128739301Y-99600770D01*
X128065105Y-99320819D01*
X127335097Y-99320182D01*
X126660414Y-99598955D01*
X126143770Y-100114699D01*
X125863819Y-100788895D01*
X125863182Y-101518903D01*
X99822000Y-101518903D01*
X99822000Y-90805000D01*
X113775397Y-90805000D01*
X113880867Y-91335235D01*
X114181221Y-91784746D01*
X114615616Y-92075000D01*
X114181221Y-92365254D01*
X113880867Y-92814765D01*
X113775397Y-93345000D01*
X113880867Y-93875235D01*
X114181221Y-94324746D01*
X114615616Y-94615000D01*
X114181221Y-94905254D01*
X113880867Y-95354765D01*
X113775397Y-95885000D01*
X113880867Y-96415235D01*
X114181221Y-96864746D01*
X114630732Y-97165100D01*
X115160967Y-97270570D01*
X116233033Y-97270570D01*
X116763268Y-97165100D01*
X117212779Y-96864746D01*
X117513133Y-96415235D01*
X117558948Y-96184903D01*
X125863182Y-96184903D01*
X126141955Y-96859586D01*
X126657699Y-97376230D01*
X127331895Y-97656181D01*
X128061903Y-97656818D01*
X128736586Y-97378045D01*
X129253230Y-96862301D01*
X129514412Y-96233305D01*
X130990305Y-96233305D01*
X131222858Y-96794758D01*
X131713724Y-97315992D01*
X132366693Y-97609703D01*
X132651500Y-97493358D01*
X132651500Y-95948500D01*
X132905500Y-95948500D01*
X132905500Y-97493358D01*
X133190307Y-97609703D01*
X133843276Y-97315992D01*
X134334142Y-96794758D01*
X134566695Y-96233305D01*
X134449932Y-95948500D01*
X132905500Y-95948500D01*
X132651500Y-95948500D01*
X131107068Y-95948500D01*
X130990305Y-96233305D01*
X129514412Y-96233305D01*
X129533181Y-96188105D01*
X129533445Y-95885000D01*
X160791907Y-95885000D01*
X160904946Y-96453285D01*
X161226853Y-96935054D01*
X161268452Y-96962850D01*
X161220683Y-96971838D01*
X161004559Y-97110910D01*
X160859569Y-97323110D01*
X160808560Y-97575000D01*
X160808560Y-99275000D01*
X160852838Y-99510317D01*
X160991910Y-99726441D01*
X161204110Y-99871431D01*
X161456000Y-99922440D01*
X163156000Y-99922440D01*
X163391317Y-99878162D01*
X163607441Y-99739090D01*
X163752431Y-99526890D01*
X163803440Y-99275000D01*
X163803440Y-97575000D01*
X163759162Y-97339683D01*
X163620090Y-97123559D01*
X163407890Y-96978569D01*
X163340459Y-96964914D01*
X163385147Y-96935054D01*
X163707054Y-96453285D01*
X163820093Y-95885000D01*
X163707054Y-95316715D01*
X163385147Y-94834946D01*
X162903378Y-94513039D01*
X162335093Y-94400000D01*
X162276907Y-94400000D01*
X161708622Y-94513039D01*
X161226853Y-94834946D01*
X160904946Y-95316715D01*
X160791907Y-95885000D01*
X129533445Y-95885000D01*
X129533818Y-95458097D01*
X129513819Y-95409695D01*
X130990305Y-95409695D01*
X131107068Y-95694500D01*
X132651500Y-95694500D01*
X132651500Y-94149642D01*
X132905500Y-94149642D01*
X132905500Y-95694500D01*
X134449932Y-95694500D01*
X134566695Y-95409695D01*
X134334142Y-94848242D01*
X133843276Y-94327008D01*
X133190307Y-94033297D01*
X132905500Y-94149642D01*
X132651500Y-94149642D01*
X132366693Y-94033297D01*
X131713724Y-94327008D01*
X131222858Y-94848242D01*
X130990305Y-95409695D01*
X129513819Y-95409695D01*
X129255045Y-94783414D01*
X128739301Y-94266770D01*
X128065105Y-93986819D01*
X127335097Y-93986182D01*
X126660414Y-94264955D01*
X126143770Y-94780699D01*
X125863819Y-95454895D01*
X125863182Y-96184903D01*
X117558948Y-96184903D01*
X117618603Y-95885000D01*
X117513133Y-95354765D01*
X117429713Y-95229918D01*
X118679631Y-93980000D01*
X135320370Y-93980000D01*
X135674013Y-94333643D01*
X135673931Y-94427663D01*
X135822493Y-94787212D01*
X136097341Y-95062540D01*
X136456630Y-95211730D01*
X136845663Y-95212069D01*
X137205212Y-95063507D01*
X137480540Y-94788659D01*
X137629730Y-94429370D01*
X137630069Y-94040337D01*
X137481507Y-93680788D01*
X137206659Y-93405460D01*
X136847370Y-93256270D01*
X136751817Y-93256187D01*
X136174814Y-92679184D01*
X135927605Y-92514004D01*
X135636000Y-92456000D01*
X118364000Y-92456000D01*
X118072396Y-92514003D01*
X117825185Y-92679184D01*
X117542411Y-92961958D01*
X117513133Y-92814765D01*
X117212779Y-92365254D01*
X116778384Y-92075000D01*
X117212779Y-91784746D01*
X117513133Y-91335235D01*
X117609472Y-90850903D01*
X125863182Y-90850903D01*
X126141955Y-91525586D01*
X126657699Y-92042230D01*
X127331895Y-92322181D01*
X128061903Y-92322818D01*
X128736586Y-92044045D01*
X129253230Y-91528301D01*
X129514412Y-90899305D01*
X130990305Y-90899305D01*
X131222858Y-91460758D01*
X131713724Y-91981992D01*
X132366693Y-92275703D01*
X132651500Y-92159358D01*
X132651500Y-90614500D01*
X132905500Y-90614500D01*
X132905500Y-92159358D01*
X133190307Y-92275703D01*
X133843276Y-91981992D01*
X134334142Y-91460758D01*
X134566695Y-90899305D01*
X134555363Y-90871663D01*
X145198931Y-90871663D01*
X145347493Y-91231212D01*
X145622341Y-91506540D01*
X145981630Y-91655730D01*
X146370663Y-91656069D01*
X146730212Y-91507507D01*
X146954334Y-91283775D01*
X160408803Y-91283775D01*
X160581233Y-91701086D01*
X160900235Y-92020645D01*
X161317244Y-92193803D01*
X161666560Y-92194108D01*
X161666560Y-92829000D01*
X161710838Y-93064317D01*
X161849910Y-93280441D01*
X162062110Y-93425431D01*
X162314000Y-93476440D01*
X163314000Y-93476440D01*
X163549317Y-93432162D01*
X163765441Y-93293090D01*
X163910431Y-93080890D01*
X163961440Y-92829000D01*
X163961440Y-91829000D01*
X163917162Y-91593683D01*
X163778090Y-91377559D01*
X163565890Y-91232569D01*
X163314000Y-91181560D01*
X162678894Y-91181560D01*
X162679108Y-90936394D01*
X163119375Y-90905217D01*
X163387352Y-90794217D01*
X163424499Y-90579104D01*
X162814000Y-89968605D01*
X162799858Y-89982748D01*
X162620253Y-89803143D01*
X162634395Y-89789000D01*
X162993605Y-89789000D01*
X163604104Y-90399499D01*
X163819217Y-90362352D01*
X163962112Y-89934028D01*
X163930217Y-89483625D01*
X163819217Y-89215648D01*
X163604104Y-89178501D01*
X162993605Y-89789000D01*
X162634395Y-89789000D01*
X162023896Y-89178501D01*
X161808783Y-89215648D01*
X161665888Y-89643972D01*
X161685727Y-89924123D01*
X161319225Y-89923803D01*
X160901914Y-90096233D01*
X160582355Y-90415235D01*
X160409197Y-90832244D01*
X160408803Y-91283775D01*
X146954334Y-91283775D01*
X147005540Y-91232659D01*
X147154730Y-90873370D01*
X147154813Y-90777817D01*
X148933734Y-88998896D01*
X162203501Y-88998896D01*
X162814000Y-89609395D01*
X163424499Y-88998896D01*
X163387352Y-88783783D01*
X162959028Y-88640888D01*
X162508625Y-88672783D01*
X162240648Y-88783783D01*
X162203501Y-88998896D01*
X148933734Y-88998896D01*
X149001815Y-88930816D01*
X149166996Y-88683605D01*
X149175493Y-88640888D01*
X149225000Y-88392000D01*
X149225000Y-83539440D01*
X149313000Y-83539440D01*
X149548317Y-83495162D01*
X149764441Y-83356090D01*
X149909431Y-83143890D01*
X149960440Y-82892000D01*
X149960440Y-81192000D01*
X149916162Y-80956683D01*
X149777090Y-80740559D01*
X149564890Y-80595569D01*
X149497459Y-80581914D01*
X149542147Y-80552054D01*
X149864054Y-80070285D01*
X149977093Y-79502000D01*
X149864054Y-78933715D01*
X149542147Y-78451946D01*
X149201447Y-78224298D01*
X149344358Y-78157183D01*
X149467974Y-78021540D01*
X162949518Y-78021540D01*
X163372616Y-79045515D01*
X164155365Y-79829631D01*
X165178599Y-80254515D01*
X166286540Y-80255482D01*
X167310515Y-79832384D01*
X168094631Y-79049635D01*
X168519515Y-78026401D01*
X168520482Y-76918460D01*
X168097384Y-75894485D01*
X167314635Y-75110369D01*
X166291401Y-74685485D01*
X165183460Y-74684518D01*
X164159485Y-75107616D01*
X163375369Y-75890365D01*
X162950485Y-76913599D01*
X162949518Y-78021540D01*
X149467974Y-78021540D01*
X149734645Y-77728924D01*
X149904476Y-77318890D01*
X149783155Y-77089000D01*
X148590000Y-77089000D01*
X148590000Y-77109000D01*
X148336000Y-77109000D01*
X148336000Y-77089000D01*
X147142845Y-77089000D01*
X147021524Y-77318890D01*
X147191355Y-77728924D01*
X147581642Y-78157183D01*
X147724553Y-78224298D01*
X147383853Y-78451946D01*
X147061946Y-78933715D01*
X146948907Y-79502000D01*
X147061946Y-80070285D01*
X147383853Y-80552054D01*
X147425452Y-80579850D01*
X147377683Y-80588838D01*
X147161559Y-80727910D01*
X147016569Y-80940110D01*
X146965560Y-81192000D01*
X146965560Y-82892000D01*
X147009838Y-83127317D01*
X147148910Y-83343441D01*
X147361110Y-83488431D01*
X147613000Y-83539440D01*
X147701000Y-83539440D01*
X147701000Y-88076369D01*
X146077357Y-89700013D01*
X145983337Y-89699931D01*
X145623788Y-89848493D01*
X145348460Y-90123341D01*
X145199270Y-90482630D01*
X145198931Y-90871663D01*
X134555363Y-90871663D01*
X134449932Y-90614500D01*
X132905500Y-90614500D01*
X132651500Y-90614500D01*
X131107068Y-90614500D01*
X130990305Y-90899305D01*
X129514412Y-90899305D01*
X129533181Y-90854105D01*
X129533818Y-90124097D01*
X129513819Y-90075695D01*
X130990305Y-90075695D01*
X131107068Y-90360500D01*
X132651500Y-90360500D01*
X132651500Y-88815642D01*
X132905500Y-88815642D01*
X132905500Y-90360500D01*
X134449932Y-90360500D01*
X134566695Y-90075695D01*
X134334142Y-89514242D01*
X133843276Y-88993008D01*
X133190307Y-88699297D01*
X132905500Y-88815642D01*
X132651500Y-88815642D01*
X132366693Y-88699297D01*
X131713724Y-88993008D01*
X131222858Y-89514242D01*
X130990305Y-90075695D01*
X129513819Y-90075695D01*
X129255045Y-89449414D01*
X128739301Y-88932770D01*
X128065105Y-88652819D01*
X127335097Y-88652182D01*
X126660414Y-88930955D01*
X126143770Y-89446699D01*
X125863819Y-90120895D01*
X125863182Y-90850903D01*
X117609472Y-90850903D01*
X117618603Y-90805000D01*
X117513133Y-90274765D01*
X117212779Y-89825254D01*
X116763268Y-89524900D01*
X116233033Y-89419430D01*
X115160967Y-89419430D01*
X114630732Y-89524900D01*
X114181221Y-89825254D01*
X113880867Y-90274765D01*
X113775397Y-90805000D01*
X99822000Y-90805000D01*
X99822000Y-85516903D01*
X125863182Y-85516903D01*
X126141955Y-86191586D01*
X126657699Y-86708230D01*
X127331895Y-86988181D01*
X128061903Y-86988818D01*
X128736586Y-86710045D01*
X129253230Y-86194301D01*
X129514412Y-85565305D01*
X130990305Y-85565305D01*
X131222858Y-86126758D01*
X131713724Y-86647992D01*
X132366693Y-86941703D01*
X132651500Y-86825358D01*
X132651500Y-85280500D01*
X132905500Y-85280500D01*
X132905500Y-86825358D01*
X133190307Y-86941703D01*
X133843276Y-86647992D01*
X134334142Y-86126758D01*
X134566695Y-85565305D01*
X134449932Y-85280500D01*
X132905500Y-85280500D01*
X132651500Y-85280500D01*
X131107068Y-85280500D01*
X130990305Y-85565305D01*
X129514412Y-85565305D01*
X129533181Y-85520105D01*
X129533818Y-84790097D01*
X129513819Y-84741695D01*
X130990305Y-84741695D01*
X131107068Y-85026500D01*
X132651500Y-85026500D01*
X132651500Y-83481642D01*
X132905500Y-83481642D01*
X132905500Y-85026500D01*
X134449932Y-85026500D01*
X134566695Y-84741695D01*
X134334142Y-84180242D01*
X134262519Y-84104187D01*
X135470752Y-84104187D01*
X135688757Y-84631800D01*
X136092077Y-85035824D01*
X136619309Y-85254750D01*
X137190187Y-85255248D01*
X137717800Y-85037243D01*
X137927663Y-84827745D01*
X138577861Y-84827745D01*
X138651995Y-85073864D01*
X139189223Y-85266965D01*
X139759454Y-85239778D01*
X140160005Y-85073864D01*
X140234139Y-84827745D01*
X139406000Y-83999605D01*
X138577861Y-84827745D01*
X137927663Y-84827745D01*
X138121824Y-84633923D01*
X138149423Y-84567456D01*
X138152136Y-84574005D01*
X138398255Y-84648139D01*
X139226395Y-83820000D01*
X139585605Y-83820000D01*
X140306248Y-84540642D01*
X140394493Y-84754212D01*
X140462000Y-84821837D01*
X140462000Y-86246917D01*
X140395460Y-86313341D01*
X140246270Y-86672630D01*
X140245931Y-87061663D01*
X140394493Y-87421212D01*
X140669341Y-87696540D01*
X141028630Y-87845730D01*
X141417663Y-87846069D01*
X141777212Y-87697507D01*
X142052540Y-87422659D01*
X142201730Y-87063370D01*
X142202069Y-86674337D01*
X142053507Y-86314788D01*
X141986000Y-86247163D01*
X141986000Y-84822083D01*
X142052540Y-84755659D01*
X142201730Y-84396370D01*
X142202069Y-84007337D01*
X142053507Y-83647788D01*
X141778659Y-83372460D01*
X141419370Y-83223270D01*
X141030337Y-83222931D01*
X140769510Y-83330702D01*
X140659864Y-83065995D01*
X140413745Y-82991861D01*
X139585605Y-83820000D01*
X139226395Y-83820000D01*
X138398255Y-82991861D01*
X138152136Y-83065995D01*
X138149804Y-83072483D01*
X138123243Y-83008200D01*
X137927640Y-82812255D01*
X138577861Y-82812255D01*
X139406000Y-83640395D01*
X140234139Y-82812255D01*
X140160005Y-82566136D01*
X139622777Y-82373035D01*
X139052546Y-82400222D01*
X138651995Y-82566136D01*
X138577861Y-82812255D01*
X137927640Y-82812255D01*
X137719923Y-82604176D01*
X137192691Y-82385250D01*
X136621813Y-82384752D01*
X136094200Y-82602757D01*
X135690176Y-83006077D01*
X135471250Y-83533309D01*
X135470752Y-84104187D01*
X134262519Y-84104187D01*
X133843276Y-83659008D01*
X133190307Y-83365297D01*
X132905500Y-83481642D01*
X132651500Y-83481642D01*
X132366693Y-83365297D01*
X131713724Y-83659008D01*
X131222858Y-84180242D01*
X130990305Y-84741695D01*
X129513819Y-84741695D01*
X129255045Y-84115414D01*
X128739301Y-83598770D01*
X128065105Y-83318819D01*
X127335097Y-83318182D01*
X126660414Y-83596955D01*
X126143770Y-84112699D01*
X125863819Y-84786895D01*
X125863182Y-85516903D01*
X99822000Y-85516903D01*
X99822000Y-81067815D01*
X109751630Y-81067815D01*
X110075980Y-81852800D01*
X110676041Y-82453909D01*
X111460459Y-82779628D01*
X112309815Y-82780370D01*
X113094800Y-82456020D01*
X113695909Y-81855959D01*
X114021628Y-81071541D01*
X114022370Y-80222185D01*
X114006139Y-80182903D01*
X125863182Y-80182903D01*
X126141955Y-80857586D01*
X126657699Y-81374230D01*
X127331895Y-81654181D01*
X128061903Y-81654818D01*
X128736586Y-81376045D01*
X129253230Y-80860301D01*
X129514412Y-80231305D01*
X130990305Y-80231305D01*
X131222858Y-80792758D01*
X131713724Y-81313992D01*
X132366693Y-81607703D01*
X132651500Y-81491358D01*
X132651500Y-79946500D01*
X132905500Y-79946500D01*
X132905500Y-81491358D01*
X133190307Y-81607703D01*
X133843276Y-81313992D01*
X134334142Y-80792758D01*
X134566695Y-80231305D01*
X134449932Y-79946500D01*
X132905500Y-79946500D01*
X132651500Y-79946500D01*
X131107068Y-79946500D01*
X130990305Y-80231305D01*
X129514412Y-80231305D01*
X129533181Y-80186105D01*
X129533818Y-79456097D01*
X129513819Y-79407695D01*
X130990305Y-79407695D01*
X131107068Y-79692500D01*
X132651500Y-79692500D01*
X132651500Y-78147642D01*
X132905500Y-78147642D01*
X132905500Y-79692500D01*
X134449932Y-79692500D01*
X134566695Y-79407695D01*
X134334142Y-78846242D01*
X133843276Y-78325008D01*
X133190307Y-78031297D01*
X132905500Y-78147642D01*
X132651500Y-78147642D01*
X132366693Y-78031297D01*
X131713724Y-78325008D01*
X131222858Y-78846242D01*
X130990305Y-79407695D01*
X129513819Y-79407695D01*
X129255045Y-78781414D01*
X128739301Y-78264770D01*
X128065105Y-77984819D01*
X127335097Y-77984182D01*
X126660414Y-78262955D01*
X126143770Y-78778699D01*
X125863819Y-79452895D01*
X125863182Y-80182903D01*
X114006139Y-80182903D01*
X113698020Y-79437200D01*
X113097959Y-78836091D01*
X112313541Y-78510372D01*
X111464185Y-78509630D01*
X110679200Y-78833980D01*
X110078091Y-79434041D01*
X109752372Y-80218459D01*
X109751630Y-81067815D01*
X99822000Y-81067815D01*
X99822000Y-76605110D01*
X147021524Y-76605110D01*
X147142845Y-76835000D01*
X148336000Y-76835000D01*
X148336000Y-75641181D01*
X148590000Y-75641181D01*
X148590000Y-76835000D01*
X149783155Y-76835000D01*
X149904476Y-76605110D01*
X149734645Y-76195076D01*
X149344358Y-75766817D01*
X148819892Y-75520514D01*
X148590000Y-75641181D01*
X148336000Y-75641181D01*
X148106108Y-75520514D01*
X147581642Y-75766817D01*
X147191355Y-76195076D01*
X147021524Y-76605110D01*
X99822000Y-76605110D01*
X99822000Y-74848903D01*
X125863182Y-74848903D01*
X126141955Y-75523586D01*
X126657699Y-76040230D01*
X127331895Y-76320181D01*
X128061903Y-76320818D01*
X128736586Y-76042045D01*
X129253230Y-75526301D01*
X129514412Y-74897305D01*
X130990305Y-74897305D01*
X131222858Y-75458758D01*
X131713724Y-75979992D01*
X132366693Y-76273703D01*
X132651500Y-76157358D01*
X132651500Y-74612500D01*
X132905500Y-74612500D01*
X132905500Y-76157358D01*
X133190307Y-76273703D01*
X133843276Y-75979992D01*
X134334142Y-75458758D01*
X134566695Y-74897305D01*
X134449932Y-74612500D01*
X132905500Y-74612500D01*
X132651500Y-74612500D01*
X131107068Y-74612500D01*
X130990305Y-74897305D01*
X129514412Y-74897305D01*
X129533181Y-74852105D01*
X129533818Y-74122097D01*
X129513819Y-74073695D01*
X130990305Y-74073695D01*
X131107068Y-74358500D01*
X132651500Y-74358500D01*
X132651500Y-72813642D01*
X132905500Y-72813642D01*
X132905500Y-74358500D01*
X134449932Y-74358500D01*
X134566695Y-74073695D01*
X134334142Y-73512242D01*
X133843276Y-72991008D01*
X133190307Y-72697297D01*
X132905500Y-72813642D01*
X132651500Y-72813642D01*
X132366693Y-72697297D01*
X131713724Y-72991008D01*
X131222858Y-73512242D01*
X130990305Y-74073695D01*
X129513819Y-74073695D01*
X129255045Y-73447414D01*
X128739301Y-72930770D01*
X128065105Y-72650819D01*
X127335097Y-72650182D01*
X126660414Y-72928955D01*
X126143770Y-73444699D01*
X125863819Y-74118895D01*
X125863182Y-74848903D01*
X99822000Y-74848903D01*
X99822000Y-72350286D01*
X111090319Y-72350286D01*
X111341611Y-72747033D01*
X112403842Y-73182164D01*
X113551733Y-73177673D01*
X114591389Y-72747033D01*
X114842681Y-72350286D01*
X112966500Y-70474105D01*
X111090319Y-72350286D01*
X99822000Y-72350286D01*
X99822000Y-69731842D01*
X110078836Y-69731842D01*
X110083327Y-70879733D01*
X110513967Y-71919389D01*
X110910714Y-72170681D01*
X112786895Y-70294500D01*
X113146105Y-70294500D01*
X115022286Y-72170681D01*
X115419033Y-71919389D01*
X115854164Y-70857158D01*
X115853809Y-70766175D01*
X119532430Y-70766175D01*
X119655565Y-71053788D01*
X120337734Y-71313707D01*
X121067443Y-71292786D01*
X121644435Y-71053788D01*
X121767570Y-70766175D01*
X120650000Y-69648605D01*
X119532430Y-70766175D01*
X115853809Y-70766175D01*
X115849673Y-69709267D01*
X115620807Y-69156734D01*
X118805293Y-69156734D01*
X118826214Y-69886443D01*
X119065212Y-70463435D01*
X119352825Y-70586570D01*
X120470395Y-69469000D01*
X120829605Y-69469000D01*
X121947175Y-70586570D01*
X122234788Y-70463435D01*
X122494707Y-69781266D01*
X122487071Y-69514903D01*
X125863182Y-69514903D01*
X126141955Y-70189586D01*
X126657699Y-70706230D01*
X127331895Y-70986181D01*
X128061903Y-70986818D01*
X128736586Y-70708045D01*
X129253230Y-70192301D01*
X129514412Y-69563305D01*
X130990305Y-69563305D01*
X131222858Y-70124758D01*
X131713724Y-70645992D01*
X132366693Y-70939703D01*
X132651500Y-70823358D01*
X132651500Y-69278500D01*
X132905500Y-69278500D01*
X132905500Y-70823358D01*
X133190307Y-70939703D01*
X133843276Y-70645992D01*
X134334142Y-70124758D01*
X134566695Y-69563305D01*
X134449932Y-69278500D01*
X132905500Y-69278500D01*
X132651500Y-69278500D01*
X131107068Y-69278500D01*
X130990305Y-69563305D01*
X129514412Y-69563305D01*
X129533181Y-69518105D01*
X129533818Y-68788097D01*
X129513819Y-68739695D01*
X130990305Y-68739695D01*
X131107068Y-69024500D01*
X132651500Y-69024500D01*
X132651500Y-67479642D01*
X132905500Y-67479642D01*
X132905500Y-69024500D01*
X134449932Y-69024500D01*
X134566695Y-68739695D01*
X134334142Y-68178242D01*
X133843276Y-67657008D01*
X133190307Y-67363297D01*
X132905500Y-67479642D01*
X132651500Y-67479642D01*
X132366693Y-67363297D01*
X131713724Y-67657008D01*
X131222858Y-68178242D01*
X130990305Y-68739695D01*
X129513819Y-68739695D01*
X129255045Y-68113414D01*
X128739301Y-67596770D01*
X128065105Y-67316819D01*
X127335097Y-67316182D01*
X126660414Y-67594955D01*
X126143770Y-68110699D01*
X125863819Y-68784895D01*
X125863182Y-69514903D01*
X122487071Y-69514903D01*
X122473786Y-69051557D01*
X122234788Y-68474565D01*
X121947175Y-68351430D01*
X120829605Y-69469000D01*
X120470395Y-69469000D01*
X119352825Y-68351430D01*
X119065212Y-68474565D01*
X118805293Y-69156734D01*
X115620807Y-69156734D01*
X115419033Y-68669611D01*
X115022286Y-68418319D01*
X113146105Y-70294500D01*
X112786895Y-70294500D01*
X110910714Y-68418319D01*
X110513967Y-68669611D01*
X110078836Y-69731842D01*
X99822000Y-69731842D01*
X99822000Y-67099540D01*
X101354518Y-67099540D01*
X101777616Y-68123515D01*
X102560365Y-68907631D01*
X103583599Y-69332515D01*
X104691540Y-69333482D01*
X105715515Y-68910384D01*
X106388358Y-68238714D01*
X111090319Y-68238714D01*
X112966500Y-70114895D01*
X114842681Y-68238714D01*
X114800315Y-68171825D01*
X119532430Y-68171825D01*
X120650000Y-69289395D01*
X121767570Y-68171825D01*
X121644435Y-67884212D01*
X120962266Y-67624293D01*
X120232557Y-67645214D01*
X119655565Y-67884212D01*
X119532430Y-68171825D01*
X114800315Y-68171825D01*
X114591389Y-67841967D01*
X113529158Y-67406836D01*
X112381267Y-67411327D01*
X111341611Y-67841967D01*
X111090319Y-68238714D01*
X106388358Y-68238714D01*
X106499631Y-68127635D01*
X106924515Y-67104401D01*
X106925482Y-65996460D01*
X106502384Y-64972485D01*
X105719635Y-64188369D01*
X104696401Y-63763485D01*
X103588460Y-63762518D01*
X102564485Y-64185616D01*
X101780369Y-64968365D01*
X101355485Y-65991599D01*
X101354518Y-67099540D01*
X99822000Y-67099540D01*
X99822000Y-61087000D01*
X112326239Y-61087000D01*
X111334165Y-61496917D01*
X111334165Y-61496917D01*
G37*
X111334165Y-61496917D02*
X110521769Y-62307896D01*
X110081562Y-63368033D01*
X110080560Y-64515931D01*
X110518917Y-65576835D01*
X111329896Y-66389231D01*
X112390033Y-66829438D01*
X113537931Y-66830440D01*
X114598835Y-66392083D01*
X115411231Y-65581104D01*
X115722118Y-64832403D01*
X118814682Y-64832403D01*
X119093455Y-65507086D01*
X119609199Y-66023730D01*
X120283395Y-66303681D01*
X121013403Y-66304318D01*
X121688086Y-66025545D01*
X121750749Y-65962991D01*
X139688735Y-65962991D01*
X139921932Y-66527371D01*
X140353357Y-66959551D01*
X140917330Y-67193733D01*
X141527991Y-67194265D01*
X142092371Y-66961068D01*
X142524551Y-66529643D01*
X142758733Y-65965670D01*
X142758735Y-65962991D01*
X147943735Y-65962991D01*
X148176932Y-66527371D01*
X148608357Y-66959551D01*
X149172330Y-67193733D01*
X149782991Y-67194265D01*
X150347371Y-66961068D01*
X150779551Y-66529643D01*
X150897018Y-66246750D01*
X155221000Y-66246750D01*
X155221000Y-67837309D01*
X155317673Y-68070698D01*
X155496301Y-68249327D01*
X155729690Y-68346000D01*
X157320250Y-68346000D01*
X157479000Y-68187250D01*
X157479000Y-66088000D01*
X157733000Y-66088000D01*
X157733000Y-68187250D01*
X157891750Y-68346000D01*
X159482310Y-68346000D01*
X159715699Y-68249327D01*
X159894327Y-68070698D01*
X159908560Y-68036337D01*
X159908560Y-70711000D01*
X159952838Y-70946317D01*
X160091910Y-71162441D01*
X160304110Y-71307431D01*
X160556000Y-71358440D01*
X164056000Y-71358440D01*
X164291317Y-71314162D01*
X164507441Y-71175090D01*
X164652431Y-70962890D01*
X164703440Y-70711000D01*
X164703440Y-67211000D01*
X164659162Y-66975683D01*
X164520090Y-66759559D01*
X164307890Y-66614569D01*
X164056000Y-66563560D01*
X160556000Y-66563560D01*
X160320683Y-66607838D01*
X160104559Y-66746910D01*
X159991000Y-66913109D01*
X159991000Y-66246750D01*
X159832250Y-66088000D01*
X157733000Y-66088000D01*
X157479000Y-66088000D01*
X155379750Y-66088000D01*
X155221000Y-66246750D01*
X150897018Y-66246750D01*
X151013733Y-65965670D01*
X151014265Y-65355009D01*
X150781068Y-64790629D01*
X150603908Y-64613159D01*
X150738699Y-64557327D01*
X150917327Y-64378698D01*
X151014000Y-64145309D01*
X151014000Y-64084691D01*
X155221000Y-64084691D01*
X155221000Y-65675250D01*
X155379750Y-65834000D01*
X157479000Y-65834000D01*
X157479000Y-63734750D01*
X157733000Y-63734750D01*
X157733000Y-65834000D01*
X159832250Y-65834000D01*
X159991000Y-65675250D01*
X159991000Y-65006304D01*
X160017673Y-65070698D01*
X160196301Y-65249327D01*
X160429690Y-65346000D01*
X162020250Y-65346000D01*
X162179000Y-65187250D01*
X162179000Y-63088000D01*
X162433000Y-63088000D01*
X162433000Y-65187250D01*
X162591750Y-65346000D01*
X164182310Y-65346000D01*
X164415699Y-65249327D01*
X164594327Y-65070698D01*
X164691000Y-64837309D01*
X164691000Y-63246750D01*
X164532250Y-63088000D01*
X162433000Y-63088000D01*
X162179000Y-63088000D01*
X160079750Y-63088000D01*
X159921000Y-63246750D01*
X159921000Y-63915696D01*
X159894327Y-63851302D01*
X159715699Y-63672673D01*
X159482310Y-63576000D01*
X157891750Y-63576000D01*
X157733000Y-63734750D01*
X157479000Y-63734750D01*
X157320250Y-63576000D01*
X155729690Y-63576000D01*
X155496301Y-63672673D01*
X155317673Y-63851302D01*
X155221000Y-64084691D01*
X151014000Y-64084691D01*
X151014000Y-63404750D01*
X150855250Y-63246000D01*
X149606000Y-63246000D01*
X149606000Y-63266000D01*
X149352000Y-63266000D01*
X149352000Y-63246000D01*
X148102750Y-63246000D01*
X147944000Y-63404750D01*
X147944000Y-64145309D01*
X148040673Y-64378698D01*
X148219301Y-64557327D01*
X148353994Y-64613119D01*
X148178449Y-64788357D01*
X147944267Y-65352330D01*
X147943735Y-65962991D01*
X142758735Y-65962991D01*
X142759265Y-65355009D01*
X142526068Y-64790629D01*
X142348908Y-64613159D01*
X142483699Y-64557327D01*
X142662327Y-64378698D01*
X142759000Y-64145309D01*
X142759000Y-63404750D01*
X142600250Y-63246000D01*
X141351000Y-63246000D01*
X141351000Y-63266000D01*
X141097000Y-63266000D01*
X141097000Y-63246000D01*
X139847750Y-63246000D01*
X139689000Y-63404750D01*
X139689000Y-64145309D01*
X139785673Y-64378698D01*
X139964301Y-64557327D01*
X140098994Y-64613119D01*
X139923449Y-64788357D01*
X139689267Y-65352330D01*
X139688735Y-65962991D01*
X121750749Y-65962991D01*
X122204730Y-65509801D01*
X122484681Y-64835605D01*
X122485252Y-64180903D01*
X125863182Y-64180903D01*
X126141955Y-64855586D01*
X126657699Y-65372230D01*
X127331895Y-65652181D01*
X128061903Y-65652818D01*
X128736586Y-65374045D01*
X129253230Y-64858301D01*
X129514412Y-64229305D01*
X130990305Y-64229305D01*
X131222858Y-64790758D01*
X131713724Y-65311992D01*
X132366693Y-65605703D01*
X132651500Y-65489358D01*
X132651500Y-63944500D01*
X132905500Y-63944500D01*
X132905500Y-65489358D01*
X133190307Y-65605703D01*
X133843276Y-65311992D01*
X134334142Y-64790758D01*
X134566695Y-64229305D01*
X134449932Y-63944500D01*
X132905500Y-63944500D01*
X132651500Y-63944500D01*
X131107068Y-63944500D01*
X130990305Y-64229305D01*
X129514412Y-64229305D01*
X129533181Y-64184105D01*
X129533818Y-63454097D01*
X129513819Y-63405695D01*
X130990305Y-63405695D01*
X131107068Y-63690500D01*
X132651500Y-63690500D01*
X132651500Y-62145642D01*
X132905500Y-62145642D01*
X132905500Y-63690500D01*
X134449932Y-63690500D01*
X134566695Y-63405695D01*
X134334142Y-62844242D01*
X133843276Y-62323008D01*
X133331243Y-62092691D01*
X139689000Y-62092691D01*
X139689000Y-62833250D01*
X139847750Y-62992000D01*
X141097000Y-62992000D01*
X141097000Y-61742750D01*
X141351000Y-61742750D01*
X141351000Y-62992000D01*
X142600250Y-62992000D01*
X142759000Y-62833250D01*
X142759000Y-62092691D01*
X147944000Y-62092691D01*
X147944000Y-62833250D01*
X148102750Y-62992000D01*
X149352000Y-62992000D01*
X149352000Y-61742750D01*
X149606000Y-61742750D01*
X149606000Y-62992000D01*
X150855250Y-62992000D01*
X151014000Y-62833250D01*
X151014000Y-62092691D01*
X150917327Y-61859302D01*
X150738699Y-61680673D01*
X150505310Y-61584000D01*
X149764750Y-61584000D01*
X149606000Y-61742750D01*
X149352000Y-61742750D01*
X149193250Y-61584000D01*
X148452690Y-61584000D01*
X148219301Y-61680673D01*
X148040673Y-61859302D01*
X147944000Y-62092691D01*
X142759000Y-62092691D01*
X142662327Y-61859302D01*
X142483699Y-61680673D01*
X142250310Y-61584000D01*
X141509750Y-61584000D01*
X141351000Y-61742750D01*
X141097000Y-61742750D01*
X140938250Y-61584000D01*
X140197690Y-61584000D01*
X139964301Y-61680673D01*
X139785673Y-61859302D01*
X139689000Y-62092691D01*
X133331243Y-62092691D01*
X133190307Y-62029297D01*
X132905500Y-62145642D01*
X132651500Y-62145642D01*
X132366693Y-62029297D01*
X131713724Y-62323008D01*
X131222858Y-62844242D01*
X130990305Y-63405695D01*
X129513819Y-63405695D01*
X129255045Y-62779414D01*
X128739301Y-62262770D01*
X128065105Y-61982819D01*
X127335097Y-61982182D01*
X126660414Y-62260955D01*
X126143770Y-62776699D01*
X125863819Y-63450895D01*
X125863182Y-64180903D01*
X122485252Y-64180903D01*
X122485318Y-64105597D01*
X122206545Y-63430914D01*
X121690801Y-62914270D01*
X121016605Y-62634319D01*
X120286597Y-62633682D01*
X119611914Y-62912455D01*
X119095270Y-63428199D01*
X118815319Y-64102395D01*
X118814682Y-64832403D01*
X115722118Y-64832403D01*
X115851438Y-64520967D01*
X115852440Y-63373069D01*
X115414083Y-62312165D01*
X114603104Y-61499769D01*
X113609045Y-61087000D01*
X159921000Y-61087000D01*
X159921000Y-62675250D01*
X160079750Y-62834000D01*
X162179000Y-62834000D01*
X162179000Y-62814000D01*
X162433000Y-62814000D01*
X162433000Y-62834000D01*
X164532250Y-62834000D01*
X164691000Y-62675250D01*
X164691000Y-61087000D01*
X170053000Y-61087000D01*
X170053000Y-111149000D01*
X168045715Y-111149000D01*
X168045715Y-112014000D01*
X167386000Y-112014000D01*
X167336590Y-112024006D01*
X167294965Y-112052447D01*
X167267685Y-112094841D01*
X167259000Y-112141000D01*
X167259000Y-114173000D01*
X99822000Y-114173000D01*
X99822000Y-112123403D01*
X125926682Y-112123403D01*
X126205455Y-112798086D01*
X126721199Y-113314730D01*
X127395395Y-113594681D01*
X128125403Y-113595318D01*
X128800086Y-113316545D01*
X129316730Y-112800801D01*
X129577912Y-112171805D01*
X131053805Y-112171805D01*
X131286358Y-112733258D01*
X131777224Y-113254492D01*
X132430193Y-113548203D01*
X132715000Y-113431858D01*
X132715000Y-111887000D01*
X132969000Y-111887000D01*
X132969000Y-113431858D01*
X133253807Y-113548203D01*
X133906776Y-113254492D01*
X134397642Y-112733258D01*
X134630195Y-112171805D01*
X134513432Y-111887000D01*
X132969000Y-111887000D01*
X132715000Y-111887000D01*
X131170568Y-111887000D01*
X131053805Y-112171805D01*
X129577912Y-112171805D01*
X129596681Y-112126605D01*
X129597318Y-111396597D01*
X129577319Y-111348195D01*
X131053805Y-111348195D01*
X131170568Y-111633000D01*
X132715000Y-111633000D01*
X132715000Y-110088142D01*
X132969000Y-110088142D01*
X132969000Y-111633000D01*
X134513432Y-111633000D01*
X134630195Y-111348195D01*
X134397642Y-110786742D01*
X133906776Y-110265508D01*
X133253807Y-109971797D01*
X132969000Y-110088142D01*
X132715000Y-110088142D01*
X132430193Y-109971797D01*
X131777224Y-110265508D01*
X131286358Y-110786742D01*
X131053805Y-111348195D01*
X129577319Y-111348195D01*
X129318545Y-110721914D01*
X128802801Y-110205270D01*
X128128605Y-109925319D01*
X127398597Y-109924682D01*
X126723914Y-110203455D01*
X126207270Y-110719199D01*
X125927319Y-111393395D01*
X125926682Y-112123403D01*
X99822000Y-112123403D01*
X99822000Y-109767000D01*
X151283560Y-109767000D01*
X151283560Y-111467000D01*
X151327838Y-111702317D01*
X151466910Y-111918441D01*
X151679110Y-112063431D01*
X151931000Y-112114440D01*
X153631000Y-112114440D01*
X153866317Y-112070162D01*
X154082441Y-111931090D01*
X154227431Y-111718890D01*
X154249301Y-111610893D01*
X154554076Y-111888645D01*
X154964110Y-112058476D01*
X155194000Y-111937155D01*
X155194000Y-110744000D01*
X155448000Y-110744000D01*
X155448000Y-111937155D01*
X155677890Y-112058476D01*
X156087924Y-111888645D01*
X156516183Y-111498358D01*
X156762486Y-110973892D01*
X156641819Y-110744000D01*
X155448000Y-110744000D01*
X155194000Y-110744000D01*
X155174000Y-110744000D01*
X155174000Y-110490000D01*
X155194000Y-110490000D01*
X155194000Y-109296845D01*
X155448000Y-109296845D01*
X155448000Y-110490000D01*
X156641819Y-110490000D01*
X156762486Y-110260108D01*
X156530910Y-109767000D01*
X159411560Y-109767000D01*
X159411560Y-111467000D01*
X159455838Y-111702317D01*
X159594910Y-111918441D01*
X159807110Y-112063431D01*
X160059000Y-112114440D01*
X161759000Y-112114440D01*
X161994317Y-112070162D01*
X162210441Y-111931090D01*
X162355431Y-111718890D01*
X162377301Y-111610893D01*
X162682076Y-111888645D01*
X163092110Y-112058476D01*
X163322000Y-111937155D01*
X163322000Y-110744000D01*
X163576000Y-110744000D01*
X163576000Y-111937155D01*
X163805890Y-112058476D01*
X164215924Y-111888645D01*
X164644183Y-111498358D01*
X164890486Y-110973892D01*
X164769819Y-110744000D01*
X163576000Y-110744000D01*
X163322000Y-110744000D01*
X163302000Y-110744000D01*
X163302000Y-110490000D01*
X163322000Y-110490000D01*
X163322000Y-109296845D01*
X163576000Y-109296845D01*
X163576000Y-110490000D01*
X164769819Y-110490000D01*
X164890486Y-110260108D01*
X164644183Y-109735642D01*
X164215924Y-109345355D01*
X163805890Y-109175524D01*
X163576000Y-109296845D01*
X163322000Y-109296845D01*
X163092110Y-109175524D01*
X162682076Y-109345355D01*
X162379063Y-109621501D01*
X162362162Y-109531683D01*
X162223090Y-109315559D01*
X162010890Y-109170569D01*
X161759000Y-109119560D01*
X160059000Y-109119560D01*
X159823683Y-109163838D01*
X159607559Y-109302910D01*
X159462569Y-109515110D01*
X159411560Y-109767000D01*
X156530910Y-109767000D01*
X156516183Y-109735642D01*
X156087924Y-109345355D01*
X155677890Y-109175524D01*
X155448000Y-109296845D01*
X155194000Y-109296845D01*
X154964110Y-109175524D01*
X154554076Y-109345355D01*
X154251063Y-109621501D01*
X154234162Y-109531683D01*
X154095090Y-109315559D01*
X153882890Y-109170569D01*
X153631000Y-109119560D01*
X151931000Y-109119560D01*
X151695683Y-109163838D01*
X151479559Y-109302910D01*
X151334569Y-109515110D01*
X151283560Y-109767000D01*
X99822000Y-109767000D01*
X99822000Y-106467815D01*
X109751630Y-106467815D01*
X110075980Y-107252800D01*
X110676041Y-107853909D01*
X111460459Y-108179628D01*
X112309815Y-108180370D01*
X113094800Y-107856020D01*
X113695909Y-107255959D01*
X113863272Y-106852903D01*
X125863182Y-106852903D01*
X126141955Y-107527586D01*
X126657699Y-108044230D01*
X127331895Y-108324181D01*
X128061903Y-108324818D01*
X128736586Y-108046045D01*
X129253230Y-107530301D01*
X129514412Y-106901305D01*
X130990305Y-106901305D01*
X131222858Y-107462758D01*
X131713724Y-107983992D01*
X132366693Y-108277703D01*
X132651500Y-108161358D01*
X132651500Y-106616500D01*
X132905500Y-106616500D01*
X132905500Y-108161358D01*
X133190307Y-108277703D01*
X133843276Y-107983992D01*
X134334142Y-107462758D01*
X134566695Y-106901305D01*
X134449932Y-106616500D01*
X132905500Y-106616500D01*
X132651500Y-106616500D01*
X131107068Y-106616500D01*
X130990305Y-106901305D01*
X129514412Y-106901305D01*
X129533181Y-106856105D01*
X129533818Y-106126097D01*
X129513819Y-106077695D01*
X130990305Y-106077695D01*
X131107068Y-106362500D01*
X132651500Y-106362500D01*
X132651500Y-104817642D01*
X132905500Y-104817642D01*
X132905500Y-106362500D01*
X134449932Y-106362500D01*
X134566695Y-106077695D01*
X134334142Y-105516242D01*
X133843276Y-104995008D01*
X133571825Y-104872907D01*
X149645000Y-104872907D01*
X149645000Y-104931093D01*
X149758039Y-105499378D01*
X150079946Y-105981147D01*
X150561715Y-106303054D01*
X151130000Y-106416093D01*
X151698285Y-106303054D01*
X152180054Y-105981147D01*
X152400000Y-105651974D01*
X152619946Y-105981147D01*
X153101715Y-106303054D01*
X153670000Y-106416093D01*
X154238285Y-106303054D01*
X154720054Y-105981147D01*
X154747850Y-105939548D01*
X154756838Y-105987317D01*
X154895910Y-106203441D01*
X155108110Y-106348431D01*
X155360000Y-106399440D01*
X157060000Y-106399440D01*
X157295317Y-106355162D01*
X157511441Y-106216090D01*
X157656431Y-106003890D01*
X157707440Y-105752000D01*
X157707440Y-104691540D01*
X162949518Y-104691540D01*
X163372616Y-105715515D01*
X164155365Y-106499631D01*
X165178599Y-106924515D01*
X166286540Y-106925482D01*
X167310515Y-106502384D01*
X168094631Y-105719635D01*
X168519515Y-104696401D01*
X168520482Y-103588460D01*
X168097384Y-102564485D01*
X167314635Y-101780369D01*
X166291401Y-101355485D01*
X165183460Y-101354518D01*
X164159485Y-101777616D01*
X163375369Y-102560365D01*
X162950485Y-103583599D01*
X162949518Y-104691540D01*
X157707440Y-104691540D01*
X157707440Y-104052000D01*
X157663162Y-103816683D01*
X157524090Y-103600559D01*
X157311890Y-103455569D01*
X157060000Y-103404560D01*
X155360000Y-103404560D01*
X155124683Y-103448838D01*
X154908559Y-103587910D01*
X154763569Y-103800110D01*
X154749914Y-103867541D01*
X154720054Y-103822853D01*
X154238285Y-103500946D01*
X153670000Y-103387907D01*
X153101715Y-103500946D01*
X152619946Y-103822853D01*
X152400000Y-104152026D01*
X152180054Y-103822853D01*
X151698285Y-103500946D01*
X151130000Y-103387907D01*
X150561715Y-103500946D01*
X150079946Y-103822853D01*
X149758039Y-104304622D01*
X149645000Y-104872907D01*
X133571825Y-104872907D01*
X133190307Y-104701297D01*
X132905500Y-104817642D01*
X132651500Y-104817642D01*
X132366693Y-104701297D01*
X131713724Y-104995008D01*
X131222858Y-105516242D01*
X130990305Y-106077695D01*
X129513819Y-106077695D01*
X129255045Y-105451414D01*
X128739301Y-104934770D01*
X128065105Y-104654819D01*
X127335097Y-104654182D01*
X126660414Y-104932955D01*
X126143770Y-105448699D01*
X125863819Y-106122895D01*
X125863182Y-106852903D01*
X113863272Y-106852903D01*
X114021628Y-106471541D01*
X114022370Y-105622185D01*
X113698020Y-104837200D01*
X113097959Y-104236091D01*
X112313541Y-103910372D01*
X111464185Y-103909630D01*
X110679200Y-104233980D01*
X110078091Y-104834041D01*
X109752372Y-105618459D01*
X109751630Y-106467815D01*
X99822000Y-106467815D01*
X99822000Y-101518903D01*
X125863182Y-101518903D01*
X126141955Y-102193586D01*
X126657699Y-102710230D01*
X127331895Y-102990181D01*
X128061903Y-102990818D01*
X128736586Y-102712045D01*
X129253230Y-102196301D01*
X129514412Y-101567305D01*
X130990305Y-101567305D01*
X131222858Y-102128758D01*
X131713724Y-102649992D01*
X132366693Y-102943703D01*
X132651500Y-102827358D01*
X132651500Y-101282500D01*
X132905500Y-101282500D01*
X132905500Y-102827358D01*
X133190307Y-102943703D01*
X133843276Y-102649992D01*
X134334142Y-102128758D01*
X134566695Y-101567305D01*
X134449932Y-101282500D01*
X132905500Y-101282500D01*
X132651500Y-101282500D01*
X131107068Y-101282500D01*
X130990305Y-101567305D01*
X129514412Y-101567305D01*
X129533181Y-101522105D01*
X129533818Y-100792097D01*
X129513819Y-100743695D01*
X130990305Y-100743695D01*
X131107068Y-101028500D01*
X132651500Y-101028500D01*
X132651500Y-99483642D01*
X132905500Y-99483642D01*
X132905500Y-101028500D01*
X134449932Y-101028500D01*
X134566695Y-100743695D01*
X134342740Y-100203000D01*
X144154907Y-100203000D01*
X144267946Y-100771285D01*
X144589853Y-101253054D01*
X144919026Y-101473000D01*
X144589853Y-101692946D01*
X144267946Y-102174715D01*
X144154907Y-102743000D01*
X144267946Y-103311285D01*
X144589853Y-103793054D01*
X145071622Y-104114961D01*
X145639907Y-104228000D01*
X145698093Y-104228000D01*
X146266378Y-104114961D01*
X146748147Y-103793054D01*
X147070054Y-103311285D01*
X147183093Y-102743000D01*
X147070054Y-102174715D01*
X146748147Y-101692946D01*
X146418974Y-101473000D01*
X146748147Y-101253054D01*
X147070054Y-100771285D01*
X147183093Y-100203000D01*
X147070054Y-99634715D01*
X146748147Y-99152946D01*
X146706548Y-99125150D01*
X146754317Y-99116162D01*
X146970441Y-98977090D01*
X147115431Y-98764890D01*
X147166440Y-98513000D01*
X147166440Y-96813000D01*
X147122162Y-96577683D01*
X146983090Y-96361559D01*
X146770890Y-96216569D01*
X146519000Y-96165560D01*
X144819000Y-96165560D01*
X144583683Y-96209838D01*
X144367559Y-96348910D01*
X144222569Y-96561110D01*
X144171560Y-96813000D01*
X144171560Y-98513000D01*
X144215838Y-98748317D01*
X144354910Y-98964441D01*
X144567110Y-99109431D01*
X144634541Y-99123086D01*
X144589853Y-99152946D01*
X144267946Y-99634715D01*
X144154907Y-100203000D01*
X134342740Y-100203000D01*
X134334142Y-100182242D01*
X133843276Y-99661008D01*
X133190307Y-99367297D01*
X132905500Y-99483642D01*
X132651500Y-99483642D01*
X132366693Y-99367297D01*
X131713724Y-99661008D01*
X131222858Y-100182242D01*
X130990305Y-100743695D01*
X129513819Y-100743695D01*
X129255045Y-100117414D01*
X128739301Y-99600770D01*
X128065105Y-99320819D01*
X127335097Y-99320182D01*
X126660414Y-99598955D01*
X126143770Y-100114699D01*
X125863819Y-100788895D01*
X125863182Y-101518903D01*
X99822000Y-101518903D01*
X99822000Y-90805000D01*
X113775397Y-90805000D01*
X113880867Y-91335235D01*
X114181221Y-91784746D01*
X114615616Y-92075000D01*
X114181221Y-92365254D01*
X113880867Y-92814765D01*
X113775397Y-93345000D01*
X113880867Y-93875235D01*
X114181221Y-94324746D01*
X114615616Y-94615000D01*
X114181221Y-94905254D01*
X113880867Y-95354765D01*
X113775397Y-95885000D01*
X113880867Y-96415235D01*
X114181221Y-96864746D01*
X114630732Y-97165100D01*
X115160967Y-97270570D01*
X116233033Y-97270570D01*
X116763268Y-97165100D01*
X117212779Y-96864746D01*
X117513133Y-96415235D01*
X117558948Y-96184903D01*
X125863182Y-96184903D01*
X126141955Y-96859586D01*
X126657699Y-97376230D01*
X127331895Y-97656181D01*
X128061903Y-97656818D01*
X128736586Y-97378045D01*
X129253230Y-96862301D01*
X129514412Y-96233305D01*
X130990305Y-96233305D01*
X131222858Y-96794758D01*
X131713724Y-97315992D01*
X132366693Y-97609703D01*
X132651500Y-97493358D01*
X132651500Y-95948500D01*
X132905500Y-95948500D01*
X132905500Y-97493358D01*
X133190307Y-97609703D01*
X133843276Y-97315992D01*
X134334142Y-96794758D01*
X134566695Y-96233305D01*
X134449932Y-95948500D01*
X132905500Y-95948500D01*
X132651500Y-95948500D01*
X131107068Y-95948500D01*
X130990305Y-96233305D01*
X129514412Y-96233305D01*
X129533181Y-96188105D01*
X129533445Y-95885000D01*
X160791907Y-95885000D01*
X160904946Y-96453285D01*
X161226853Y-96935054D01*
X161268452Y-96962850D01*
X161220683Y-96971838D01*
X161004559Y-97110910D01*
X160859569Y-97323110D01*
X160808560Y-97575000D01*
X160808560Y-99275000D01*
X160852838Y-99510317D01*
X160991910Y-99726441D01*
X161204110Y-99871431D01*
X161456000Y-99922440D01*
X163156000Y-99922440D01*
X163391317Y-99878162D01*
X163607441Y-99739090D01*
X163752431Y-99526890D01*
X163803440Y-99275000D01*
X163803440Y-97575000D01*
X163759162Y-97339683D01*
X163620090Y-97123559D01*
X163407890Y-96978569D01*
X163340459Y-96964914D01*
X163385147Y-96935054D01*
X163707054Y-96453285D01*
X163820093Y-95885000D01*
X163707054Y-95316715D01*
X163385147Y-94834946D01*
X162903378Y-94513039D01*
X162335093Y-94400000D01*
X162276907Y-94400000D01*
X161708622Y-94513039D01*
X161226853Y-94834946D01*
X160904946Y-95316715D01*
X160791907Y-95885000D01*
X129533445Y-95885000D01*
X129533818Y-95458097D01*
X129513819Y-95409695D01*
X130990305Y-95409695D01*
X131107068Y-95694500D01*
X132651500Y-95694500D01*
X132651500Y-94149642D01*
X132905500Y-94149642D01*
X132905500Y-95694500D01*
X134449932Y-95694500D01*
X134566695Y-95409695D01*
X134334142Y-94848242D01*
X133843276Y-94327008D01*
X133190307Y-94033297D01*
X132905500Y-94149642D01*
X132651500Y-94149642D01*
X132366693Y-94033297D01*
X131713724Y-94327008D01*
X131222858Y-94848242D01*
X130990305Y-95409695D01*
X129513819Y-95409695D01*
X129255045Y-94783414D01*
X128739301Y-94266770D01*
X128065105Y-93986819D01*
X127335097Y-93986182D01*
X126660414Y-94264955D01*
X126143770Y-94780699D01*
X125863819Y-95454895D01*
X125863182Y-96184903D01*
X117558948Y-96184903D01*
X117618603Y-95885000D01*
X117513133Y-95354765D01*
X117429713Y-95229918D01*
X118679631Y-93980000D01*
X135320370Y-93980000D01*
X135674013Y-94333643D01*
X135673931Y-94427663D01*
X135822493Y-94787212D01*
X136097341Y-95062540D01*
X136456630Y-95211730D01*
X136845663Y-95212069D01*
X137205212Y-95063507D01*
X137480540Y-94788659D01*
X137629730Y-94429370D01*
X137630069Y-94040337D01*
X137481507Y-93680788D01*
X137206659Y-93405460D01*
X136847370Y-93256270D01*
X136751817Y-93256187D01*
X136174814Y-92679184D01*
X135927605Y-92514004D01*
X135636000Y-92456000D01*
X118364000Y-92456000D01*
X118072396Y-92514003D01*
X117825185Y-92679184D01*
X117542411Y-92961958D01*
X117513133Y-92814765D01*
X117212779Y-92365254D01*
X116778384Y-92075000D01*
X117212779Y-91784746D01*
X117513133Y-91335235D01*
X117609472Y-90850903D01*
X125863182Y-90850903D01*
X126141955Y-91525586D01*
X126657699Y-92042230D01*
X127331895Y-92322181D01*
X128061903Y-92322818D01*
X128736586Y-92044045D01*
X129253230Y-91528301D01*
X129514412Y-90899305D01*
X130990305Y-90899305D01*
X131222858Y-91460758D01*
X131713724Y-91981992D01*
X132366693Y-92275703D01*
X132651500Y-92159358D01*
X132651500Y-90614500D01*
X132905500Y-90614500D01*
X132905500Y-92159358D01*
X133190307Y-92275703D01*
X133843276Y-91981992D01*
X134334142Y-91460758D01*
X134566695Y-90899305D01*
X134555363Y-90871663D01*
X145198931Y-90871663D01*
X145347493Y-91231212D01*
X145622341Y-91506540D01*
X145981630Y-91655730D01*
X146370663Y-91656069D01*
X146730212Y-91507507D01*
X146954334Y-91283775D01*
X160408803Y-91283775D01*
X160581233Y-91701086D01*
X160900235Y-92020645D01*
X161317244Y-92193803D01*
X161666560Y-92194108D01*
X161666560Y-92829000D01*
X161710838Y-93064317D01*
X161849910Y-93280441D01*
X162062110Y-93425431D01*
X162314000Y-93476440D01*
X163314000Y-93476440D01*
X163549317Y-93432162D01*
X163765441Y-93293090D01*
X163910431Y-93080890D01*
X163961440Y-92829000D01*
X163961440Y-91829000D01*
X163917162Y-91593683D01*
X163778090Y-91377559D01*
X163565890Y-91232569D01*
X163314000Y-91181560D01*
X162678894Y-91181560D01*
X162679108Y-90936394D01*
X163119375Y-90905217D01*
X163387352Y-90794217D01*
X163424499Y-90579104D01*
X162814000Y-89968605D01*
X162799858Y-89982748D01*
X162620253Y-89803143D01*
X162634395Y-89789000D01*
X162993605Y-89789000D01*
X163604104Y-90399499D01*
X163819217Y-90362352D01*
X163962112Y-89934028D01*
X163930217Y-89483625D01*
X163819217Y-89215648D01*
X163604104Y-89178501D01*
X162993605Y-89789000D01*
X162634395Y-89789000D01*
X162023896Y-89178501D01*
X161808783Y-89215648D01*
X161665888Y-89643972D01*
X161685727Y-89924123D01*
X161319225Y-89923803D01*
X160901914Y-90096233D01*
X160582355Y-90415235D01*
X160409197Y-90832244D01*
X160408803Y-91283775D01*
X146954334Y-91283775D01*
X147005540Y-91232659D01*
X147154730Y-90873370D01*
X147154813Y-90777817D01*
X148933734Y-88998896D01*
X162203501Y-88998896D01*
X162814000Y-89609395D01*
X163424499Y-88998896D01*
X163387352Y-88783783D01*
X162959028Y-88640888D01*
X162508625Y-88672783D01*
X162240648Y-88783783D01*
X162203501Y-88998896D01*
X148933734Y-88998896D01*
X149001815Y-88930816D01*
X149166996Y-88683605D01*
X149175493Y-88640888D01*
X149225000Y-88392000D01*
X149225000Y-83539440D01*
X149313000Y-83539440D01*
X149548317Y-83495162D01*
X149764441Y-83356090D01*
X149909431Y-83143890D01*
X149960440Y-82892000D01*
X149960440Y-81192000D01*
X149916162Y-80956683D01*
X149777090Y-80740559D01*
X149564890Y-80595569D01*
X149497459Y-80581914D01*
X149542147Y-80552054D01*
X149864054Y-80070285D01*
X149977093Y-79502000D01*
X149864054Y-78933715D01*
X149542147Y-78451946D01*
X149201447Y-78224298D01*
X149344358Y-78157183D01*
X149467974Y-78021540D01*
X162949518Y-78021540D01*
X163372616Y-79045515D01*
X164155365Y-79829631D01*
X165178599Y-80254515D01*
X166286540Y-80255482D01*
X167310515Y-79832384D01*
X168094631Y-79049635D01*
X168519515Y-78026401D01*
X168520482Y-76918460D01*
X168097384Y-75894485D01*
X167314635Y-75110369D01*
X166291401Y-74685485D01*
X165183460Y-74684518D01*
X164159485Y-75107616D01*
X163375369Y-75890365D01*
X162950485Y-76913599D01*
X162949518Y-78021540D01*
X149467974Y-78021540D01*
X149734645Y-77728924D01*
X149904476Y-77318890D01*
X149783155Y-77089000D01*
X148590000Y-77089000D01*
X148590000Y-77109000D01*
X148336000Y-77109000D01*
X148336000Y-77089000D01*
X147142845Y-77089000D01*
X147021524Y-77318890D01*
X147191355Y-77728924D01*
X147581642Y-78157183D01*
X147724553Y-78224298D01*
X147383853Y-78451946D01*
X147061946Y-78933715D01*
X146948907Y-79502000D01*
X147061946Y-80070285D01*
X147383853Y-80552054D01*
X147425452Y-80579850D01*
X147377683Y-80588838D01*
X147161559Y-80727910D01*
X147016569Y-80940110D01*
X146965560Y-81192000D01*
X146965560Y-82892000D01*
X147009838Y-83127317D01*
X147148910Y-83343441D01*
X147361110Y-83488431D01*
X147613000Y-83539440D01*
X147701000Y-83539440D01*
X147701000Y-88076369D01*
X146077357Y-89700013D01*
X145983337Y-89699931D01*
X145623788Y-89848493D01*
X145348460Y-90123341D01*
X145199270Y-90482630D01*
X145198931Y-90871663D01*
X134555363Y-90871663D01*
X134449932Y-90614500D01*
X132905500Y-90614500D01*
X132651500Y-90614500D01*
X131107068Y-90614500D01*
X130990305Y-90899305D01*
X129514412Y-90899305D01*
X129533181Y-90854105D01*
X129533818Y-90124097D01*
X129513819Y-90075695D01*
X130990305Y-90075695D01*
X131107068Y-90360500D01*
X132651500Y-90360500D01*
X132651500Y-88815642D01*
X132905500Y-88815642D01*
X132905500Y-90360500D01*
X134449932Y-90360500D01*
X134566695Y-90075695D01*
X134334142Y-89514242D01*
X133843276Y-88993008D01*
X133190307Y-88699297D01*
X132905500Y-88815642D01*
X132651500Y-88815642D01*
X132366693Y-88699297D01*
X131713724Y-88993008D01*
X131222858Y-89514242D01*
X130990305Y-90075695D01*
X129513819Y-90075695D01*
X129255045Y-89449414D01*
X128739301Y-88932770D01*
X128065105Y-88652819D01*
X127335097Y-88652182D01*
X126660414Y-88930955D01*
X126143770Y-89446699D01*
X125863819Y-90120895D01*
X125863182Y-90850903D01*
X117609472Y-90850903D01*
X117618603Y-90805000D01*
X117513133Y-90274765D01*
X117212779Y-89825254D01*
X116763268Y-89524900D01*
X116233033Y-89419430D01*
X115160967Y-89419430D01*
X114630732Y-89524900D01*
X114181221Y-89825254D01*
X113880867Y-90274765D01*
X113775397Y-90805000D01*
X99822000Y-90805000D01*
X99822000Y-85516903D01*
X125863182Y-85516903D01*
X126141955Y-86191586D01*
X126657699Y-86708230D01*
X127331895Y-86988181D01*
X128061903Y-86988818D01*
X128736586Y-86710045D01*
X129253230Y-86194301D01*
X129514412Y-85565305D01*
X130990305Y-85565305D01*
X131222858Y-86126758D01*
X131713724Y-86647992D01*
X132366693Y-86941703D01*
X132651500Y-86825358D01*
X132651500Y-85280500D01*
X132905500Y-85280500D01*
X132905500Y-86825358D01*
X133190307Y-86941703D01*
X133843276Y-86647992D01*
X134334142Y-86126758D01*
X134566695Y-85565305D01*
X134449932Y-85280500D01*
X132905500Y-85280500D01*
X132651500Y-85280500D01*
X131107068Y-85280500D01*
X130990305Y-85565305D01*
X129514412Y-85565305D01*
X129533181Y-85520105D01*
X129533818Y-84790097D01*
X129513819Y-84741695D01*
X130990305Y-84741695D01*
X131107068Y-85026500D01*
X132651500Y-85026500D01*
X132651500Y-83481642D01*
X132905500Y-83481642D01*
X132905500Y-85026500D01*
X134449932Y-85026500D01*
X134566695Y-84741695D01*
X134334142Y-84180242D01*
X134262519Y-84104187D01*
X135470752Y-84104187D01*
X135688757Y-84631800D01*
X136092077Y-85035824D01*
X136619309Y-85254750D01*
X137190187Y-85255248D01*
X137717800Y-85037243D01*
X137927663Y-84827745D01*
X138577861Y-84827745D01*
X138651995Y-85073864D01*
X139189223Y-85266965D01*
X139759454Y-85239778D01*
X140160005Y-85073864D01*
X140234139Y-84827745D01*
X139406000Y-83999605D01*
X138577861Y-84827745D01*
X137927663Y-84827745D01*
X138121824Y-84633923D01*
X138149423Y-84567456D01*
X138152136Y-84574005D01*
X138398255Y-84648139D01*
X139226395Y-83820000D01*
X139585605Y-83820000D01*
X140306248Y-84540642D01*
X140394493Y-84754212D01*
X140462000Y-84821837D01*
X140462000Y-86246917D01*
X140395460Y-86313341D01*
X140246270Y-86672630D01*
X140245931Y-87061663D01*
X140394493Y-87421212D01*
X140669341Y-87696540D01*
X141028630Y-87845730D01*
X141417663Y-87846069D01*
X141777212Y-87697507D01*
X142052540Y-87422659D01*
X142201730Y-87063370D01*
X142202069Y-86674337D01*
X142053507Y-86314788D01*
X141986000Y-86247163D01*
X141986000Y-84822083D01*
X142052540Y-84755659D01*
X142201730Y-84396370D01*
X142202069Y-84007337D01*
X142053507Y-83647788D01*
X141778659Y-83372460D01*
X141419370Y-83223270D01*
X141030337Y-83222931D01*
X140769510Y-83330702D01*
X140659864Y-83065995D01*
X140413745Y-82991861D01*
X139585605Y-83820000D01*
X139226395Y-83820000D01*
X138398255Y-82991861D01*
X138152136Y-83065995D01*
X138149804Y-83072483D01*
X138123243Y-83008200D01*
X137927640Y-82812255D01*
X138577861Y-82812255D01*
X139406000Y-83640395D01*
X140234139Y-82812255D01*
X140160005Y-82566136D01*
X139622777Y-82373035D01*
X139052546Y-82400222D01*
X138651995Y-82566136D01*
X138577861Y-82812255D01*
X137927640Y-82812255D01*
X137719923Y-82604176D01*
X137192691Y-82385250D01*
X136621813Y-82384752D01*
X136094200Y-82602757D01*
X135690176Y-83006077D01*
X135471250Y-83533309D01*
X135470752Y-84104187D01*
X134262519Y-84104187D01*
X133843276Y-83659008D01*
X133190307Y-83365297D01*
X132905500Y-83481642D01*
X132651500Y-83481642D01*
X132366693Y-83365297D01*
X131713724Y-83659008D01*
X131222858Y-84180242D01*
X130990305Y-84741695D01*
X129513819Y-84741695D01*
X129255045Y-84115414D01*
X128739301Y-83598770D01*
X128065105Y-83318819D01*
X127335097Y-83318182D01*
X126660414Y-83596955D01*
X126143770Y-84112699D01*
X125863819Y-84786895D01*
X125863182Y-85516903D01*
X99822000Y-85516903D01*
X99822000Y-81067815D01*
X109751630Y-81067815D01*
X110075980Y-81852800D01*
X110676041Y-82453909D01*
X111460459Y-82779628D01*
X112309815Y-82780370D01*
X113094800Y-82456020D01*
X113695909Y-81855959D01*
X114021628Y-81071541D01*
X114022370Y-80222185D01*
X114006139Y-80182903D01*
X125863182Y-80182903D01*
X126141955Y-80857586D01*
X126657699Y-81374230D01*
X127331895Y-81654181D01*
X128061903Y-81654818D01*
X128736586Y-81376045D01*
X129253230Y-80860301D01*
X129514412Y-80231305D01*
X130990305Y-80231305D01*
X131222858Y-80792758D01*
X131713724Y-81313992D01*
X132366693Y-81607703D01*
X132651500Y-81491358D01*
X132651500Y-79946500D01*
X132905500Y-79946500D01*
X132905500Y-81491358D01*
X133190307Y-81607703D01*
X133843276Y-81313992D01*
X134334142Y-80792758D01*
X134566695Y-80231305D01*
X134449932Y-79946500D01*
X132905500Y-79946500D01*
X132651500Y-79946500D01*
X131107068Y-79946500D01*
X130990305Y-80231305D01*
X129514412Y-80231305D01*
X129533181Y-80186105D01*
X129533818Y-79456097D01*
X129513819Y-79407695D01*
X130990305Y-79407695D01*
X131107068Y-79692500D01*
X132651500Y-79692500D01*
X132651500Y-78147642D01*
X132905500Y-78147642D01*
X132905500Y-79692500D01*
X134449932Y-79692500D01*
X134566695Y-79407695D01*
X134334142Y-78846242D01*
X133843276Y-78325008D01*
X133190307Y-78031297D01*
X132905500Y-78147642D01*
X132651500Y-78147642D01*
X132366693Y-78031297D01*
X131713724Y-78325008D01*
X131222858Y-78846242D01*
X130990305Y-79407695D01*
X129513819Y-79407695D01*
X129255045Y-78781414D01*
X128739301Y-78264770D01*
X128065105Y-77984819D01*
X127335097Y-77984182D01*
X126660414Y-78262955D01*
X126143770Y-78778699D01*
X125863819Y-79452895D01*
X125863182Y-80182903D01*
X114006139Y-80182903D01*
X113698020Y-79437200D01*
X113097959Y-78836091D01*
X112313541Y-78510372D01*
X111464185Y-78509630D01*
X110679200Y-78833980D01*
X110078091Y-79434041D01*
X109752372Y-80218459D01*
X109751630Y-81067815D01*
X99822000Y-81067815D01*
X99822000Y-76605110D01*
X147021524Y-76605110D01*
X147142845Y-76835000D01*
X148336000Y-76835000D01*
X148336000Y-75641181D01*
X148590000Y-75641181D01*
X148590000Y-76835000D01*
X149783155Y-76835000D01*
X149904476Y-76605110D01*
X149734645Y-76195076D01*
X149344358Y-75766817D01*
X148819892Y-75520514D01*
X148590000Y-75641181D01*
X148336000Y-75641181D01*
X148106108Y-75520514D01*
X147581642Y-75766817D01*
X147191355Y-76195076D01*
X147021524Y-76605110D01*
X99822000Y-76605110D01*
X99822000Y-74848903D01*
X125863182Y-74848903D01*
X126141955Y-75523586D01*
X126657699Y-76040230D01*
X127331895Y-76320181D01*
X128061903Y-76320818D01*
X128736586Y-76042045D01*
X129253230Y-75526301D01*
X129514412Y-74897305D01*
X130990305Y-74897305D01*
X131222858Y-75458758D01*
X131713724Y-75979992D01*
X132366693Y-76273703D01*
X132651500Y-76157358D01*
X132651500Y-74612500D01*
X132905500Y-74612500D01*
X132905500Y-76157358D01*
X133190307Y-76273703D01*
X133843276Y-75979992D01*
X134334142Y-75458758D01*
X134566695Y-74897305D01*
X134449932Y-74612500D01*
X132905500Y-74612500D01*
X132651500Y-74612500D01*
X131107068Y-74612500D01*
X130990305Y-74897305D01*
X129514412Y-74897305D01*
X129533181Y-74852105D01*
X129533818Y-74122097D01*
X129513819Y-74073695D01*
X130990305Y-74073695D01*
X131107068Y-74358500D01*
X132651500Y-74358500D01*
X132651500Y-72813642D01*
X132905500Y-72813642D01*
X132905500Y-74358500D01*
X134449932Y-74358500D01*
X134566695Y-74073695D01*
X134334142Y-73512242D01*
X133843276Y-72991008D01*
X133190307Y-72697297D01*
X132905500Y-72813642D01*
X132651500Y-72813642D01*
X132366693Y-72697297D01*
X131713724Y-72991008D01*
X131222858Y-73512242D01*
X130990305Y-74073695D01*
X129513819Y-74073695D01*
X129255045Y-73447414D01*
X128739301Y-72930770D01*
X128065105Y-72650819D01*
X127335097Y-72650182D01*
X126660414Y-72928955D01*
X126143770Y-73444699D01*
X125863819Y-74118895D01*
X125863182Y-74848903D01*
X99822000Y-74848903D01*
X99822000Y-72350286D01*
X111090319Y-72350286D01*
X111341611Y-72747033D01*
X112403842Y-73182164D01*
X113551733Y-73177673D01*
X114591389Y-72747033D01*
X114842681Y-72350286D01*
X112966500Y-70474105D01*
X111090319Y-72350286D01*
X99822000Y-72350286D01*
X99822000Y-69731842D01*
X110078836Y-69731842D01*
X110083327Y-70879733D01*
X110513967Y-71919389D01*
X110910714Y-72170681D01*
X112786895Y-70294500D01*
X113146105Y-70294500D01*
X115022286Y-72170681D01*
X115419033Y-71919389D01*
X115854164Y-70857158D01*
X115853809Y-70766175D01*
X119532430Y-70766175D01*
X119655565Y-71053788D01*
X120337734Y-71313707D01*
X121067443Y-71292786D01*
X121644435Y-71053788D01*
X121767570Y-70766175D01*
X120650000Y-69648605D01*
X119532430Y-70766175D01*
X115853809Y-70766175D01*
X115849673Y-69709267D01*
X115620807Y-69156734D01*
X118805293Y-69156734D01*
X118826214Y-69886443D01*
X119065212Y-70463435D01*
X119352825Y-70586570D01*
X120470395Y-69469000D01*
X120829605Y-69469000D01*
X121947175Y-70586570D01*
X122234788Y-70463435D01*
X122494707Y-69781266D01*
X122487071Y-69514903D01*
X125863182Y-69514903D01*
X126141955Y-70189586D01*
X126657699Y-70706230D01*
X127331895Y-70986181D01*
X128061903Y-70986818D01*
X128736586Y-70708045D01*
X129253230Y-70192301D01*
X129514412Y-69563305D01*
X130990305Y-69563305D01*
X131222858Y-70124758D01*
X131713724Y-70645992D01*
X132366693Y-70939703D01*
X132651500Y-70823358D01*
X132651500Y-69278500D01*
X132905500Y-69278500D01*
X132905500Y-70823358D01*
X133190307Y-70939703D01*
X133843276Y-70645992D01*
X134334142Y-70124758D01*
X134566695Y-69563305D01*
X134449932Y-69278500D01*
X132905500Y-69278500D01*
X132651500Y-69278500D01*
X131107068Y-69278500D01*
X130990305Y-69563305D01*
X129514412Y-69563305D01*
X129533181Y-69518105D01*
X129533818Y-68788097D01*
X129513819Y-68739695D01*
X130990305Y-68739695D01*
X131107068Y-69024500D01*
X132651500Y-69024500D01*
X132651500Y-67479642D01*
X132905500Y-67479642D01*
X132905500Y-69024500D01*
X134449932Y-69024500D01*
X134566695Y-68739695D01*
X134334142Y-68178242D01*
X133843276Y-67657008D01*
X133190307Y-67363297D01*
X132905500Y-67479642D01*
X132651500Y-67479642D01*
X132366693Y-67363297D01*
X131713724Y-67657008D01*
X131222858Y-68178242D01*
X130990305Y-68739695D01*
X129513819Y-68739695D01*
X129255045Y-68113414D01*
X128739301Y-67596770D01*
X128065105Y-67316819D01*
X127335097Y-67316182D01*
X126660414Y-67594955D01*
X126143770Y-68110699D01*
X125863819Y-68784895D01*
X125863182Y-69514903D01*
X122487071Y-69514903D01*
X122473786Y-69051557D01*
X122234788Y-68474565D01*
X121947175Y-68351430D01*
X120829605Y-69469000D01*
X120470395Y-69469000D01*
X119352825Y-68351430D01*
X119065212Y-68474565D01*
X118805293Y-69156734D01*
X115620807Y-69156734D01*
X115419033Y-68669611D01*
X115022286Y-68418319D01*
X113146105Y-70294500D01*
X112786895Y-70294500D01*
X110910714Y-68418319D01*
X110513967Y-68669611D01*
X110078836Y-69731842D01*
X99822000Y-69731842D01*
X99822000Y-67099540D01*
X101354518Y-67099540D01*
X101777616Y-68123515D01*
X102560365Y-68907631D01*
X103583599Y-69332515D01*
X104691540Y-69333482D01*
X105715515Y-68910384D01*
X106388358Y-68238714D01*
X111090319Y-68238714D01*
X112966500Y-70114895D01*
X114842681Y-68238714D01*
X114800315Y-68171825D01*
X119532430Y-68171825D01*
X120650000Y-69289395D01*
X121767570Y-68171825D01*
X121644435Y-67884212D01*
X120962266Y-67624293D01*
X120232557Y-67645214D01*
X119655565Y-67884212D01*
X119532430Y-68171825D01*
X114800315Y-68171825D01*
X114591389Y-67841967D01*
X113529158Y-67406836D01*
X112381267Y-67411327D01*
X111341611Y-67841967D01*
X111090319Y-68238714D01*
X106388358Y-68238714D01*
X106499631Y-68127635D01*
X106924515Y-67104401D01*
X106925482Y-65996460D01*
X106502384Y-64972485D01*
X105719635Y-64188369D01*
X104696401Y-63763485D01*
X103588460Y-63762518D01*
X102564485Y-64185616D01*
X101780369Y-64968365D01*
X101355485Y-65991599D01*
X101354518Y-67099540D01*
X99822000Y-67099540D01*
X99822000Y-61087000D01*
X112326239Y-61087000D01*
X111334165Y-61496917D01*
M02*
