M48
;DRILL file {KiCad 4.0.1-stable} date 10/30/2017 21:56:52
;FORMAT={2:4/ absolute / inch / suppress trailing zeros}
FMAT,2
INCH,LZ
T1C0.013
T2C0.024
T3C0.031
T4C0.035
T5C0.039
T6C0.039
T7C0.047
T8C0.079
T9C0.094
T10C0.169
%
G90
G05
M72
T1
X05325Y-036
X0538Y-0371
X0538Y-0395
X0555Y-03125
X0556Y-03315
X0556Y-0342
X05715Y-0428
X05755Y-0357
X05755Y-03715
X06045Y-03665
X06175Y-02865
X0619Y-03835
X0625Y-03155
X06405Y-03465
X0642Y-0334
T2
X0636Y-03585
X0641Y-03535
X0641Y-03635
T3
X0539Y-033
X054884Y-033
T4
X0556Y-02485
X0556Y-02585
X05885Y-02485
X05885Y-02585
T5
X05735Y-03845
X05735Y-03945
X05735Y-04045
X05845Y-0303
X05845Y-0313
X05845Y-0323
X0595Y-0413
X06015Y-04355
X0605Y-0413
X06115Y-04355
X0615Y-0413
X06335Y-04355
X0639Y-03775
X0639Y-03875
X06435Y-04355
T6
X04555Y-03575
X04555Y-03675
X04555Y-03775
T7
X0475Y-025381
X0475Y-02735
X050275Y-025125
X050275Y-027225
X050275Y-029325
X050275Y-031425
X050275Y-033525
X050275Y-035625
X050275Y-037725
X050275Y-039825
X050275Y-041925
X0503Y-044
X052275Y-025125
X052275Y-027225
X052275Y-029325
X052275Y-031425
X052275Y-033525
X052275Y-035625
X052275Y-037725
X052275Y-039825
X052275Y-041925
X0523Y-044
T8
X044475Y-025175
X044475Y-027675
T9
X04405Y-03175
X04405Y-04175
T10
X041Y-0262
X06525Y-0305
X06525Y-041
T5
X06205Y-025575G85X06205Y-026363
G05
X064294Y-024788G85X063506Y-024788
G05
X064294Y-02715G85X063506Y-02715
G05
T0
M30
