G04 #@! TF.FileFunction,Legend,Bot*
%FSLAX46Y46*%
G04 Gerber Fmt 4.6, Leading zero omitted, Abs format (unit mm)*
G04 Created by KiCad (PCBNEW 4.0.1-stable) date 10/30/2017 21:56:45*
%MOMM*%
G01*
G04 APERTURE LIST*
%ADD10C,0.100000*%
%ADD11C,0.300000*%
%ADD12C,0.010000*%
%ADD13C,0.254000*%
G04 APERTURE END LIST*
D10*
D11*
X123164999Y-112589571D02*
X123164999Y-113661000D01*
X123236427Y-113875286D01*
X123379284Y-114018143D01*
X123593570Y-114089571D01*
X123736427Y-114089571D01*
X122664999Y-112589571D02*
X121807856Y-112589571D01*
X122236427Y-114089571D02*
X122236427Y-112589571D01*
X121022142Y-112589571D02*
X120879285Y-112589571D01*
X120736428Y-112661000D01*
X120664999Y-112732429D01*
X120593570Y-112875286D01*
X120522142Y-113161000D01*
X120522142Y-113518143D01*
X120593570Y-113803857D01*
X120664999Y-113946714D01*
X120736428Y-114018143D01*
X120879285Y-114089571D01*
X121022142Y-114089571D01*
X121164999Y-114018143D01*
X121236428Y-113946714D01*
X121307856Y-113803857D01*
X121379285Y-113518143D01*
X121379285Y-113161000D01*
X121307856Y-112875286D01*
X121236428Y-112732429D01*
X121164999Y-112661000D01*
X121022142Y-112589571D01*
X119593571Y-112589571D02*
X119450714Y-112589571D01*
X119307857Y-112661000D01*
X119236428Y-112732429D01*
X119164999Y-112875286D01*
X119093571Y-113161000D01*
X119093571Y-113518143D01*
X119164999Y-113803857D01*
X119236428Y-113946714D01*
X119307857Y-114018143D01*
X119450714Y-114089571D01*
X119593571Y-114089571D01*
X119736428Y-114018143D01*
X119807857Y-113946714D01*
X119879285Y-113803857D01*
X119950714Y-113518143D01*
X119950714Y-113161000D01*
X119879285Y-112875286D01*
X119807857Y-112732429D01*
X119736428Y-112661000D01*
X119593571Y-112589571D01*
X117665000Y-114089571D02*
X118522143Y-114089571D01*
X118093571Y-114089571D02*
X118093571Y-112589571D01*
X118236428Y-112803857D01*
X118379286Y-112946714D01*
X118522143Y-113018143D01*
X115879286Y-114089571D02*
X115879286Y-112589571D01*
X115307858Y-112589571D01*
X115165000Y-112661000D01*
X115093572Y-112732429D01*
X115022143Y-112875286D01*
X115022143Y-113089571D01*
X115093572Y-113232429D01*
X115165000Y-113303857D01*
X115307858Y-113375286D01*
X115879286Y-113375286D01*
X113522143Y-113946714D02*
X113593572Y-114018143D01*
X113807858Y-114089571D01*
X113950715Y-114089571D01*
X114165000Y-114018143D01*
X114307858Y-113875286D01*
X114379286Y-113732429D01*
X114450715Y-113446714D01*
X114450715Y-113232429D01*
X114379286Y-112946714D01*
X114307858Y-112803857D01*
X114165000Y-112661000D01*
X113950715Y-112589571D01*
X113807858Y-112589571D01*
X113593572Y-112661000D01*
X113522143Y-112732429D01*
X112379286Y-113303857D02*
X112165000Y-113375286D01*
X112093572Y-113446714D01*
X112022143Y-113589571D01*
X112022143Y-113803857D01*
X112093572Y-113946714D01*
X112165000Y-114018143D01*
X112307858Y-114089571D01*
X112879286Y-114089571D01*
X112879286Y-112589571D01*
X112379286Y-112589571D01*
X112236429Y-112661000D01*
X112165000Y-112732429D01*
X112093572Y-112875286D01*
X112093572Y-113018143D01*
X112165000Y-113161000D01*
X112236429Y-113232429D01*
X112379286Y-113303857D01*
X112879286Y-113303857D01*
X109379286Y-114089571D02*
X109879286Y-113375286D01*
X110236429Y-114089571D02*
X110236429Y-112589571D01*
X109665001Y-112589571D01*
X109522143Y-112661000D01*
X109450715Y-112732429D01*
X109379286Y-112875286D01*
X109379286Y-113089571D01*
X109450715Y-113232429D01*
X109522143Y-113303857D01*
X109665001Y-113375286D01*
X110236429Y-113375286D01*
X108165001Y-114018143D02*
X108307858Y-114089571D01*
X108593572Y-114089571D01*
X108736429Y-114018143D01*
X108807858Y-113875286D01*
X108807858Y-113303857D01*
X108736429Y-113161000D01*
X108593572Y-113089571D01*
X108307858Y-113089571D01*
X108165001Y-113161000D01*
X108093572Y-113303857D01*
X108093572Y-113446714D01*
X108807858Y-113589571D01*
X107593572Y-113089571D02*
X107236429Y-114089571D01*
X106879287Y-113089571D01*
X104379287Y-114089571D02*
X105236430Y-114089571D01*
X104807858Y-114089571D02*
X104807858Y-112589571D01*
X104950715Y-112803857D01*
X105093573Y-112946714D01*
X105236430Y-113018143D01*
X103736430Y-113946714D02*
X103665002Y-114018143D01*
X103736430Y-114089571D01*
X103807859Y-114018143D01*
X103736430Y-113946714D01*
X103736430Y-114089571D01*
X150243999Y-107612571D02*
X150243999Y-106112571D01*
X149672571Y-106112571D01*
X149529713Y-106184000D01*
X149458285Y-106255429D01*
X149386856Y-106398286D01*
X149386856Y-106612571D01*
X149458285Y-106755429D01*
X149529713Y-106826857D01*
X149672571Y-106898286D01*
X150243999Y-106898286D01*
X148743999Y-107612571D02*
X148743999Y-106612571D01*
X148743999Y-106898286D02*
X148672571Y-106755429D01*
X148601142Y-106684000D01*
X148458285Y-106612571D01*
X148315428Y-106612571D01*
X147601142Y-107612571D02*
X147744000Y-107541143D01*
X147815428Y-107469714D01*
X147886857Y-107326857D01*
X147886857Y-106898286D01*
X147815428Y-106755429D01*
X147744000Y-106684000D01*
X147601142Y-106612571D01*
X147386857Y-106612571D01*
X147244000Y-106684000D01*
X147172571Y-106755429D01*
X147101142Y-106898286D01*
X147101142Y-107326857D01*
X147172571Y-107469714D01*
X147244000Y-107541143D01*
X147386857Y-107612571D01*
X147601142Y-107612571D01*
X145815428Y-106612571D02*
X145815428Y-107826857D01*
X145886857Y-107969714D01*
X145958285Y-108041143D01*
X146101142Y-108112571D01*
X146315428Y-108112571D01*
X146458285Y-108041143D01*
X145815428Y-107541143D02*
X145958285Y-107612571D01*
X146243999Y-107612571D01*
X146386857Y-107541143D01*
X146458285Y-107469714D01*
X146529714Y-107326857D01*
X146529714Y-106898286D01*
X146458285Y-106755429D01*
X146386857Y-106684000D01*
X146243999Y-106612571D01*
X145958285Y-106612571D01*
X145815428Y-106684000D01*
X145101142Y-107612571D02*
X145101142Y-106612571D01*
X145101142Y-106898286D02*
X145029714Y-106755429D01*
X144958285Y-106684000D01*
X144815428Y-106612571D01*
X144672571Y-106612571D01*
X143529714Y-107612571D02*
X143529714Y-106826857D01*
X143601143Y-106684000D01*
X143744000Y-106612571D01*
X144029714Y-106612571D01*
X144172571Y-106684000D01*
X143529714Y-107541143D02*
X143672571Y-107612571D01*
X144029714Y-107612571D01*
X144172571Y-107541143D01*
X144244000Y-107398286D01*
X144244000Y-107255429D01*
X144172571Y-107112571D01*
X144029714Y-107041143D01*
X143672571Y-107041143D01*
X143529714Y-106969714D01*
X142815428Y-107612571D02*
X142815428Y-106612571D01*
X142815428Y-106755429D02*
X142744000Y-106684000D01*
X142601142Y-106612571D01*
X142386857Y-106612571D01*
X142244000Y-106684000D01*
X142172571Y-106826857D01*
X142172571Y-107612571D01*
X142172571Y-106826857D02*
X142101142Y-106684000D01*
X141958285Y-106612571D01*
X141744000Y-106612571D01*
X141601142Y-106684000D01*
X141529714Y-106826857D01*
X141529714Y-107612571D01*
X140815428Y-107612571D02*
X140815428Y-106612571D01*
X140815428Y-106755429D02*
X140744000Y-106684000D01*
X140601142Y-106612571D01*
X140386857Y-106612571D01*
X140244000Y-106684000D01*
X140172571Y-106826857D01*
X140172571Y-107612571D01*
X140172571Y-106826857D02*
X140101142Y-106684000D01*
X139958285Y-106612571D01*
X139744000Y-106612571D01*
X139601142Y-106684000D01*
X139529714Y-106826857D01*
X139529714Y-107612571D01*
X138172571Y-107612571D02*
X138172571Y-106826857D01*
X138244000Y-106684000D01*
X138386857Y-106612571D01*
X138672571Y-106612571D01*
X138815428Y-106684000D01*
X138172571Y-107541143D02*
X138315428Y-107612571D01*
X138672571Y-107612571D01*
X138815428Y-107541143D01*
X138886857Y-107398286D01*
X138886857Y-107255429D01*
X138815428Y-107112571D01*
X138672571Y-107041143D01*
X138315428Y-107041143D01*
X138172571Y-106969714D01*
X137458285Y-107612571D02*
X137458285Y-106112571D01*
X137458285Y-106684000D02*
X137315428Y-106612571D01*
X137029714Y-106612571D01*
X136886857Y-106684000D01*
X136815428Y-106755429D01*
X136743999Y-106898286D01*
X136743999Y-107326857D01*
X136815428Y-107469714D01*
X136886857Y-107541143D01*
X137029714Y-107612571D01*
X137315428Y-107612571D01*
X137458285Y-107541143D01*
X135886856Y-107612571D02*
X136029714Y-107541143D01*
X136101142Y-107398286D01*
X136101142Y-106112571D01*
X134744000Y-107541143D02*
X134886857Y-107612571D01*
X135172571Y-107612571D01*
X135315428Y-107541143D01*
X135386857Y-107398286D01*
X135386857Y-106826857D01*
X135315428Y-106684000D01*
X135172571Y-106612571D01*
X134886857Y-106612571D01*
X134744000Y-106684000D01*
X134672571Y-106826857D01*
X134672571Y-106969714D01*
X135386857Y-107112571D01*
X148601142Y-109501714D02*
X148672571Y-109573143D01*
X148886857Y-109644571D01*
X149029714Y-109644571D01*
X149243999Y-109573143D01*
X149386857Y-109430286D01*
X149458285Y-109287429D01*
X149529714Y-109001714D01*
X149529714Y-108787429D01*
X149458285Y-108501714D01*
X149386857Y-108358857D01*
X149243999Y-108216000D01*
X149029714Y-108144571D01*
X148886857Y-108144571D01*
X148672571Y-108216000D01*
X148601142Y-108287429D01*
X147315428Y-108644571D02*
X147315428Y-109644571D01*
X147958285Y-108644571D02*
X147958285Y-109430286D01*
X147886857Y-109573143D01*
X147743999Y-109644571D01*
X147529714Y-109644571D01*
X147386857Y-109573143D01*
X147315428Y-109501714D01*
X146601142Y-109644571D02*
X146601142Y-108644571D01*
X146601142Y-108930286D02*
X146529714Y-108787429D01*
X146458285Y-108716000D01*
X146315428Y-108644571D01*
X146172571Y-108644571D01*
X145672571Y-109644571D02*
X145672571Y-108644571D01*
X145672571Y-108930286D02*
X145601143Y-108787429D01*
X145529714Y-108716000D01*
X145386857Y-108644571D01*
X145244000Y-108644571D01*
X144172572Y-109573143D02*
X144315429Y-109644571D01*
X144601143Y-109644571D01*
X144744000Y-109573143D01*
X144815429Y-109430286D01*
X144815429Y-108858857D01*
X144744000Y-108716000D01*
X144601143Y-108644571D01*
X144315429Y-108644571D01*
X144172572Y-108716000D01*
X144101143Y-108858857D01*
X144101143Y-109001714D01*
X144815429Y-109144571D01*
X143458286Y-108644571D02*
X143458286Y-109644571D01*
X143458286Y-108787429D02*
X143386858Y-108716000D01*
X143244000Y-108644571D01*
X143029715Y-108644571D01*
X142886858Y-108716000D01*
X142815429Y-108858857D01*
X142815429Y-109644571D01*
X142315429Y-108644571D02*
X141744000Y-108644571D01*
X142101143Y-108144571D02*
X142101143Y-109430286D01*
X142029715Y-109573143D01*
X141886857Y-109644571D01*
X141744000Y-109644571D01*
X139386857Y-109644571D02*
X140101143Y-109644571D01*
X140101143Y-108144571D01*
X138672571Y-109644571D02*
X138815429Y-109573143D01*
X138886857Y-109501714D01*
X138958286Y-109358857D01*
X138958286Y-108930286D01*
X138886857Y-108787429D01*
X138815429Y-108716000D01*
X138672571Y-108644571D01*
X138458286Y-108644571D01*
X138315429Y-108716000D01*
X138244000Y-108787429D01*
X138172571Y-108930286D01*
X138172571Y-109358857D01*
X138244000Y-109501714D01*
X138315429Y-109573143D01*
X138458286Y-109644571D01*
X138672571Y-109644571D01*
X136886857Y-109644571D02*
X136886857Y-108858857D01*
X136958286Y-108716000D01*
X137101143Y-108644571D01*
X137386857Y-108644571D01*
X137529714Y-108716000D01*
X136886857Y-109573143D02*
X137029714Y-109644571D01*
X137386857Y-109644571D01*
X137529714Y-109573143D01*
X137601143Y-109430286D01*
X137601143Y-109287429D01*
X137529714Y-109144571D01*
X137386857Y-109073143D01*
X137029714Y-109073143D01*
X136886857Y-109001714D01*
X135529714Y-109644571D02*
X135529714Y-108144571D01*
X135529714Y-109573143D02*
X135672571Y-109644571D01*
X135958285Y-109644571D01*
X136101143Y-109573143D01*
X136172571Y-109501714D01*
X136244000Y-109358857D01*
X136244000Y-108930286D01*
X136172571Y-108787429D01*
X136101143Y-108716000D01*
X135958285Y-108644571D01*
X135672571Y-108644571D01*
X135529714Y-108716000D01*
X148533714Y-110373571D02*
X148533714Y-111445000D01*
X148605142Y-111659286D01*
X148747999Y-111802143D01*
X148962285Y-111873571D01*
X149105142Y-111873571D01*
X147176571Y-111873571D02*
X147176571Y-111087857D01*
X147248000Y-110945000D01*
X147390857Y-110873571D01*
X147676571Y-110873571D01*
X147819428Y-110945000D01*
X147176571Y-111802143D02*
X147319428Y-111873571D01*
X147676571Y-111873571D01*
X147819428Y-111802143D01*
X147890857Y-111659286D01*
X147890857Y-111516429D01*
X147819428Y-111373571D01*
X147676571Y-111302143D01*
X147319428Y-111302143D01*
X147176571Y-111230714D01*
X145819428Y-111802143D02*
X145962285Y-111873571D01*
X146247999Y-111873571D01*
X146390857Y-111802143D01*
X146462285Y-111730714D01*
X146533714Y-111587857D01*
X146533714Y-111159286D01*
X146462285Y-111016429D01*
X146390857Y-110945000D01*
X146247999Y-110873571D01*
X145962285Y-110873571D01*
X145819428Y-110945000D01*
X145176571Y-111873571D02*
X145176571Y-110373571D01*
X145033714Y-111302143D02*
X144605143Y-111873571D01*
X144605143Y-110873571D02*
X145176571Y-111445000D01*
X144105142Y-110873571D02*
X143747999Y-111873571D01*
X143390857Y-110873571D02*
X143747999Y-111873571D01*
X143890857Y-112230714D01*
X143962285Y-112302143D01*
X144105142Y-112373571D01*
X142605142Y-111873571D02*
X142748000Y-111802143D01*
X142819428Y-111659286D01*
X142819428Y-110373571D01*
X141105143Y-110373571D02*
X140248000Y-110373571D01*
X140676571Y-111873571D02*
X140676571Y-110373571D01*
X139176572Y-111802143D02*
X139319429Y-111873571D01*
X139605143Y-111873571D01*
X139748000Y-111802143D01*
X139819429Y-111659286D01*
X139819429Y-111087857D01*
X139748000Y-110945000D01*
X139605143Y-110873571D01*
X139319429Y-110873571D01*
X139176572Y-110945000D01*
X139105143Y-111087857D01*
X139105143Y-111230714D01*
X139819429Y-111373571D01*
X137819429Y-111802143D02*
X137962286Y-111873571D01*
X138248000Y-111873571D01*
X138390858Y-111802143D01*
X138462286Y-111730714D01*
X138533715Y-111587857D01*
X138533715Y-111159286D01*
X138462286Y-111016429D01*
X138390858Y-110945000D01*
X138248000Y-110873571D01*
X137962286Y-110873571D01*
X137819429Y-110945000D01*
X137176572Y-111873571D02*
X137176572Y-110373571D01*
X136533715Y-111873571D02*
X136533715Y-111087857D01*
X136605144Y-110945000D01*
X136748001Y-110873571D01*
X136962286Y-110873571D01*
X137105144Y-110945000D01*
X137176572Y-111016429D01*
X144176571Y-112916429D02*
X144105142Y-112845000D01*
X143962285Y-112773571D01*
X143605142Y-112773571D01*
X143462285Y-112845000D01*
X143390856Y-112916429D01*
X143319428Y-113059286D01*
X143319428Y-113202143D01*
X143390856Y-113416429D01*
X144247999Y-114273571D01*
X143319428Y-114273571D01*
X142390857Y-112773571D02*
X142248000Y-112773571D01*
X142105143Y-112845000D01*
X142033714Y-112916429D01*
X141962285Y-113059286D01*
X141890857Y-113345000D01*
X141890857Y-113702143D01*
X141962285Y-113987857D01*
X142033714Y-114130714D01*
X142105143Y-114202143D01*
X142248000Y-114273571D01*
X142390857Y-114273571D01*
X142533714Y-114202143D01*
X142605143Y-114130714D01*
X142676571Y-113987857D01*
X142748000Y-113702143D01*
X142748000Y-113345000D01*
X142676571Y-113059286D01*
X142605143Y-112916429D01*
X142533714Y-112845000D01*
X142390857Y-112773571D01*
X140462286Y-114273571D02*
X141319429Y-114273571D01*
X140890857Y-114273571D02*
X140890857Y-112773571D01*
X141033714Y-112987857D01*
X141176572Y-113130714D01*
X141319429Y-113202143D01*
X139962286Y-112773571D02*
X138962286Y-112773571D01*
X139605143Y-114273571D01*
D12*
G36*
X151184686Y-98341316D02*
X151183183Y-98345625D01*
X151131633Y-98457160D01*
X151106163Y-98444843D01*
X151048735Y-98352398D01*
X151019765Y-98345625D01*
X150965920Y-98412717D01*
X150957228Y-98538340D01*
X150988534Y-98670898D01*
X151030039Y-98695912D01*
X151086042Y-98733604D01*
X151121454Y-98840541D01*
X151150800Y-98941240D01*
X151166816Y-98921093D01*
X151241520Y-98832729D01*
X151296688Y-98821875D01*
X151383203Y-98764853D01*
X151404523Y-98580563D01*
X151403858Y-98563906D01*
X151394108Y-98401642D01*
X151381729Y-98391023D01*
X151358898Y-98524218D01*
X151312792Y-98701539D01*
X151264024Y-98733291D01*
X151231480Y-98631186D01*
X151230897Y-98444843D01*
X151239850Y-98268808D01*
X151226414Y-98238391D01*
X151184686Y-98341316D01*
X151184686Y-98341316D01*
G37*
X151184686Y-98341316D02*
X151183183Y-98345625D01*
X151131633Y-98457160D01*
X151106163Y-98444843D01*
X151048735Y-98352398D01*
X151019765Y-98345625D01*
X150965920Y-98412717D01*
X150957228Y-98538340D01*
X150988534Y-98670898D01*
X151030039Y-98695912D01*
X151086042Y-98733604D01*
X151121454Y-98840541D01*
X151150800Y-98941240D01*
X151166816Y-98921093D01*
X151241520Y-98832729D01*
X151296688Y-98821875D01*
X151383203Y-98764853D01*
X151404523Y-98580563D01*
X151403858Y-98563906D01*
X151394108Y-98401642D01*
X151381729Y-98391023D01*
X151358898Y-98524218D01*
X151312792Y-98701539D01*
X151264024Y-98733291D01*
X151231480Y-98631186D01*
X151230897Y-98444843D01*
X151239850Y-98268808D01*
X151226414Y-98238391D01*
X151184686Y-98341316D01*
G36*
X150939500Y-98940937D02*
X150979188Y-98980625D01*
X151018875Y-98940937D01*
X150979188Y-98901250D01*
X150939500Y-98940937D01*
X150939500Y-98940937D01*
G37*
X150939500Y-98940937D02*
X150979188Y-98980625D01*
X151018875Y-98940937D01*
X150979188Y-98901250D01*
X150939500Y-98940937D01*
G36*
X152653024Y-98096476D02*
X152634436Y-98229518D01*
X152642249Y-98364112D01*
X152700787Y-98364294D01*
X152726588Y-98344670D01*
X152838168Y-98302161D01*
X152882152Y-98342331D01*
X152868059Y-98436976D01*
X152814856Y-98471817D01*
X152731380Y-98563228D01*
X152735135Y-98620084D01*
X152840306Y-98699028D01*
X153032747Y-98719925D01*
X153228812Y-98682282D01*
X153252519Y-98614175D01*
X153152181Y-98464718D01*
X153034109Y-98336583D01*
X152859754Y-98165550D01*
X152731504Y-98053565D01*
X152689485Y-98028181D01*
X152653024Y-98096476D01*
X152653024Y-98096476D01*
G37*
X152653024Y-98096476D02*
X152634436Y-98229518D01*
X152642249Y-98364112D01*
X152700787Y-98364294D01*
X152726588Y-98344670D01*
X152838168Y-98302161D01*
X152882152Y-98342331D01*
X152868059Y-98436976D01*
X152814856Y-98471817D01*
X152731380Y-98563228D01*
X152735135Y-98620084D01*
X152840306Y-98699028D01*
X153032747Y-98719925D01*
X153228812Y-98682282D01*
X153252519Y-98614175D01*
X153152181Y-98464718D01*
X153034109Y-98336583D01*
X152859754Y-98165550D01*
X152731504Y-98053565D01*
X152689485Y-98028181D01*
X152653024Y-98096476D01*
G36*
X152394709Y-98213333D02*
X152405605Y-98260521D01*
X152447625Y-98266250D01*
X152512960Y-98237207D01*
X152500542Y-98213333D01*
X152406343Y-98203833D01*
X152394709Y-98213333D01*
X152394709Y-98213333D01*
G37*
X152394709Y-98213333D02*
X152405605Y-98260521D01*
X152447625Y-98266250D01*
X152512960Y-98237207D01*
X152500542Y-98213333D01*
X152406343Y-98203833D01*
X152394709Y-98213333D01*
G36*
X151437124Y-97132761D02*
X151424733Y-97432427D01*
X151431310Y-97764085D01*
X151436684Y-97847136D01*
X151449210Y-97939964D01*
X151459237Y-97888096D01*
X151465495Y-97705580D01*
X151466951Y-97512187D01*
X151464306Y-97242763D01*
X151456825Y-97088907D01*
X151445783Y-97066834D01*
X151437124Y-97132761D01*
X151437124Y-97132761D01*
G37*
X151437124Y-97132761D02*
X151424733Y-97432427D01*
X151431310Y-97764085D01*
X151436684Y-97847136D01*
X151449210Y-97939964D01*
X151459237Y-97888096D01*
X151465495Y-97705580D01*
X151466951Y-97512187D01*
X151464306Y-97242763D01*
X151456825Y-97088907D01*
X151445783Y-97066834D01*
X151437124Y-97132761D01*
G36*
X151109321Y-97955826D02*
X151098250Y-98001666D01*
X151140728Y-98098578D01*
X151169133Y-98107500D01*
X151257775Y-98044961D01*
X151280628Y-98001666D01*
X151257860Y-97908657D01*
X151209745Y-97895833D01*
X151109321Y-97955826D01*
X151109321Y-97955826D01*
G37*
X151109321Y-97955826D02*
X151098250Y-98001666D01*
X151140728Y-98098578D01*
X151169133Y-98107500D01*
X151257775Y-98044961D01*
X151280628Y-98001666D01*
X151257860Y-97908657D01*
X151209745Y-97895833D01*
X151109321Y-97955826D01*
G36*
X158268529Y-97340689D02*
X158204961Y-97464281D01*
X158201947Y-97473652D01*
X158125050Y-97582243D01*
X158057692Y-97577478D01*
X158023667Y-97580505D01*
X158073126Y-97655700D01*
X158176514Y-97763057D01*
X158230401Y-97786267D01*
X158203065Y-97711844D01*
X158202313Y-97710625D01*
X158205291Y-97637337D01*
X158231496Y-97631250D01*
X158325811Y-97568491D01*
X158343851Y-97532031D01*
X158362807Y-97508989D01*
X158357123Y-97571639D01*
X158370881Y-97711961D01*
X158487048Y-97745822D01*
X158579344Y-97730527D01*
X158703534Y-97663144D01*
X158675903Y-97554193D01*
X158673245Y-97551875D01*
X158599188Y-97551875D01*
X158592895Y-97625017D01*
X158564185Y-97631250D01*
X158483356Y-97573630D01*
X158480125Y-97551875D01*
X158507207Y-97474563D01*
X158515129Y-97472500D01*
X158582896Y-97528120D01*
X158599188Y-97551875D01*
X158673245Y-97551875D01*
X158541839Y-97437313D01*
X158367168Y-97333159D01*
X158268529Y-97340689D01*
X158268529Y-97340689D01*
G37*
X158268529Y-97340689D02*
X158204961Y-97464281D01*
X158201947Y-97473652D01*
X158125050Y-97582243D01*
X158057692Y-97577478D01*
X158023667Y-97580505D01*
X158073126Y-97655700D01*
X158176514Y-97763057D01*
X158230401Y-97786267D01*
X158203065Y-97711844D01*
X158202313Y-97710625D01*
X158205291Y-97637337D01*
X158231496Y-97631250D01*
X158325811Y-97568491D01*
X158343851Y-97532031D01*
X158362807Y-97508989D01*
X158357123Y-97571639D01*
X158370881Y-97711961D01*
X158487048Y-97745822D01*
X158579344Y-97730527D01*
X158703534Y-97663144D01*
X158675903Y-97554193D01*
X158673245Y-97551875D01*
X158599188Y-97551875D01*
X158592895Y-97625017D01*
X158564185Y-97631250D01*
X158483356Y-97573630D01*
X158480125Y-97551875D01*
X158507207Y-97474563D01*
X158515129Y-97472500D01*
X158582896Y-97528120D01*
X158599188Y-97551875D01*
X158673245Y-97551875D01*
X158541839Y-97437313D01*
X158367168Y-97333159D01*
X158268529Y-97340689D01*
G36*
X151106791Y-97258048D02*
X151160470Y-97301467D01*
X151223003Y-97419416D01*
X151211509Y-97498689D01*
X151191938Y-97609522D01*
X151211312Y-97631250D01*
X151280284Y-97568791D01*
X151306213Y-97515988D01*
X151310724Y-97350747D01*
X151213361Y-97246221D01*
X151153097Y-97235590D01*
X151106791Y-97258048D01*
X151106791Y-97258048D01*
G37*
X151106791Y-97258048D02*
X151160470Y-97301467D01*
X151223003Y-97419416D01*
X151211509Y-97498689D01*
X151191938Y-97609522D01*
X151211312Y-97631250D01*
X151280284Y-97568791D01*
X151306213Y-97515988D01*
X151310724Y-97350747D01*
X151213361Y-97246221D01*
X151153097Y-97235590D01*
X151106791Y-97258048D01*
G36*
X154352625Y-97512187D02*
X154392313Y-97551875D01*
X154432000Y-97512187D01*
X154392313Y-97472500D01*
X154352625Y-97512187D01*
X154352625Y-97512187D01*
G37*
X154352625Y-97512187D02*
X154392313Y-97551875D01*
X154432000Y-97512187D01*
X154392313Y-97472500D01*
X154352625Y-97512187D01*
G36*
X154061584Y-97498958D02*
X154072480Y-97546146D01*
X154114500Y-97551875D01*
X154179835Y-97522832D01*
X154167417Y-97498958D01*
X154073218Y-97489458D01*
X154061584Y-97498958D01*
X154061584Y-97498958D01*
G37*
X154061584Y-97498958D02*
X154072480Y-97546146D01*
X154114500Y-97551875D01*
X154179835Y-97522832D01*
X154167417Y-97498958D01*
X154073218Y-97489458D01*
X154061584Y-97498958D01*
G36*
X153744084Y-97498958D02*
X153754980Y-97546146D01*
X153797000Y-97551875D01*
X153862335Y-97522832D01*
X153849917Y-97498958D01*
X153755718Y-97489458D01*
X153744084Y-97498958D01*
X153744084Y-97498958D01*
G37*
X153744084Y-97498958D02*
X153754980Y-97546146D01*
X153797000Y-97551875D01*
X153862335Y-97522832D01*
X153849917Y-97498958D01*
X153755718Y-97489458D01*
X153744084Y-97498958D01*
G36*
X153558875Y-97512187D02*
X153598563Y-97551875D01*
X153638250Y-97512187D01*
X153598563Y-97472500D01*
X153558875Y-97512187D01*
X153558875Y-97512187D01*
G37*
X153558875Y-97512187D02*
X153598563Y-97551875D01*
X153638250Y-97512187D01*
X153598563Y-97472500D01*
X153558875Y-97512187D01*
G36*
X153078153Y-97132681D02*
X152950570Y-97183403D01*
X152541323Y-97356403D01*
X152748424Y-97454139D01*
X152957952Y-97537982D01*
X153060662Y-97534256D01*
X153082625Y-97469020D01*
X153143570Y-97400529D01*
X153181844Y-97399050D01*
X153391119Y-97405415D01*
X153511791Y-97368292D01*
X153519188Y-97313750D01*
X153521709Y-97240442D01*
X153547576Y-97234375D01*
X153641893Y-97296991D01*
X153660457Y-97333593D01*
X153727389Y-97390309D01*
X153757757Y-97375199D01*
X153769042Y-97280871D01*
X153709090Y-97194687D01*
X153241375Y-97194687D01*
X153201688Y-97234375D01*
X153162000Y-97194687D01*
X153201688Y-97155000D01*
X153241375Y-97194687D01*
X153709090Y-97194687D01*
X153694656Y-97173939D01*
X153588885Y-97116726D01*
X153541007Y-97126355D01*
X153434407Y-97119205D01*
X153410784Y-97092870D01*
X153305330Y-97069946D01*
X153078153Y-97132681D01*
X153078153Y-97132681D01*
G37*
X153078153Y-97132681D02*
X152950570Y-97183403D01*
X152541323Y-97356403D01*
X152748424Y-97454139D01*
X152957952Y-97537982D01*
X153060662Y-97534256D01*
X153082625Y-97469020D01*
X153143570Y-97400529D01*
X153181844Y-97399050D01*
X153391119Y-97405415D01*
X153511791Y-97368292D01*
X153519188Y-97313750D01*
X153521709Y-97240442D01*
X153547576Y-97234375D01*
X153641893Y-97296991D01*
X153660457Y-97333593D01*
X153727389Y-97390309D01*
X153757757Y-97375199D01*
X153769042Y-97280871D01*
X153709090Y-97194687D01*
X153241375Y-97194687D01*
X153201688Y-97234375D01*
X153162000Y-97194687D01*
X153201688Y-97155000D01*
X153241375Y-97194687D01*
X153709090Y-97194687D01*
X153694656Y-97173939D01*
X153588885Y-97116726D01*
X153541007Y-97126355D01*
X153434407Y-97119205D01*
X153410784Y-97092870D01*
X153305330Y-97069946D01*
X153078153Y-97132681D01*
G36*
X152553459Y-97498958D02*
X152564355Y-97546146D01*
X152606375Y-97551875D01*
X152671710Y-97522832D01*
X152659292Y-97498958D01*
X152565093Y-97489458D01*
X152553459Y-97498958D01*
X152553459Y-97498958D01*
G37*
X152553459Y-97498958D02*
X152564355Y-97546146D01*
X152606375Y-97551875D01*
X152671710Y-97522832D01*
X152659292Y-97498958D01*
X152565093Y-97489458D01*
X152553459Y-97498958D01*
G36*
X157530993Y-96762896D02*
X157601389Y-96886707D01*
X157737462Y-97080943D01*
X157909371Y-97298206D01*
X158048400Y-97434678D01*
X158135670Y-97477612D01*
X158152303Y-97414262D01*
X158133443Y-97353437D01*
X158083250Y-97353437D01*
X158043563Y-97393125D01*
X158003875Y-97353437D01*
X158043563Y-97313750D01*
X158083250Y-97353437D01*
X158133443Y-97353437D01*
X158131430Y-97346945D01*
X158089689Y-97194687D01*
X158003875Y-97194687D01*
X157964188Y-97234375D01*
X157924500Y-97194687D01*
X157964188Y-97155000D01*
X158003875Y-97194687D01*
X158089689Y-97194687D01*
X158088425Y-97190079D01*
X158083250Y-97140015D01*
X158025344Y-97092250D01*
X157965399Y-97103864D01*
X157836179Y-97079399D01*
X157764169Y-96993294D01*
X157728218Y-96865315D01*
X157795568Y-96845643D01*
X157908909Y-96916591D01*
X157944658Y-96933690D01*
X157900518Y-96875316D01*
X157790575Y-96797812D01*
X157686375Y-96797812D01*
X157646688Y-96837500D01*
X157607000Y-96797812D01*
X157646688Y-96758125D01*
X157686375Y-96797812D01*
X157790575Y-96797812D01*
X157737063Y-96760089D01*
X157626375Y-96722168D01*
X157541983Y-96716648D01*
X157530993Y-96762896D01*
X157530993Y-96762896D01*
G37*
X157530993Y-96762896D02*
X157601389Y-96886707D01*
X157737462Y-97080943D01*
X157909371Y-97298206D01*
X158048400Y-97434678D01*
X158135670Y-97477612D01*
X158152303Y-97414262D01*
X158133443Y-97353437D01*
X158083250Y-97353437D01*
X158043563Y-97393125D01*
X158003875Y-97353437D01*
X158043563Y-97313750D01*
X158083250Y-97353437D01*
X158133443Y-97353437D01*
X158131430Y-97346945D01*
X158089689Y-97194687D01*
X158003875Y-97194687D01*
X157964188Y-97234375D01*
X157924500Y-97194687D01*
X157964188Y-97155000D01*
X158003875Y-97194687D01*
X158089689Y-97194687D01*
X158088425Y-97190079D01*
X158083250Y-97140015D01*
X158025344Y-97092250D01*
X157965399Y-97103864D01*
X157836179Y-97079399D01*
X157764169Y-96993294D01*
X157728218Y-96865315D01*
X157795568Y-96845643D01*
X157908909Y-96916591D01*
X157944658Y-96933690D01*
X157900518Y-96875316D01*
X157790575Y-96797812D01*
X157686375Y-96797812D01*
X157646688Y-96837500D01*
X157607000Y-96797812D01*
X157646688Y-96758125D01*
X157686375Y-96797812D01*
X157790575Y-96797812D01*
X157737063Y-96760089D01*
X157626375Y-96722168D01*
X157541983Y-96716648D01*
X157530993Y-96762896D01*
G36*
X157765750Y-97432812D02*
X157805438Y-97472500D01*
X157845125Y-97432812D01*
X157805438Y-97393125D01*
X157765750Y-97432812D01*
X157765750Y-97432812D01*
G37*
X157765750Y-97432812D02*
X157805438Y-97472500D01*
X157845125Y-97432812D01*
X157805438Y-97393125D01*
X157765750Y-97432812D01*
G36*
X154828875Y-97432812D02*
X154868563Y-97472500D01*
X154908250Y-97432812D01*
X154868563Y-97393125D01*
X154828875Y-97432812D01*
X154828875Y-97432812D01*
G37*
X154828875Y-97432812D02*
X154868563Y-97472500D01*
X154908250Y-97432812D01*
X154868563Y-97393125D01*
X154828875Y-97432812D01*
G36*
X155543250Y-97353437D02*
X155582938Y-97393125D01*
X155622625Y-97353437D01*
X155582938Y-97313750D01*
X155543250Y-97353437D01*
X155543250Y-97353437D01*
G37*
X155543250Y-97353437D02*
X155582938Y-97393125D01*
X155622625Y-97353437D01*
X155582938Y-97313750D01*
X155543250Y-97353437D01*
G36*
X155225750Y-97353437D02*
X155265438Y-97393125D01*
X155305125Y-97353437D01*
X155265438Y-97313750D01*
X155225750Y-97353437D01*
X155225750Y-97353437D01*
G37*
X155225750Y-97353437D02*
X155265438Y-97393125D01*
X155305125Y-97353437D01*
X155265438Y-97313750D01*
X155225750Y-97353437D01*
G36*
X154150934Y-97194252D02*
X154222224Y-97274062D01*
X154362043Y-97382654D01*
X154427772Y-97358337D01*
X154432000Y-97322242D01*
X154368564Y-97236361D01*
X154306446Y-97203179D01*
X154162135Y-97158890D01*
X154150934Y-97194252D01*
X154150934Y-97194252D01*
G37*
X154150934Y-97194252D02*
X154222224Y-97274062D01*
X154362043Y-97382654D01*
X154427772Y-97358337D01*
X154432000Y-97322242D01*
X154368564Y-97236361D01*
X154306446Y-97203179D01*
X154162135Y-97158890D01*
X154150934Y-97194252D01*
G36*
X153876375Y-97353437D02*
X153916063Y-97393125D01*
X153955750Y-97353437D01*
X153916063Y-97313750D01*
X153876375Y-97353437D01*
X153876375Y-97353437D01*
G37*
X153876375Y-97353437D02*
X153916063Y-97393125D01*
X153955750Y-97353437D01*
X153916063Y-97313750D01*
X153876375Y-97353437D01*
G36*
X157686375Y-97274062D02*
X157726063Y-97313750D01*
X157765750Y-97274062D01*
X157726063Y-97234375D01*
X157686375Y-97274062D01*
X157686375Y-97274062D01*
G37*
X157686375Y-97274062D02*
X157726063Y-97313750D01*
X157765750Y-97274062D01*
X157726063Y-97234375D01*
X157686375Y-97274062D01*
G36*
X156122091Y-97187673D02*
X156059188Y-97234375D01*
X156064981Y-97299818D01*
X156166179Y-97305010D01*
X156311312Y-97249952D01*
X156337000Y-97234375D01*
X156400472Y-97176081D01*
X156322046Y-97157004D01*
X156282154Y-97156215D01*
X156122091Y-97187673D01*
X156122091Y-97187673D01*
G37*
X156122091Y-97187673D02*
X156059188Y-97234375D01*
X156064981Y-97299818D01*
X156166179Y-97305010D01*
X156311312Y-97249952D01*
X156337000Y-97234375D01*
X156400472Y-97176081D01*
X156322046Y-97157004D01*
X156282154Y-97156215D01*
X156122091Y-97187673D01*
G36*
X155860750Y-97274062D02*
X155900438Y-97313750D01*
X155940125Y-97274062D01*
X155900438Y-97234375D01*
X155860750Y-97274062D01*
X155860750Y-97274062D01*
G37*
X155860750Y-97274062D02*
X155900438Y-97313750D01*
X155940125Y-97274062D01*
X155900438Y-97234375D01*
X155860750Y-97274062D01*
G36*
X154927087Y-96464638D02*
X154902319Y-96475187D01*
X154747273Y-96553261D01*
X154739039Y-96591499D01*
X154789188Y-96597483D01*
X154889291Y-96615841D01*
X154842009Y-96668953D01*
X154817417Y-96733608D01*
X154914295Y-96794287D01*
X155095696Y-96836746D01*
X155305125Y-96847485D01*
X155503563Y-96841498D01*
X155305125Y-96912374D01*
X155093516Y-96974275D01*
X154831175Y-97034363D01*
X154789188Y-97042470D01*
X154612106Y-97086581D01*
X154585417Y-97123421D01*
X154622115Y-97136384D01*
X154719845Y-97176630D01*
X154670085Y-97235872D01*
X154661803Y-97241198D01*
X154636810Y-97289388D01*
X154761870Y-97310920D01*
X154835490Y-97312534D01*
X155032144Y-97305239D01*
X155146410Y-97285732D01*
X155152990Y-97281625D01*
X155245318Y-97250378D01*
X155435024Y-97211818D01*
X155503563Y-97200647D01*
X155534502Y-97194687D01*
X154987625Y-97194687D01*
X154947938Y-97234375D01*
X154908250Y-97194687D01*
X154947938Y-97155000D01*
X154987625Y-97194687D01*
X155534502Y-97194687D01*
X155769083Y-97149499D01*
X156019336Y-97084461D01*
X156213755Y-97018295D01*
X156311768Y-96963766D01*
X156313164Y-96945955D01*
X156238783Y-96939114D01*
X156052047Y-96966149D01*
X155738753Y-97029584D01*
X155344813Y-97118046D01*
X155331915Y-97115312D01*
X155146375Y-97115312D01*
X155106688Y-97155000D01*
X155067000Y-97115312D01*
X155106688Y-97075625D01*
X155146375Y-97115312D01*
X155331915Y-97115312D01*
X155311751Y-97111038D01*
X155403449Y-97052577D01*
X155503563Y-97001959D01*
X155682423Y-96905174D01*
X155718626Y-96852757D01*
X155662313Y-96838355D01*
X155567211Y-96822870D01*
X155607065Y-96784638D01*
X155702000Y-96741003D01*
X155745212Y-96718437D01*
X155146375Y-96718437D01*
X155106688Y-96758125D01*
X155067000Y-96718437D01*
X155106688Y-96678750D01*
X155146375Y-96718437D01*
X155745212Y-96718437D01*
X155827550Y-96675440D01*
X155813644Y-96636775D01*
X155776908Y-96625833D01*
X155516792Y-96625833D01*
X155505896Y-96673021D01*
X155463875Y-96678750D01*
X155398541Y-96649707D01*
X155410959Y-96625833D01*
X155505158Y-96616333D01*
X155516792Y-96625833D01*
X155776908Y-96625833D01*
X155760560Y-96620964D01*
X155668049Y-96556075D01*
X155668968Y-96546458D01*
X155119917Y-96546458D01*
X155109021Y-96593646D01*
X155067000Y-96599375D01*
X155001666Y-96570332D01*
X155014084Y-96546458D01*
X155108283Y-96536958D01*
X155119917Y-96546458D01*
X155668968Y-96546458D01*
X155673180Y-96502416D01*
X155657494Y-96452288D01*
X155503088Y-96473339D01*
X155312961Y-96488369D01*
X155227348Y-96443210D01*
X155128908Y-96405356D01*
X154927087Y-96464638D01*
X154927087Y-96464638D01*
G37*
X154927087Y-96464638D02*
X154902319Y-96475187D01*
X154747273Y-96553261D01*
X154739039Y-96591499D01*
X154789188Y-96597483D01*
X154889291Y-96615841D01*
X154842009Y-96668953D01*
X154817417Y-96733608D01*
X154914295Y-96794287D01*
X155095696Y-96836746D01*
X155305125Y-96847485D01*
X155503563Y-96841498D01*
X155305125Y-96912374D01*
X155093516Y-96974275D01*
X154831175Y-97034363D01*
X154789188Y-97042470D01*
X154612106Y-97086581D01*
X154585417Y-97123421D01*
X154622115Y-97136384D01*
X154719845Y-97176630D01*
X154670085Y-97235872D01*
X154661803Y-97241198D01*
X154636810Y-97289388D01*
X154761870Y-97310920D01*
X154835490Y-97312534D01*
X155032144Y-97305239D01*
X155146410Y-97285732D01*
X155152990Y-97281625D01*
X155245318Y-97250378D01*
X155435024Y-97211818D01*
X155503563Y-97200647D01*
X155534502Y-97194687D01*
X154987625Y-97194687D01*
X154947938Y-97234375D01*
X154908250Y-97194687D01*
X154947938Y-97155000D01*
X154987625Y-97194687D01*
X155534502Y-97194687D01*
X155769083Y-97149499D01*
X156019336Y-97084461D01*
X156213755Y-97018295D01*
X156311768Y-96963766D01*
X156313164Y-96945955D01*
X156238783Y-96939114D01*
X156052047Y-96966149D01*
X155738753Y-97029584D01*
X155344813Y-97118046D01*
X155331915Y-97115312D01*
X155146375Y-97115312D01*
X155106688Y-97155000D01*
X155067000Y-97115312D01*
X155106688Y-97075625D01*
X155146375Y-97115312D01*
X155331915Y-97115312D01*
X155311751Y-97111038D01*
X155403449Y-97052577D01*
X155503563Y-97001959D01*
X155682423Y-96905174D01*
X155718626Y-96852757D01*
X155662313Y-96838355D01*
X155567211Y-96822870D01*
X155607065Y-96784638D01*
X155702000Y-96741003D01*
X155745212Y-96718437D01*
X155146375Y-96718437D01*
X155106688Y-96758125D01*
X155067000Y-96718437D01*
X155106688Y-96678750D01*
X155146375Y-96718437D01*
X155745212Y-96718437D01*
X155827550Y-96675440D01*
X155813644Y-96636775D01*
X155776908Y-96625833D01*
X155516792Y-96625833D01*
X155505896Y-96673021D01*
X155463875Y-96678750D01*
X155398541Y-96649707D01*
X155410959Y-96625833D01*
X155505158Y-96616333D01*
X155516792Y-96625833D01*
X155776908Y-96625833D01*
X155760560Y-96620964D01*
X155668049Y-96556075D01*
X155668968Y-96546458D01*
X155119917Y-96546458D01*
X155109021Y-96593646D01*
X155067000Y-96599375D01*
X155001666Y-96570332D01*
X155014084Y-96546458D01*
X155108283Y-96536958D01*
X155119917Y-96546458D01*
X155668968Y-96546458D01*
X155673180Y-96502416D01*
X155657494Y-96452288D01*
X155503088Y-96473339D01*
X155312961Y-96488369D01*
X155227348Y-96443210D01*
X155128908Y-96405356D01*
X154927087Y-96464638D01*
G36*
X153955750Y-97194687D02*
X153995438Y-97234375D01*
X154035125Y-97194687D01*
X153995438Y-97155000D01*
X153955750Y-97194687D01*
X153955750Y-97194687D01*
G37*
X153955750Y-97194687D02*
X153995438Y-97234375D01*
X154035125Y-97194687D01*
X153995438Y-97155000D01*
X153955750Y-97194687D01*
G36*
X156495750Y-97115312D02*
X156535438Y-97155000D01*
X156575125Y-97115312D01*
X156535438Y-97075625D01*
X156495750Y-97115312D01*
X156495750Y-97115312D01*
G37*
X156495750Y-97115312D02*
X156535438Y-97155000D01*
X156575125Y-97115312D01*
X156535438Y-97075625D01*
X156495750Y-97115312D01*
G36*
X157473153Y-96968147D02*
X157487938Y-96996250D01*
X157562726Y-97072053D01*
X157576682Y-97075625D01*
X157582098Y-97024352D01*
X157567313Y-96996250D01*
X157492525Y-96920446D01*
X157478569Y-96916875D01*
X157473153Y-96968147D01*
X157473153Y-96968147D01*
G37*
X157473153Y-96968147D02*
X157487938Y-96996250D01*
X157562726Y-97072053D01*
X157576682Y-97075625D01*
X157582098Y-97024352D01*
X157567313Y-96996250D01*
X157492525Y-96920446D01*
X157478569Y-96916875D01*
X157473153Y-96968147D01*
G36*
X153902834Y-96943333D02*
X153893334Y-97037532D01*
X153902834Y-97049166D01*
X153950022Y-97038270D01*
X153955750Y-96996250D01*
X153926708Y-96930915D01*
X153902834Y-96943333D01*
X153902834Y-96943333D01*
G37*
X153902834Y-96943333D02*
X153893334Y-97037532D01*
X153902834Y-97049166D01*
X153950022Y-97038270D01*
X153955750Y-96996250D01*
X153926708Y-96930915D01*
X153902834Y-96943333D01*
G36*
X151098250Y-96956562D02*
X151137938Y-96996250D01*
X151177625Y-96956562D01*
X151137938Y-96916875D01*
X151098250Y-96956562D01*
X151098250Y-96956562D01*
G37*
X151098250Y-96956562D02*
X151137938Y-96996250D01*
X151177625Y-96956562D01*
X151137938Y-96916875D01*
X151098250Y-96956562D01*
G36*
X154775959Y-96863958D02*
X154786855Y-96911146D01*
X154828875Y-96916875D01*
X154894210Y-96887832D01*
X154881792Y-96863958D01*
X154787593Y-96854458D01*
X154775959Y-96863958D01*
X154775959Y-96863958D01*
G37*
X154775959Y-96863958D02*
X154786855Y-96911146D01*
X154828875Y-96916875D01*
X154894210Y-96887832D01*
X154881792Y-96863958D01*
X154787593Y-96854458D01*
X154775959Y-96863958D01*
G36*
X151154727Y-96598990D02*
X151154647Y-96599295D01*
X151151076Y-96746910D01*
X151185077Y-96802417D01*
X151237765Y-96769766D01*
X151257000Y-96643746D01*
X151243169Y-96475638D01*
X151206610Y-96459648D01*
X151154727Y-96598990D01*
X151154727Y-96598990D01*
G37*
X151154727Y-96598990D02*
X151154647Y-96599295D01*
X151151076Y-96746910D01*
X151185077Y-96802417D01*
X151237765Y-96769766D01*
X151257000Y-96643746D01*
X151243169Y-96475638D01*
X151206610Y-96459648D01*
X151154727Y-96598990D01*
G36*
X157234359Y-96641554D02*
X157279651Y-96699916D01*
X157346390Y-96750077D01*
X157329735Y-96670541D01*
X157324085Y-96655482D01*
X157261204Y-96558284D01*
X157225455Y-96557587D01*
X157234359Y-96641554D01*
X157234359Y-96641554D01*
G37*
X157234359Y-96641554D02*
X157279651Y-96699916D01*
X157346390Y-96750077D01*
X157329735Y-96670541D01*
X157324085Y-96655482D01*
X157261204Y-96558284D01*
X157225455Y-96557587D01*
X157234359Y-96641554D01*
G36*
X156892625Y-96718437D02*
X156932313Y-96758125D01*
X156972000Y-96718437D01*
X156932313Y-96678750D01*
X156892625Y-96718437D01*
X156892625Y-96718437D01*
G37*
X156892625Y-96718437D02*
X156932313Y-96758125D01*
X156972000Y-96718437D01*
X156932313Y-96678750D01*
X156892625Y-96718437D01*
G36*
X151361035Y-96301718D02*
X151348691Y-96503031D01*
X151361035Y-96579531D01*
X151384042Y-96604234D01*
X151396568Y-96494479D01*
X151397335Y-96440625D01*
X151389060Y-96296216D01*
X151368456Y-96279197D01*
X151361035Y-96301718D01*
X151361035Y-96301718D01*
G37*
X151361035Y-96301718D02*
X151348691Y-96503031D01*
X151361035Y-96579531D01*
X151384042Y-96604234D01*
X151396568Y-96494479D01*
X151397335Y-96440625D01*
X151389060Y-96296216D01*
X151368456Y-96279197D01*
X151361035Y-96301718D01*
G36*
X157255509Y-96029440D02*
X157262262Y-96185953D01*
X157307544Y-96375885D01*
X157365054Y-96510352D01*
X157405805Y-96538146D01*
X157410389Y-96413556D01*
X157405621Y-96356916D01*
X157386239Y-96155750D01*
X157374464Y-96029899D01*
X157373943Y-96023906D01*
X157307953Y-95965314D01*
X157294757Y-95964375D01*
X157255509Y-96029440D01*
X157255509Y-96029440D01*
G37*
X157255509Y-96029440D02*
X157262262Y-96185953D01*
X157307544Y-96375885D01*
X157365054Y-96510352D01*
X157405805Y-96538146D01*
X157410389Y-96413556D01*
X157405621Y-96356916D01*
X157386239Y-96155750D01*
X157374464Y-96029899D01*
X157373943Y-96023906D01*
X157307953Y-95965314D01*
X157294757Y-95964375D01*
X157255509Y-96029440D01*
G36*
X156125334Y-96546458D02*
X156136230Y-96593646D01*
X156178250Y-96599375D01*
X156243585Y-96570332D01*
X156231167Y-96546458D01*
X156136968Y-96536958D01*
X156125334Y-96546458D01*
X156125334Y-96546458D01*
G37*
X156125334Y-96546458D02*
X156136230Y-96593646D01*
X156178250Y-96599375D01*
X156243585Y-96570332D01*
X156231167Y-96546458D01*
X156136968Y-96536958D01*
X156125334Y-96546458D01*
G36*
X153823459Y-96467083D02*
X153834355Y-96514271D01*
X153876375Y-96520000D01*
X153941710Y-96490957D01*
X153929292Y-96467083D01*
X153835093Y-96457583D01*
X153823459Y-96467083D01*
X153823459Y-96467083D01*
G37*
X153823459Y-96467083D02*
X153834355Y-96514271D01*
X153876375Y-96520000D01*
X153941710Y-96490957D01*
X153929292Y-96467083D01*
X153835093Y-96457583D01*
X153823459Y-96467083D01*
G36*
X157157209Y-96308333D02*
X157147709Y-96402532D01*
X157157209Y-96414166D01*
X157204397Y-96403270D01*
X157210125Y-96361250D01*
X157181083Y-96295915D01*
X157157209Y-96308333D01*
X157157209Y-96308333D01*
G37*
X157157209Y-96308333D02*
X157147709Y-96402532D01*
X157157209Y-96414166D01*
X157204397Y-96403270D01*
X157210125Y-96361250D01*
X157181083Y-96295915D01*
X157157209Y-96308333D01*
G36*
X156023076Y-96322663D02*
X155940125Y-96361250D01*
X155861117Y-96422461D01*
X155920023Y-96434440D01*
X155940125Y-96433830D01*
X156110290Y-96399665D01*
X156217938Y-96361250D01*
X156331375Y-96308155D01*
X156298958Y-96291641D01*
X156217938Y-96288669D01*
X156023076Y-96322663D01*
X156023076Y-96322663D01*
G37*
X156023076Y-96322663D02*
X155940125Y-96361250D01*
X155861117Y-96422461D01*
X155920023Y-96434440D01*
X155940125Y-96433830D01*
X156110290Y-96399665D01*
X156217938Y-96361250D01*
X156331375Y-96308155D01*
X156298958Y-96291641D01*
X156217938Y-96288669D01*
X156023076Y-96322663D01*
G36*
X152923875Y-96242187D02*
X152963563Y-96281875D01*
X153003250Y-96242187D01*
X152963563Y-96202500D01*
X152923875Y-96242187D01*
X152923875Y-96242187D01*
G37*
X152923875Y-96242187D02*
X152963563Y-96281875D01*
X153003250Y-96242187D01*
X152963563Y-96202500D01*
X152923875Y-96242187D01*
G36*
X152714047Y-95972081D02*
X152710119Y-95985729D01*
X152698499Y-96158632D01*
X152713061Y-96223854D01*
X152739118Y-96226492D01*
X152749760Y-96102234D01*
X152749651Y-96083437D01*
X152738206Y-95960330D01*
X152714047Y-95972081D01*
X152714047Y-95972081D01*
G37*
X152714047Y-95972081D02*
X152710119Y-95985729D01*
X152698499Y-96158632D01*
X152713061Y-96223854D01*
X152739118Y-96226492D01*
X152749760Y-96102234D01*
X152749651Y-96083437D01*
X152738206Y-95960330D01*
X152714047Y-95972081D01*
G36*
X151124709Y-96149583D02*
X151115209Y-96243782D01*
X151124709Y-96255416D01*
X151171897Y-96244520D01*
X151177625Y-96202500D01*
X151148583Y-96137165D01*
X151124709Y-96149583D01*
X151124709Y-96149583D01*
G37*
X151124709Y-96149583D02*
X151115209Y-96243782D01*
X151124709Y-96255416D01*
X151171897Y-96244520D01*
X151177625Y-96202500D01*
X151148583Y-96137165D01*
X151124709Y-96149583D01*
G36*
X157077834Y-96070208D02*
X157068334Y-96164407D01*
X157077834Y-96176041D01*
X157125022Y-96165145D01*
X157130750Y-96123125D01*
X157101708Y-96057790D01*
X157077834Y-96070208D01*
X157077834Y-96070208D01*
G37*
X157077834Y-96070208D02*
X157068334Y-96164407D01*
X157077834Y-96176041D01*
X157125022Y-96165145D01*
X157130750Y-96123125D01*
X157101708Y-96057790D01*
X157077834Y-96070208D01*
G36*
X156087495Y-96085702D02*
X156019500Y-96123125D01*
X155955967Y-96186019D01*
X155979813Y-96200069D01*
X156110256Y-96160547D01*
X156178250Y-96123125D01*
X156241784Y-96060230D01*
X156217938Y-96046180D01*
X156087495Y-96085702D01*
X156087495Y-96085702D01*
G37*
X156087495Y-96085702D02*
X156019500Y-96123125D01*
X155955967Y-96186019D01*
X155979813Y-96200069D01*
X156110256Y-96160547D01*
X156178250Y-96123125D01*
X156241784Y-96060230D01*
X156217938Y-96046180D01*
X156087495Y-96085702D01*
G36*
X155172834Y-96149583D02*
X155183730Y-96196771D01*
X155225750Y-96202500D01*
X155291085Y-96173457D01*
X155278667Y-96149583D01*
X155184468Y-96140083D01*
X155172834Y-96149583D01*
X155172834Y-96149583D01*
G37*
X155172834Y-96149583D02*
X155183730Y-96196771D01*
X155225750Y-96202500D01*
X155291085Y-96173457D01*
X155278667Y-96149583D01*
X155184468Y-96140083D01*
X155172834Y-96149583D01*
G36*
X152474084Y-95990833D02*
X152464584Y-96085032D01*
X152474084Y-96096666D01*
X152521272Y-96085770D01*
X152527000Y-96043750D01*
X152497958Y-95978415D01*
X152474084Y-95990833D01*
X152474084Y-95990833D01*
G37*
X152474084Y-95990833D02*
X152464584Y-96085032D01*
X152474084Y-96096666D01*
X152521272Y-96085770D01*
X152527000Y-96043750D01*
X152497958Y-95978415D01*
X152474084Y-95990833D01*
G36*
X151285297Y-95813331D02*
X151281369Y-95826979D01*
X151269749Y-95999882D01*
X151284311Y-96065104D01*
X151310368Y-96067742D01*
X151321010Y-95943484D01*
X151320901Y-95924687D01*
X151309456Y-95801580D01*
X151285297Y-95813331D01*
X151285297Y-95813331D01*
G37*
X151285297Y-95813331D02*
X151281369Y-95826979D01*
X151269749Y-95999882D01*
X151284311Y-96065104D01*
X151310368Y-96067742D01*
X151321010Y-95943484D01*
X151320901Y-95924687D01*
X151309456Y-95801580D01*
X151285297Y-95813331D01*
G36*
X156892625Y-96004062D02*
X156932313Y-96043750D01*
X156972000Y-96004062D01*
X156932313Y-95964375D01*
X156892625Y-96004062D01*
X156892625Y-96004062D01*
G37*
X156892625Y-96004062D02*
X156932313Y-96043750D01*
X156972000Y-96004062D01*
X156932313Y-95964375D01*
X156892625Y-96004062D01*
G36*
X155904561Y-95934088D02*
X155792835Y-95998141D01*
X155811551Y-96039558D01*
X155856066Y-96043750D01*
X155963700Y-95986101D01*
X155979251Y-95965284D01*
X155966475Y-95920178D01*
X155904561Y-95934088D01*
X155904561Y-95934088D01*
G37*
X155904561Y-95934088D02*
X155792835Y-95998141D01*
X155811551Y-96039558D01*
X155856066Y-96043750D01*
X155963700Y-95986101D01*
X155979251Y-95965284D01*
X155966475Y-95920178D01*
X155904561Y-95934088D01*
G36*
X152156584Y-95832083D02*
X152147084Y-95926282D01*
X152156584Y-95937916D01*
X152203772Y-95927020D01*
X152209500Y-95885000D01*
X152180458Y-95819665D01*
X152156584Y-95832083D01*
X152156584Y-95832083D01*
G37*
X152156584Y-95832083D02*
X152147084Y-95926282D01*
X152156584Y-95937916D01*
X152203772Y-95927020D01*
X152209500Y-95885000D01*
X152180458Y-95819665D01*
X152156584Y-95832083D01*
G36*
X151098250Y-95924687D02*
X151137938Y-95964375D01*
X151177625Y-95924687D01*
X151137938Y-95885000D01*
X151098250Y-95924687D01*
X151098250Y-95924687D01*
G37*
X151098250Y-95924687D02*
X151137938Y-95964375D01*
X151177625Y-95924687D01*
X151137938Y-95885000D01*
X151098250Y-95924687D01*
G36*
X157289500Y-95845312D02*
X157329188Y-95885000D01*
X157368875Y-95845312D01*
X157329188Y-95805625D01*
X157289500Y-95845312D01*
X157289500Y-95845312D01*
G37*
X157289500Y-95845312D02*
X157329188Y-95885000D01*
X157368875Y-95845312D01*
X157329188Y-95805625D01*
X157289500Y-95845312D01*
G36*
X156098875Y-95845312D02*
X156138563Y-95885000D01*
X156178250Y-95845312D01*
X156138563Y-95805625D01*
X156098875Y-95845312D01*
X156098875Y-95845312D01*
G37*
X156098875Y-95845312D02*
X156138563Y-95885000D01*
X156178250Y-95845312D01*
X156138563Y-95805625D01*
X156098875Y-95845312D01*
G36*
X157139412Y-95631828D02*
X157130750Y-95686562D01*
X157147733Y-95792465D01*
X157161946Y-95805625D01*
X157213127Y-95743557D01*
X157238830Y-95686562D01*
X157240479Y-95584354D01*
X157207634Y-95567500D01*
X157139412Y-95631828D01*
X157139412Y-95631828D01*
G37*
X157139412Y-95631828D02*
X157130750Y-95686562D01*
X157147733Y-95792465D01*
X157161946Y-95805625D01*
X157213127Y-95743557D01*
X157238830Y-95686562D01*
X157240479Y-95584354D01*
X157207634Y-95567500D01*
X157139412Y-95631828D01*
G36*
X156998459Y-95673333D02*
X156988959Y-95767532D01*
X156998459Y-95779166D01*
X157045647Y-95768270D01*
X157051375Y-95726250D01*
X157022333Y-95660915D01*
X156998459Y-95673333D01*
X156998459Y-95673333D01*
G37*
X156998459Y-95673333D02*
X156988959Y-95767532D01*
X156998459Y-95779166D01*
X157045647Y-95768270D01*
X157051375Y-95726250D01*
X157022333Y-95660915D01*
X156998459Y-95673333D01*
G36*
X156257625Y-95765937D02*
X156297313Y-95805625D01*
X156337000Y-95765937D01*
X156297313Y-95726250D01*
X156257625Y-95765937D01*
X156257625Y-95765937D01*
G37*
X156257625Y-95765937D02*
X156297313Y-95805625D01*
X156337000Y-95765937D01*
X156297313Y-95726250D01*
X156257625Y-95765937D01*
G36*
X155807834Y-95673333D02*
X155798334Y-95767532D01*
X155807834Y-95779166D01*
X155855022Y-95768270D01*
X155860750Y-95726250D01*
X155831708Y-95660915D01*
X155807834Y-95673333D01*
X155807834Y-95673333D01*
G37*
X155807834Y-95673333D02*
X155798334Y-95767532D01*
X155807834Y-95779166D01*
X155855022Y-95768270D01*
X155860750Y-95726250D01*
X155831708Y-95660915D01*
X155807834Y-95673333D01*
G36*
X152923875Y-95765937D02*
X152963563Y-95805625D01*
X153003250Y-95765937D01*
X152963563Y-95726250D01*
X152923875Y-95765937D01*
X152923875Y-95765937D01*
G37*
X152923875Y-95765937D02*
X152963563Y-95805625D01*
X153003250Y-95765937D01*
X152963563Y-95726250D01*
X152923875Y-95765937D01*
G36*
X151772623Y-95677906D02*
X151733250Y-95726250D01*
X151748444Y-95799137D01*
X151753094Y-95800046D01*
X151832351Y-95768341D01*
X151931688Y-95726250D01*
X152038811Y-95674072D01*
X151996891Y-95656136D01*
X151911844Y-95652453D01*
X151772623Y-95677906D01*
X151772623Y-95677906D01*
G37*
X151772623Y-95677906D02*
X151733250Y-95726250D01*
X151748444Y-95799137D01*
X151753094Y-95800046D01*
X151832351Y-95768341D01*
X151931688Y-95726250D01*
X152038811Y-95674072D01*
X151996891Y-95656136D01*
X151911844Y-95652453D01*
X151772623Y-95677906D01*
G36*
X155568403Y-95473242D02*
X155558941Y-95597295D01*
X155574670Y-95625377D01*
X155610747Y-95601704D01*
X155616359Y-95521197D01*
X155596974Y-95436502D01*
X155568403Y-95473242D01*
X155568403Y-95473242D01*
G37*
X155568403Y-95473242D02*
X155558941Y-95597295D01*
X155574670Y-95625377D01*
X155610747Y-95601704D01*
X155616359Y-95521197D01*
X155596974Y-95436502D01*
X155568403Y-95473242D01*
G36*
X151123153Y-95539397D02*
X151137938Y-95567500D01*
X151212726Y-95643303D01*
X151226682Y-95646875D01*
X151232098Y-95595602D01*
X151217313Y-95567500D01*
X151142525Y-95491696D01*
X151128569Y-95488125D01*
X151123153Y-95539397D01*
X151123153Y-95539397D01*
G37*
X151123153Y-95539397D02*
X151137938Y-95567500D01*
X151212726Y-95643303D01*
X151226682Y-95646875D01*
X151232098Y-95595602D01*
X151217313Y-95567500D01*
X151142525Y-95491696D01*
X151128569Y-95488125D01*
X151123153Y-95539397D01*
G36*
X156917285Y-95190468D02*
X156904941Y-95391781D01*
X156917285Y-95468281D01*
X156940292Y-95492984D01*
X156952818Y-95383229D01*
X156953585Y-95329375D01*
X156945310Y-95184966D01*
X156924706Y-95167947D01*
X156917285Y-95190468D01*
X156917285Y-95190468D01*
G37*
X156917285Y-95190468D02*
X156904941Y-95391781D01*
X156917285Y-95468281D01*
X156940292Y-95492984D01*
X156952818Y-95383229D01*
X156953585Y-95329375D01*
X156945310Y-95184966D01*
X156924706Y-95167947D01*
X156917285Y-95190468D01*
G36*
X156257625Y-95527812D02*
X156297313Y-95567500D01*
X156337000Y-95527812D01*
X156297313Y-95488125D01*
X156257625Y-95527812D01*
X156257625Y-95527812D01*
G37*
X156257625Y-95527812D02*
X156297313Y-95567500D01*
X156337000Y-95527812D01*
X156297313Y-95488125D01*
X156257625Y-95527812D01*
G36*
X156125334Y-95435208D02*
X156115834Y-95529407D01*
X156125334Y-95541041D01*
X156172522Y-95530145D01*
X156178250Y-95488125D01*
X156149208Y-95422790D01*
X156125334Y-95435208D01*
X156125334Y-95435208D01*
G37*
X156125334Y-95435208D02*
X156115834Y-95529407D01*
X156125334Y-95541041D01*
X156172522Y-95530145D01*
X156178250Y-95488125D01*
X156149208Y-95422790D01*
X156125334Y-95435208D01*
G36*
X155940125Y-95527812D02*
X155979813Y-95567500D01*
X156019500Y-95527812D01*
X155979813Y-95488125D01*
X155940125Y-95527812D01*
X155940125Y-95527812D01*
G37*
X155940125Y-95527812D02*
X155979813Y-95567500D01*
X156019500Y-95527812D01*
X155979813Y-95488125D01*
X155940125Y-95527812D01*
G36*
X157052809Y-95382631D02*
X157051375Y-95395520D01*
X157115614Y-95454740D01*
X157166946Y-95461666D01*
X157246985Y-95427259D01*
X157241637Y-95395520D01*
X157136948Y-95330028D01*
X157126066Y-95329375D01*
X157052809Y-95382631D01*
X157052809Y-95382631D01*
G37*
X157052809Y-95382631D02*
X157051375Y-95395520D01*
X157115614Y-95454740D01*
X157166946Y-95461666D01*
X157246985Y-95427259D01*
X157241637Y-95395520D01*
X157136948Y-95330028D01*
X157126066Y-95329375D01*
X157052809Y-95382631D01*
G36*
X155702000Y-95448437D02*
X155741688Y-95488125D01*
X155781375Y-95448437D01*
X155741688Y-95408750D01*
X155702000Y-95448437D01*
X155702000Y-95448437D01*
G37*
X155702000Y-95448437D02*
X155741688Y-95488125D01*
X155781375Y-95448437D01*
X155741688Y-95408750D01*
X155702000Y-95448437D01*
G36*
X155885903Y-95235117D02*
X155876441Y-95359170D01*
X155892170Y-95387252D01*
X155928247Y-95363579D01*
X155933859Y-95283072D01*
X155914474Y-95198377D01*
X155885903Y-95235117D01*
X155885903Y-95235117D01*
G37*
X155885903Y-95235117D02*
X155876441Y-95359170D01*
X155892170Y-95387252D01*
X155928247Y-95363579D01*
X155933859Y-95283072D01*
X155914474Y-95198377D01*
X155885903Y-95235117D01*
G36*
X151098250Y-95369062D02*
X151137938Y-95408750D01*
X151177625Y-95369062D01*
X151137938Y-95329375D01*
X151098250Y-95369062D01*
X151098250Y-95369062D01*
G37*
X151098250Y-95369062D02*
X151137938Y-95408750D01*
X151177625Y-95369062D01*
X151137938Y-95329375D01*
X151098250Y-95369062D01*
G36*
X150839835Y-95169681D02*
X150814768Y-95259519D01*
X150830075Y-95392860D01*
X150874263Y-95370698D01*
X150910621Y-95290143D01*
X150994894Y-95213594D01*
X151047037Y-95223494D01*
X151094500Y-95233515D01*
X151076109Y-95207511D01*
X150943110Y-95128761D01*
X150839835Y-95169681D01*
X150839835Y-95169681D01*
G37*
X150839835Y-95169681D02*
X150814768Y-95259519D01*
X150830075Y-95392860D01*
X150874263Y-95370698D01*
X150910621Y-95290143D01*
X150994894Y-95213594D01*
X151047037Y-95223494D01*
X151094500Y-95233515D01*
X151076109Y-95207511D01*
X150943110Y-95128761D01*
X150839835Y-95169681D01*
G36*
X155490334Y-95197083D02*
X155480834Y-95291282D01*
X155490334Y-95302916D01*
X155537522Y-95292020D01*
X155543250Y-95250000D01*
X155514208Y-95184665D01*
X155490334Y-95197083D01*
X155490334Y-95197083D01*
G37*
X155490334Y-95197083D02*
X155480834Y-95291282D01*
X155490334Y-95302916D01*
X155537522Y-95292020D01*
X155543250Y-95250000D01*
X155514208Y-95184665D01*
X155490334Y-95197083D01*
G36*
X156044653Y-95076367D02*
X156035191Y-95200420D01*
X156050920Y-95228502D01*
X156086997Y-95204829D01*
X156092609Y-95124322D01*
X156073224Y-95039627D01*
X156044653Y-95076367D01*
X156044653Y-95076367D01*
G37*
X156044653Y-95076367D02*
X156035191Y-95200420D01*
X156050920Y-95228502D01*
X156086997Y-95204829D01*
X156092609Y-95124322D01*
X156073224Y-95039627D01*
X156044653Y-95076367D01*
G36*
X155649084Y-95117708D02*
X155639584Y-95211907D01*
X155649084Y-95223541D01*
X155696272Y-95212645D01*
X155702000Y-95170625D01*
X155672958Y-95105290D01*
X155649084Y-95117708D01*
X155649084Y-95117708D01*
G37*
X155649084Y-95117708D02*
X155639584Y-95211907D01*
X155649084Y-95223541D01*
X155696272Y-95212645D01*
X155702000Y-95170625D01*
X155672958Y-95105290D01*
X155649084Y-95117708D01*
G36*
X157054606Y-95069494D02*
X157051375Y-95091250D01*
X157078457Y-95168561D01*
X157086379Y-95170625D01*
X157154146Y-95115004D01*
X157170438Y-95091250D01*
X157164145Y-95018107D01*
X157135435Y-95011875D01*
X157054606Y-95069494D01*
X157054606Y-95069494D01*
G37*
X157054606Y-95069494D02*
X157051375Y-95091250D01*
X157078457Y-95168561D01*
X157086379Y-95170625D01*
X157154146Y-95115004D01*
X157170438Y-95091250D01*
X157164145Y-95018107D01*
X157135435Y-95011875D01*
X157054606Y-95069494D01*
G36*
X155781375Y-95051562D02*
X155821063Y-95091250D01*
X155860750Y-95051562D01*
X155821063Y-95011875D01*
X155781375Y-95051562D01*
X155781375Y-95051562D01*
G37*
X155781375Y-95051562D02*
X155821063Y-95091250D01*
X155860750Y-95051562D01*
X155821063Y-95011875D01*
X155781375Y-95051562D01*
G36*
X156838403Y-94838242D02*
X156828941Y-94962295D01*
X156844670Y-94990377D01*
X156880747Y-94966704D01*
X156886359Y-94886197D01*
X156866974Y-94801502D01*
X156838403Y-94838242D01*
X156838403Y-94838242D01*
G37*
X156838403Y-94838242D02*
X156828941Y-94962295D01*
X156844670Y-94990377D01*
X156880747Y-94966704D01*
X156886359Y-94886197D01*
X156866974Y-94801502D01*
X156838403Y-94838242D01*
G36*
X157157209Y-94800208D02*
X157147709Y-94894407D01*
X157157209Y-94906041D01*
X157204397Y-94895145D01*
X157210125Y-94853125D01*
X157181083Y-94787790D01*
X157157209Y-94800208D01*
X157157209Y-94800208D01*
G37*
X157157209Y-94800208D02*
X157147709Y-94894407D01*
X157157209Y-94906041D01*
X157204397Y-94895145D01*
X157210125Y-94853125D01*
X157181083Y-94787790D01*
X157157209Y-94800208D01*
G36*
X150826727Y-94678212D02*
X150837127Y-94773750D01*
X150883206Y-94901982D01*
X150909071Y-94932500D01*
X150933838Y-94865703D01*
X150939500Y-94773750D01*
X150909342Y-94644721D01*
X150867557Y-94615000D01*
X150826727Y-94678212D01*
X150826727Y-94678212D01*
G37*
X150826727Y-94678212D02*
X150837127Y-94773750D01*
X150883206Y-94901982D01*
X150909071Y-94932500D01*
X150933838Y-94865703D01*
X150939500Y-94773750D01*
X150909342Y-94644721D01*
X150867557Y-94615000D01*
X150826727Y-94678212D01*
G36*
X150489709Y-94720833D02*
X150500605Y-94768021D01*
X150542625Y-94773750D01*
X150607960Y-94744707D01*
X150595542Y-94720833D01*
X150501343Y-94711333D01*
X150489709Y-94720833D01*
X150489709Y-94720833D01*
G37*
X150489709Y-94720833D02*
X150500605Y-94768021D01*
X150542625Y-94773750D01*
X150607960Y-94744707D01*
X150595542Y-94720833D01*
X150501343Y-94711333D01*
X150489709Y-94720833D01*
G36*
X150640844Y-94176808D02*
X150670874Y-94218125D01*
X150772811Y-94387176D01*
X150803514Y-94456250D01*
X150840484Y-94529072D01*
X150853813Y-94447065D01*
X150853859Y-94446125D01*
X150801378Y-94296442D01*
X150721219Y-94208000D01*
X150627142Y-94139929D01*
X150640844Y-94176808D01*
X150640844Y-94176808D01*
G37*
X150640844Y-94176808D02*
X150670874Y-94218125D01*
X150772811Y-94387176D01*
X150803514Y-94456250D01*
X150840484Y-94529072D01*
X150853813Y-94447065D01*
X150853859Y-94446125D01*
X150801378Y-94296442D01*
X150721219Y-94208000D01*
X150627142Y-94139929D01*
X150640844Y-94176808D01*
G36*
X150648459Y-94403333D02*
X150638959Y-94497532D01*
X150648459Y-94509166D01*
X150695647Y-94498270D01*
X150701375Y-94456250D01*
X150672333Y-94390915D01*
X150648459Y-94403333D01*
X150648459Y-94403333D01*
G37*
X150648459Y-94403333D02*
X150638959Y-94497532D01*
X150648459Y-94509166D01*
X150695647Y-94498270D01*
X150701375Y-94456250D01*
X150672333Y-94390915D01*
X150648459Y-94403333D01*
G36*
X156760682Y-94118906D02*
X156750198Y-94281414D01*
X156760682Y-94317343D01*
X156789653Y-94327315D01*
X156800718Y-94218125D01*
X156788244Y-94105441D01*
X156760682Y-94118906D01*
X156760682Y-94118906D01*
G37*
X156760682Y-94118906D02*
X156750198Y-94281414D01*
X156760682Y-94317343D01*
X156789653Y-94327315D01*
X156800718Y-94218125D01*
X156788244Y-94105441D01*
X156760682Y-94118906D01*
G36*
X150808035Y-94108003D02*
X150820438Y-94138750D01*
X150891765Y-94214472D01*
X150904497Y-94218125D01*
X150938590Y-94156713D01*
X150939500Y-94138750D01*
X150878481Y-94062425D01*
X150855441Y-94059375D01*
X150808035Y-94108003D01*
X150808035Y-94108003D01*
G37*
X150808035Y-94108003D02*
X150820438Y-94138750D01*
X150891765Y-94214472D01*
X150904497Y-94218125D01*
X150938590Y-94156713D01*
X150939500Y-94138750D01*
X150878481Y-94062425D01*
X150855441Y-94059375D01*
X150808035Y-94108003D01*
G36*
X150463250Y-94099062D02*
X150502938Y-94138750D01*
X150542625Y-94099062D01*
X150502938Y-94059375D01*
X150463250Y-94099062D01*
X150463250Y-94099062D01*
G37*
X150463250Y-94099062D02*
X150502938Y-94138750D01*
X150542625Y-94099062D01*
X150502938Y-94059375D01*
X150463250Y-94099062D01*
G36*
X149926544Y-94004838D02*
X149907989Y-94026293D01*
X150021976Y-94038332D01*
X150106063Y-94039357D01*
X150259779Y-94031542D01*
X150283100Y-94013615D01*
X150244044Y-94003236D01*
X150037222Y-93990456D01*
X149926544Y-94004838D01*
X149926544Y-94004838D01*
G37*
X149926544Y-94004838D02*
X149907989Y-94026293D01*
X150021976Y-94038332D01*
X150106063Y-94039357D01*
X150259779Y-94031542D01*
X150283100Y-94013615D01*
X150244044Y-94003236D01*
X150037222Y-93990456D01*
X149926544Y-94004838D01*
G36*
X149616584Y-93927083D02*
X149627480Y-93974271D01*
X149669500Y-93980000D01*
X149734835Y-93950957D01*
X149722417Y-93927083D01*
X149628218Y-93917583D01*
X149616584Y-93927083D01*
X149616584Y-93927083D01*
G37*
X149616584Y-93927083D02*
X149627480Y-93974271D01*
X149669500Y-93980000D01*
X149734835Y-93950957D01*
X149722417Y-93927083D01*
X149628218Y-93917583D01*
X149616584Y-93927083D01*
G36*
X149695148Y-93718558D02*
X149609706Y-93764952D01*
X149667185Y-93810067D01*
X149714991Y-93829551D01*
X149900658Y-93878618D01*
X149987000Y-93885838D01*
X150041175Y-93872263D01*
X149967157Y-93845909D01*
X149849467Y-93781721D01*
X149828250Y-93738546D01*
X149768876Y-93702245D01*
X149695148Y-93718558D01*
X149695148Y-93718558D01*
G37*
X149695148Y-93718558D02*
X149609706Y-93764952D01*
X149667185Y-93810067D01*
X149714991Y-93829551D01*
X149900658Y-93878618D01*
X149987000Y-93885838D01*
X150041175Y-93872263D01*
X149967157Y-93845909D01*
X149849467Y-93781721D01*
X149828250Y-93738546D01*
X149768876Y-93702245D01*
X149695148Y-93718558D01*
G36*
X149294123Y-93852669D02*
X149317796Y-93888746D01*
X149398303Y-93894358D01*
X149482998Y-93874973D01*
X149446258Y-93846402D01*
X149322205Y-93836940D01*
X149294123Y-93852669D01*
X149294123Y-93852669D01*
G37*
X149294123Y-93852669D02*
X149317796Y-93888746D01*
X149398303Y-93894358D01*
X149482998Y-93874973D01*
X149446258Y-93846402D01*
X149322205Y-93836940D01*
X149294123Y-93852669D01*
G36*
X149113875Y-93781562D02*
X149153563Y-93821250D01*
X149193250Y-93781562D01*
X149153563Y-93741875D01*
X149113875Y-93781562D01*
X149113875Y-93781562D01*
G37*
X149113875Y-93781562D02*
X149153563Y-93821250D01*
X149193250Y-93781562D01*
X149153563Y-93741875D01*
X149113875Y-93781562D01*
G36*
X156679653Y-93568242D02*
X156670191Y-93692295D01*
X156685920Y-93720377D01*
X156721997Y-93696704D01*
X156727609Y-93616197D01*
X156708224Y-93531502D01*
X156679653Y-93568242D01*
X156679653Y-93568242D01*
G37*
X156679653Y-93568242D02*
X156670191Y-93692295D01*
X156685920Y-93720377D01*
X156721997Y-93696704D01*
X156727609Y-93616197D01*
X156708224Y-93531502D01*
X156679653Y-93568242D01*
G36*
X148955125Y-93702187D02*
X148994813Y-93741875D01*
X149034500Y-93702187D01*
X148994813Y-93662500D01*
X148955125Y-93702187D01*
X148955125Y-93702187D01*
G37*
X148955125Y-93702187D02*
X148994813Y-93741875D01*
X149034500Y-93702187D01*
X148994813Y-93662500D01*
X148955125Y-93702187D01*
G36*
X148796375Y-93622812D02*
X148836063Y-93662500D01*
X148875750Y-93622812D01*
X148836063Y-93583125D01*
X148796375Y-93622812D01*
X148796375Y-93622812D01*
G37*
X148796375Y-93622812D02*
X148836063Y-93662500D01*
X148875750Y-93622812D01*
X148836063Y-93583125D01*
X148796375Y-93622812D01*
G36*
X148976623Y-93535169D02*
X149000296Y-93571246D01*
X149080803Y-93576858D01*
X149165498Y-93557473D01*
X149128758Y-93528902D01*
X149004705Y-93519440D01*
X148976623Y-93535169D01*
X148976623Y-93535169D01*
G37*
X148976623Y-93535169D02*
X149000296Y-93571246D01*
X149080803Y-93576858D01*
X149165498Y-93557473D01*
X149128758Y-93528902D01*
X149004705Y-93519440D01*
X148976623Y-93535169D01*
G36*
X148584709Y-93530208D02*
X148595605Y-93577396D01*
X148637625Y-93583125D01*
X148702960Y-93554082D01*
X148690542Y-93530208D01*
X148596343Y-93520708D01*
X148584709Y-93530208D01*
X148584709Y-93530208D01*
G37*
X148584709Y-93530208D02*
X148595605Y-93577396D01*
X148637625Y-93583125D01*
X148702960Y-93554082D01*
X148690542Y-93530208D01*
X148596343Y-93520708D01*
X148584709Y-93530208D01*
G36*
X148262248Y-93455794D02*
X148285921Y-93491871D01*
X148366428Y-93497483D01*
X148451123Y-93478098D01*
X148414383Y-93449527D01*
X148290330Y-93440065D01*
X148262248Y-93455794D01*
X148262248Y-93455794D01*
G37*
X148262248Y-93455794D02*
X148285921Y-93491871D01*
X148366428Y-93497483D01*
X148451123Y-93478098D01*
X148414383Y-93449527D01*
X148290330Y-93440065D01*
X148262248Y-93455794D01*
G36*
X147584396Y-93372310D02*
X147581758Y-93398367D01*
X147706016Y-93409009D01*
X147724813Y-93408900D01*
X147847920Y-93397455D01*
X147836169Y-93373296D01*
X147822521Y-93369368D01*
X147649618Y-93357748D01*
X147584396Y-93372310D01*
X147584396Y-93372310D01*
G37*
X147584396Y-93372310D02*
X147581758Y-93398367D01*
X147706016Y-93409009D01*
X147724813Y-93408900D01*
X147847920Y-93397455D01*
X147836169Y-93373296D01*
X147822521Y-93369368D01*
X147649618Y-93357748D01*
X147584396Y-93372310D01*
G36*
X146288597Y-93286001D02*
X146277990Y-93287072D01*
X146202881Y-93301790D01*
X146270885Y-93312955D01*
X146466373Y-93318622D01*
X146534188Y-93318953D01*
X146765899Y-93315456D01*
X146880526Y-93305612D01*
X146859372Y-93291370D01*
X146833615Y-93287712D01*
X146571131Y-93274386D01*
X146288597Y-93286001D01*
X146288597Y-93286001D01*
G37*
X146288597Y-93286001D02*
X146277990Y-93287072D01*
X146202881Y-93301790D01*
X146270885Y-93312955D01*
X146466373Y-93318622D01*
X146534188Y-93318953D01*
X146765899Y-93315456D01*
X146880526Y-93305612D01*
X146859372Y-93291370D01*
X146833615Y-93287712D01*
X146571131Y-93274386D01*
X146288597Y-93286001D01*
G36*
X145125282Y-93213056D02*
X145115310Y-93242027D01*
X145224500Y-93253092D01*
X145337184Y-93240618D01*
X145323719Y-93213056D01*
X145161211Y-93202572D01*
X145125282Y-93213056D01*
X145125282Y-93213056D01*
G37*
X145125282Y-93213056D02*
X145115310Y-93242027D01*
X145224500Y-93253092D01*
X145337184Y-93240618D01*
X145323719Y-93213056D01*
X145161211Y-93202572D01*
X145125282Y-93213056D01*
G36*
X156600278Y-93012617D02*
X156590816Y-93136670D01*
X156606545Y-93164752D01*
X156642622Y-93141079D01*
X156648234Y-93060572D01*
X156628849Y-92975877D01*
X156600278Y-93012617D01*
X156600278Y-93012617D01*
G37*
X156600278Y-93012617D02*
X156590816Y-93136670D01*
X156606545Y-93164752D01*
X156642622Y-93141079D01*
X156648234Y-93060572D01*
X156628849Y-92975877D01*
X156600278Y-93012617D01*
G36*
X144769748Y-93138294D02*
X144793421Y-93174371D01*
X144873928Y-93179983D01*
X144958623Y-93160598D01*
X144921883Y-93132027D01*
X144797830Y-93122565D01*
X144769748Y-93138294D01*
X144769748Y-93138294D01*
G37*
X144769748Y-93138294D02*
X144793421Y-93174371D01*
X144873928Y-93179983D01*
X144958623Y-93160598D01*
X144921883Y-93132027D01*
X144797830Y-93122565D01*
X144769748Y-93138294D01*
G36*
X144589500Y-93067187D02*
X144629188Y-93106875D01*
X144668875Y-93067187D01*
X144629188Y-93027500D01*
X144589500Y-93067187D01*
X144589500Y-93067187D01*
G37*
X144589500Y-93067187D02*
X144629188Y-93106875D01*
X144668875Y-93067187D01*
X144629188Y-93027500D01*
X144589500Y-93067187D01*
G36*
X144430750Y-92987812D02*
X144470438Y-93027500D01*
X144510125Y-92987812D01*
X144470438Y-92948125D01*
X144430750Y-92987812D01*
X144430750Y-92987812D01*
G37*
X144430750Y-92987812D02*
X144470438Y-93027500D01*
X144510125Y-92987812D01*
X144470438Y-92948125D01*
X144430750Y-92987812D01*
G36*
X144216859Y-92831554D02*
X144262151Y-92889916D01*
X144328890Y-92940077D01*
X144312235Y-92860541D01*
X144306585Y-92845482D01*
X144243704Y-92748284D01*
X144207955Y-92747587D01*
X144216859Y-92831554D01*
X144216859Y-92831554D01*
G37*
X144216859Y-92831554D02*
X144262151Y-92889916D01*
X144328890Y-92940077D01*
X144312235Y-92860541D01*
X144306585Y-92845482D01*
X144243704Y-92748284D01*
X144207955Y-92747587D01*
X144216859Y-92831554D01*
G36*
X156520903Y-92615742D02*
X156511441Y-92739795D01*
X156527170Y-92767877D01*
X156563247Y-92744204D01*
X156568859Y-92663697D01*
X156549474Y-92579002D01*
X156520903Y-92615742D01*
X156520903Y-92615742D01*
G37*
X156520903Y-92615742D02*
X156511441Y-92739795D01*
X156527170Y-92767877D01*
X156563247Y-92744204D01*
X156568859Y-92663697D01*
X156549474Y-92579002D01*
X156520903Y-92615742D01*
G36*
X144113250Y-92590937D02*
X144152938Y-92630625D01*
X144192625Y-92590937D01*
X144152938Y-92551250D01*
X144113250Y-92590937D01*
X144113250Y-92590937D01*
G37*
X144113250Y-92590937D02*
X144152938Y-92630625D01*
X144192625Y-92590937D01*
X144152938Y-92551250D01*
X144113250Y-92590937D01*
G36*
X143900028Y-92443772D02*
X143914813Y-92471875D01*
X143989601Y-92547678D01*
X144003557Y-92551250D01*
X144008973Y-92499977D01*
X143994188Y-92471875D01*
X143919400Y-92396071D01*
X143905444Y-92392500D01*
X143900028Y-92443772D01*
X143900028Y-92443772D01*
G37*
X143900028Y-92443772D02*
X143914813Y-92471875D01*
X143989601Y-92547678D01*
X144003557Y-92551250D01*
X144008973Y-92499977D01*
X143994188Y-92471875D01*
X143919400Y-92396071D01*
X143905444Y-92392500D01*
X143900028Y-92443772D01*
G36*
X143716375Y-92432187D02*
X143756063Y-92471875D01*
X143795750Y-92432187D01*
X143756063Y-92392500D01*
X143716375Y-92432187D01*
X143716375Y-92432187D01*
G37*
X143716375Y-92432187D02*
X143756063Y-92471875D01*
X143795750Y-92432187D01*
X143756063Y-92392500D01*
X143716375Y-92432187D01*
G36*
X156441528Y-92218867D02*
X156432066Y-92342920D01*
X156447795Y-92371002D01*
X156483872Y-92347329D01*
X156489484Y-92266822D01*
X156470099Y-92182127D01*
X156441528Y-92218867D01*
X156441528Y-92218867D01*
G37*
X156441528Y-92218867D02*
X156432066Y-92342920D01*
X156447795Y-92371002D01*
X156483872Y-92347329D01*
X156489484Y-92266822D01*
X156470099Y-92182127D01*
X156441528Y-92218867D01*
G36*
X156575125Y-92273437D02*
X156614813Y-92313125D01*
X156654500Y-92273437D01*
X156614813Y-92233750D01*
X156575125Y-92273437D01*
X156575125Y-92273437D01*
G37*
X156575125Y-92273437D02*
X156614813Y-92313125D01*
X156654500Y-92273437D01*
X156614813Y-92233750D01*
X156575125Y-92273437D01*
G36*
X143740609Y-92196554D02*
X143785901Y-92254916D01*
X143852640Y-92305077D01*
X143835985Y-92225541D01*
X143830335Y-92210482D01*
X143767454Y-92113284D01*
X143731705Y-92112587D01*
X143740609Y-92196554D01*
X143740609Y-92196554D01*
G37*
X143740609Y-92196554D02*
X143785901Y-92254916D01*
X143852640Y-92305077D01*
X143835985Y-92225541D01*
X143830335Y-92210482D01*
X143767454Y-92113284D01*
X143731705Y-92112587D01*
X143740609Y-92196554D01*
G36*
X146573875Y-92194062D02*
X146613563Y-92233750D01*
X146653250Y-92194062D01*
X146613563Y-92154375D01*
X146573875Y-92194062D01*
X146573875Y-92194062D01*
G37*
X146573875Y-92194062D02*
X146613563Y-92233750D01*
X146653250Y-92194062D01*
X146613563Y-92154375D01*
X146573875Y-92194062D01*
G36*
X156575125Y-91955937D02*
X156614813Y-91995625D01*
X156654500Y-91955937D01*
X156614813Y-91916250D01*
X156575125Y-91955937D01*
X156575125Y-91955937D01*
G37*
X156575125Y-91955937D02*
X156614813Y-91995625D01*
X156654500Y-91955937D01*
X156614813Y-91916250D01*
X156575125Y-91955937D01*
G36*
X156337000Y-91955937D02*
X156376688Y-91995625D01*
X156416375Y-91955937D01*
X156376688Y-91916250D01*
X156337000Y-91955937D01*
X156337000Y-91955937D01*
G37*
X156337000Y-91955937D02*
X156376688Y-91995625D01*
X156416375Y-91955937D01*
X156376688Y-91916250D01*
X156337000Y-91955937D01*
G36*
X143637000Y-91797187D02*
X143676688Y-91836875D01*
X143716375Y-91797187D01*
X143676688Y-91757500D01*
X143637000Y-91797187D01*
X143637000Y-91797187D01*
G37*
X143637000Y-91797187D02*
X143676688Y-91836875D01*
X143716375Y-91797187D01*
X143676688Y-91757500D01*
X143637000Y-91797187D01*
G36*
X156601584Y-91625208D02*
X156592084Y-91719407D01*
X156601584Y-91731041D01*
X156648772Y-91720145D01*
X156654500Y-91678125D01*
X156625458Y-91612790D01*
X156601584Y-91625208D01*
X156601584Y-91625208D01*
G37*
X156601584Y-91625208D02*
X156592084Y-91719407D01*
X156601584Y-91731041D01*
X156648772Y-91720145D01*
X156654500Y-91678125D01*
X156625458Y-91612790D01*
X156601584Y-91625208D01*
G36*
X143716375Y-91638437D02*
X143756063Y-91678125D01*
X143795750Y-91638437D01*
X143756063Y-91598750D01*
X143716375Y-91638437D01*
X143716375Y-91638437D01*
G37*
X143716375Y-91638437D02*
X143756063Y-91678125D01*
X143795750Y-91638437D01*
X143756063Y-91598750D01*
X143716375Y-91638437D01*
G36*
X143533303Y-91343371D02*
X143494267Y-91520489D01*
X143524497Y-91597030D01*
X143577908Y-91584584D01*
X143605245Y-91435944D01*
X143606120Y-91415846D01*
X143607670Y-91253378D01*
X143586770Y-91236080D01*
X143533303Y-91343371D01*
X143533303Y-91343371D01*
G37*
X143533303Y-91343371D02*
X143494267Y-91520489D01*
X143524497Y-91597030D01*
X143577908Y-91584584D01*
X143605245Y-91435944D01*
X143606120Y-91415846D01*
X143607670Y-91253378D01*
X143586770Y-91236080D01*
X143533303Y-91343371D01*
G36*
X156282778Y-91425117D02*
X156273316Y-91549170D01*
X156289045Y-91577252D01*
X156325122Y-91553579D01*
X156330734Y-91473072D01*
X156311349Y-91388377D01*
X156282778Y-91425117D01*
X156282778Y-91425117D01*
G37*
X156282778Y-91425117D02*
X156273316Y-91549170D01*
X156289045Y-91577252D01*
X156325122Y-91553579D01*
X156330734Y-91473072D01*
X156311349Y-91388377D01*
X156282778Y-91425117D01*
G36*
X146018250Y-91479687D02*
X146057938Y-91519375D01*
X146097625Y-91479687D01*
X146057938Y-91440000D01*
X146018250Y-91479687D01*
X146018250Y-91479687D01*
G37*
X146018250Y-91479687D02*
X146057938Y-91519375D01*
X146097625Y-91479687D01*
X146057938Y-91440000D01*
X146018250Y-91479687D01*
G36*
X153320750Y-91400312D02*
X153360438Y-91440000D01*
X153400125Y-91400312D01*
X153360438Y-91360625D01*
X153320750Y-91400312D01*
X153320750Y-91400312D01*
G37*
X153320750Y-91400312D02*
X153360438Y-91440000D01*
X153400125Y-91400312D01*
X153360438Y-91360625D01*
X153320750Y-91400312D01*
G36*
X143888259Y-91271453D02*
X143838682Y-91332264D01*
X143935846Y-91378721D01*
X143942664Y-91380528D01*
X144094879Y-91369536D01*
X144145321Y-91312165D01*
X144132274Y-91221148D01*
X144022431Y-91211889D01*
X143888259Y-91271453D01*
X143888259Y-91271453D01*
G37*
X143888259Y-91271453D02*
X143838682Y-91332264D01*
X143935846Y-91378721D01*
X143942664Y-91380528D01*
X144094879Y-91369536D01*
X144145321Y-91312165D01*
X144132274Y-91221148D01*
X144022431Y-91211889D01*
X143888259Y-91271453D01*
G36*
X156203403Y-91028242D02*
X156193941Y-91152295D01*
X156209670Y-91180377D01*
X156245747Y-91156704D01*
X156251359Y-91076197D01*
X156231974Y-90991502D01*
X156203403Y-91028242D01*
X156203403Y-91028242D01*
G37*
X156203403Y-91028242D02*
X156193941Y-91152295D01*
X156209670Y-91180377D01*
X156245747Y-91156704D01*
X156251359Y-91076197D01*
X156231974Y-90991502D01*
X156203403Y-91028242D01*
G36*
X144452248Y-91153919D02*
X144475921Y-91189996D01*
X144556428Y-91195608D01*
X144641123Y-91176223D01*
X144604383Y-91147652D01*
X144480330Y-91138190D01*
X144452248Y-91153919D01*
X144452248Y-91153919D01*
G37*
X144452248Y-91153919D02*
X144475921Y-91189996D01*
X144556428Y-91195608D01*
X144641123Y-91176223D01*
X144604383Y-91147652D01*
X144480330Y-91138190D01*
X144452248Y-91153919D01*
G36*
X143968102Y-91082878D02*
X143835438Y-91122500D01*
X143755413Y-91171196D01*
X143805687Y-91185450D01*
X143961588Y-91165262D01*
X144152938Y-91122500D01*
X144302644Y-91080916D01*
X144304937Y-91063229D01*
X144192625Y-91058095D01*
X143968102Y-91082878D01*
X143968102Y-91082878D01*
G37*
X143968102Y-91082878D02*
X143835438Y-91122500D01*
X143755413Y-91171196D01*
X143805687Y-91185450D01*
X143961588Y-91165262D01*
X144152938Y-91122500D01*
X144302644Y-91080916D01*
X144304937Y-91063229D01*
X144192625Y-91058095D01*
X143968102Y-91082878D01*
G36*
X150028893Y-89002337D02*
X149999648Y-89091246D01*
X150007830Y-89129830D01*
X150016124Y-89229632D01*
X149938793Y-89244492D01*
X149818751Y-89214775D01*
X149603488Y-89193105D01*
X149475466Y-89264123D01*
X149362932Y-89331928D01*
X149193412Y-89334102D01*
X149018960Y-89300507D01*
X148782423Y-89260931D01*
X148615813Y-89287633D01*
X148439593Y-89393396D01*
X148439188Y-89393688D01*
X148301405Y-89483539D01*
X148282503Y-89468652D01*
X148310001Y-89431109D01*
X148368148Y-89327107D01*
X148347895Y-89296875D01*
X148273699Y-89360105D01*
X148167735Y-89512411D01*
X148062517Y-89697717D01*
X147990557Y-89859946D01*
X147978372Y-89934194D01*
X147922054Y-89972179D01*
X147779935Y-89988486D01*
X147579562Y-90024647D01*
X147321407Y-90111706D01*
X147208875Y-90160593D01*
X147049150Y-90245170D01*
X147030806Y-90277777D01*
X147144722Y-90256944D01*
X147367625Y-90186148D01*
X147447055Y-90175447D01*
X147440958Y-90196468D01*
X147327020Y-90264268D01*
X147104241Y-90356630D01*
X146816581Y-90459345D01*
X146508001Y-90558205D01*
X146222463Y-90639000D01*
X146003925Y-90687521D01*
X145904641Y-90693035D01*
X145752528Y-90687722D01*
X145539880Y-90719254D01*
X145308226Y-90775457D01*
X145099093Y-90844158D01*
X144954010Y-90913184D01*
X144914504Y-90970359D01*
X144924450Y-90980374D01*
X144926873Y-91016017D01*
X144792302Y-91017226D01*
X144708563Y-91008095D01*
X144530631Y-90989289D01*
X144499559Y-91000022D01*
X144589500Y-91036925D01*
X144872747Y-91101482D01*
X145174552Y-91087771D01*
X145547922Y-90992250D01*
X145621375Y-90967942D01*
X145924642Y-90866197D01*
X146257078Y-90755941D01*
X145836900Y-90755941D01*
X145799876Y-90799867D01*
X145658323Y-90856365D01*
X145463963Y-90909957D01*
X145268519Y-90945167D01*
X145184813Y-90951062D01*
X145161224Y-90932503D01*
X145266936Y-90882915D01*
X145411477Y-90834312D01*
X145638484Y-90773990D01*
X145796429Y-90749519D01*
X145836900Y-90755941D01*
X146257078Y-90755941D01*
X146297436Y-90742556D01*
X146653250Y-90625688D01*
X146972882Y-90518379D01*
X147279986Y-90407560D01*
X147617148Y-90276879D01*
X148026951Y-90109986D01*
X148179375Y-90046434D01*
X147818387Y-90046434D01*
X147764500Y-90090625D01*
X147619798Y-90157791D01*
X147566063Y-90167569D01*
X147551864Y-90134815D01*
X147605750Y-90090625D01*
X147750453Y-90023458D01*
X147804188Y-90013680D01*
X147818387Y-90046434D01*
X148179375Y-90046434D01*
X148382484Y-89961750D01*
X148551757Y-89895550D01*
X148604857Y-89901309D01*
X148571000Y-89987241D01*
X148558285Y-90011186D01*
X148508208Y-90133866D01*
X148515770Y-90170000D01*
X148556381Y-90153858D01*
X148637869Y-90091805D01*
X148784633Y-89963394D01*
X148906464Y-89852500D01*
X148161375Y-89852500D01*
X148132333Y-89917834D01*
X148108459Y-89905416D01*
X148098959Y-89811217D01*
X148108459Y-89799583D01*
X148155647Y-89810479D01*
X148161375Y-89852500D01*
X148906464Y-89852500D01*
X149021073Y-89748180D01*
X149041159Y-89729753D01*
X149170027Y-89633974D01*
X149233943Y-89622310D01*
X149202112Y-89692321D01*
X149159233Y-89739107D01*
X149059876Y-89897144D01*
X149041104Y-90055023D01*
X149103159Y-90157098D01*
X149157353Y-90170000D01*
X149289233Y-90115434D01*
X149417264Y-90011250D01*
X149272625Y-90011250D01*
X149243583Y-90076584D01*
X149219709Y-90064166D01*
X149210209Y-89969967D01*
X149219709Y-89958333D01*
X149266897Y-89969229D01*
X149272625Y-90011250D01*
X149417264Y-90011250D01*
X149454047Y-89981319D01*
X149480916Y-89953429D01*
X149681627Y-89736858D01*
X149627271Y-89953429D01*
X149615871Y-90123986D01*
X149685261Y-90163926D01*
X149815268Y-90065138D01*
X149838375Y-90038306D01*
X150019033Y-89893119D01*
X150296497Y-89746079D01*
X150611145Y-89622395D01*
X150796729Y-89574687D01*
X149907625Y-89574687D01*
X149867938Y-89614375D01*
X149828250Y-89574687D01*
X149867938Y-89535000D01*
X149907625Y-89574687D01*
X150796729Y-89574687D01*
X150903359Y-89547276D01*
X151026875Y-89535775D01*
X151296198Y-89558689D01*
X151542636Y-89614877D01*
X151542812Y-89614938D01*
X151739398Y-89671083D01*
X152017637Y-89735445D01*
X152340381Y-89801328D01*
X152670483Y-89862034D01*
X152970795Y-89910869D01*
X153204170Y-89941135D01*
X153333460Y-89946137D01*
X153347477Y-89940248D01*
X153340313Y-89841783D01*
X153297100Y-89647233D01*
X153266516Y-89535000D01*
X153163639Y-89177812D01*
X153186642Y-89476098D01*
X153209645Y-89774383D01*
X152808792Y-89723424D01*
X152522554Y-89676770D01*
X152162754Y-89604165D01*
X151819772Y-89524357D01*
X151493385Y-89450993D01*
X151293196Y-89415937D01*
X150622000Y-89415937D01*
X150582313Y-89455625D01*
X150423563Y-89455625D01*
X150325735Y-89531905D01*
X150304500Y-89535000D01*
X150201707Y-89477533D01*
X150185438Y-89455625D01*
X150210368Y-89393723D01*
X150304500Y-89376250D01*
X149709188Y-89376250D01*
X149705560Y-89449509D01*
X149678869Y-89455625D01*
X149566659Y-89397700D01*
X149550438Y-89376250D01*
X149554066Y-89302990D01*
X149580757Y-89296875D01*
X149692967Y-89354799D01*
X149709188Y-89376250D01*
X150304500Y-89376250D01*
X150417172Y-89406082D01*
X150423563Y-89455625D01*
X150582313Y-89455625D01*
X150542625Y-89415937D01*
X150582313Y-89376250D01*
X150622000Y-89415937D01*
X151293196Y-89415937D01*
X151190874Y-89398019D01*
X150974943Y-89376319D01*
X150966491Y-89376250D01*
X150787973Y-89355429D01*
X150702610Y-89304536D01*
X150701375Y-89296875D01*
X150637718Y-89225044D01*
X150619933Y-89222184D01*
X150383875Y-89222184D01*
X150330619Y-89295441D01*
X150317730Y-89296875D01*
X150258510Y-89232636D01*
X150251584Y-89181304D01*
X150285991Y-89101265D01*
X150317730Y-89106613D01*
X150383222Y-89211302D01*
X150383875Y-89222184D01*
X150619933Y-89222184D01*
X150590805Y-89217500D01*
X150468269Y-89153473D01*
X150434546Y-89098437D01*
X150329250Y-89009353D01*
X150178672Y-88979375D01*
X150028893Y-89002337D01*
X150028893Y-89002337D01*
G37*
X150028893Y-89002337D02*
X149999648Y-89091246D01*
X150007830Y-89129830D01*
X150016124Y-89229632D01*
X149938793Y-89244492D01*
X149818751Y-89214775D01*
X149603488Y-89193105D01*
X149475466Y-89264123D01*
X149362932Y-89331928D01*
X149193412Y-89334102D01*
X149018960Y-89300507D01*
X148782423Y-89260931D01*
X148615813Y-89287633D01*
X148439593Y-89393396D01*
X148439188Y-89393688D01*
X148301405Y-89483539D01*
X148282503Y-89468652D01*
X148310001Y-89431109D01*
X148368148Y-89327107D01*
X148347895Y-89296875D01*
X148273699Y-89360105D01*
X148167735Y-89512411D01*
X148062517Y-89697717D01*
X147990557Y-89859946D01*
X147978372Y-89934194D01*
X147922054Y-89972179D01*
X147779935Y-89988486D01*
X147579562Y-90024647D01*
X147321407Y-90111706D01*
X147208875Y-90160593D01*
X147049150Y-90245170D01*
X147030806Y-90277777D01*
X147144722Y-90256944D01*
X147367625Y-90186148D01*
X147447055Y-90175447D01*
X147440958Y-90196468D01*
X147327020Y-90264268D01*
X147104241Y-90356630D01*
X146816581Y-90459345D01*
X146508001Y-90558205D01*
X146222463Y-90639000D01*
X146003925Y-90687521D01*
X145904641Y-90693035D01*
X145752528Y-90687722D01*
X145539880Y-90719254D01*
X145308226Y-90775457D01*
X145099093Y-90844158D01*
X144954010Y-90913184D01*
X144914504Y-90970359D01*
X144924450Y-90980374D01*
X144926873Y-91016017D01*
X144792302Y-91017226D01*
X144708563Y-91008095D01*
X144530631Y-90989289D01*
X144499559Y-91000022D01*
X144589500Y-91036925D01*
X144872747Y-91101482D01*
X145174552Y-91087771D01*
X145547922Y-90992250D01*
X145621375Y-90967942D01*
X145924642Y-90866197D01*
X146257078Y-90755941D01*
X145836900Y-90755941D01*
X145799876Y-90799867D01*
X145658323Y-90856365D01*
X145463963Y-90909957D01*
X145268519Y-90945167D01*
X145184813Y-90951062D01*
X145161224Y-90932503D01*
X145266936Y-90882915D01*
X145411477Y-90834312D01*
X145638484Y-90773990D01*
X145796429Y-90749519D01*
X145836900Y-90755941D01*
X146257078Y-90755941D01*
X146297436Y-90742556D01*
X146653250Y-90625688D01*
X146972882Y-90518379D01*
X147279986Y-90407560D01*
X147617148Y-90276879D01*
X148026951Y-90109986D01*
X148179375Y-90046434D01*
X147818387Y-90046434D01*
X147764500Y-90090625D01*
X147619798Y-90157791D01*
X147566063Y-90167569D01*
X147551864Y-90134815D01*
X147605750Y-90090625D01*
X147750453Y-90023458D01*
X147804188Y-90013680D01*
X147818387Y-90046434D01*
X148179375Y-90046434D01*
X148382484Y-89961750D01*
X148551757Y-89895550D01*
X148604857Y-89901309D01*
X148571000Y-89987241D01*
X148558285Y-90011186D01*
X148508208Y-90133866D01*
X148515770Y-90170000D01*
X148556381Y-90153858D01*
X148637869Y-90091805D01*
X148784633Y-89963394D01*
X148906464Y-89852500D01*
X148161375Y-89852500D01*
X148132333Y-89917834D01*
X148108459Y-89905416D01*
X148098959Y-89811217D01*
X148108459Y-89799583D01*
X148155647Y-89810479D01*
X148161375Y-89852500D01*
X148906464Y-89852500D01*
X149021073Y-89748180D01*
X149041159Y-89729753D01*
X149170027Y-89633974D01*
X149233943Y-89622310D01*
X149202112Y-89692321D01*
X149159233Y-89739107D01*
X149059876Y-89897144D01*
X149041104Y-90055023D01*
X149103159Y-90157098D01*
X149157353Y-90170000D01*
X149289233Y-90115434D01*
X149417264Y-90011250D01*
X149272625Y-90011250D01*
X149243583Y-90076584D01*
X149219709Y-90064166D01*
X149210209Y-89969967D01*
X149219709Y-89958333D01*
X149266897Y-89969229D01*
X149272625Y-90011250D01*
X149417264Y-90011250D01*
X149454047Y-89981319D01*
X149480916Y-89953429D01*
X149681627Y-89736858D01*
X149627271Y-89953429D01*
X149615871Y-90123986D01*
X149685261Y-90163926D01*
X149815268Y-90065138D01*
X149838375Y-90038306D01*
X150019033Y-89893119D01*
X150296497Y-89746079D01*
X150611145Y-89622395D01*
X150796729Y-89574687D01*
X149907625Y-89574687D01*
X149867938Y-89614375D01*
X149828250Y-89574687D01*
X149867938Y-89535000D01*
X149907625Y-89574687D01*
X150796729Y-89574687D01*
X150903359Y-89547276D01*
X151026875Y-89535775D01*
X151296198Y-89558689D01*
X151542636Y-89614877D01*
X151542812Y-89614938D01*
X151739398Y-89671083D01*
X152017637Y-89735445D01*
X152340381Y-89801328D01*
X152670483Y-89862034D01*
X152970795Y-89910869D01*
X153204170Y-89941135D01*
X153333460Y-89946137D01*
X153347477Y-89940248D01*
X153340313Y-89841783D01*
X153297100Y-89647233D01*
X153266516Y-89535000D01*
X153163639Y-89177812D01*
X153186642Y-89476098D01*
X153209645Y-89774383D01*
X152808792Y-89723424D01*
X152522554Y-89676770D01*
X152162754Y-89604165D01*
X151819772Y-89524357D01*
X151493385Y-89450993D01*
X151293196Y-89415937D01*
X150622000Y-89415937D01*
X150582313Y-89455625D01*
X150423563Y-89455625D01*
X150325735Y-89531905D01*
X150304500Y-89535000D01*
X150201707Y-89477533D01*
X150185438Y-89455625D01*
X150210368Y-89393723D01*
X150304500Y-89376250D01*
X149709188Y-89376250D01*
X149705560Y-89449509D01*
X149678869Y-89455625D01*
X149566659Y-89397700D01*
X149550438Y-89376250D01*
X149554066Y-89302990D01*
X149580757Y-89296875D01*
X149692967Y-89354799D01*
X149709188Y-89376250D01*
X150304500Y-89376250D01*
X150417172Y-89406082D01*
X150423563Y-89455625D01*
X150582313Y-89455625D01*
X150542625Y-89415937D01*
X150582313Y-89376250D01*
X150622000Y-89415937D01*
X151293196Y-89415937D01*
X151190874Y-89398019D01*
X150974943Y-89376319D01*
X150966491Y-89376250D01*
X150787973Y-89355429D01*
X150702610Y-89304536D01*
X150701375Y-89296875D01*
X150637718Y-89225044D01*
X150619933Y-89222184D01*
X150383875Y-89222184D01*
X150330619Y-89295441D01*
X150317730Y-89296875D01*
X150258510Y-89232636D01*
X150251584Y-89181304D01*
X150285991Y-89101265D01*
X150317730Y-89106613D01*
X150383222Y-89211302D01*
X150383875Y-89222184D01*
X150619933Y-89222184D01*
X150590805Y-89217500D01*
X150468269Y-89153473D01*
X150434546Y-89098437D01*
X150329250Y-89009353D01*
X150178672Y-88979375D01*
X150028893Y-89002337D01*
G36*
X143637000Y-91003437D02*
X143676688Y-91043125D01*
X143716375Y-91003437D01*
X143676688Y-90963750D01*
X143637000Y-91003437D01*
X143637000Y-91003437D01*
G37*
X143637000Y-91003437D02*
X143676688Y-91043125D01*
X143716375Y-91003437D01*
X143676688Y-90963750D01*
X143637000Y-91003437D01*
G36*
X151352431Y-90487561D02*
X151270309Y-90609051D01*
X151171574Y-90746411D01*
X151007957Y-90799987D01*
X150887921Y-90805000D01*
X150638303Y-90766447D01*
X150437914Y-90671623D01*
X150431181Y-90666093D01*
X150319942Y-90574480D01*
X150315218Y-90586633D01*
X150375119Y-90666093D01*
X150436750Y-90770506D01*
X150370058Y-90803191D01*
X150300990Y-90805000D01*
X150165524Y-90816589D01*
X150168243Y-90844950D01*
X150290791Y-90880470D01*
X150506584Y-90912651D01*
X150779093Y-90913758D01*
X151097076Y-90876385D01*
X151217313Y-90851730D01*
X151481429Y-90778135D01*
X151701741Y-90699218D01*
X151772938Y-90665178D01*
X151849997Y-90610956D01*
X151806696Y-90596040D01*
X151625495Y-90615061D01*
X151614188Y-90616579D01*
X151421642Y-90631944D01*
X151380044Y-90605310D01*
X151404381Y-90583370D01*
X151461536Y-90496356D01*
X151435832Y-90460223D01*
X151352431Y-90487561D01*
X151352431Y-90487561D01*
G37*
X151352431Y-90487561D02*
X151270309Y-90609051D01*
X151171574Y-90746411D01*
X151007957Y-90799987D01*
X150887921Y-90805000D01*
X150638303Y-90766447D01*
X150437914Y-90671623D01*
X150431181Y-90666093D01*
X150319942Y-90574480D01*
X150315218Y-90586633D01*
X150375119Y-90666093D01*
X150436750Y-90770506D01*
X150370058Y-90803191D01*
X150300990Y-90805000D01*
X150165524Y-90816589D01*
X150168243Y-90844950D01*
X150290791Y-90880470D01*
X150506584Y-90912651D01*
X150779093Y-90913758D01*
X151097076Y-90876385D01*
X151217313Y-90851730D01*
X151481429Y-90778135D01*
X151701741Y-90699218D01*
X151772938Y-90665178D01*
X151849997Y-90610956D01*
X151806696Y-90596040D01*
X151625495Y-90615061D01*
X151614188Y-90616579D01*
X151421642Y-90631944D01*
X151380044Y-90605310D01*
X151404381Y-90583370D01*
X151461536Y-90496356D01*
X151435832Y-90460223D01*
X151352431Y-90487561D01*
G36*
X153347209Y-90672708D02*
X153337709Y-90766907D01*
X153347209Y-90778541D01*
X153394397Y-90767645D01*
X153400125Y-90725625D01*
X153371083Y-90660290D01*
X153347209Y-90672708D01*
X153347209Y-90672708D01*
G37*
X153347209Y-90672708D02*
X153337709Y-90766907D01*
X153347209Y-90778541D01*
X153394397Y-90767645D01*
X153400125Y-90725625D01*
X153371083Y-90660290D01*
X153347209Y-90672708D01*
G36*
X156125334Y-90593333D02*
X156115834Y-90687532D01*
X156125334Y-90699166D01*
X156172522Y-90688270D01*
X156178250Y-90646250D01*
X156149208Y-90580915D01*
X156125334Y-90593333D01*
X156125334Y-90593333D01*
G37*
X156125334Y-90593333D02*
X156115834Y-90687532D01*
X156125334Y-90699166D01*
X156172522Y-90688270D01*
X156178250Y-90646250D01*
X156149208Y-90580915D01*
X156125334Y-90593333D01*
G36*
X156180231Y-80167690D02*
X156057715Y-80285759D01*
X155989259Y-80444401D01*
X155997523Y-80578238D01*
X156026952Y-80609917D01*
X156083811Y-80579228D01*
X156105142Y-80471090D01*
X156122674Y-80366190D01*
X156149867Y-80382299D01*
X156156592Y-80518653D01*
X156120982Y-80722459D01*
X156116455Y-80739487D01*
X156078005Y-80953532D01*
X156082787Y-81114264D01*
X156084662Y-81120356D01*
X156127146Y-81133122D01*
X156186688Y-81009419D01*
X156211784Y-80928280D01*
X156291130Y-80723633D01*
X156381404Y-80596482D01*
X156404998Y-80582646D01*
X156470143Y-80582379D01*
X156441382Y-80676274D01*
X156418935Y-80719591D01*
X156361632Y-80888792D01*
X156365274Y-80986744D01*
X156400546Y-81036140D01*
X156410109Y-80982343D01*
X156456918Y-80889869D01*
X156480536Y-80883124D01*
X156515506Y-80954463D01*
X156534601Y-81136877D01*
X156535695Y-81279999D01*
X156538862Y-81506376D01*
X156556828Y-81650075D01*
X156572851Y-81676875D01*
X156595003Y-81746861D01*
X156594424Y-81921827D01*
X156588730Y-81994375D01*
X156587585Y-82209938D01*
X156630758Y-82308846D01*
X156644199Y-82311875D01*
X156690741Y-82366130D01*
X156652536Y-82515479D01*
X156587982Y-82702426D01*
X156589451Y-82770465D01*
X156658627Y-82745818D01*
X156667004Y-82740709D01*
X156725986Y-82743210D01*
X156711036Y-82866889D01*
X156691481Y-83042422D01*
X156704253Y-83237421D01*
X156740571Y-83397823D01*
X156791657Y-83469565D01*
X156808307Y-83465867D01*
X156836922Y-83514957D01*
X156846330Y-83678298D01*
X156842624Y-83784656D01*
X156845768Y-83995760D01*
X156877727Y-84121824D01*
X156899712Y-84137500D01*
X156936669Y-84192831D01*
X156906085Y-84276406D01*
X156880146Y-84400704D01*
X156855941Y-84647382D01*
X156835156Y-84980069D01*
X156819476Y-85362393D01*
X156810587Y-85757985D01*
X156810174Y-86130473D01*
X156813196Y-86280625D01*
X156820879Y-86931551D01*
X156804569Y-87475500D01*
X156765390Y-87899170D01*
X156704469Y-88189260D01*
X156640841Y-88316211D01*
X156523128Y-88503749D01*
X156449188Y-88701562D01*
X156302315Y-89044448D01*
X156065372Y-89330866D01*
X155821063Y-89491036D01*
X155624879Y-89652336D01*
X155476183Y-89927464D01*
X155394353Y-90274004D01*
X155384500Y-90446562D01*
X155419024Y-90604148D01*
X155499824Y-90645664D01*
X155577377Y-90575873D01*
X155677399Y-90516898D01*
X155869654Y-90460204D01*
X155919405Y-90450126D01*
X156190507Y-90360881D01*
X156450530Y-90217748D01*
X156470611Y-90203002D01*
X156667483Y-90066463D01*
X156776544Y-90017013D01*
X156783703Y-90057416D01*
X156706160Y-90156770D01*
X156622702Y-90264634D01*
X156652521Y-90300251D01*
X156693858Y-90302291D01*
X156777187Y-90281732D01*
X156772837Y-90261878D01*
X156792587Y-90183049D01*
X156894326Y-90043753D01*
X156911743Y-90024183D01*
X156954330Y-89971562D01*
X156892625Y-89971562D01*
X156852938Y-90011250D01*
X156813250Y-89971562D01*
X156852938Y-89931875D01*
X156892625Y-89971562D01*
X156954330Y-89971562D01*
X157004266Y-89909862D01*
X157005624Y-89877390D01*
X156991844Y-89884072D01*
X156904483Y-89895205D01*
X156892625Y-89866903D01*
X156960168Y-89741387D01*
X157063283Y-89689065D01*
X156178250Y-89689065D01*
X156120631Y-89769894D01*
X156098875Y-89773125D01*
X156021564Y-89746043D01*
X156019500Y-89738121D01*
X156075121Y-89670354D01*
X156098875Y-89654062D01*
X156172018Y-89660355D01*
X156178250Y-89689065D01*
X157063283Y-89689065D01*
X157115507Y-89662566D01*
X157230347Y-89657288D01*
X157325131Y-89643969D01*
X157324081Y-89606112D01*
X157228552Y-89567878D01*
X157204641Y-89578077D01*
X157153695Y-89603335D01*
X157140106Y-89577756D01*
X157170321Y-89474413D01*
X157250786Y-89266381D01*
X157318461Y-89098437D01*
X156495750Y-89098437D01*
X156456063Y-89138125D01*
X156416375Y-89098437D01*
X156456063Y-89058750D01*
X156495750Y-89098437D01*
X157318461Y-89098437D01*
X157320943Y-89092278D01*
X157425541Y-88780937D01*
X156575125Y-88780937D01*
X156535438Y-88820625D01*
X156495750Y-88780937D01*
X156535438Y-88741250D01*
X156575125Y-88780937D01*
X157425541Y-88780937D01*
X157432357Y-88760651D01*
X157502968Y-88484147D01*
X156778824Y-88484147D01*
X156700803Y-88496858D01*
X156597852Y-88482264D01*
X156596623Y-88455169D01*
X156702858Y-88436221D01*
X156748758Y-88448902D01*
X156778824Y-88484147D01*
X157502968Y-88484147D01*
X157533879Y-88363105D01*
X157596813Y-88026875D01*
X157610157Y-87907812D01*
X157527625Y-87907812D01*
X157487938Y-87947500D01*
X157448250Y-87907812D01*
X157487938Y-87868125D01*
X157527625Y-87907812D01*
X157610157Y-87907812D01*
X157626314Y-87763658D01*
X157652937Y-87417806D01*
X157676104Y-87014100D01*
X157690851Y-86677500D01*
X157038843Y-86677500D01*
X157026369Y-86790183D01*
X156998807Y-86776718D01*
X156988323Y-86614210D01*
X156998807Y-86578281D01*
X157027778Y-86568309D01*
X157038843Y-86677500D01*
X157690851Y-86677500D01*
X157695240Y-86577322D01*
X157708808Y-86161562D01*
X157051375Y-86161562D01*
X157011688Y-86201250D01*
X156972000Y-86161562D01*
X157011688Y-86121875D01*
X157051375Y-86161562D01*
X157708808Y-86161562D01*
X157709765Y-86132254D01*
X157713450Y-85963125D01*
X157051375Y-85963125D01*
X157022333Y-86028459D01*
X156998459Y-86016041D01*
X156988959Y-85921842D01*
X156998459Y-85910208D01*
X157045647Y-85921104D01*
X157051375Y-85963125D01*
X157713450Y-85963125D01*
X157719104Y-85703676D01*
X157720005Y-85605937D01*
X157051375Y-85605937D01*
X157011688Y-85645625D01*
X156972000Y-85605937D01*
X157011688Y-85566250D01*
X157051375Y-85605937D01*
X157720005Y-85605937D01*
X157722678Y-85316372D01*
X157719911Y-84995122D01*
X157710225Y-84764708D01*
X157693042Y-84649912D01*
X157675398Y-84653437D01*
X157639728Y-84679637D01*
X157626674Y-84549510D01*
X157628524Y-84494687D01*
X157051375Y-84494687D01*
X157011688Y-84534375D01*
X156972000Y-84494687D01*
X157011688Y-84455000D01*
X157051375Y-84494687D01*
X157628524Y-84494687D01*
X157636317Y-84263873D01*
X157636742Y-84256562D01*
X157646021Y-84014070D01*
X157645556Y-84001502D01*
X157356081Y-84001502D01*
X157336768Y-84045860D01*
X157256845Y-84131073D01*
X157210898Y-84113593D01*
X157210125Y-84102496D01*
X157266504Y-84035360D01*
X157301765Y-84010857D01*
X157356081Y-84001502D01*
X157645556Y-84001502D01*
X157640963Y-83877367D01*
X157622785Y-83870441D01*
X157617949Y-83885776D01*
X157584070Y-83905013D01*
X157537141Y-83766611D01*
X157477311Y-83471134D01*
X157424035Y-83146624D01*
X157402365Y-83021565D01*
X156892625Y-83021565D01*
X156835006Y-83102394D01*
X156813250Y-83105625D01*
X156735939Y-83078543D01*
X156733875Y-83070621D01*
X156789496Y-83002854D01*
X156813250Y-82986562D01*
X156886393Y-82992855D01*
X156892625Y-83021565D01*
X157402365Y-83021565D01*
X157345236Y-82691876D01*
X157332567Y-82629375D01*
X156892625Y-82629375D01*
X156863583Y-82694709D01*
X156839709Y-82682291D01*
X156830209Y-82588092D01*
X156839709Y-82576458D01*
X156886897Y-82587354D01*
X156892625Y-82629375D01*
X157332567Y-82629375D01*
X157247757Y-82210982D01*
X157146294Y-81773418D01*
X157085801Y-81547336D01*
X157003820Y-81235684D01*
X156951616Y-80978717D01*
X156936662Y-80816363D01*
X156943318Y-80785942D01*
X156947292Y-80736270D01*
X156916496Y-80749309D01*
X156830869Y-80723225D01*
X156744880Y-80597766D01*
X156702123Y-80469709D01*
X156723463Y-80446562D01*
X156337000Y-80446562D01*
X156297313Y-80486250D01*
X156257625Y-80446562D01*
X156297313Y-80406875D01*
X156337000Y-80446562D01*
X156723463Y-80446562D01*
X156727241Y-80442465D01*
X156727789Y-80442800D01*
X156828691Y-80430633D01*
X156859717Y-80395905D01*
X156870432Y-80339521D01*
X156834508Y-80354049D01*
X156723326Y-80344493D01*
X156653775Y-80286938D01*
X156529255Y-80187709D01*
X156466188Y-80169965D01*
X156443466Y-80203365D01*
X156495750Y-80248124D01*
X156562474Y-80311499D01*
X156513103Y-80326284D01*
X156398362Y-80263693D01*
X156366262Y-80209891D01*
X156288448Y-80134395D01*
X156180231Y-80167690D01*
X156180231Y-80167690D01*
G37*
X156180231Y-80167690D02*
X156057715Y-80285759D01*
X155989259Y-80444401D01*
X155997523Y-80578238D01*
X156026952Y-80609917D01*
X156083811Y-80579228D01*
X156105142Y-80471090D01*
X156122674Y-80366190D01*
X156149867Y-80382299D01*
X156156592Y-80518653D01*
X156120982Y-80722459D01*
X156116455Y-80739487D01*
X156078005Y-80953532D01*
X156082787Y-81114264D01*
X156084662Y-81120356D01*
X156127146Y-81133122D01*
X156186688Y-81009419D01*
X156211784Y-80928280D01*
X156291130Y-80723633D01*
X156381404Y-80596482D01*
X156404998Y-80582646D01*
X156470143Y-80582379D01*
X156441382Y-80676274D01*
X156418935Y-80719591D01*
X156361632Y-80888792D01*
X156365274Y-80986744D01*
X156400546Y-81036140D01*
X156410109Y-80982343D01*
X156456918Y-80889869D01*
X156480536Y-80883124D01*
X156515506Y-80954463D01*
X156534601Y-81136877D01*
X156535695Y-81279999D01*
X156538862Y-81506376D01*
X156556828Y-81650075D01*
X156572851Y-81676875D01*
X156595003Y-81746861D01*
X156594424Y-81921827D01*
X156588730Y-81994375D01*
X156587585Y-82209938D01*
X156630758Y-82308846D01*
X156644199Y-82311875D01*
X156690741Y-82366130D01*
X156652536Y-82515479D01*
X156587982Y-82702426D01*
X156589451Y-82770465D01*
X156658627Y-82745818D01*
X156667004Y-82740709D01*
X156725986Y-82743210D01*
X156711036Y-82866889D01*
X156691481Y-83042422D01*
X156704253Y-83237421D01*
X156740571Y-83397823D01*
X156791657Y-83469565D01*
X156808307Y-83465867D01*
X156836922Y-83514957D01*
X156846330Y-83678298D01*
X156842624Y-83784656D01*
X156845768Y-83995760D01*
X156877727Y-84121824D01*
X156899712Y-84137500D01*
X156936669Y-84192831D01*
X156906085Y-84276406D01*
X156880146Y-84400704D01*
X156855941Y-84647382D01*
X156835156Y-84980069D01*
X156819476Y-85362393D01*
X156810587Y-85757985D01*
X156810174Y-86130473D01*
X156813196Y-86280625D01*
X156820879Y-86931551D01*
X156804569Y-87475500D01*
X156765390Y-87899170D01*
X156704469Y-88189260D01*
X156640841Y-88316211D01*
X156523128Y-88503749D01*
X156449188Y-88701562D01*
X156302315Y-89044448D01*
X156065372Y-89330866D01*
X155821063Y-89491036D01*
X155624879Y-89652336D01*
X155476183Y-89927464D01*
X155394353Y-90274004D01*
X155384500Y-90446562D01*
X155419024Y-90604148D01*
X155499824Y-90645664D01*
X155577377Y-90575873D01*
X155677399Y-90516898D01*
X155869654Y-90460204D01*
X155919405Y-90450126D01*
X156190507Y-90360881D01*
X156450530Y-90217748D01*
X156470611Y-90203002D01*
X156667483Y-90066463D01*
X156776544Y-90017013D01*
X156783703Y-90057416D01*
X156706160Y-90156770D01*
X156622702Y-90264634D01*
X156652521Y-90300251D01*
X156693858Y-90302291D01*
X156777187Y-90281732D01*
X156772837Y-90261878D01*
X156792587Y-90183049D01*
X156894326Y-90043753D01*
X156911743Y-90024183D01*
X156954330Y-89971562D01*
X156892625Y-89971562D01*
X156852938Y-90011250D01*
X156813250Y-89971562D01*
X156852938Y-89931875D01*
X156892625Y-89971562D01*
X156954330Y-89971562D01*
X157004266Y-89909862D01*
X157005624Y-89877390D01*
X156991844Y-89884072D01*
X156904483Y-89895205D01*
X156892625Y-89866903D01*
X156960168Y-89741387D01*
X157063283Y-89689065D01*
X156178250Y-89689065D01*
X156120631Y-89769894D01*
X156098875Y-89773125D01*
X156021564Y-89746043D01*
X156019500Y-89738121D01*
X156075121Y-89670354D01*
X156098875Y-89654062D01*
X156172018Y-89660355D01*
X156178250Y-89689065D01*
X157063283Y-89689065D01*
X157115507Y-89662566D01*
X157230347Y-89657288D01*
X157325131Y-89643969D01*
X157324081Y-89606112D01*
X157228552Y-89567878D01*
X157204641Y-89578077D01*
X157153695Y-89603335D01*
X157140106Y-89577756D01*
X157170321Y-89474413D01*
X157250786Y-89266381D01*
X157318461Y-89098437D01*
X156495750Y-89098437D01*
X156456063Y-89138125D01*
X156416375Y-89098437D01*
X156456063Y-89058750D01*
X156495750Y-89098437D01*
X157318461Y-89098437D01*
X157320943Y-89092278D01*
X157425541Y-88780937D01*
X156575125Y-88780937D01*
X156535438Y-88820625D01*
X156495750Y-88780937D01*
X156535438Y-88741250D01*
X156575125Y-88780937D01*
X157425541Y-88780937D01*
X157432357Y-88760651D01*
X157502968Y-88484147D01*
X156778824Y-88484147D01*
X156700803Y-88496858D01*
X156597852Y-88482264D01*
X156596623Y-88455169D01*
X156702858Y-88436221D01*
X156748758Y-88448902D01*
X156778824Y-88484147D01*
X157502968Y-88484147D01*
X157533879Y-88363105D01*
X157596813Y-88026875D01*
X157610157Y-87907812D01*
X157527625Y-87907812D01*
X157487938Y-87947500D01*
X157448250Y-87907812D01*
X157487938Y-87868125D01*
X157527625Y-87907812D01*
X157610157Y-87907812D01*
X157626314Y-87763658D01*
X157652937Y-87417806D01*
X157676104Y-87014100D01*
X157690851Y-86677500D01*
X157038843Y-86677500D01*
X157026369Y-86790183D01*
X156998807Y-86776718D01*
X156988323Y-86614210D01*
X156998807Y-86578281D01*
X157027778Y-86568309D01*
X157038843Y-86677500D01*
X157690851Y-86677500D01*
X157695240Y-86577322D01*
X157708808Y-86161562D01*
X157051375Y-86161562D01*
X157011688Y-86201250D01*
X156972000Y-86161562D01*
X157011688Y-86121875D01*
X157051375Y-86161562D01*
X157708808Y-86161562D01*
X157709765Y-86132254D01*
X157713450Y-85963125D01*
X157051375Y-85963125D01*
X157022333Y-86028459D01*
X156998459Y-86016041D01*
X156988959Y-85921842D01*
X156998459Y-85910208D01*
X157045647Y-85921104D01*
X157051375Y-85963125D01*
X157713450Y-85963125D01*
X157719104Y-85703676D01*
X157720005Y-85605937D01*
X157051375Y-85605937D01*
X157011688Y-85645625D01*
X156972000Y-85605937D01*
X157011688Y-85566250D01*
X157051375Y-85605937D01*
X157720005Y-85605937D01*
X157722678Y-85316372D01*
X157719911Y-84995122D01*
X157710225Y-84764708D01*
X157693042Y-84649912D01*
X157675398Y-84653437D01*
X157639728Y-84679637D01*
X157626674Y-84549510D01*
X157628524Y-84494687D01*
X157051375Y-84494687D01*
X157011688Y-84534375D01*
X156972000Y-84494687D01*
X157011688Y-84455000D01*
X157051375Y-84494687D01*
X157628524Y-84494687D01*
X157636317Y-84263873D01*
X157636742Y-84256562D01*
X157646021Y-84014070D01*
X157645556Y-84001502D01*
X157356081Y-84001502D01*
X157336768Y-84045860D01*
X157256845Y-84131073D01*
X157210898Y-84113593D01*
X157210125Y-84102496D01*
X157266504Y-84035360D01*
X157301765Y-84010857D01*
X157356081Y-84001502D01*
X157645556Y-84001502D01*
X157640963Y-83877367D01*
X157622785Y-83870441D01*
X157617949Y-83885776D01*
X157584070Y-83905013D01*
X157537141Y-83766611D01*
X157477311Y-83471134D01*
X157424035Y-83146624D01*
X157402365Y-83021565D01*
X156892625Y-83021565D01*
X156835006Y-83102394D01*
X156813250Y-83105625D01*
X156735939Y-83078543D01*
X156733875Y-83070621D01*
X156789496Y-83002854D01*
X156813250Y-82986562D01*
X156886393Y-82992855D01*
X156892625Y-83021565D01*
X157402365Y-83021565D01*
X157345236Y-82691876D01*
X157332567Y-82629375D01*
X156892625Y-82629375D01*
X156863583Y-82694709D01*
X156839709Y-82682291D01*
X156830209Y-82588092D01*
X156839709Y-82576458D01*
X156886897Y-82587354D01*
X156892625Y-82629375D01*
X157332567Y-82629375D01*
X157247757Y-82210982D01*
X157146294Y-81773418D01*
X157085801Y-81547336D01*
X157003820Y-81235684D01*
X156951616Y-80978717D01*
X156936662Y-80816363D01*
X156943318Y-80785942D01*
X156947292Y-80736270D01*
X156916496Y-80749309D01*
X156830869Y-80723225D01*
X156744880Y-80597766D01*
X156702123Y-80469709D01*
X156723463Y-80446562D01*
X156337000Y-80446562D01*
X156297313Y-80486250D01*
X156257625Y-80446562D01*
X156297313Y-80406875D01*
X156337000Y-80446562D01*
X156723463Y-80446562D01*
X156727241Y-80442465D01*
X156727789Y-80442800D01*
X156828691Y-80430633D01*
X156859717Y-80395905D01*
X156870432Y-80339521D01*
X156834508Y-80354049D01*
X156723326Y-80344493D01*
X156653775Y-80286938D01*
X156529255Y-80187709D01*
X156466188Y-80169965D01*
X156443466Y-80203365D01*
X156495750Y-80248124D01*
X156562474Y-80311499D01*
X156513103Y-80326284D01*
X156398362Y-80263693D01*
X156366262Y-80209891D01*
X156288448Y-80134395D01*
X156180231Y-80167690D01*
G36*
X153585682Y-90388281D02*
X153575198Y-90550789D01*
X153585682Y-90586718D01*
X153614653Y-90596690D01*
X153625718Y-90487500D01*
X153613244Y-90374816D01*
X153585682Y-90388281D01*
X153585682Y-90388281D01*
G37*
X153585682Y-90388281D02*
X153575198Y-90550789D01*
X153585682Y-90586718D01*
X153614653Y-90596690D01*
X153625718Y-90487500D01*
X153613244Y-90374816D01*
X153585682Y-90388281D01*
G36*
X150719105Y-89796767D02*
X150573640Y-89900541D01*
X150484609Y-89931875D01*
X150400944Y-89998615D01*
X150320907Y-90157055D01*
X150242408Y-90382236D01*
X150580433Y-90260683D01*
X150745348Y-90207042D01*
X150889124Y-90184994D01*
X151053703Y-90198457D01*
X151281024Y-90251351D01*
X151613027Y-90347595D01*
X151659452Y-90361511D01*
X152155161Y-90492090D01*
X152531429Y-90548786D01*
X152738293Y-90545811D01*
X152979175Y-90539873D01*
X153104923Y-90584109D01*
X153112804Y-90596834D01*
X153147476Y-90628820D01*
X153155734Y-90582034D01*
X153205864Y-90516266D01*
X153241375Y-90527187D01*
X153312506Y-90513235D01*
X153320765Y-90472340D01*
X153277736Y-90418179D01*
X153133381Y-90388224D01*
X152864821Y-90379185D01*
X152687367Y-90381264D01*
X152221295Y-90368949D01*
X151848675Y-90305128D01*
X151654626Y-90242357D01*
X151367242Y-90153224D01*
X151089545Y-90098658D01*
X150980301Y-90090625D01*
X150799295Y-90082197D01*
X150742952Y-90031761D01*
X150777244Y-89901590D01*
X150786851Y-89876142D01*
X150836811Y-89731651D01*
X150812895Y-89716895D01*
X150719105Y-89796767D01*
X150719105Y-89796767D01*
G37*
X150719105Y-89796767D02*
X150573640Y-89900541D01*
X150484609Y-89931875D01*
X150400944Y-89998615D01*
X150320907Y-90157055D01*
X150242408Y-90382236D01*
X150580433Y-90260683D01*
X150745348Y-90207042D01*
X150889124Y-90184994D01*
X151053703Y-90198457D01*
X151281024Y-90251351D01*
X151613027Y-90347595D01*
X151659452Y-90361511D01*
X152155161Y-90492090D01*
X152531429Y-90548786D01*
X152738293Y-90545811D01*
X152979175Y-90539873D01*
X153104923Y-90584109D01*
X153112804Y-90596834D01*
X153147476Y-90628820D01*
X153155734Y-90582034D01*
X153205864Y-90516266D01*
X153241375Y-90527187D01*
X153312506Y-90513235D01*
X153320765Y-90472340D01*
X153277736Y-90418179D01*
X153133381Y-90388224D01*
X152864821Y-90379185D01*
X152687367Y-90381264D01*
X152221295Y-90368949D01*
X151848675Y-90305128D01*
X151654626Y-90242357D01*
X151367242Y-90153224D01*
X151089545Y-90098658D01*
X150980301Y-90090625D01*
X150799295Y-90082197D01*
X150742952Y-90031761D01*
X150777244Y-89901590D01*
X150786851Y-89876142D01*
X150836811Y-89731651D01*
X150812895Y-89716895D01*
X150719105Y-89796767D01*
G36*
X146086930Y-90531775D02*
X146018250Y-90566875D01*
X145955910Y-90626398D01*
X146013619Y-90633914D01*
X146161438Y-90589420D01*
X146216688Y-90566875D01*
X146306149Y-90512739D01*
X146256375Y-90494294D01*
X146086930Y-90531775D01*
X146086930Y-90531775D01*
G37*
X146086930Y-90531775D02*
X146018250Y-90566875D01*
X145955910Y-90626398D01*
X146013619Y-90633914D01*
X146161438Y-90589420D01*
X146216688Y-90566875D01*
X146306149Y-90512739D01*
X146256375Y-90494294D01*
X146086930Y-90531775D01*
G36*
X146563180Y-90373025D02*
X146494500Y-90408125D01*
X146432160Y-90467648D01*
X146489869Y-90475164D01*
X146637688Y-90430670D01*
X146692938Y-90408125D01*
X146782399Y-90353989D01*
X146732625Y-90335544D01*
X146563180Y-90373025D01*
X146563180Y-90373025D01*
G37*
X146563180Y-90373025D02*
X146494500Y-90408125D01*
X146432160Y-90467648D01*
X146489869Y-90475164D01*
X146637688Y-90430670D01*
X146692938Y-90408125D01*
X146782399Y-90353989D01*
X146732625Y-90335544D01*
X146563180Y-90373025D01*
G36*
X156416375Y-90368437D02*
X156456063Y-90408125D01*
X156495750Y-90368437D01*
X156456063Y-90328750D01*
X156416375Y-90368437D01*
X156416375Y-90368437D01*
G37*
X156416375Y-90368437D02*
X156456063Y-90408125D01*
X156495750Y-90368437D01*
X156456063Y-90328750D01*
X156416375Y-90368437D01*
G36*
X148875750Y-90050937D02*
X148915438Y-90090625D01*
X148955125Y-90050937D01*
X148915438Y-90011250D01*
X148875750Y-90050937D01*
X148875750Y-90050937D01*
G37*
X148875750Y-90050937D02*
X148915438Y-90090625D01*
X148955125Y-90050937D01*
X148915438Y-90011250D01*
X148875750Y-90050937D01*
G36*
X157210125Y-89971562D02*
X157249813Y-90011250D01*
X157289500Y-89971562D01*
X157249813Y-89931875D01*
X157210125Y-89971562D01*
X157210125Y-89971562D01*
G37*
X157210125Y-89971562D02*
X157249813Y-90011250D01*
X157289500Y-89971562D01*
X157249813Y-89931875D01*
X157210125Y-89971562D01*
G36*
X150886584Y-89878958D02*
X150897480Y-89926146D01*
X150939500Y-89931875D01*
X151004835Y-89902832D01*
X150992417Y-89878958D01*
X150898218Y-89869458D01*
X150886584Y-89878958D01*
X150886584Y-89878958D01*
G37*
X150886584Y-89878958D02*
X150897480Y-89926146D01*
X150939500Y-89931875D01*
X151004835Y-89902832D01*
X150992417Y-89878958D01*
X150898218Y-89869458D01*
X150886584Y-89878958D01*
G36*
X143107834Y-89482083D02*
X143118730Y-89529271D01*
X143160750Y-89535000D01*
X143226085Y-89505957D01*
X143213667Y-89482083D01*
X143119468Y-89472583D01*
X143107834Y-89482083D01*
X143107834Y-89482083D01*
G37*
X143107834Y-89482083D02*
X143118730Y-89529271D01*
X143160750Y-89535000D01*
X143226085Y-89505957D01*
X143213667Y-89482083D01*
X143119468Y-89472583D01*
X143107834Y-89482083D01*
G36*
X157289500Y-89415937D02*
X157329188Y-89455625D01*
X157368875Y-89415937D01*
X157329188Y-89376250D01*
X157289500Y-89415937D01*
X157289500Y-89415937D01*
G37*
X157289500Y-89415937D02*
X157329188Y-89455625D01*
X157368875Y-89415937D01*
X157329188Y-89376250D01*
X157289500Y-89415937D01*
G36*
X155723498Y-89328294D02*
X155747171Y-89364371D01*
X155827678Y-89369983D01*
X155912373Y-89350598D01*
X155875633Y-89322027D01*
X155751580Y-89312565D01*
X155723498Y-89328294D01*
X155723498Y-89328294D01*
G37*
X155723498Y-89328294D02*
X155747171Y-89364371D01*
X155827678Y-89369983D01*
X155912373Y-89350598D01*
X155875633Y-89322027D01*
X155751580Y-89312565D01*
X155723498Y-89328294D01*
G36*
X155467106Y-89275119D02*
X155463875Y-89296875D01*
X155490957Y-89374186D01*
X155498879Y-89376250D01*
X155566646Y-89320629D01*
X155582938Y-89296875D01*
X155576645Y-89223732D01*
X155547935Y-89217500D01*
X155467106Y-89275119D01*
X155467106Y-89275119D01*
G37*
X155467106Y-89275119D02*
X155463875Y-89296875D01*
X155490957Y-89374186D01*
X155498879Y-89376250D01*
X155566646Y-89320629D01*
X155582938Y-89296875D01*
X155576645Y-89223732D01*
X155547935Y-89217500D01*
X155467106Y-89275119D01*
G36*
X157368875Y-89257187D02*
X157408563Y-89296875D01*
X157448250Y-89257187D01*
X157408563Y-89217500D01*
X157368875Y-89257187D01*
X157368875Y-89257187D01*
G37*
X157368875Y-89257187D02*
X157408563Y-89296875D01*
X157448250Y-89257187D01*
X157408563Y-89217500D01*
X157368875Y-89257187D01*
G36*
X155802753Y-88820922D02*
X155794863Y-88873623D01*
X155828241Y-89081865D01*
X155968569Y-89201797D01*
X156054515Y-89216284D01*
X156059015Y-89178404D01*
X155975140Y-89099945D01*
X155873459Y-89002486D01*
X155899410Y-88931911D01*
X155940125Y-88901508D01*
X156019245Y-88824971D01*
X155957131Y-88754559D01*
X155940125Y-88743330D01*
X155848307Y-88718424D01*
X155802753Y-88820922D01*
X155802753Y-88820922D01*
G37*
X155802753Y-88820922D02*
X155794863Y-88873623D01*
X155828241Y-89081865D01*
X155968569Y-89201797D01*
X156054515Y-89216284D01*
X156059015Y-89178404D01*
X155975140Y-89099945D01*
X155873459Y-89002486D01*
X155899410Y-88931911D01*
X155940125Y-88901508D01*
X156019245Y-88824971D01*
X155957131Y-88754559D01*
X155940125Y-88743330D01*
X155848307Y-88718424D01*
X155802753Y-88820922D01*
G36*
X152252313Y-80191491D02*
X152148598Y-80338284D01*
X152135704Y-80429511D01*
X152145057Y-80552066D01*
X152176884Y-80521521D01*
X152210739Y-80446562D01*
X152239185Y-80435794D01*
X152250286Y-80559524D01*
X152245219Y-80794582D01*
X152225161Y-81117799D01*
X152191290Y-81506008D01*
X152144782Y-81936039D01*
X152128042Y-82073750D01*
X152027241Y-82902437D01*
X151948903Y-83593171D01*
X151893401Y-84141984D01*
X151861111Y-84544909D01*
X151852408Y-84797978D01*
X151862060Y-84888341D01*
X151860259Y-84992235D01*
X151821118Y-85010625D01*
X151737363Y-85069321D01*
X151733250Y-85094684D01*
X151781879Y-85142090D01*
X151812625Y-85129687D01*
X151879872Y-85148536D01*
X151892000Y-85209062D01*
X151854665Y-85294794D01*
X151812625Y-85288437D01*
X151739483Y-85294730D01*
X151733250Y-85323440D01*
X151779606Y-85404385D01*
X151796687Y-85407500D01*
X151830220Y-85476554D01*
X151831512Y-85646774D01*
X151827423Y-85687602D01*
X151796574Y-85866395D01*
X151746569Y-85914356D01*
X151664768Y-85868813D01*
X151580448Y-85812769D01*
X151580391Y-85826111D01*
X151582784Y-85920428D01*
X151557906Y-86140485D01*
X151509976Y-86456426D01*
X151443217Y-86838396D01*
X151419109Y-86966854D01*
X151212248Y-88051406D01*
X150841653Y-88159466D01*
X150614798Y-88237897D01*
X150457989Y-88314814D01*
X150422782Y-88345638D01*
X150311871Y-88410571D01*
X150215757Y-88423750D01*
X150104846Y-88449372D01*
X150096629Y-88487860D01*
X150049894Y-88524935D01*
X149886680Y-88548086D01*
X149760624Y-88551971D01*
X149452904Y-88585974D01*
X149138054Y-88701762D01*
X148933613Y-88810226D01*
X148692069Y-88957406D01*
X148507599Y-89086386D01*
X148425629Y-89162834D01*
X148412050Y-89212099D01*
X148490786Y-89158657D01*
X148604583Y-89089795D01*
X148644929Y-89087959D01*
X148794557Y-89144609D01*
X149023007Y-89165639D01*
X149253255Y-89145653D01*
X149300998Y-89133929D01*
X149515805Y-89043819D01*
X149553141Y-89019062D01*
X149193250Y-89019062D01*
X149153563Y-89058750D01*
X149113875Y-89019062D01*
X148796375Y-89019062D01*
X148756688Y-89058750D01*
X148717000Y-89019062D01*
X148756688Y-88979375D01*
X148796375Y-89019062D01*
X149113875Y-89019062D01*
X149153563Y-88979375D01*
X149193250Y-89019062D01*
X149553141Y-89019062D01*
X149660323Y-88947993D01*
X149813734Y-88874281D01*
X150057313Y-88819839D01*
X150207079Y-88804503D01*
X150439234Y-88781560D01*
X150454563Y-88778142D01*
X149230529Y-88778142D01*
X149120221Y-88856659D01*
X149113875Y-88860312D01*
X148937424Y-88952296D01*
X148874999Y-88965353D01*
X148936799Y-88899689D01*
X148990140Y-88857788D01*
X149142219Y-88767817D01*
X149228265Y-88744062D01*
X149230529Y-88778142D01*
X150454563Y-88778142D01*
X150589704Y-88748009D01*
X150621661Y-88724601D01*
X150666859Y-88701562D01*
X149431375Y-88701562D01*
X149391688Y-88741250D01*
X149352000Y-88701562D01*
X149391688Y-88661875D01*
X149431375Y-88701562D01*
X150666859Y-88701562D01*
X150690396Y-88689565D01*
X150852392Y-88684914D01*
X151003593Y-88713865D01*
X151046558Y-88760396D01*
X151046145Y-88761093D01*
X151068361Y-88817411D01*
X151093566Y-88820625D01*
X151174402Y-88763628D01*
X151177625Y-88742139D01*
X151242105Y-88689976D01*
X151390663Y-88680767D01*
X151555978Y-88709715D01*
X151670730Y-88772027D01*
X151675172Y-88777572D01*
X151754010Y-88792333D01*
X151842935Y-88687093D01*
X151860113Y-88642897D01*
X149793824Y-88642897D01*
X149715803Y-88655608D01*
X149612852Y-88641014D01*
X149611623Y-88613919D01*
X149717858Y-88594971D01*
X149763758Y-88607652D01*
X149793824Y-88642897D01*
X151860113Y-88642897D01*
X151899014Y-88542812D01*
X152005826Y-88393173D01*
X152220179Y-88238236D01*
X152494201Y-88105073D01*
X152780019Y-88020759D01*
X152838283Y-88011637D01*
X152998683Y-87956404D01*
X153063179Y-87887968D01*
X153035817Y-87834154D01*
X152896896Y-87802526D01*
X152626451Y-87789545D01*
X152503647Y-87788750D01*
X152118844Y-87770145D01*
X151875314Y-87709763D01*
X151759468Y-87600750D01*
X151757717Y-87436254D01*
X151763586Y-87415527D01*
X151787732Y-87276421D01*
X151797050Y-87193437D01*
X151653875Y-87193437D01*
X151614188Y-87233125D01*
X151574500Y-87193437D01*
X151614188Y-87153750D01*
X151653875Y-87193437D01*
X151797050Y-87193437D01*
X151816253Y-87022445D01*
X151822100Y-86955312D01*
X151574500Y-86955312D01*
X151534813Y-86995000D01*
X151495125Y-86955312D01*
X151534813Y-86915625D01*
X151574500Y-86955312D01*
X151822100Y-86955312D01*
X151842842Y-86717187D01*
X151733250Y-86717187D01*
X151693563Y-86756875D01*
X151653875Y-86717187D01*
X151693563Y-86677500D01*
X151733250Y-86717187D01*
X151842842Y-86717187D01*
X151844581Y-86697229D01*
X151857433Y-86518750D01*
X151876380Y-86280625D01*
X151714835Y-86280625D01*
X151706560Y-86425033D01*
X151685956Y-86442052D01*
X151678535Y-86419531D01*
X151666191Y-86218218D01*
X151678535Y-86141718D01*
X151701542Y-86117015D01*
X151714068Y-86226770D01*
X151714835Y-86280625D01*
X151876380Y-86280625D01*
X151892676Y-86075824D01*
X151941589Y-85568117D01*
X151995094Y-85087961D01*
X152009473Y-84972503D01*
X152048877Y-84627268D01*
X152056588Y-84534375D01*
X151971375Y-84534375D01*
X151942333Y-84599709D01*
X151918459Y-84587291D01*
X151908959Y-84493092D01*
X151918459Y-84481458D01*
X151965647Y-84492354D01*
X151971375Y-84534375D01*
X152056588Y-84534375D01*
X152073026Y-84336382D01*
X152079170Y-84138832D01*
X152072441Y-84079535D01*
X152084431Y-83989177D01*
X152117339Y-83978749D01*
X152165867Y-83906449D01*
X152182750Y-83713751D01*
X152179548Y-83616082D01*
X152178653Y-83318666D01*
X152200433Y-82970861D01*
X152219231Y-82803555D01*
X152254542Y-82500111D01*
X152291302Y-82115114D01*
X152322246Y-81725525D01*
X152325504Y-81677942D01*
X152367074Y-81107773D01*
X152406005Y-80686249D01*
X152443702Y-80403317D01*
X152481568Y-80248922D01*
X152521010Y-80213011D01*
X152529294Y-80219246D01*
X152572129Y-80331616D01*
X152609735Y-80547393D01*
X152626833Y-80724375D01*
X152656385Y-81160937D01*
X152671068Y-80714250D01*
X152660542Y-80391204D01*
X152601112Y-80205437D01*
X152571762Y-80172960D01*
X152412435Y-80125165D01*
X152252313Y-80191491D01*
X152252313Y-80191491D01*
G37*
X152252313Y-80191491D02*
X152148598Y-80338284D01*
X152135704Y-80429511D01*
X152145057Y-80552066D01*
X152176884Y-80521521D01*
X152210739Y-80446562D01*
X152239185Y-80435794D01*
X152250286Y-80559524D01*
X152245219Y-80794582D01*
X152225161Y-81117799D01*
X152191290Y-81506008D01*
X152144782Y-81936039D01*
X152128042Y-82073750D01*
X152027241Y-82902437D01*
X151948903Y-83593171D01*
X151893401Y-84141984D01*
X151861111Y-84544909D01*
X151852408Y-84797978D01*
X151862060Y-84888341D01*
X151860259Y-84992235D01*
X151821118Y-85010625D01*
X151737363Y-85069321D01*
X151733250Y-85094684D01*
X151781879Y-85142090D01*
X151812625Y-85129687D01*
X151879872Y-85148536D01*
X151892000Y-85209062D01*
X151854665Y-85294794D01*
X151812625Y-85288437D01*
X151739483Y-85294730D01*
X151733250Y-85323440D01*
X151779606Y-85404385D01*
X151796687Y-85407500D01*
X151830220Y-85476554D01*
X151831512Y-85646774D01*
X151827423Y-85687602D01*
X151796574Y-85866395D01*
X151746569Y-85914356D01*
X151664768Y-85868813D01*
X151580448Y-85812769D01*
X151580391Y-85826111D01*
X151582784Y-85920428D01*
X151557906Y-86140485D01*
X151509976Y-86456426D01*
X151443217Y-86838396D01*
X151419109Y-86966854D01*
X151212248Y-88051406D01*
X150841653Y-88159466D01*
X150614798Y-88237897D01*
X150457989Y-88314814D01*
X150422782Y-88345638D01*
X150311871Y-88410571D01*
X150215757Y-88423750D01*
X150104846Y-88449372D01*
X150096629Y-88487860D01*
X150049894Y-88524935D01*
X149886680Y-88548086D01*
X149760624Y-88551971D01*
X149452904Y-88585974D01*
X149138054Y-88701762D01*
X148933613Y-88810226D01*
X148692069Y-88957406D01*
X148507599Y-89086386D01*
X148425629Y-89162834D01*
X148412050Y-89212099D01*
X148490786Y-89158657D01*
X148604583Y-89089795D01*
X148644929Y-89087959D01*
X148794557Y-89144609D01*
X149023007Y-89165639D01*
X149253255Y-89145653D01*
X149300998Y-89133929D01*
X149515805Y-89043819D01*
X149553141Y-89019062D01*
X149193250Y-89019062D01*
X149153563Y-89058750D01*
X149113875Y-89019062D01*
X148796375Y-89019062D01*
X148756688Y-89058750D01*
X148717000Y-89019062D01*
X148756688Y-88979375D01*
X148796375Y-89019062D01*
X149113875Y-89019062D01*
X149153563Y-88979375D01*
X149193250Y-89019062D01*
X149553141Y-89019062D01*
X149660323Y-88947993D01*
X149813734Y-88874281D01*
X150057313Y-88819839D01*
X150207079Y-88804503D01*
X150439234Y-88781560D01*
X150454563Y-88778142D01*
X149230529Y-88778142D01*
X149120221Y-88856659D01*
X149113875Y-88860312D01*
X148937424Y-88952296D01*
X148874999Y-88965353D01*
X148936799Y-88899689D01*
X148990140Y-88857788D01*
X149142219Y-88767817D01*
X149228265Y-88744062D01*
X149230529Y-88778142D01*
X150454563Y-88778142D01*
X150589704Y-88748009D01*
X150621661Y-88724601D01*
X150666859Y-88701562D01*
X149431375Y-88701562D01*
X149391688Y-88741250D01*
X149352000Y-88701562D01*
X149391688Y-88661875D01*
X149431375Y-88701562D01*
X150666859Y-88701562D01*
X150690396Y-88689565D01*
X150852392Y-88684914D01*
X151003593Y-88713865D01*
X151046558Y-88760396D01*
X151046145Y-88761093D01*
X151068361Y-88817411D01*
X151093566Y-88820625D01*
X151174402Y-88763628D01*
X151177625Y-88742139D01*
X151242105Y-88689976D01*
X151390663Y-88680767D01*
X151555978Y-88709715D01*
X151670730Y-88772027D01*
X151675172Y-88777572D01*
X151754010Y-88792333D01*
X151842935Y-88687093D01*
X151860113Y-88642897D01*
X149793824Y-88642897D01*
X149715803Y-88655608D01*
X149612852Y-88641014D01*
X149611623Y-88613919D01*
X149717858Y-88594971D01*
X149763758Y-88607652D01*
X149793824Y-88642897D01*
X151860113Y-88642897D01*
X151899014Y-88542812D01*
X152005826Y-88393173D01*
X152220179Y-88238236D01*
X152494201Y-88105073D01*
X152780019Y-88020759D01*
X152838283Y-88011637D01*
X152998683Y-87956404D01*
X153063179Y-87887968D01*
X153035817Y-87834154D01*
X152896896Y-87802526D01*
X152626451Y-87789545D01*
X152503647Y-87788750D01*
X152118844Y-87770145D01*
X151875314Y-87709763D01*
X151759468Y-87600750D01*
X151757717Y-87436254D01*
X151763586Y-87415527D01*
X151787732Y-87276421D01*
X151797050Y-87193437D01*
X151653875Y-87193437D01*
X151614188Y-87233125D01*
X151574500Y-87193437D01*
X151614188Y-87153750D01*
X151653875Y-87193437D01*
X151797050Y-87193437D01*
X151816253Y-87022445D01*
X151822100Y-86955312D01*
X151574500Y-86955312D01*
X151534813Y-86995000D01*
X151495125Y-86955312D01*
X151534813Y-86915625D01*
X151574500Y-86955312D01*
X151822100Y-86955312D01*
X151842842Y-86717187D01*
X151733250Y-86717187D01*
X151693563Y-86756875D01*
X151653875Y-86717187D01*
X151693563Y-86677500D01*
X151733250Y-86717187D01*
X151842842Y-86717187D01*
X151844581Y-86697229D01*
X151857433Y-86518750D01*
X151876380Y-86280625D01*
X151714835Y-86280625D01*
X151706560Y-86425033D01*
X151685956Y-86442052D01*
X151678535Y-86419531D01*
X151666191Y-86218218D01*
X151678535Y-86141718D01*
X151701542Y-86117015D01*
X151714068Y-86226770D01*
X151714835Y-86280625D01*
X151876380Y-86280625D01*
X151892676Y-86075824D01*
X151941589Y-85568117D01*
X151995094Y-85087961D01*
X152009473Y-84972503D01*
X152048877Y-84627268D01*
X152056588Y-84534375D01*
X151971375Y-84534375D01*
X151942333Y-84599709D01*
X151918459Y-84587291D01*
X151908959Y-84493092D01*
X151918459Y-84481458D01*
X151965647Y-84492354D01*
X151971375Y-84534375D01*
X152056588Y-84534375D01*
X152073026Y-84336382D01*
X152079170Y-84138832D01*
X152072441Y-84079535D01*
X152084431Y-83989177D01*
X152117339Y-83978749D01*
X152165867Y-83906449D01*
X152182750Y-83713751D01*
X152179548Y-83616082D01*
X152178653Y-83318666D01*
X152200433Y-82970861D01*
X152219231Y-82803555D01*
X152254542Y-82500111D01*
X152291302Y-82115114D01*
X152322246Y-81725525D01*
X152325504Y-81677942D01*
X152367074Y-81107773D01*
X152406005Y-80686249D01*
X152443702Y-80403317D01*
X152481568Y-80248922D01*
X152521010Y-80213011D01*
X152529294Y-80219246D01*
X152572129Y-80331616D01*
X152609735Y-80547393D01*
X152626833Y-80724375D01*
X152656385Y-81160937D01*
X152671068Y-80714250D01*
X152660542Y-80391204D01*
X152601112Y-80205437D01*
X152571762Y-80172960D01*
X152412435Y-80125165D01*
X152252313Y-80191491D01*
G36*
X155622625Y-89098437D02*
X155662313Y-89138125D01*
X155702000Y-89098437D01*
X155662313Y-89058750D01*
X155622625Y-89098437D01*
X155622625Y-89098437D01*
G37*
X155622625Y-89098437D02*
X155662313Y-89138125D01*
X155702000Y-89098437D01*
X155662313Y-89058750D01*
X155622625Y-89098437D01*
G36*
X155480427Y-88830260D02*
X155464750Y-88858678D01*
X155403993Y-89019263D01*
X155410839Y-89111547D01*
X155454549Y-89093966D01*
X155463875Y-89023799D01*
X155507535Y-88922428D01*
X155582938Y-88928704D01*
X155687338Y-88934753D01*
X155678268Y-88836445D01*
X155635633Y-88759579D01*
X155567496Y-88724344D01*
X155480427Y-88830260D01*
X155480427Y-88830260D01*
G37*
X155480427Y-88830260D02*
X155464750Y-88858678D01*
X155403993Y-89019263D01*
X155410839Y-89111547D01*
X155454549Y-89093966D01*
X155463875Y-89023799D01*
X155507535Y-88922428D01*
X155582938Y-88928704D01*
X155687338Y-88934753D01*
X155678268Y-88836445D01*
X155635633Y-88759579D01*
X155567496Y-88724344D01*
X155480427Y-88830260D01*
G36*
X152866335Y-88615423D02*
X152910835Y-88685849D01*
X152961221Y-88839992D01*
X152950983Y-88963661D01*
X152937084Y-89101124D01*
X152972561Y-89141588D01*
X153023623Y-89078593D01*
X153041479Y-89011384D01*
X153037966Y-88887492D01*
X153015340Y-88681718D01*
X152947172Y-88589239D01*
X152914156Y-88582500D01*
X152866335Y-88615423D01*
X152866335Y-88615423D01*
G37*
X152866335Y-88615423D02*
X152910835Y-88685849D01*
X152961221Y-88839992D01*
X152950983Y-88963661D01*
X152937084Y-89101124D01*
X152972561Y-89141588D01*
X153023623Y-89078593D01*
X153041479Y-89011384D01*
X153037966Y-88887492D01*
X153015340Y-88681718D01*
X152947172Y-88589239D01*
X152914156Y-88582500D01*
X152866335Y-88615423D01*
G36*
X152453741Y-88943315D02*
X152447625Y-88970006D01*
X152505550Y-89082216D01*
X152527000Y-89098437D01*
X152600260Y-89094809D01*
X152606375Y-89068118D01*
X152548451Y-88955908D01*
X152527000Y-88939687D01*
X152453741Y-88943315D01*
X152453741Y-88943315D01*
G37*
X152453741Y-88943315D02*
X152447625Y-88970006D01*
X152505550Y-89082216D01*
X152527000Y-89098437D01*
X152600260Y-89094809D01*
X152606375Y-89068118D01*
X152548451Y-88955908D01*
X152527000Y-88939687D01*
X152453741Y-88943315D01*
G36*
X150939500Y-89098437D02*
X150979188Y-89138125D01*
X151018875Y-89098437D01*
X150979188Y-89058750D01*
X150939500Y-89098437D01*
X150939500Y-89098437D01*
G37*
X150939500Y-89098437D02*
X150979188Y-89138125D01*
X151018875Y-89098437D01*
X150979188Y-89058750D01*
X150939500Y-89098437D01*
G36*
X149752106Y-89036994D02*
X149748875Y-89058750D01*
X149775957Y-89136061D01*
X149783879Y-89138125D01*
X149851646Y-89082504D01*
X149867938Y-89058750D01*
X149861645Y-88985607D01*
X149832935Y-88979375D01*
X149752106Y-89036994D01*
X149752106Y-89036994D01*
G37*
X149752106Y-89036994D02*
X149748875Y-89058750D01*
X149775957Y-89136061D01*
X149783879Y-89138125D01*
X149851646Y-89082504D01*
X149867938Y-89058750D01*
X149861645Y-88985607D01*
X149832935Y-88979375D01*
X149752106Y-89036994D01*
G36*
X157448250Y-89019062D02*
X157487938Y-89058750D01*
X157527625Y-89019062D01*
X157487938Y-88979375D01*
X157448250Y-89019062D01*
X157448250Y-89019062D01*
G37*
X157448250Y-89019062D02*
X157487938Y-89058750D01*
X157527625Y-89019062D01*
X157487938Y-88979375D01*
X157448250Y-89019062D01*
G36*
X152247693Y-88799432D02*
X152260171Y-88860312D01*
X152316511Y-88964751D01*
X152337055Y-88979375D01*
X152364803Y-88914558D01*
X152368250Y-88860312D01*
X152326711Y-88754662D01*
X152291367Y-88741250D01*
X152247693Y-88799432D01*
X152247693Y-88799432D01*
G37*
X152247693Y-88799432D02*
X152260171Y-88860312D01*
X152316511Y-88964751D01*
X152337055Y-88979375D01*
X152364803Y-88914558D01*
X152368250Y-88860312D01*
X152326711Y-88754662D01*
X152291367Y-88741250D01*
X152247693Y-88799432D01*
G36*
X151892000Y-88939687D02*
X151931688Y-88979375D01*
X151971375Y-88939687D01*
X151931688Y-88900000D01*
X151892000Y-88939687D01*
X151892000Y-88939687D01*
G37*
X151892000Y-88939687D02*
X151931688Y-88979375D01*
X151971375Y-88939687D01*
X151931688Y-88900000D01*
X151892000Y-88939687D01*
G36*
X155152491Y-88705190D02*
X155146375Y-88731881D01*
X155204300Y-88844091D01*
X155225750Y-88860312D01*
X155299010Y-88856684D01*
X155305125Y-88829993D01*
X155247201Y-88717783D01*
X155225750Y-88701562D01*
X155152491Y-88705190D01*
X155152491Y-88705190D01*
G37*
X155152491Y-88705190D02*
X155146375Y-88731881D01*
X155204300Y-88844091D01*
X155225750Y-88860312D01*
X155299010Y-88856684D01*
X155305125Y-88829993D01*
X155247201Y-88717783D01*
X155225750Y-88701562D01*
X155152491Y-88705190D01*
G36*
X152606375Y-88860312D02*
X152646063Y-88900000D01*
X152685750Y-88860312D01*
X152646063Y-88820625D01*
X152606375Y-88860312D01*
X152606375Y-88860312D01*
G37*
X152606375Y-88860312D02*
X152646063Y-88900000D01*
X152685750Y-88860312D01*
X152646063Y-88820625D01*
X152606375Y-88860312D01*
G36*
X157527625Y-88780937D02*
X157567313Y-88820625D01*
X157607000Y-88780937D01*
X157567313Y-88741250D01*
X157527625Y-88780937D01*
X157527625Y-88780937D01*
G37*
X157527625Y-88780937D02*
X157567313Y-88820625D01*
X157607000Y-88780937D01*
X157567313Y-88741250D01*
X157527625Y-88780937D01*
G36*
X150701375Y-88780937D02*
X150741063Y-88820625D01*
X150780750Y-88780937D01*
X150741063Y-88741250D01*
X150701375Y-88780937D01*
X150701375Y-88780937D01*
G37*
X150701375Y-88780937D02*
X150741063Y-88820625D01*
X150780750Y-88780937D01*
X150741063Y-88741250D01*
X150701375Y-88780937D01*
G36*
X153633178Y-87214973D02*
X153517555Y-87373737D01*
X153401954Y-87547775D01*
X153258500Y-87810170D01*
X153207835Y-87995385D01*
X153251046Y-88086327D01*
X153368467Y-88074464D01*
X153465671Y-88077002D01*
X153479500Y-88108741D01*
X153525403Y-88176330D01*
X153539032Y-88176225D01*
X153658094Y-88186147D01*
X153886281Y-88244734D01*
X153946931Y-88255078D01*
X154002488Y-88328976D01*
X154006462Y-88395363D01*
X154054480Y-88529496D01*
X154107305Y-88564943D01*
X154183613Y-88556440D01*
X154169328Y-88474268D01*
X154152355Y-88362072D01*
X154209994Y-88361233D01*
X154309630Y-88466043D01*
X154334205Y-88503125D01*
X154441693Y-88633790D01*
X154555749Y-88636964D01*
X154697168Y-88546117D01*
X154794543Y-88390817D01*
X154770852Y-88213906D01*
X154742409Y-88185625D01*
X154432000Y-88185625D01*
X154402958Y-88250959D01*
X154379084Y-88238541D01*
X154369584Y-88144342D01*
X154379084Y-88132708D01*
X154426272Y-88143604D01*
X154432000Y-88185625D01*
X154742409Y-88185625D01*
X154637479Y-88081293D01*
X154615233Y-88071711D01*
X154534953Y-88022876D01*
X154578879Y-87953468D01*
X154638098Y-87905433D01*
X154742505Y-87820803D01*
X154720699Y-87813552D01*
X154637261Y-87841731D01*
X154532207Y-87857897D01*
X154542338Y-87802867D01*
X154553790Y-87665373D01*
X154518085Y-87571097D01*
X154461293Y-87497104D01*
X154436120Y-87553440D01*
X154429383Y-87669687D01*
X154420532Y-87826508D01*
X154397167Y-87835758D01*
X154347727Y-87722663D01*
X154307890Y-87500346D01*
X154321361Y-87325788D01*
X154346242Y-87198694D01*
X154325697Y-87185299D01*
X154240197Y-87291988D01*
X154182322Y-87371251D01*
X154021794Y-87552714D01*
X153863628Y-87672960D01*
X153836688Y-87684850D01*
X153588267Y-87751862D01*
X153574759Y-87749062D01*
X153400125Y-87749062D01*
X153360438Y-87788750D01*
X153320750Y-87749062D01*
X153360438Y-87709375D01*
X153400125Y-87749062D01*
X153574759Y-87749062D01*
X153467512Y-87726832D01*
X153469632Y-87605220D01*
X153562760Y-87425277D01*
X153658813Y-87256489D01*
X153696876Y-87161432D01*
X153692686Y-87153750D01*
X153633178Y-87214973D01*
X153633178Y-87214973D01*
G37*
X153633178Y-87214973D02*
X153517555Y-87373737D01*
X153401954Y-87547775D01*
X153258500Y-87810170D01*
X153207835Y-87995385D01*
X153251046Y-88086327D01*
X153368467Y-88074464D01*
X153465671Y-88077002D01*
X153479500Y-88108741D01*
X153525403Y-88176330D01*
X153539032Y-88176225D01*
X153658094Y-88186147D01*
X153886281Y-88244734D01*
X153946931Y-88255078D01*
X154002488Y-88328976D01*
X154006462Y-88395363D01*
X154054480Y-88529496D01*
X154107305Y-88564943D01*
X154183613Y-88556440D01*
X154169328Y-88474268D01*
X154152355Y-88362072D01*
X154209994Y-88361233D01*
X154309630Y-88466043D01*
X154334205Y-88503125D01*
X154441693Y-88633790D01*
X154555749Y-88636964D01*
X154697168Y-88546117D01*
X154794543Y-88390817D01*
X154770852Y-88213906D01*
X154742409Y-88185625D01*
X154432000Y-88185625D01*
X154402958Y-88250959D01*
X154379084Y-88238541D01*
X154369584Y-88144342D01*
X154379084Y-88132708D01*
X154426272Y-88143604D01*
X154432000Y-88185625D01*
X154742409Y-88185625D01*
X154637479Y-88081293D01*
X154615233Y-88071711D01*
X154534953Y-88022876D01*
X154578879Y-87953468D01*
X154638098Y-87905433D01*
X154742505Y-87820803D01*
X154720699Y-87813552D01*
X154637261Y-87841731D01*
X154532207Y-87857897D01*
X154542338Y-87802867D01*
X154553790Y-87665373D01*
X154518085Y-87571097D01*
X154461293Y-87497104D01*
X154436120Y-87553440D01*
X154429383Y-87669687D01*
X154420532Y-87826508D01*
X154397167Y-87835758D01*
X154347727Y-87722663D01*
X154307890Y-87500346D01*
X154321361Y-87325788D01*
X154346242Y-87198694D01*
X154325697Y-87185299D01*
X154240197Y-87291988D01*
X154182322Y-87371251D01*
X154021794Y-87552714D01*
X153863628Y-87672960D01*
X153836688Y-87684850D01*
X153588267Y-87751862D01*
X153574759Y-87749062D01*
X153400125Y-87749062D01*
X153360438Y-87788750D01*
X153320750Y-87749062D01*
X153360438Y-87709375D01*
X153400125Y-87749062D01*
X153574759Y-87749062D01*
X153467512Y-87726832D01*
X153469632Y-87605220D01*
X153562760Y-87425277D01*
X153658813Y-87256489D01*
X153696876Y-87161432D01*
X153692686Y-87153750D01*
X153633178Y-87214973D01*
G36*
X157633459Y-88450208D02*
X157623959Y-88544407D01*
X157633459Y-88556041D01*
X157680647Y-88545145D01*
X157686375Y-88503125D01*
X157657333Y-88437790D01*
X157633459Y-88450208D01*
X157633459Y-88450208D01*
G37*
X157633459Y-88450208D02*
X157623959Y-88544407D01*
X157633459Y-88556041D01*
X157680647Y-88545145D01*
X157686375Y-88503125D01*
X157657333Y-88437790D01*
X157633459Y-88450208D01*
G36*
X155747020Y-88181199D02*
X155647825Y-88332596D01*
X155662040Y-88482789D01*
X155776729Y-88574679D01*
X155837954Y-88582500D01*
X155978813Y-88551320D01*
X156019500Y-88498440D01*
X155970872Y-88451034D01*
X155940125Y-88463437D01*
X155881966Y-88434580D01*
X155860750Y-88299652D01*
X155846915Y-88157570D01*
X155790296Y-88149349D01*
X155747020Y-88181199D01*
X155747020Y-88181199D01*
G37*
X155747020Y-88181199D02*
X155647825Y-88332596D01*
X155662040Y-88482789D01*
X155776729Y-88574679D01*
X155837954Y-88582500D01*
X155978813Y-88551320D01*
X156019500Y-88498440D01*
X155970872Y-88451034D01*
X155940125Y-88463437D01*
X155881966Y-88434580D01*
X155860750Y-88299652D01*
X155846915Y-88157570D01*
X155790296Y-88149349D01*
X155747020Y-88181199D01*
G36*
X155390685Y-88165522D02*
X155391295Y-88185625D01*
X155425460Y-88355789D01*
X155463875Y-88463437D01*
X155516970Y-88576874D01*
X155533484Y-88544457D01*
X155536456Y-88463437D01*
X155502462Y-88268575D01*
X155463875Y-88185625D01*
X155402664Y-88106616D01*
X155390685Y-88165522D01*
X155390685Y-88165522D01*
G37*
X155390685Y-88165522D02*
X155391295Y-88185625D01*
X155425460Y-88355789D01*
X155463875Y-88463437D01*
X155516970Y-88576874D01*
X155533484Y-88544457D01*
X155536456Y-88463437D01*
X155502462Y-88268575D01*
X155463875Y-88185625D01*
X155402664Y-88106616D01*
X155390685Y-88165522D01*
G36*
X152765125Y-88463437D02*
X152804813Y-88503125D01*
X152844500Y-88463437D01*
X152804813Y-88423750D01*
X152765125Y-88463437D01*
X152765125Y-88463437D01*
G37*
X152765125Y-88463437D02*
X152804813Y-88503125D01*
X152844500Y-88463437D01*
X152804813Y-88423750D01*
X152765125Y-88463437D01*
G36*
X153109084Y-88370833D02*
X153119980Y-88418021D01*
X153162000Y-88423750D01*
X153227335Y-88394707D01*
X153214917Y-88370833D01*
X153120718Y-88361333D01*
X153109084Y-88370833D01*
X153109084Y-88370833D01*
G37*
X153109084Y-88370833D02*
X153119980Y-88418021D01*
X153162000Y-88423750D01*
X153227335Y-88394707D01*
X153214917Y-88370833D01*
X153120718Y-88361333D01*
X153109084Y-88370833D01*
G36*
X157713182Y-87927656D02*
X157702698Y-88090164D01*
X157713182Y-88126093D01*
X157742153Y-88136065D01*
X157753218Y-88026875D01*
X157740744Y-87914191D01*
X157713182Y-87927656D01*
X157713182Y-87927656D01*
G37*
X157713182Y-87927656D02*
X157702698Y-88090164D01*
X157713182Y-88126093D01*
X157742153Y-88136065D01*
X157753218Y-88026875D01*
X157740744Y-87914191D01*
X157713182Y-87927656D01*
G36*
X155948787Y-88011828D02*
X155940125Y-88066562D01*
X155957108Y-88172465D01*
X155971321Y-88185625D01*
X156022502Y-88123557D01*
X156048205Y-88066562D01*
X156049854Y-87964354D01*
X156017009Y-87947500D01*
X155948787Y-88011828D01*
X155948787Y-88011828D01*
G37*
X155948787Y-88011828D02*
X155940125Y-88066562D01*
X155957108Y-88172465D01*
X155971321Y-88185625D01*
X156022502Y-88123557D01*
X156048205Y-88066562D01*
X156049854Y-87964354D01*
X156017009Y-87947500D01*
X155948787Y-88011828D01*
G36*
X155464786Y-87929536D02*
X155463875Y-87947500D01*
X155524895Y-88023824D01*
X155547935Y-88026875D01*
X155595341Y-87978246D01*
X155582938Y-87947500D01*
X155511611Y-87871777D01*
X155498879Y-87868125D01*
X155464786Y-87929536D01*
X155464786Y-87929536D01*
G37*
X155464786Y-87929536D02*
X155463875Y-87947500D01*
X155524895Y-88023824D01*
X155547935Y-88026875D01*
X155595341Y-87978246D01*
X155582938Y-87947500D01*
X155511611Y-87871777D01*
X155498879Y-87868125D01*
X155464786Y-87929536D01*
G36*
X151125057Y-87689531D02*
X151114573Y-87852039D01*
X151125057Y-87887968D01*
X151154028Y-87897940D01*
X151165093Y-87788750D01*
X151152619Y-87676066D01*
X151125057Y-87689531D01*
X151125057Y-87689531D01*
G37*
X151125057Y-87689531D02*
X151114573Y-87852039D01*
X151125057Y-87887968D01*
X151154028Y-87897940D01*
X151165093Y-87788750D01*
X151152619Y-87676066D01*
X151125057Y-87689531D01*
G36*
X155569709Y-87656458D02*
X155560209Y-87750657D01*
X155569709Y-87762291D01*
X155616897Y-87751395D01*
X155622625Y-87709375D01*
X155593583Y-87644040D01*
X155569709Y-87656458D01*
X155569709Y-87656458D01*
G37*
X155569709Y-87656458D02*
X155560209Y-87750657D01*
X155569709Y-87762291D01*
X155616897Y-87751395D01*
X155622625Y-87709375D01*
X155593583Y-87644040D01*
X155569709Y-87656458D01*
G36*
X155647778Y-87376992D02*
X155638316Y-87501045D01*
X155654045Y-87529127D01*
X155690122Y-87505454D01*
X155695734Y-87424947D01*
X155676349Y-87340252D01*
X155647778Y-87376992D01*
X155647778Y-87376992D01*
G37*
X155647778Y-87376992D02*
X155638316Y-87501045D01*
X155654045Y-87529127D01*
X155690122Y-87505454D01*
X155695734Y-87424947D01*
X155676349Y-87340252D01*
X155647778Y-87376992D01*
G36*
X151204432Y-87213281D02*
X151193948Y-87375789D01*
X151204432Y-87411718D01*
X151233403Y-87421690D01*
X151244468Y-87312500D01*
X151231994Y-87199816D01*
X151204432Y-87213281D01*
X151204432Y-87213281D01*
G37*
X151204432Y-87213281D02*
X151193948Y-87375789D01*
X151204432Y-87411718D01*
X151233403Y-87421690D01*
X151244468Y-87312500D01*
X151231994Y-87199816D01*
X151204432Y-87213281D01*
G36*
X155781375Y-87352187D02*
X155821063Y-87391875D01*
X155860750Y-87352187D01*
X155821063Y-87312500D01*
X155781375Y-87352187D01*
X155781375Y-87352187D01*
G37*
X155781375Y-87352187D02*
X155821063Y-87391875D01*
X155860750Y-87352187D01*
X155821063Y-87312500D01*
X155781375Y-87352187D01*
G36*
X155966584Y-87180208D02*
X155957084Y-87274407D01*
X155966584Y-87286041D01*
X156013772Y-87275145D01*
X156019500Y-87233125D01*
X155990458Y-87167790D01*
X155966584Y-87180208D01*
X155966584Y-87180208D01*
G37*
X155966584Y-87180208D02*
X155957084Y-87274407D01*
X155966584Y-87286041D01*
X156013772Y-87275145D01*
X156019500Y-87233125D01*
X155990458Y-87167790D01*
X155966584Y-87180208D01*
G36*
X153717625Y-87034687D02*
X153757313Y-87074375D01*
X153797000Y-87034687D01*
X153757313Y-86995000D01*
X153717625Y-87034687D01*
X153717625Y-87034687D01*
G37*
X153717625Y-87034687D02*
X153757313Y-87074375D01*
X153797000Y-87034687D01*
X153757313Y-86995000D01*
X153717625Y-87034687D01*
G36*
X151376271Y-86322934D02*
X151336935Y-86381554D01*
X151282636Y-86558135D01*
X151279084Y-86778429D01*
X151301658Y-86925229D01*
X151316656Y-86919927D01*
X151324756Y-86836250D01*
X151354415Y-86591895D01*
X151382608Y-86439375D01*
X151405222Y-86310848D01*
X151376271Y-86322934D01*
X151376271Y-86322934D01*
G37*
X151376271Y-86322934D02*
X151336935Y-86381554D01*
X151282636Y-86558135D01*
X151279084Y-86778429D01*
X151301658Y-86925229D01*
X151316656Y-86919927D01*
X151324756Y-86836250D01*
X151354415Y-86591895D01*
X151382608Y-86439375D01*
X151405222Y-86310848D01*
X151376271Y-86322934D01*
G36*
X153797000Y-86875937D02*
X153836688Y-86915625D01*
X153876375Y-86875937D01*
X153836688Y-86836250D01*
X153797000Y-86875937D01*
X153797000Y-86875937D01*
G37*
X153797000Y-86875937D02*
X153836688Y-86915625D01*
X153876375Y-86875937D01*
X153836688Y-86836250D01*
X153797000Y-86875937D01*
G36*
X157765750Y-86717187D02*
X157805438Y-86756875D01*
X157845125Y-86717187D01*
X157805438Y-86677500D01*
X157765750Y-86717187D01*
X157765750Y-86717187D01*
G37*
X157765750Y-86717187D02*
X157805438Y-86756875D01*
X157845125Y-86717187D01*
X157805438Y-86677500D01*
X157765750Y-86717187D01*
G36*
X153946061Y-86544547D02*
X153893475Y-86676074D01*
X153898981Y-86726564D01*
X153953124Y-86698265D01*
X153985632Y-86634743D01*
X154030603Y-86484024D01*
X154012139Y-86453954D01*
X153946061Y-86544547D01*
X153946061Y-86544547D01*
G37*
X153946061Y-86544547D02*
X153893475Y-86676074D01*
X153898981Y-86726564D01*
X153953124Y-86698265D01*
X153985632Y-86634743D01*
X154030603Y-86484024D01*
X154012139Y-86453954D01*
X153946061Y-86544547D01*
G36*
X155781375Y-86479062D02*
X155821063Y-86518750D01*
X155860750Y-86479062D01*
X155821063Y-86439375D01*
X155781375Y-86479062D01*
X155781375Y-86479062D01*
G37*
X155781375Y-86479062D02*
X155821063Y-86518750D01*
X155860750Y-86479062D01*
X155821063Y-86439375D01*
X155781375Y-86479062D01*
G36*
X155252209Y-86307083D02*
X155242709Y-86401282D01*
X155252209Y-86412916D01*
X155299397Y-86402020D01*
X155305125Y-86360000D01*
X155276083Y-86294665D01*
X155252209Y-86307083D01*
X155252209Y-86307083D01*
G37*
X155252209Y-86307083D02*
X155242709Y-86401282D01*
X155252209Y-86412916D01*
X155299397Y-86402020D01*
X155305125Y-86360000D01*
X155276083Y-86294665D01*
X155252209Y-86307083D01*
G36*
X153105983Y-85943281D02*
X153092851Y-86174578D01*
X153105983Y-86300468D01*
X153125612Y-86338083D01*
X153138066Y-86238357D01*
X153140382Y-86121875D01*
X153134189Y-85950199D01*
X153118358Y-85903071D01*
X153105983Y-85943281D01*
X153105983Y-85943281D01*
G37*
X153105983Y-85943281D02*
X153092851Y-86174578D01*
X153105983Y-86300468D01*
X153125612Y-86338083D01*
X153138066Y-86238357D01*
X153140382Y-86121875D01*
X153134189Y-85950199D01*
X153118358Y-85903071D01*
X153105983Y-85943281D01*
G36*
X154035125Y-86320312D02*
X154074813Y-86360000D01*
X154114500Y-86320312D01*
X154074813Y-86280625D01*
X154035125Y-86320312D01*
X154035125Y-86320312D01*
G37*
X154035125Y-86320312D02*
X154074813Y-86360000D01*
X154114500Y-86320312D01*
X154074813Y-86280625D01*
X154035125Y-86320312D01*
G36*
X154184186Y-85988922D02*
X154131600Y-86120449D01*
X154137106Y-86170939D01*
X154191249Y-86142640D01*
X154223757Y-86079118D01*
X154268728Y-85928399D01*
X154250264Y-85898329D01*
X154184186Y-85988922D01*
X154184186Y-85988922D01*
G37*
X154184186Y-85988922D02*
X154131600Y-86120449D01*
X154137106Y-86170939D01*
X154191249Y-86142640D01*
X154223757Y-86079118D01*
X154268728Y-85928399D01*
X154250264Y-85898329D01*
X154184186Y-85988922D01*
G36*
X158003875Y-86082187D02*
X158043563Y-86121875D01*
X158083250Y-86082187D01*
X158043563Y-86042500D01*
X158003875Y-86082187D01*
X158003875Y-86082187D01*
G37*
X158003875Y-86082187D02*
X158043563Y-86121875D01*
X158083250Y-86082187D01*
X158043563Y-86042500D01*
X158003875Y-86082187D01*
G36*
X155806528Y-85948242D02*
X155797066Y-86072295D01*
X155812795Y-86100377D01*
X155848872Y-86076704D01*
X155854484Y-85996197D01*
X155835099Y-85911502D01*
X155806528Y-85948242D01*
X155806528Y-85948242D01*
G37*
X155806528Y-85948242D02*
X155797066Y-86072295D01*
X155812795Y-86100377D01*
X155848872Y-86076704D01*
X155854484Y-85996197D01*
X155835099Y-85911502D01*
X155806528Y-85948242D01*
G36*
X155568403Y-85948242D02*
X155558941Y-86072295D01*
X155574670Y-86100377D01*
X155610747Y-86076704D01*
X155616359Y-85996197D01*
X155596974Y-85911502D01*
X155568403Y-85948242D01*
X155568403Y-85948242D01*
G37*
X155568403Y-85948242D02*
X155558941Y-86072295D01*
X155574670Y-86100377D01*
X155610747Y-86076704D01*
X155616359Y-85996197D01*
X155596974Y-85911502D01*
X155568403Y-85948242D01*
G36*
X151440903Y-85948242D02*
X151431441Y-86072295D01*
X151447170Y-86100377D01*
X151483247Y-86076704D01*
X151488859Y-85996197D01*
X151469474Y-85911502D01*
X151440903Y-85948242D01*
X151440903Y-85948242D01*
G37*
X151440903Y-85948242D02*
X151431441Y-86072295D01*
X151447170Y-86100377D01*
X151483247Y-86076704D01*
X151488859Y-85996197D01*
X151469474Y-85911502D01*
X151440903Y-85948242D01*
G36*
X158003875Y-85923437D02*
X158043563Y-85963125D01*
X158083250Y-85923437D01*
X158043563Y-85883750D01*
X158003875Y-85923437D01*
X158003875Y-85923437D01*
G37*
X158003875Y-85923437D02*
X158043563Y-85963125D01*
X158083250Y-85923437D01*
X158043563Y-85883750D01*
X158003875Y-85923437D01*
G36*
X154352625Y-85923437D02*
X154392313Y-85963125D01*
X154432000Y-85923437D01*
X154392313Y-85883750D01*
X154352625Y-85923437D01*
X154352625Y-85923437D01*
G37*
X154352625Y-85923437D02*
X154392313Y-85963125D01*
X154432000Y-85923437D01*
X154392313Y-85883750D01*
X154352625Y-85923437D01*
G36*
X154299709Y-85672083D02*
X154290209Y-85766282D01*
X154299709Y-85777916D01*
X154346897Y-85767020D01*
X154352625Y-85725000D01*
X154323583Y-85659665D01*
X154299709Y-85672083D01*
X154299709Y-85672083D01*
G37*
X154299709Y-85672083D02*
X154290209Y-85766282D01*
X154299709Y-85777916D01*
X154346897Y-85767020D01*
X154352625Y-85725000D01*
X154323583Y-85659665D01*
X154299709Y-85672083D01*
G36*
X151679028Y-85551367D02*
X151669566Y-85675420D01*
X151685295Y-85703502D01*
X151721372Y-85679829D01*
X151726984Y-85599322D01*
X151707599Y-85514627D01*
X151679028Y-85551367D01*
X151679028Y-85551367D01*
G37*
X151679028Y-85551367D02*
X151669566Y-85675420D01*
X151685295Y-85703502D01*
X151721372Y-85679829D01*
X151726984Y-85599322D01*
X151707599Y-85514627D01*
X151679028Y-85551367D01*
G36*
X151523422Y-85335831D02*
X151519494Y-85349479D01*
X151507874Y-85522382D01*
X151522436Y-85587604D01*
X151548493Y-85590242D01*
X151559135Y-85465984D01*
X151559026Y-85447187D01*
X151547581Y-85324080D01*
X151523422Y-85335831D01*
X151523422Y-85335831D01*
G37*
X151523422Y-85335831D02*
X151519494Y-85349479D01*
X151507874Y-85522382D01*
X151522436Y-85587604D01*
X151548493Y-85590242D01*
X151559135Y-85465984D01*
X151559026Y-85447187D01*
X151547581Y-85324080D01*
X151523422Y-85335831D01*
G36*
X154352625Y-85526562D02*
X154392313Y-85566250D01*
X154432000Y-85526562D01*
X154392313Y-85486875D01*
X154352625Y-85526562D01*
X154352625Y-85526562D01*
G37*
X154352625Y-85526562D02*
X154392313Y-85566250D01*
X154432000Y-85526562D01*
X154392313Y-85486875D01*
X154352625Y-85526562D01*
G36*
X154458459Y-85275208D02*
X154448959Y-85369407D01*
X154458459Y-85381041D01*
X154505647Y-85370145D01*
X154511375Y-85328125D01*
X154482333Y-85262790D01*
X154458459Y-85275208D01*
X154458459Y-85275208D01*
G37*
X154458459Y-85275208D02*
X154448959Y-85369407D01*
X154458459Y-85381041D01*
X154505647Y-85370145D01*
X154511375Y-85328125D01*
X154482333Y-85262790D01*
X154458459Y-85275208D01*
G36*
X153026487Y-84832956D02*
X153013707Y-85039778D01*
X153028089Y-85150456D01*
X153049544Y-85169011D01*
X153061583Y-85055024D01*
X153062608Y-84970937D01*
X153054793Y-84817221D01*
X153036866Y-84793900D01*
X153026487Y-84832956D01*
X153026487Y-84832956D01*
G37*
X153026487Y-84832956D02*
X153013707Y-85039778D01*
X153028089Y-85150456D01*
X153049544Y-85169011D01*
X153061583Y-85055024D01*
X153062608Y-84970937D01*
X153054793Y-84817221D01*
X153036866Y-84793900D01*
X153026487Y-84832956D01*
G36*
X155649084Y-85037083D02*
X155639584Y-85131282D01*
X155649084Y-85142916D01*
X155696272Y-85132020D01*
X155702000Y-85090000D01*
X155672958Y-85024665D01*
X155649084Y-85037083D01*
X155649084Y-85037083D01*
G37*
X155649084Y-85037083D02*
X155639584Y-85131282D01*
X155649084Y-85142916D01*
X155696272Y-85132020D01*
X155702000Y-85090000D01*
X155672958Y-85024665D01*
X155649084Y-85037083D01*
G36*
X154537834Y-85037083D02*
X154528334Y-85131282D01*
X154537834Y-85142916D01*
X154585022Y-85132020D01*
X154590750Y-85090000D01*
X154561708Y-85024665D01*
X154537834Y-85037083D01*
X154537834Y-85037083D01*
G37*
X154537834Y-85037083D02*
X154528334Y-85131282D01*
X154537834Y-85142916D01*
X154585022Y-85132020D01*
X154590750Y-85090000D01*
X154561708Y-85024665D01*
X154537834Y-85037083D01*
G36*
X151601307Y-84911406D02*
X151590823Y-85073914D01*
X151601307Y-85109843D01*
X151630278Y-85119815D01*
X151641343Y-85010625D01*
X151628869Y-84897941D01*
X151601307Y-84911406D01*
X151601307Y-84911406D01*
G37*
X151601307Y-84911406D02*
X151590823Y-85073914D01*
X151601307Y-85109843D01*
X151630278Y-85119815D01*
X151641343Y-85010625D01*
X151628869Y-84897941D01*
X151601307Y-84911406D01*
G36*
X155730297Y-84621456D02*
X155726369Y-84635104D01*
X155714749Y-84808007D01*
X155729311Y-84873229D01*
X155755368Y-84875867D01*
X155766010Y-84751609D01*
X155765901Y-84732812D01*
X155754456Y-84609705D01*
X155730297Y-84621456D01*
X155730297Y-84621456D01*
G37*
X155730297Y-84621456D02*
X155726369Y-84635104D01*
X155714749Y-84808007D01*
X155729311Y-84873229D01*
X155755368Y-84875867D01*
X155766010Y-84751609D01*
X155765901Y-84732812D01*
X155754456Y-84609705D01*
X155730297Y-84621456D01*
G36*
X154660436Y-84718922D02*
X154607850Y-84850449D01*
X154613356Y-84900939D01*
X154667499Y-84872640D01*
X154700007Y-84809118D01*
X154744978Y-84658399D01*
X154726514Y-84628329D01*
X154660436Y-84718922D01*
X154660436Y-84718922D01*
G37*
X154660436Y-84718922D02*
X154607850Y-84850449D01*
X154613356Y-84900939D01*
X154667499Y-84872640D01*
X154700007Y-84809118D01*
X154744978Y-84658399D01*
X154726514Y-84628329D01*
X154660436Y-84718922D01*
G36*
X151680682Y-84435156D02*
X151670198Y-84597664D01*
X151680682Y-84633593D01*
X151709653Y-84643565D01*
X151720718Y-84534375D01*
X151708244Y-84421691D01*
X151680682Y-84435156D01*
X151680682Y-84435156D01*
G37*
X151680682Y-84435156D02*
X151670198Y-84597664D01*
X151680682Y-84633593D01*
X151709653Y-84643565D01*
X151720718Y-84534375D01*
X151708244Y-84421691D01*
X151680682Y-84435156D01*
G36*
X154775959Y-84402083D02*
X154766459Y-84496282D01*
X154775959Y-84507916D01*
X154823147Y-84497020D01*
X154828875Y-84455000D01*
X154799833Y-84389665D01*
X154775959Y-84402083D01*
X154775959Y-84402083D01*
G37*
X154775959Y-84402083D02*
X154766459Y-84496282D01*
X154775959Y-84507916D01*
X154823147Y-84497020D01*
X154828875Y-84455000D01*
X154799833Y-84389665D01*
X154775959Y-84402083D01*
G36*
X154590750Y-84415312D02*
X154630438Y-84455000D01*
X154670125Y-84415312D01*
X154630438Y-84375625D01*
X154590750Y-84415312D01*
X154590750Y-84415312D01*
G37*
X154590750Y-84415312D02*
X154630438Y-84455000D01*
X154670125Y-84415312D01*
X154630438Y-84375625D01*
X154590750Y-84415312D01*
G36*
X152948535Y-83998593D02*
X152936191Y-84199906D01*
X152948535Y-84276406D01*
X152971542Y-84301109D01*
X152984068Y-84191354D01*
X152984835Y-84137500D01*
X152976560Y-83993091D01*
X152955956Y-83976072D01*
X152948535Y-83998593D01*
X152948535Y-83998593D01*
G37*
X152948535Y-83998593D02*
X152936191Y-84199906D01*
X152948535Y-84276406D01*
X152971542Y-84301109D01*
X152984068Y-84191354D01*
X152984835Y-84137500D01*
X152976560Y-83993091D01*
X152955956Y-83976072D01*
X152948535Y-83998593D01*
G36*
X154828875Y-84256562D02*
X154868563Y-84296250D01*
X154908250Y-84256562D01*
X154868563Y-84216875D01*
X154828875Y-84256562D01*
X154828875Y-84256562D01*
G37*
X154828875Y-84256562D02*
X154868563Y-84296250D01*
X154908250Y-84256562D01*
X154868563Y-84216875D01*
X154828875Y-84256562D01*
G36*
X155803792Y-83602810D02*
X155790735Y-83837552D01*
X155804876Y-83999685D01*
X155823467Y-84031625D01*
X155835449Y-83927628D01*
X155838048Y-83780312D01*
X155832108Y-83600216D01*
X155817885Y-83547539D01*
X155803792Y-83602810D01*
X155803792Y-83602810D01*
G37*
X155803792Y-83602810D02*
X155790735Y-83837552D01*
X155804876Y-83999685D01*
X155823467Y-84031625D01*
X155835449Y-83927628D01*
X155838048Y-83780312D01*
X155832108Y-83600216D01*
X155817885Y-83547539D01*
X155803792Y-83602810D01*
G36*
X154934709Y-84005208D02*
X154925209Y-84099407D01*
X154934709Y-84111041D01*
X154981897Y-84100145D01*
X154987625Y-84058125D01*
X154958583Y-83992790D01*
X154934709Y-84005208D01*
X154934709Y-84005208D01*
G37*
X154934709Y-84005208D02*
X154925209Y-84099407D01*
X154934709Y-84111041D01*
X154981897Y-84100145D01*
X154987625Y-84058125D01*
X154958583Y-83992790D01*
X154934709Y-84005208D01*
G36*
X151760057Y-83879531D02*
X151749573Y-84042039D01*
X151760057Y-84077968D01*
X151789028Y-84087940D01*
X151800093Y-83978750D01*
X151787619Y-83866066D01*
X151760057Y-83879531D01*
X151760057Y-83879531D01*
G37*
X151760057Y-83879531D02*
X151749573Y-84042039D01*
X151760057Y-84077968D01*
X151789028Y-84087940D01*
X151800093Y-83978750D01*
X151787619Y-83866066D01*
X151760057Y-83879531D01*
G36*
X155463875Y-83939062D02*
X155503563Y-83978750D01*
X155543250Y-83939062D01*
X155503563Y-83899375D01*
X155463875Y-83939062D01*
X155463875Y-83939062D01*
G37*
X155463875Y-83939062D02*
X155503563Y-83978750D01*
X155543250Y-83939062D01*
X155503563Y-83899375D01*
X155463875Y-83939062D01*
G36*
X154987625Y-83859687D02*
X155027313Y-83899375D01*
X155067000Y-83859687D01*
X155027313Y-83820000D01*
X154987625Y-83859687D01*
X154987625Y-83859687D01*
G37*
X154987625Y-83859687D02*
X155027313Y-83899375D01*
X155067000Y-83859687D01*
X155027313Y-83820000D01*
X154987625Y-83859687D01*
G36*
X155093459Y-83608333D02*
X155083959Y-83702532D01*
X155093459Y-83714166D01*
X155140647Y-83703270D01*
X155146375Y-83661250D01*
X155117333Y-83595915D01*
X155093459Y-83608333D01*
X155093459Y-83608333D01*
G37*
X155093459Y-83608333D02*
X155083959Y-83702532D01*
X155093459Y-83714166D01*
X155140647Y-83703270D01*
X155146375Y-83661250D01*
X155117333Y-83595915D01*
X155093459Y-83608333D01*
G36*
X152871307Y-83323906D02*
X152860823Y-83486414D01*
X152871307Y-83522343D01*
X152900278Y-83532315D01*
X152911343Y-83423125D01*
X152898869Y-83310441D01*
X152871307Y-83323906D01*
X152871307Y-83323906D01*
G37*
X152871307Y-83323906D02*
X152860823Y-83486414D01*
X152871307Y-83522343D01*
X152900278Y-83532315D01*
X152911343Y-83423125D01*
X152898869Y-83310441D01*
X152871307Y-83323906D01*
G36*
X151840922Y-83272081D02*
X151836994Y-83285729D01*
X151825374Y-83458632D01*
X151839936Y-83523854D01*
X151865993Y-83526492D01*
X151876635Y-83402234D01*
X151876526Y-83383437D01*
X151865081Y-83260330D01*
X151840922Y-83272081D01*
X151840922Y-83272081D01*
G37*
X151840922Y-83272081D02*
X151836994Y-83285729D01*
X151825374Y-83458632D01*
X151839936Y-83523854D01*
X151865993Y-83526492D01*
X151876635Y-83402234D01*
X151876526Y-83383437D01*
X151865081Y-83260330D01*
X151840922Y-83272081D01*
G36*
X157555922Y-83192706D02*
X157551994Y-83206354D01*
X157540374Y-83379257D01*
X157554936Y-83444479D01*
X157580993Y-83447117D01*
X157591635Y-83322859D01*
X157591526Y-83304062D01*
X157580081Y-83180955D01*
X157555922Y-83192706D01*
X157555922Y-83192706D01*
G37*
X157555922Y-83192706D02*
X157551994Y-83206354D01*
X157540374Y-83379257D01*
X157554936Y-83444479D01*
X157580993Y-83447117D01*
X157591635Y-83322859D01*
X157591526Y-83304062D01*
X157580081Y-83180955D01*
X157555922Y-83192706D01*
G36*
X155216061Y-83290172D02*
X155163475Y-83421699D01*
X155168981Y-83472189D01*
X155223124Y-83443890D01*
X155255632Y-83380368D01*
X155300603Y-83229649D01*
X155282139Y-83199579D01*
X155216061Y-83290172D01*
X155216061Y-83290172D01*
G37*
X155216061Y-83290172D02*
X155163475Y-83421699D01*
X155168981Y-83472189D01*
X155223124Y-83443890D01*
X155255632Y-83380368D01*
X155300603Y-83229649D01*
X155282139Y-83199579D01*
X155216061Y-83290172D01*
G36*
X155384500Y-83383437D02*
X155424188Y-83423125D01*
X155463875Y-83383437D01*
X155424188Y-83343750D01*
X155384500Y-83383437D01*
X155384500Y-83383437D01*
G37*
X155384500Y-83383437D02*
X155424188Y-83423125D01*
X155463875Y-83383437D01*
X155424188Y-83343750D01*
X155384500Y-83383437D01*
G36*
X155384500Y-83224687D02*
X155424188Y-83264375D01*
X155463875Y-83224687D01*
X155424188Y-83185000D01*
X155384500Y-83224687D01*
X155384500Y-83224687D01*
G37*
X155384500Y-83224687D02*
X155424188Y-83264375D01*
X155463875Y-83224687D01*
X155424188Y-83185000D01*
X155384500Y-83224687D01*
G36*
X155331584Y-82973333D02*
X155322084Y-83067532D01*
X155331584Y-83079166D01*
X155378772Y-83068270D01*
X155384500Y-83026250D01*
X155355458Y-82960915D01*
X155331584Y-82973333D01*
X155331584Y-82973333D01*
G37*
X155331584Y-82973333D02*
X155322084Y-83067532D01*
X155331584Y-83079166D01*
X155378772Y-83068270D01*
X155384500Y-83026250D01*
X155355458Y-82960915D01*
X155331584Y-82973333D01*
G36*
X155463875Y-82986562D02*
X155503563Y-83026250D01*
X155543250Y-82986562D01*
X155503563Y-82946875D01*
X155463875Y-82986562D01*
X155463875Y-82986562D01*
G37*
X155463875Y-82986562D02*
X155503563Y-83026250D01*
X155543250Y-82986562D01*
X155503563Y-82946875D01*
X155463875Y-82986562D01*
G36*
X157473403Y-82773242D02*
X157463941Y-82897295D01*
X157479670Y-82925377D01*
X157515747Y-82901704D01*
X157521359Y-82821197D01*
X157501974Y-82736502D01*
X157473403Y-82773242D01*
X157473403Y-82773242D01*
G37*
X157473403Y-82773242D02*
X157463941Y-82897295D01*
X157479670Y-82925377D01*
X157515747Y-82901704D01*
X157521359Y-82821197D01*
X157501974Y-82736502D01*
X157473403Y-82773242D01*
G36*
X155885410Y-82569843D02*
X155873066Y-82771156D01*
X155885410Y-82847656D01*
X155908417Y-82872359D01*
X155920943Y-82762604D01*
X155921710Y-82708750D01*
X155913435Y-82564341D01*
X155892831Y-82547322D01*
X155885410Y-82569843D01*
X155885410Y-82569843D01*
G37*
X155885410Y-82569843D02*
X155873066Y-82771156D01*
X155885410Y-82847656D01*
X155908417Y-82872359D01*
X155920943Y-82762604D01*
X155921710Y-82708750D01*
X155913435Y-82564341D01*
X155892831Y-82547322D01*
X155885410Y-82569843D01*
G36*
X155569709Y-82735208D02*
X155560209Y-82829407D01*
X155569709Y-82841041D01*
X155616897Y-82830145D01*
X155622625Y-82788125D01*
X155593583Y-82722790D01*
X155569709Y-82735208D01*
X155569709Y-82735208D01*
G37*
X155569709Y-82735208D02*
X155560209Y-82829407D01*
X155569709Y-82841041D01*
X155616897Y-82830145D01*
X155622625Y-82788125D01*
X155593583Y-82722790D01*
X155569709Y-82735208D01*
G36*
X155410959Y-82735208D02*
X155401459Y-82829407D01*
X155410959Y-82841041D01*
X155458147Y-82830145D01*
X155463875Y-82788125D01*
X155434833Y-82722790D01*
X155410959Y-82735208D01*
X155410959Y-82735208D01*
G37*
X155410959Y-82735208D02*
X155401459Y-82829407D01*
X155410959Y-82841041D01*
X155458147Y-82830145D01*
X155463875Y-82788125D01*
X155434833Y-82722790D01*
X155410959Y-82735208D01*
G36*
X151920297Y-82557706D02*
X151916369Y-82571354D01*
X151904749Y-82744257D01*
X151919311Y-82809479D01*
X151945368Y-82812117D01*
X151956010Y-82687859D01*
X151955901Y-82669062D01*
X151944456Y-82545955D01*
X151920297Y-82557706D01*
X151920297Y-82557706D01*
G37*
X151920297Y-82557706D02*
X151916369Y-82571354D01*
X151904749Y-82744257D01*
X151919311Y-82809479D01*
X151945368Y-82812117D01*
X151956010Y-82687859D01*
X151955901Y-82669062D01*
X151944456Y-82545955D01*
X151920297Y-82557706D01*
G36*
X152790278Y-82614492D02*
X152780816Y-82738545D01*
X152796545Y-82766627D01*
X152832622Y-82742954D01*
X152838234Y-82662447D01*
X152818849Y-82577752D01*
X152790278Y-82614492D01*
X152790278Y-82614492D01*
G37*
X152790278Y-82614492D02*
X152780816Y-82738545D01*
X152796545Y-82766627D01*
X152832622Y-82742954D01*
X152838234Y-82662447D01*
X152818849Y-82577752D01*
X152790278Y-82614492D01*
G36*
X155622625Y-82589687D02*
X155662313Y-82629375D01*
X155702000Y-82589687D01*
X155662313Y-82550000D01*
X155622625Y-82589687D01*
X155622625Y-82589687D01*
G37*
X155622625Y-82589687D02*
X155662313Y-82629375D01*
X155702000Y-82589687D01*
X155662313Y-82550000D01*
X155622625Y-82589687D01*
G36*
X155490334Y-82497083D02*
X155480834Y-82591282D01*
X155490334Y-82602916D01*
X155537522Y-82592020D01*
X155543250Y-82550000D01*
X155514208Y-82484665D01*
X155490334Y-82497083D01*
X155490334Y-82497083D01*
G37*
X155490334Y-82497083D02*
X155480834Y-82591282D01*
X155490334Y-82602916D01*
X155537522Y-82592020D01*
X155543250Y-82550000D01*
X155514208Y-82484665D01*
X155490334Y-82497083D01*
G36*
X157395334Y-82338333D02*
X157385834Y-82432532D01*
X157395334Y-82444166D01*
X157442522Y-82433270D01*
X157448250Y-82391250D01*
X157419208Y-82325915D01*
X157395334Y-82338333D01*
X157395334Y-82338333D01*
G37*
X157395334Y-82338333D02*
X157385834Y-82432532D01*
X157395334Y-82444166D01*
X157442522Y-82433270D01*
X157448250Y-82391250D01*
X157419208Y-82325915D01*
X157395334Y-82338333D01*
G36*
X155785260Y-82162788D02*
X155777178Y-82188822D01*
X155737313Y-82363650D01*
X155738456Y-82452742D01*
X155774794Y-82428861D01*
X155811257Y-82348493D01*
X155852127Y-82155445D01*
X155853928Y-82087101D01*
X155831450Y-82058833D01*
X155785260Y-82162788D01*
X155785260Y-82162788D01*
G37*
X155785260Y-82162788D02*
X155777178Y-82188822D01*
X155737313Y-82363650D01*
X155738456Y-82452742D01*
X155774794Y-82428861D01*
X155811257Y-82348493D01*
X155852127Y-82155445D01*
X155853928Y-82087101D01*
X155831450Y-82058833D01*
X155785260Y-82162788D01*
G36*
X155569709Y-82258958D02*
X155560209Y-82353157D01*
X155569709Y-82364791D01*
X155616897Y-82353895D01*
X155622625Y-82311875D01*
X155593583Y-82246540D01*
X155569709Y-82258958D01*
X155569709Y-82258958D01*
G37*
X155569709Y-82258958D02*
X155560209Y-82353157D01*
X155569709Y-82364791D01*
X155616897Y-82353895D01*
X155622625Y-82311875D01*
X155593583Y-82246540D01*
X155569709Y-82258958D01*
G36*
X155966584Y-82179583D02*
X155957084Y-82273782D01*
X155966584Y-82285416D01*
X156013772Y-82274520D01*
X156019500Y-82232500D01*
X155990458Y-82167165D01*
X155966584Y-82179583D01*
X155966584Y-82179583D01*
G37*
X155966584Y-82179583D02*
X155957084Y-82273782D01*
X155966584Y-82285416D01*
X156013772Y-82274520D01*
X156019500Y-82232500D01*
X155990458Y-82167165D01*
X155966584Y-82179583D01*
G36*
X151999672Y-81922706D02*
X151995744Y-81936354D01*
X151984124Y-82109257D01*
X151998686Y-82174479D01*
X152024743Y-82177117D01*
X152035385Y-82052859D01*
X152035276Y-82034062D01*
X152023831Y-81910955D01*
X151999672Y-81922706D01*
X151999672Y-81922706D01*
G37*
X151999672Y-81922706D02*
X151995744Y-81936354D01*
X151984124Y-82109257D01*
X151998686Y-82174479D01*
X152024743Y-82177117D01*
X152035385Y-82052859D01*
X152035276Y-82034062D01*
X152023831Y-81910955D01*
X151999672Y-81922706D01*
G36*
X155649084Y-82020833D02*
X155639584Y-82115032D01*
X155649084Y-82126666D01*
X155696272Y-82115770D01*
X155702000Y-82073750D01*
X155672958Y-82008415D01*
X155649084Y-82020833D01*
X155649084Y-82020833D01*
G37*
X155649084Y-82020833D02*
X155639584Y-82115032D01*
X155649084Y-82126666D01*
X155696272Y-82115770D01*
X155702000Y-82073750D01*
X155672958Y-82008415D01*
X155649084Y-82020833D01*
G36*
X152712557Y-81895156D02*
X152702073Y-82057664D01*
X152712557Y-82093593D01*
X152741528Y-82103565D01*
X152752593Y-81994375D01*
X152740119Y-81881691D01*
X152712557Y-81895156D01*
X152712557Y-81895156D01*
G37*
X152712557Y-81895156D02*
X152702073Y-82057664D01*
X152712557Y-82093593D01*
X152741528Y-82103565D01*
X152752593Y-81994375D01*
X152740119Y-81881691D01*
X152712557Y-81895156D01*
G36*
X157315959Y-81941458D02*
X157306459Y-82035657D01*
X157315959Y-82047291D01*
X157363147Y-82036395D01*
X157368875Y-81994375D01*
X157339833Y-81929040D01*
X157315959Y-81941458D01*
X157315959Y-81941458D01*
G37*
X157315959Y-81941458D02*
X157306459Y-82035657D01*
X157315959Y-82047291D01*
X157363147Y-82036395D01*
X157368875Y-81994375D01*
X157339833Y-81929040D01*
X157315959Y-81941458D01*
G36*
X155863181Y-81795937D02*
X155902703Y-81926380D01*
X155940125Y-81994375D01*
X156003020Y-82057908D01*
X156017070Y-82034062D01*
X155977548Y-81903619D01*
X155940125Y-81835625D01*
X155877231Y-81772091D01*
X155863181Y-81795937D01*
X155863181Y-81795937D01*
G37*
X155863181Y-81795937D02*
X155902703Y-81926380D01*
X155940125Y-81994375D01*
X156003020Y-82057908D01*
X156017070Y-82034062D01*
X155977548Y-81903619D01*
X155940125Y-81835625D01*
X155877231Y-81772091D01*
X155863181Y-81795937D01*
G36*
X155728459Y-81782708D02*
X155718959Y-81876907D01*
X155728459Y-81888541D01*
X155775647Y-81877645D01*
X155781375Y-81835625D01*
X155752333Y-81770290D01*
X155728459Y-81782708D01*
X155728459Y-81782708D01*
G37*
X155728459Y-81782708D02*
X155718959Y-81876907D01*
X155728459Y-81888541D01*
X155775647Y-81877645D01*
X155781375Y-81835625D01*
X155752333Y-81770290D01*
X155728459Y-81782708D01*
G36*
X157368875Y-81716562D02*
X157408563Y-81756250D01*
X157448250Y-81716562D01*
X157408563Y-81676875D01*
X157368875Y-81716562D01*
X157368875Y-81716562D01*
G37*
X157368875Y-81716562D02*
X157408563Y-81756250D01*
X157448250Y-81716562D01*
X157408563Y-81676875D01*
X157368875Y-81716562D01*
G36*
X157210125Y-81716562D02*
X157249813Y-81756250D01*
X157289500Y-81716562D01*
X157249813Y-81676875D01*
X157210125Y-81716562D01*
X157210125Y-81716562D01*
G37*
X157210125Y-81716562D02*
X157249813Y-81756250D01*
X157289500Y-81716562D01*
X157249813Y-81676875D01*
X157210125Y-81716562D01*
G36*
X156055499Y-81333420D02*
X156071664Y-81402950D01*
X156061392Y-81550475D01*
X156011223Y-81604295D01*
X155950303Y-81660582D01*
X156038453Y-81675651D01*
X156039344Y-81675659D01*
X156156763Y-81612707D01*
X156178250Y-81522809D01*
X156142242Y-81371158D01*
X156099785Y-81320249D01*
X156055499Y-81333420D01*
X156055499Y-81333420D01*
G37*
X156055499Y-81333420D02*
X156071664Y-81402950D01*
X156061392Y-81550475D01*
X156011223Y-81604295D01*
X155950303Y-81660582D01*
X156038453Y-81675651D01*
X156039344Y-81675659D01*
X156156763Y-81612707D01*
X156178250Y-81522809D01*
X156142242Y-81371158D01*
X156099785Y-81320249D01*
X156055499Y-81333420D01*
G36*
X155806528Y-81503242D02*
X155797066Y-81627295D01*
X155812795Y-81655377D01*
X155848872Y-81631704D01*
X155854484Y-81551197D01*
X155835099Y-81466502D01*
X155806528Y-81503242D01*
X155806528Y-81503242D01*
G37*
X155806528Y-81503242D02*
X155797066Y-81627295D01*
X155812795Y-81655377D01*
X155848872Y-81631704D01*
X155854484Y-81551197D01*
X155835099Y-81466502D01*
X155806528Y-81503242D01*
G36*
X157157209Y-81385833D02*
X157147709Y-81480032D01*
X157157209Y-81491666D01*
X157204397Y-81480770D01*
X157210125Y-81438750D01*
X157181083Y-81373415D01*
X157157209Y-81385833D01*
X157157209Y-81385833D01*
G37*
X157157209Y-81385833D02*
X157147709Y-81480032D01*
X157157209Y-81491666D01*
X157204397Y-81480770D01*
X157210125Y-81438750D01*
X157181083Y-81373415D01*
X157157209Y-81385833D01*
G36*
X157289500Y-81399062D02*
X157329188Y-81438750D01*
X157368875Y-81399062D01*
X157329188Y-81359375D01*
X157289500Y-81399062D01*
X157289500Y-81399062D01*
G37*
X157289500Y-81399062D02*
X157329188Y-81438750D01*
X157368875Y-81399062D01*
X157329188Y-81359375D01*
X157289500Y-81399062D01*
G36*
X152074108Y-80942656D02*
X152060976Y-81173953D01*
X152074108Y-81299843D01*
X152093737Y-81337458D01*
X152106191Y-81237732D01*
X152108507Y-81121250D01*
X152102314Y-80949574D01*
X152086483Y-80902446D01*
X152074108Y-80942656D01*
X152074108Y-80942656D01*
G37*
X152074108Y-80942656D02*
X152060976Y-81173953D01*
X152074108Y-81299843D01*
X152093737Y-81337458D01*
X152106191Y-81237732D01*
X152108507Y-81121250D01*
X152102314Y-80949574D01*
X152086483Y-80902446D01*
X152074108Y-80942656D01*
G36*
X157077834Y-81147708D02*
X157068334Y-81241907D01*
X157077834Y-81253541D01*
X157125022Y-81242645D01*
X157130750Y-81200625D01*
X157101708Y-81135290D01*
X157077834Y-81147708D01*
X157077834Y-81147708D01*
G37*
X157077834Y-81147708D02*
X157068334Y-81241907D01*
X157077834Y-81253541D01*
X157125022Y-81242645D01*
X157130750Y-81200625D01*
X157101708Y-81135290D01*
X157077834Y-81147708D01*
G36*
X155885903Y-81106367D02*
X155876441Y-81230420D01*
X155892170Y-81258502D01*
X155928247Y-81234829D01*
X155933859Y-81154322D01*
X155914474Y-81069627D01*
X155885903Y-81106367D01*
X155885903Y-81106367D01*
G37*
X155885903Y-81106367D02*
X155876441Y-81230420D01*
X155892170Y-81258502D01*
X155928247Y-81234829D01*
X155933859Y-81154322D01*
X155914474Y-81069627D01*
X155885903Y-81106367D01*
G36*
X156998459Y-80909583D02*
X156988959Y-81003782D01*
X156998459Y-81015416D01*
X157045647Y-81004520D01*
X157051375Y-80962500D01*
X157022333Y-80897165D01*
X156998459Y-80909583D01*
X156998459Y-80909583D01*
G37*
X156998459Y-80909583D02*
X156988959Y-81003782D01*
X156998459Y-81015416D01*
X157045647Y-81004520D01*
X157051375Y-80962500D01*
X157022333Y-80897165D01*
X156998459Y-80909583D01*
G36*
X155940125Y-80764062D02*
X155979813Y-80803750D01*
X156019500Y-80764062D01*
X155979813Y-80724375D01*
X155940125Y-80764062D01*
X155940125Y-80764062D01*
G37*
X155940125Y-80764062D02*
X155979813Y-80803750D01*
X156019500Y-80764062D01*
X155979813Y-80724375D01*
X155940125Y-80764062D01*
G36*
X156813250Y-80605312D02*
X156852938Y-80645000D01*
X156892625Y-80605312D01*
X156852938Y-80565625D01*
X156813250Y-80605312D01*
X156813250Y-80605312D01*
G37*
X156813250Y-80605312D02*
X156852938Y-80645000D01*
X156892625Y-80605312D01*
X156852938Y-80565625D01*
X156813250Y-80605312D01*
G36*
X156998459Y-80433333D02*
X156988959Y-80527532D01*
X156998459Y-80539166D01*
X157045647Y-80528270D01*
X157051375Y-80486250D01*
X157022333Y-80420915D01*
X156998459Y-80433333D01*
X156998459Y-80433333D01*
G37*
X156998459Y-80433333D02*
X156988959Y-80527532D01*
X156998459Y-80539166D01*
X157045647Y-80528270D01*
X157051375Y-80486250D01*
X157022333Y-80420915D01*
X156998459Y-80433333D01*
G36*
X157143015Y-80200857D02*
X157058471Y-80274643D01*
X157051375Y-80292496D01*
X157089045Y-80325121D01*
X157167472Y-80252018D01*
X157178018Y-80235860D01*
X157187373Y-80181544D01*
X157143015Y-80200857D01*
X157143015Y-80200857D01*
G37*
X157143015Y-80200857D02*
X157058471Y-80274643D01*
X157051375Y-80292496D01*
X157089045Y-80325121D01*
X157167472Y-80252018D01*
X157178018Y-80235860D01*
X157187373Y-80181544D01*
X157143015Y-80200857D01*
D13*
G36*
X103124000Y-114173000D02*
X99441000Y-114173000D01*
X99441000Y-112395000D01*
X103124000Y-112395000D01*
X103124000Y-114173000D01*
X103124000Y-114173000D01*
G37*
X103124000Y-114173000D02*
X99441000Y-114173000D01*
X99441000Y-112395000D01*
X103124000Y-112395000D01*
X103124000Y-114173000D01*
M02*
