G04 #@! TF.FileFunction,Copper,L1,Top,Signal*
%FSLAX46Y46*%
G04 Gerber Fmt 4.6, Leading zero omitted, Abs format (unit mm)*
G04 Created by KiCad (PCBNEW 4.0.1-stable) date 10/30/2017 21:56:45*
%MOMM*%
G01*
G04 APERTURE LIST*
%ADD10C,0.100000*%
%ADD11C,0.300000*%
%ADD12R,1.500000X1.300000*%
%ADD13R,1.250000X1.500000*%
%ADD14R,1.700000X1.700000*%
%ADD15O,1.700000X1.700000*%
%ADD16C,1.000000*%
%ADD17R,1.000000X1.000000*%
%ADD18O,2.499360X1.501140*%
%ADD19R,1.300000X1.500000*%
%ADD20C,3.000000*%
%ADD21R,0.900000X0.800000*%
%ADD22R,2.500000X2.000000*%
%ADD23R,1.500000X1.250000*%
%ADD24R,1.800000X1.800000*%
%ADD25C,1.800000*%
%ADD26R,1.680000X1.680000*%
%ADD27C,2.400000*%
%ADD28O,2.400000X2.400000*%
%ADD29R,1.300000X2.000000*%
%ADD30R,1.300000X1.300000*%
%ADD31R,2.000000X1.300000*%
%ADD32C,1.600000*%
%ADD33R,0.600000X1.500000*%
%ADD34R,3.500000X3.500000*%
%ADD35C,4.500880*%
%ADD36C,0.685800*%
%ADD37C,0.254000*%
%ADD38C,0.508000*%
G04 APERTURE END LIST*
D10*
D11*
X168576572Y-113962571D02*
X167719429Y-113962571D01*
X168148001Y-113962571D02*
X168148001Y-112462571D01*
X168005144Y-112676857D01*
X167862286Y-112819714D01*
X167719429Y-112891143D01*
D12*
X136826000Y-79375000D03*
X139526000Y-79375000D03*
D13*
X153543000Y-91420000D03*
X153543000Y-88920000D03*
D14*
X160909000Y-110617000D03*
D15*
X163449000Y-110617000D03*
D14*
X162306000Y-98425000D03*
D15*
X162306000Y-95885000D03*
D16*
X161544000Y-91059000D03*
X162814000Y-89789000D03*
D17*
X162814000Y-92329000D03*
D18*
X115697000Y-93345000D03*
X115697000Y-95885000D03*
X115697000Y-90805000D03*
D12*
X139526000Y-76327000D03*
X136826000Y-76327000D03*
D19*
X151511000Y-84789000D03*
X151511000Y-82089000D03*
D12*
X142414000Y-76327000D03*
X145114000Y-76327000D03*
X145114000Y-79375000D03*
X142414000Y-79375000D03*
X142287000Y-82169000D03*
X144987000Y-82169000D03*
D19*
X149352000Y-71835000D03*
X149352000Y-69135000D03*
X151511000Y-79328000D03*
X151511000Y-76628000D03*
X141224000Y-71835000D03*
X141224000Y-69135000D03*
D12*
X139239000Y-98806000D03*
X141939000Y-98806000D03*
X139239000Y-95758000D03*
X141939000Y-95758000D03*
D19*
X149860000Y-96186000D03*
X149860000Y-98886000D03*
X138303000Y-111205000D03*
X138303000Y-108505000D03*
D20*
X111887000Y-80645000D03*
X111887000Y-106045000D03*
D21*
X136414000Y-89601000D03*
X136414000Y-91501000D03*
X138414000Y-90551000D03*
D22*
X156464000Y-76232000D03*
X156464000Y-80232000D03*
D23*
X154920000Y-72771000D03*
X152420000Y-72771000D03*
X139339000Y-101600000D03*
X141839000Y-101600000D03*
D13*
X136652000Y-95905000D03*
X136652000Y-98405000D03*
X164719000Y-85324000D03*
X164719000Y-82824000D03*
D24*
X149479000Y-63119000D03*
D25*
X149479000Y-65659000D03*
D24*
X141224000Y-63119000D03*
D25*
X141224000Y-65659000D03*
D26*
X166370000Y-99264000D03*
X166370000Y-95504000D03*
D27*
X127762000Y-111760000D03*
D28*
X132842000Y-111760000D03*
D27*
X127698500Y-106489500D03*
D28*
X132778500Y-106489500D03*
D27*
X127698500Y-101155500D03*
D28*
X132778500Y-101155500D03*
D27*
X127698500Y-95821500D03*
D28*
X132778500Y-95821500D03*
D27*
X127698500Y-90487500D03*
D28*
X132778500Y-90487500D03*
D27*
X127698500Y-85153500D03*
D28*
X132778500Y-85153500D03*
D27*
X127698500Y-79819500D03*
D28*
X132778500Y-79819500D03*
D27*
X127698500Y-74485500D03*
D28*
X132778500Y-74485500D03*
D27*
X127698500Y-69151500D03*
D28*
X132778500Y-69151500D03*
D27*
X127698500Y-63817500D03*
D28*
X132778500Y-63817500D03*
D29*
X161163000Y-84836000D03*
D30*
X155663000Y-85986000D03*
X155663000Y-83686000D03*
D14*
X148463000Y-82042000D03*
D15*
X148463000Y-79502000D03*
X148463000Y-76962000D03*
D31*
X156083000Y-100838000D03*
D30*
X154933000Y-95338000D03*
X157233000Y-95338000D03*
D29*
X148463000Y-109855000D03*
D30*
X142963000Y-111005000D03*
X142963000Y-108705000D03*
D14*
X145669000Y-97663000D03*
D15*
X145669000Y-100203000D03*
X145669000Y-102743000D03*
D14*
X156210000Y-104902000D03*
D15*
X153670000Y-104902000D03*
X151130000Y-104902000D03*
D32*
X136906000Y-83820000D03*
X139406000Y-83820000D03*
D27*
X120650000Y-69469000D03*
X120650000Y-64469000D03*
D33*
X149987000Y-87470000D03*
X148717000Y-87470000D03*
X147447000Y-87470000D03*
X146177000Y-87470000D03*
X144907000Y-87470000D03*
X143637000Y-87470000D03*
X142367000Y-87470000D03*
X142367000Y-92870000D03*
X143637000Y-92870000D03*
X144907000Y-92870000D03*
X146177000Y-92870000D03*
X147447000Y-92870000D03*
X148717000Y-92870000D03*
X149987000Y-92870000D03*
D34*
X162306000Y-68961000D03*
X162306000Y-62961000D03*
X157606000Y-65961000D03*
D14*
X152781000Y-110617000D03*
D15*
X155321000Y-110617000D03*
D35*
X112966500Y-63944500D03*
X112966500Y-70294500D03*
D36*
X163068000Y-84836000D03*
X162687000Y-88011000D03*
X158750000Y-80137000D03*
X156845000Y-72771000D03*
X153543000Y-93091000D03*
X136652000Y-100330000D03*
X135255000Y-91440000D03*
X140970000Y-79375000D03*
X146177000Y-94361000D03*
X157226000Y-97409000D03*
X145161000Y-108712000D03*
X141224000Y-84201000D03*
X141224000Y-86868000D03*
X136652000Y-94234000D03*
X146177000Y-90678000D03*
D37*
X164719000Y-85324000D02*
X163556000Y-85324000D01*
X163068000Y-84836000D02*
X161163000Y-84836000D01*
X163556000Y-85324000D02*
X163068000Y-84836000D01*
D38*
X162814000Y-89789000D02*
X162814000Y-88138000D01*
X162814000Y-88138000D02*
X162687000Y-88011000D01*
D37*
X156464000Y-80232000D02*
X158655000Y-80232000D01*
X158655000Y-80232000D02*
X158750000Y-80137000D01*
X155663000Y-83686000D02*
X155663000Y-81033000D01*
X155663000Y-81033000D02*
X156464000Y-80232000D01*
X154920000Y-72771000D02*
X156845000Y-72771000D01*
X153543000Y-91420000D02*
X153543000Y-93091000D01*
X136652000Y-98405000D02*
X136652000Y-100330000D01*
X136414000Y-91501000D02*
X135316000Y-91501000D01*
X135316000Y-91501000D02*
X135255000Y-91440000D01*
X142414000Y-79375000D02*
X140970000Y-79375000D01*
X140970000Y-79375000D02*
X139526000Y-79375000D01*
X146177000Y-92870000D02*
X146177000Y-94361000D01*
X157233000Y-95338000D02*
X157233000Y-97402000D01*
X157233000Y-97402000D02*
X157226000Y-97409000D01*
X142963000Y-108705000D02*
X145154000Y-108705000D01*
X145154000Y-108705000D02*
X145161000Y-108712000D01*
X161544000Y-91059000D02*
X156337000Y-91059000D01*
X152146000Y-90043000D02*
X149987000Y-87884000D01*
X155321000Y-90043000D02*
X152146000Y-90043000D01*
X156337000Y-91059000D02*
X155321000Y-90043000D01*
X149987000Y-87884000D02*
X149987000Y-87470000D01*
X149987000Y-87470000D02*
X149987000Y-86313000D01*
X149987000Y-86313000D02*
X151511000Y-84789000D01*
X141224000Y-87470000D02*
X141224000Y-86868000D01*
X142287000Y-83138000D02*
X142287000Y-82169000D01*
X141224000Y-84201000D02*
X142287000Y-83138000D01*
X136414000Y-89601000D02*
X136414000Y-88183000D01*
X136414000Y-88183000D02*
X137127000Y-87470000D01*
X142367000Y-87470000D02*
X141224000Y-87470000D01*
X141224000Y-87470000D02*
X137127000Y-87470000D01*
X137080000Y-71835000D02*
X141224000Y-71835000D01*
X135001000Y-73914000D02*
X137080000Y-71835000D01*
X135001000Y-85344000D02*
X135001000Y-73914000D01*
X137127000Y-87470000D02*
X135001000Y-85344000D01*
X136652000Y-95905000D02*
X136652000Y-94234000D01*
X139239000Y-95758000D02*
X136799000Y-95758000D01*
X136799000Y-95758000D02*
X136652000Y-95905000D01*
X143637000Y-87470000D02*
X143637000Y-88900000D01*
X148717000Y-88773000D02*
X148717000Y-87470000D01*
X148082000Y-89408000D02*
X148717000Y-88773000D01*
X144145000Y-89408000D02*
X148082000Y-89408000D01*
X143637000Y-88900000D02*
X144145000Y-89408000D01*
X136906000Y-83820000D02*
X136906000Y-84455000D01*
X136906000Y-84455000D02*
X138303000Y-85852000D01*
X143637000Y-86360000D02*
X143637000Y-87470000D01*
X143129000Y-85852000D02*
X143637000Y-86360000D01*
X138303000Y-85852000D02*
X143129000Y-85852000D01*
X136906000Y-83820000D02*
X136906000Y-79455000D01*
X136906000Y-79455000D02*
X136826000Y-79375000D01*
X136826000Y-79375000D02*
X136826000Y-76327000D01*
X155663000Y-85986000D02*
X154820000Y-85986000D01*
X153543000Y-84121000D02*
X151511000Y-82089000D01*
X153543000Y-84709000D02*
X153543000Y-84121000D01*
X154820000Y-85986000D02*
X153543000Y-84709000D01*
X147447000Y-87470000D02*
X147447000Y-86153000D01*
X147447000Y-86153000D02*
X151511000Y-82089000D01*
X144987000Y-82169000D02*
X144987000Y-79502000D01*
X144987000Y-79502000D02*
X145114000Y-79375000D01*
X145114000Y-79375000D02*
X145114000Y-76327000D01*
X144907000Y-87470000D02*
X144907000Y-82249000D01*
X144907000Y-82249000D02*
X144987000Y-82169000D01*
X149352000Y-69135000D02*
X149352000Y-65786000D01*
X149352000Y-65786000D02*
X149479000Y-65659000D01*
X141224000Y-69135000D02*
X141224000Y-65659000D01*
X141939000Y-98806000D02*
X141986000Y-98806000D01*
X141986000Y-98806000D02*
X143637000Y-97155000D01*
X143637000Y-97155000D02*
X143637000Y-92870000D01*
X141839000Y-101600000D02*
X141839000Y-98906000D01*
X141839000Y-98906000D02*
X141939000Y-98806000D01*
X141839000Y-101600000D02*
X144526000Y-101600000D01*
X144526000Y-101600000D02*
X145669000Y-102743000D01*
X141939000Y-95758000D02*
X141939000Y-93298000D01*
X141939000Y-93298000D02*
X142367000Y-92870000D01*
X149860000Y-96186000D02*
X154085000Y-96186000D01*
X154085000Y-96186000D02*
X154933000Y-95338000D01*
X148717000Y-92870000D02*
X148717000Y-94615000D01*
X148336000Y-97362000D02*
X149860000Y-98886000D01*
X148336000Y-94996000D02*
X148336000Y-97362000D01*
X148717000Y-94615000D02*
X148336000Y-94996000D01*
X148717000Y-92870000D02*
X149987000Y-92870000D01*
X138303000Y-111205000D02*
X142763000Y-111205000D01*
X142763000Y-111205000D02*
X142963000Y-111005000D01*
X145669000Y-100203000D02*
X145923000Y-100203000D01*
X145923000Y-100203000D02*
X147447000Y-98679000D01*
X147447000Y-98679000D02*
X147447000Y-92870000D01*
X146050000Y-90551000D02*
X144272000Y-90551000D01*
X146177000Y-90678000D02*
X146050000Y-90551000D01*
X148463000Y-79502000D02*
X148463000Y-82042000D01*
X148463000Y-79502000D02*
X151337000Y-79502000D01*
X151337000Y-79502000D02*
X151511000Y-79328000D01*
X138414000Y-90551000D02*
X144272000Y-90551000D01*
X144907000Y-91186000D02*
X144907000Y-92870000D01*
X144272000Y-90551000D02*
X144907000Y-91186000D01*
X145669000Y-97663000D02*
X145669000Y-96266000D01*
X144907000Y-95504000D02*
X144907000Y-92870000D01*
X145669000Y-96266000D02*
X144907000Y-95504000D01*
X156083000Y-100838000D02*
X156083000Y-104775000D01*
X156083000Y-104775000D02*
X156210000Y-104902000D01*
X151130000Y-104902000D02*
X151130000Y-107188000D01*
X151130000Y-107188000D02*
X148463000Y-109855000D01*
D38*
X162814000Y-92329000D02*
X162814000Y-95377000D01*
X162814000Y-95377000D02*
X162941000Y-95504000D01*
X162941000Y-95504000D02*
X166370000Y-95504000D01*
D37*
X153670000Y-104902000D02*
X153670000Y-107569000D01*
X152781000Y-108458000D02*
X152781000Y-110617000D01*
X153670000Y-107569000D02*
X152781000Y-108458000D01*
X138303000Y-108505000D02*
X137367000Y-108505000D01*
X122809000Y-114173000D02*
X122555000Y-113919000D01*
X135509000Y-114173000D02*
X122809000Y-114173000D01*
X135636000Y-114300000D02*
X135509000Y-114173000D01*
X135636000Y-110236000D02*
X135636000Y-114300000D01*
X137367000Y-108505000D02*
X135636000Y-110236000D01*
X139339000Y-101600000D02*
X139339000Y-98906000D01*
X139339000Y-98906000D02*
X139239000Y-98806000D01*
X139339000Y-101600000D02*
X139339000Y-102850000D01*
X138303000Y-103886000D02*
X129540000Y-103886000D01*
X139339000Y-102850000D02*
X138303000Y-103886000D01*
G36*
X130302000Y-113411000D02*
X128596585Y-113411000D01*
X128756435Y-113344788D01*
X128879570Y-113057175D01*
X127762000Y-111939605D01*
X126644430Y-113057175D01*
X126767565Y-113344788D01*
X126941341Y-113411000D01*
X124325859Y-113411000D01*
X124026378Y-111447734D01*
X125917293Y-111447734D01*
X125938214Y-112177443D01*
X126177212Y-112754435D01*
X126464825Y-112877570D01*
X127582395Y-111760000D01*
X127941605Y-111760000D01*
X129059175Y-112877570D01*
X129346788Y-112754435D01*
X129606707Y-112072266D01*
X129585786Y-111342557D01*
X129346788Y-110765565D01*
X129059175Y-110642430D01*
X127941605Y-111760000D01*
X127582395Y-111760000D01*
X126464825Y-110642430D01*
X126177212Y-110765565D01*
X125917293Y-111447734D01*
X124026378Y-111447734D01*
X123876138Y-110462825D01*
X126644430Y-110462825D01*
X127762000Y-111580395D01*
X128879570Y-110462825D01*
X128756435Y-110175212D01*
X128074266Y-109915293D01*
X127344557Y-109936214D01*
X126767565Y-110175212D01*
X126644430Y-110462825D01*
X123876138Y-110462825D01*
X123467912Y-107786675D01*
X126580930Y-107786675D01*
X126704065Y-108074288D01*
X127386234Y-108334207D01*
X128115943Y-108313286D01*
X128692935Y-108074288D01*
X128816070Y-107786675D01*
X127698500Y-106669105D01*
X126580930Y-107786675D01*
X123467912Y-107786675D01*
X123222404Y-106177234D01*
X125853793Y-106177234D01*
X125874714Y-106906943D01*
X126113712Y-107483935D01*
X126401325Y-107607070D01*
X127518895Y-106489500D01*
X127878105Y-106489500D01*
X128995675Y-107607070D01*
X129283288Y-107483935D01*
X129543207Y-106801766D01*
X129522286Y-106072057D01*
X129283288Y-105495065D01*
X128995675Y-105371930D01*
X127878105Y-106489500D01*
X127518895Y-106489500D01*
X126401325Y-105371930D01*
X126113712Y-105495065D01*
X125853793Y-106177234D01*
X123222404Y-106177234D01*
X123072164Y-105192325D01*
X126580930Y-105192325D01*
X127698500Y-106309895D01*
X128816070Y-105192325D01*
X128692935Y-104904712D01*
X128010766Y-104644793D01*
X127281057Y-104665714D01*
X126704065Y-104904712D01*
X126580930Y-105192325D01*
X123072164Y-105192325D01*
X122654252Y-102452675D01*
X126580930Y-102452675D01*
X126704065Y-102740288D01*
X127386234Y-103000207D01*
X128115943Y-102979286D01*
X128692935Y-102740288D01*
X128816070Y-102452675D01*
X127698500Y-101335105D01*
X126580930Y-102452675D01*
X122654252Y-102452675D01*
X122408743Y-100843234D01*
X125853793Y-100843234D01*
X125874714Y-101572943D01*
X126113712Y-102149935D01*
X126401325Y-102273070D01*
X127518895Y-101155500D01*
X127878105Y-101155500D01*
X128995675Y-102273070D01*
X129283288Y-102149935D01*
X129543207Y-101467766D01*
X129522286Y-100738057D01*
X129283288Y-100161065D01*
X128995675Y-100037930D01*
X127878105Y-101155500D01*
X127518895Y-101155500D01*
X126401325Y-100037930D01*
X126113712Y-100161065D01*
X125853793Y-100843234D01*
X122408743Y-100843234D01*
X122258503Y-99858325D01*
X126580930Y-99858325D01*
X127698500Y-100975895D01*
X128816070Y-99858325D01*
X128692935Y-99570712D01*
X128010766Y-99310793D01*
X127281057Y-99331714D01*
X126704065Y-99570712D01*
X126580930Y-99858325D01*
X122258503Y-99858325D01*
X121840591Y-97118675D01*
X126580930Y-97118675D01*
X126704065Y-97406288D01*
X127386234Y-97666207D01*
X128115943Y-97645286D01*
X128692935Y-97406288D01*
X128816070Y-97118675D01*
X127698500Y-96001105D01*
X126580930Y-97118675D01*
X121840591Y-97118675D01*
X121595082Y-95509234D01*
X125853793Y-95509234D01*
X125874714Y-96238943D01*
X126113712Y-96815935D01*
X126401325Y-96939070D01*
X127518895Y-95821500D01*
X127878105Y-95821500D01*
X128995675Y-96939070D01*
X129283288Y-96815935D01*
X129543207Y-96133766D01*
X129522286Y-95404057D01*
X129283288Y-94827065D01*
X128995675Y-94703930D01*
X127878105Y-95821500D01*
X127518895Y-95821500D01*
X126401325Y-94703930D01*
X126113712Y-94827065D01*
X125853793Y-95509234D01*
X121595082Y-95509234D01*
X121444842Y-94524325D01*
X126580930Y-94524325D01*
X127698500Y-95641895D01*
X128816070Y-94524325D01*
X128692935Y-94236712D01*
X128010766Y-93976793D01*
X127281057Y-93997714D01*
X126704065Y-94236712D01*
X126580930Y-94524325D01*
X121444842Y-94524325D01*
X121029548Y-91801849D01*
X121023256Y-91784675D01*
X126580930Y-91784675D01*
X126704065Y-92072288D01*
X127386234Y-92332207D01*
X128115943Y-92311286D01*
X128692935Y-92072288D01*
X128816070Y-91784675D01*
X127698500Y-90667105D01*
X126580930Y-91784675D01*
X121023256Y-91784675D01*
X121012205Y-91754512D01*
X120977813Y-91717653D01*
X120931790Y-91697078D01*
X120904000Y-91694000D01*
X117266171Y-91694000D01*
X117524810Y-91217903D01*
X117538993Y-91146275D01*
X117416339Y-90932000D01*
X115824000Y-90932000D01*
X115824000Y-90952000D01*
X115570000Y-90952000D01*
X115570000Y-90932000D01*
X113977661Y-90932000D01*
X113855007Y-91146275D01*
X113869190Y-91217903D01*
X114127829Y-91694000D01*
X112776000Y-91694000D01*
X112776000Y-90463725D01*
X113855007Y-90463725D01*
X113977661Y-90678000D01*
X115570000Y-90678000D01*
X115570000Y-89419430D01*
X115824000Y-89419430D01*
X115824000Y-90678000D01*
X117416339Y-90678000D01*
X117538993Y-90463725D01*
X117524810Y-90392097D01*
X117407000Y-90175234D01*
X125853793Y-90175234D01*
X125874714Y-90904943D01*
X126113712Y-91481935D01*
X126401325Y-91605070D01*
X127518895Y-90487500D01*
X127878105Y-90487500D01*
X128995675Y-91605070D01*
X129283288Y-91481935D01*
X129543207Y-90799766D01*
X129522286Y-90070057D01*
X129283288Y-89493065D01*
X128995675Y-89369930D01*
X127878105Y-90487500D01*
X127518895Y-90487500D01*
X126401325Y-89369930D01*
X126113712Y-89493065D01*
X125853793Y-90175234D01*
X117407000Y-90175234D01*
X117265658Y-89915056D01*
X116843677Y-89573501D01*
X116323110Y-89419430D01*
X115824000Y-89419430D01*
X115570000Y-89419430D01*
X115070890Y-89419430D01*
X114550323Y-89573501D01*
X114128342Y-89915056D01*
X113869190Y-90392097D01*
X113855007Y-90463725D01*
X112776000Y-90463725D01*
X112776000Y-89190325D01*
X126580930Y-89190325D01*
X127698500Y-90307895D01*
X128816070Y-89190325D01*
X128692935Y-88902712D01*
X128010766Y-88642793D01*
X127281057Y-88663714D01*
X126704065Y-88902712D01*
X126580930Y-89190325D01*
X112776000Y-89190325D01*
X112776000Y-88054952D01*
X114037482Y-86450675D01*
X126580930Y-86450675D01*
X126704065Y-86738288D01*
X127386234Y-86998207D01*
X128115943Y-86977286D01*
X128692935Y-86738288D01*
X128816070Y-86450675D01*
X127698500Y-85333105D01*
X126580930Y-86450675D01*
X114037482Y-86450675D01*
X115303026Y-84841234D01*
X125853793Y-84841234D01*
X125874714Y-85570943D01*
X126113712Y-86147935D01*
X126401325Y-86271070D01*
X127518895Y-85153500D01*
X127878105Y-85153500D01*
X128995675Y-86271070D01*
X129283288Y-86147935D01*
X129543207Y-85465766D01*
X129522286Y-84736057D01*
X129283288Y-84159065D01*
X128995675Y-84035930D01*
X127878105Y-85153500D01*
X127518895Y-85153500D01*
X126401325Y-84035930D01*
X126113712Y-84159065D01*
X125853793Y-84841234D01*
X115303026Y-84841234D01*
X116077484Y-83856325D01*
X126580930Y-83856325D01*
X127698500Y-84973895D01*
X128816070Y-83856325D01*
X128692935Y-83568712D01*
X128010766Y-83308793D01*
X127281057Y-83329714D01*
X126704065Y-83568712D01*
X126580930Y-83856325D01*
X116077484Y-83856325D01*
X118231738Y-81116675D01*
X126580930Y-81116675D01*
X126704065Y-81404288D01*
X127386234Y-81664207D01*
X128115943Y-81643286D01*
X128692935Y-81404288D01*
X128816070Y-81116675D01*
X127698500Y-79999105D01*
X126580930Y-81116675D01*
X118231738Y-81116675D01*
X119497282Y-79507234D01*
X125853793Y-79507234D01*
X125874714Y-80236943D01*
X126113712Y-80813935D01*
X126401325Y-80937070D01*
X127518895Y-79819500D01*
X127878105Y-79819500D01*
X128995675Y-80937070D01*
X129283288Y-80813935D01*
X129543207Y-80131766D01*
X129522286Y-79402057D01*
X129283288Y-78825065D01*
X128995675Y-78701930D01*
X127878105Y-79819500D01*
X127518895Y-79819500D01*
X126401325Y-78701930D01*
X126113712Y-78825065D01*
X125853793Y-79507234D01*
X119497282Y-79507234D01*
X120271740Y-78522325D01*
X126580930Y-78522325D01*
X127698500Y-79639895D01*
X128816070Y-78522325D01*
X128692935Y-78234712D01*
X128010766Y-77974793D01*
X127281057Y-77995714D01*
X126704065Y-78234712D01*
X126580930Y-78522325D01*
X120271740Y-78522325D01*
X122425994Y-75782675D01*
X126580930Y-75782675D01*
X126704065Y-76070288D01*
X127386234Y-76330207D01*
X128115943Y-76309286D01*
X128692935Y-76070288D01*
X128816070Y-75782675D01*
X127698500Y-74665105D01*
X126580930Y-75782675D01*
X122425994Y-75782675D01*
X123691538Y-74173234D01*
X125853793Y-74173234D01*
X125874714Y-74902943D01*
X126113712Y-75479935D01*
X126401325Y-75603070D01*
X127518895Y-74485500D01*
X127878105Y-74485500D01*
X128995675Y-75603070D01*
X129283288Y-75479935D01*
X129543207Y-74797766D01*
X129522286Y-74068057D01*
X129283288Y-73491065D01*
X128995675Y-73367930D01*
X127878105Y-74485500D01*
X127518895Y-74485500D01*
X126401325Y-73367930D01*
X126113712Y-73491065D01*
X125853793Y-74173234D01*
X123691538Y-74173234D01*
X124432833Y-73230501D01*
X124454074Y-73188325D01*
X126580930Y-73188325D01*
X127698500Y-74305895D01*
X128816070Y-73188325D01*
X128692935Y-72900712D01*
X128010766Y-72640793D01*
X127281057Y-72661714D01*
X126704065Y-72900712D01*
X126580930Y-73188325D01*
X124454074Y-73188325D01*
X124455509Y-73185476D01*
X124460000Y-73152000D01*
X124460000Y-70448675D01*
X126580930Y-70448675D01*
X126704065Y-70736288D01*
X127386234Y-70996207D01*
X128115943Y-70975286D01*
X128692935Y-70736288D01*
X128816070Y-70448675D01*
X127698500Y-69331105D01*
X126580930Y-70448675D01*
X124460000Y-70448675D01*
X124460000Y-68839234D01*
X125853793Y-68839234D01*
X125874714Y-69568943D01*
X126113712Y-70145935D01*
X126401325Y-70269070D01*
X127518895Y-69151500D01*
X127878105Y-69151500D01*
X128995675Y-70269070D01*
X129283288Y-70145935D01*
X129543207Y-69463766D01*
X129522286Y-68734057D01*
X129283288Y-68157065D01*
X128995675Y-68033930D01*
X127878105Y-69151500D01*
X127518895Y-69151500D01*
X126401325Y-68033930D01*
X126113712Y-68157065D01*
X125853793Y-68839234D01*
X124460000Y-68839234D01*
X124460000Y-67854325D01*
X126580930Y-67854325D01*
X127698500Y-68971895D01*
X128816070Y-67854325D01*
X128692935Y-67566712D01*
X128010766Y-67306793D01*
X127281057Y-67327714D01*
X126704065Y-67566712D01*
X126580930Y-67854325D01*
X124460000Y-67854325D01*
X124460000Y-65114675D01*
X126580930Y-65114675D01*
X126704065Y-65402288D01*
X127386234Y-65662207D01*
X128115943Y-65641286D01*
X128692935Y-65402288D01*
X128816070Y-65114675D01*
X127698500Y-63997105D01*
X126580930Y-65114675D01*
X124460000Y-65114675D01*
X124460000Y-63505234D01*
X125853793Y-63505234D01*
X125874714Y-64234943D01*
X126113712Y-64811935D01*
X126401325Y-64935070D01*
X127518895Y-63817500D01*
X127878105Y-63817500D01*
X128995675Y-64935070D01*
X129283288Y-64811935D01*
X129543207Y-64129766D01*
X129522286Y-63400057D01*
X129283288Y-62823065D01*
X128995675Y-62699930D01*
X127878105Y-63817500D01*
X127518895Y-63817500D01*
X126401325Y-62699930D01*
X126113712Y-62823065D01*
X125853793Y-63505234D01*
X124460000Y-63505234D01*
X124460000Y-62520325D01*
X126580930Y-62520325D01*
X127698500Y-63637895D01*
X128816070Y-62520325D01*
X128692935Y-62232712D01*
X128010766Y-61972793D01*
X127281057Y-61993714D01*
X126704065Y-62232712D01*
X126580930Y-62520325D01*
X124460000Y-62520325D01*
X124460000Y-61087000D01*
X130302000Y-61087000D01*
X130302000Y-113411000D01*
X130302000Y-113411000D01*
G37*
X130302000Y-113411000D02*
X128596585Y-113411000D01*
X128756435Y-113344788D01*
X128879570Y-113057175D01*
X127762000Y-111939605D01*
X126644430Y-113057175D01*
X126767565Y-113344788D01*
X126941341Y-113411000D01*
X124325859Y-113411000D01*
X124026378Y-111447734D01*
X125917293Y-111447734D01*
X125938214Y-112177443D01*
X126177212Y-112754435D01*
X126464825Y-112877570D01*
X127582395Y-111760000D01*
X127941605Y-111760000D01*
X129059175Y-112877570D01*
X129346788Y-112754435D01*
X129606707Y-112072266D01*
X129585786Y-111342557D01*
X129346788Y-110765565D01*
X129059175Y-110642430D01*
X127941605Y-111760000D01*
X127582395Y-111760000D01*
X126464825Y-110642430D01*
X126177212Y-110765565D01*
X125917293Y-111447734D01*
X124026378Y-111447734D01*
X123876138Y-110462825D01*
X126644430Y-110462825D01*
X127762000Y-111580395D01*
X128879570Y-110462825D01*
X128756435Y-110175212D01*
X128074266Y-109915293D01*
X127344557Y-109936214D01*
X126767565Y-110175212D01*
X126644430Y-110462825D01*
X123876138Y-110462825D01*
X123467912Y-107786675D01*
X126580930Y-107786675D01*
X126704065Y-108074288D01*
X127386234Y-108334207D01*
X128115943Y-108313286D01*
X128692935Y-108074288D01*
X128816070Y-107786675D01*
X127698500Y-106669105D01*
X126580930Y-107786675D01*
X123467912Y-107786675D01*
X123222404Y-106177234D01*
X125853793Y-106177234D01*
X125874714Y-106906943D01*
X126113712Y-107483935D01*
X126401325Y-107607070D01*
X127518895Y-106489500D01*
X127878105Y-106489500D01*
X128995675Y-107607070D01*
X129283288Y-107483935D01*
X129543207Y-106801766D01*
X129522286Y-106072057D01*
X129283288Y-105495065D01*
X128995675Y-105371930D01*
X127878105Y-106489500D01*
X127518895Y-106489500D01*
X126401325Y-105371930D01*
X126113712Y-105495065D01*
X125853793Y-106177234D01*
X123222404Y-106177234D01*
X123072164Y-105192325D01*
X126580930Y-105192325D01*
X127698500Y-106309895D01*
X128816070Y-105192325D01*
X128692935Y-104904712D01*
X128010766Y-104644793D01*
X127281057Y-104665714D01*
X126704065Y-104904712D01*
X126580930Y-105192325D01*
X123072164Y-105192325D01*
X122654252Y-102452675D01*
X126580930Y-102452675D01*
X126704065Y-102740288D01*
X127386234Y-103000207D01*
X128115943Y-102979286D01*
X128692935Y-102740288D01*
X128816070Y-102452675D01*
X127698500Y-101335105D01*
X126580930Y-102452675D01*
X122654252Y-102452675D01*
X122408743Y-100843234D01*
X125853793Y-100843234D01*
X125874714Y-101572943D01*
X126113712Y-102149935D01*
X126401325Y-102273070D01*
X127518895Y-101155500D01*
X127878105Y-101155500D01*
X128995675Y-102273070D01*
X129283288Y-102149935D01*
X129543207Y-101467766D01*
X129522286Y-100738057D01*
X129283288Y-100161065D01*
X128995675Y-100037930D01*
X127878105Y-101155500D01*
X127518895Y-101155500D01*
X126401325Y-100037930D01*
X126113712Y-100161065D01*
X125853793Y-100843234D01*
X122408743Y-100843234D01*
X122258503Y-99858325D01*
X126580930Y-99858325D01*
X127698500Y-100975895D01*
X128816070Y-99858325D01*
X128692935Y-99570712D01*
X128010766Y-99310793D01*
X127281057Y-99331714D01*
X126704065Y-99570712D01*
X126580930Y-99858325D01*
X122258503Y-99858325D01*
X121840591Y-97118675D01*
X126580930Y-97118675D01*
X126704065Y-97406288D01*
X127386234Y-97666207D01*
X128115943Y-97645286D01*
X128692935Y-97406288D01*
X128816070Y-97118675D01*
X127698500Y-96001105D01*
X126580930Y-97118675D01*
X121840591Y-97118675D01*
X121595082Y-95509234D01*
X125853793Y-95509234D01*
X125874714Y-96238943D01*
X126113712Y-96815935D01*
X126401325Y-96939070D01*
X127518895Y-95821500D01*
X127878105Y-95821500D01*
X128995675Y-96939070D01*
X129283288Y-96815935D01*
X129543207Y-96133766D01*
X129522286Y-95404057D01*
X129283288Y-94827065D01*
X128995675Y-94703930D01*
X127878105Y-95821500D01*
X127518895Y-95821500D01*
X126401325Y-94703930D01*
X126113712Y-94827065D01*
X125853793Y-95509234D01*
X121595082Y-95509234D01*
X121444842Y-94524325D01*
X126580930Y-94524325D01*
X127698500Y-95641895D01*
X128816070Y-94524325D01*
X128692935Y-94236712D01*
X128010766Y-93976793D01*
X127281057Y-93997714D01*
X126704065Y-94236712D01*
X126580930Y-94524325D01*
X121444842Y-94524325D01*
X121029548Y-91801849D01*
X121023256Y-91784675D01*
X126580930Y-91784675D01*
X126704065Y-92072288D01*
X127386234Y-92332207D01*
X128115943Y-92311286D01*
X128692935Y-92072288D01*
X128816070Y-91784675D01*
X127698500Y-90667105D01*
X126580930Y-91784675D01*
X121023256Y-91784675D01*
X121012205Y-91754512D01*
X120977813Y-91717653D01*
X120931790Y-91697078D01*
X120904000Y-91694000D01*
X117266171Y-91694000D01*
X117524810Y-91217903D01*
X117538993Y-91146275D01*
X117416339Y-90932000D01*
X115824000Y-90932000D01*
X115824000Y-90952000D01*
X115570000Y-90952000D01*
X115570000Y-90932000D01*
X113977661Y-90932000D01*
X113855007Y-91146275D01*
X113869190Y-91217903D01*
X114127829Y-91694000D01*
X112776000Y-91694000D01*
X112776000Y-90463725D01*
X113855007Y-90463725D01*
X113977661Y-90678000D01*
X115570000Y-90678000D01*
X115570000Y-89419430D01*
X115824000Y-89419430D01*
X115824000Y-90678000D01*
X117416339Y-90678000D01*
X117538993Y-90463725D01*
X117524810Y-90392097D01*
X117407000Y-90175234D01*
X125853793Y-90175234D01*
X125874714Y-90904943D01*
X126113712Y-91481935D01*
X126401325Y-91605070D01*
X127518895Y-90487500D01*
X127878105Y-90487500D01*
X128995675Y-91605070D01*
X129283288Y-91481935D01*
X129543207Y-90799766D01*
X129522286Y-90070057D01*
X129283288Y-89493065D01*
X128995675Y-89369930D01*
X127878105Y-90487500D01*
X127518895Y-90487500D01*
X126401325Y-89369930D01*
X126113712Y-89493065D01*
X125853793Y-90175234D01*
X117407000Y-90175234D01*
X117265658Y-89915056D01*
X116843677Y-89573501D01*
X116323110Y-89419430D01*
X115824000Y-89419430D01*
X115570000Y-89419430D01*
X115070890Y-89419430D01*
X114550323Y-89573501D01*
X114128342Y-89915056D01*
X113869190Y-90392097D01*
X113855007Y-90463725D01*
X112776000Y-90463725D01*
X112776000Y-89190325D01*
X126580930Y-89190325D01*
X127698500Y-90307895D01*
X128816070Y-89190325D01*
X128692935Y-88902712D01*
X128010766Y-88642793D01*
X127281057Y-88663714D01*
X126704065Y-88902712D01*
X126580930Y-89190325D01*
X112776000Y-89190325D01*
X112776000Y-88054952D01*
X114037482Y-86450675D01*
X126580930Y-86450675D01*
X126704065Y-86738288D01*
X127386234Y-86998207D01*
X128115943Y-86977286D01*
X128692935Y-86738288D01*
X128816070Y-86450675D01*
X127698500Y-85333105D01*
X126580930Y-86450675D01*
X114037482Y-86450675D01*
X115303026Y-84841234D01*
X125853793Y-84841234D01*
X125874714Y-85570943D01*
X126113712Y-86147935D01*
X126401325Y-86271070D01*
X127518895Y-85153500D01*
X127878105Y-85153500D01*
X128995675Y-86271070D01*
X129283288Y-86147935D01*
X129543207Y-85465766D01*
X129522286Y-84736057D01*
X129283288Y-84159065D01*
X128995675Y-84035930D01*
X127878105Y-85153500D01*
X127518895Y-85153500D01*
X126401325Y-84035930D01*
X126113712Y-84159065D01*
X125853793Y-84841234D01*
X115303026Y-84841234D01*
X116077484Y-83856325D01*
X126580930Y-83856325D01*
X127698500Y-84973895D01*
X128816070Y-83856325D01*
X128692935Y-83568712D01*
X128010766Y-83308793D01*
X127281057Y-83329714D01*
X126704065Y-83568712D01*
X126580930Y-83856325D01*
X116077484Y-83856325D01*
X118231738Y-81116675D01*
X126580930Y-81116675D01*
X126704065Y-81404288D01*
X127386234Y-81664207D01*
X128115943Y-81643286D01*
X128692935Y-81404288D01*
X128816070Y-81116675D01*
X127698500Y-79999105D01*
X126580930Y-81116675D01*
X118231738Y-81116675D01*
X119497282Y-79507234D01*
X125853793Y-79507234D01*
X125874714Y-80236943D01*
X126113712Y-80813935D01*
X126401325Y-80937070D01*
X127518895Y-79819500D01*
X127878105Y-79819500D01*
X128995675Y-80937070D01*
X129283288Y-80813935D01*
X129543207Y-80131766D01*
X129522286Y-79402057D01*
X129283288Y-78825065D01*
X128995675Y-78701930D01*
X127878105Y-79819500D01*
X127518895Y-79819500D01*
X126401325Y-78701930D01*
X126113712Y-78825065D01*
X125853793Y-79507234D01*
X119497282Y-79507234D01*
X120271740Y-78522325D01*
X126580930Y-78522325D01*
X127698500Y-79639895D01*
X128816070Y-78522325D01*
X128692935Y-78234712D01*
X128010766Y-77974793D01*
X127281057Y-77995714D01*
X126704065Y-78234712D01*
X126580930Y-78522325D01*
X120271740Y-78522325D01*
X122425994Y-75782675D01*
X126580930Y-75782675D01*
X126704065Y-76070288D01*
X127386234Y-76330207D01*
X128115943Y-76309286D01*
X128692935Y-76070288D01*
X128816070Y-75782675D01*
X127698500Y-74665105D01*
X126580930Y-75782675D01*
X122425994Y-75782675D01*
X123691538Y-74173234D01*
X125853793Y-74173234D01*
X125874714Y-74902943D01*
X126113712Y-75479935D01*
X126401325Y-75603070D01*
X127518895Y-74485500D01*
X127878105Y-74485500D01*
X128995675Y-75603070D01*
X129283288Y-75479935D01*
X129543207Y-74797766D01*
X129522286Y-74068057D01*
X129283288Y-73491065D01*
X128995675Y-73367930D01*
X127878105Y-74485500D01*
X127518895Y-74485500D01*
X126401325Y-73367930D01*
X126113712Y-73491065D01*
X125853793Y-74173234D01*
X123691538Y-74173234D01*
X124432833Y-73230501D01*
X124454074Y-73188325D01*
X126580930Y-73188325D01*
X127698500Y-74305895D01*
X128816070Y-73188325D01*
X128692935Y-72900712D01*
X128010766Y-72640793D01*
X127281057Y-72661714D01*
X126704065Y-72900712D01*
X126580930Y-73188325D01*
X124454074Y-73188325D01*
X124455509Y-73185476D01*
X124460000Y-73152000D01*
X124460000Y-70448675D01*
X126580930Y-70448675D01*
X126704065Y-70736288D01*
X127386234Y-70996207D01*
X128115943Y-70975286D01*
X128692935Y-70736288D01*
X128816070Y-70448675D01*
X127698500Y-69331105D01*
X126580930Y-70448675D01*
X124460000Y-70448675D01*
X124460000Y-68839234D01*
X125853793Y-68839234D01*
X125874714Y-69568943D01*
X126113712Y-70145935D01*
X126401325Y-70269070D01*
X127518895Y-69151500D01*
X127878105Y-69151500D01*
X128995675Y-70269070D01*
X129283288Y-70145935D01*
X129543207Y-69463766D01*
X129522286Y-68734057D01*
X129283288Y-68157065D01*
X128995675Y-68033930D01*
X127878105Y-69151500D01*
X127518895Y-69151500D01*
X126401325Y-68033930D01*
X126113712Y-68157065D01*
X125853793Y-68839234D01*
X124460000Y-68839234D01*
X124460000Y-67854325D01*
X126580930Y-67854325D01*
X127698500Y-68971895D01*
X128816070Y-67854325D01*
X128692935Y-67566712D01*
X128010766Y-67306793D01*
X127281057Y-67327714D01*
X126704065Y-67566712D01*
X126580930Y-67854325D01*
X124460000Y-67854325D01*
X124460000Y-65114675D01*
X126580930Y-65114675D01*
X126704065Y-65402288D01*
X127386234Y-65662207D01*
X128115943Y-65641286D01*
X128692935Y-65402288D01*
X128816070Y-65114675D01*
X127698500Y-63997105D01*
X126580930Y-65114675D01*
X124460000Y-65114675D01*
X124460000Y-63505234D01*
X125853793Y-63505234D01*
X125874714Y-64234943D01*
X126113712Y-64811935D01*
X126401325Y-64935070D01*
X127518895Y-63817500D01*
X127878105Y-63817500D01*
X128995675Y-64935070D01*
X129283288Y-64811935D01*
X129543207Y-64129766D01*
X129522286Y-63400057D01*
X129283288Y-62823065D01*
X128995675Y-62699930D01*
X127878105Y-63817500D01*
X127518895Y-63817500D01*
X126401325Y-62699930D01*
X126113712Y-62823065D01*
X125853793Y-63505234D01*
X124460000Y-63505234D01*
X124460000Y-62520325D01*
X126580930Y-62520325D01*
X127698500Y-63637895D01*
X128816070Y-62520325D01*
X128692935Y-62232712D01*
X128010766Y-61972793D01*
X127281057Y-61993714D01*
X126704065Y-62232712D01*
X126580930Y-62520325D01*
X124460000Y-62520325D01*
X124460000Y-61087000D01*
X130302000Y-61087000D01*
X130302000Y-113411000D01*
G36*
X111341611Y-61491967D02*
X111090319Y-61888714D01*
X112966500Y-63764895D01*
X114842681Y-61888714D01*
X114591389Y-61491967D01*
X113602794Y-61087000D01*
X123698000Y-61087000D01*
X123698000Y-72853891D01*
X111787341Y-87932278D01*
X111764566Y-87977253D01*
X111760062Y-88007033D01*
X111633062Y-92071033D01*
X111633000Y-92075000D01*
X111633000Y-92329000D01*
X111643006Y-92378410D01*
X111671447Y-92420035D01*
X111713841Y-92447315D01*
X111760000Y-92456000D01*
X114127829Y-92456000D01*
X113869190Y-92932097D01*
X113855007Y-93003725D01*
X113977661Y-93218000D01*
X115570000Y-93218000D01*
X115570000Y-93198000D01*
X115824000Y-93198000D01*
X115824000Y-93218000D01*
X117416339Y-93218000D01*
X117538993Y-93003725D01*
X117524810Y-92932097D01*
X117266171Y-92456000D01*
X120286034Y-92456000D01*
X123424329Y-114173000D01*
X99822000Y-114173000D01*
X99822000Y-106467815D01*
X109751630Y-106467815D01*
X110075980Y-107252800D01*
X110676041Y-107853909D01*
X111460459Y-108179628D01*
X112309815Y-108180370D01*
X113094800Y-107856020D01*
X113695909Y-107255959D01*
X114021628Y-106471541D01*
X114022370Y-105622185D01*
X113698020Y-104837200D01*
X113097959Y-104236091D01*
X112313541Y-103910372D01*
X111464185Y-103909630D01*
X110679200Y-104233980D01*
X110078091Y-104834041D01*
X109752372Y-105618459D01*
X109751630Y-106467815D01*
X99822000Y-106467815D01*
X99822000Y-95885000D01*
X113775397Y-95885000D01*
X113880867Y-96415235D01*
X114181221Y-96864746D01*
X114630732Y-97165100D01*
X115160967Y-97270570D01*
X116233033Y-97270570D01*
X116763268Y-97165100D01*
X117212779Y-96864746D01*
X117513133Y-96415235D01*
X117618603Y-95885000D01*
X117513133Y-95354765D01*
X117212779Y-94905254D01*
X116763268Y-94604900D01*
X116753968Y-94603050D01*
X116843677Y-94576499D01*
X117265658Y-94234944D01*
X117524810Y-93757903D01*
X117538993Y-93686275D01*
X117416339Y-93472000D01*
X115824000Y-93472000D01*
X115824000Y-93492000D01*
X115570000Y-93492000D01*
X115570000Y-93472000D01*
X113977661Y-93472000D01*
X113855007Y-93686275D01*
X113869190Y-93757903D01*
X114128342Y-94234944D01*
X114550323Y-94576499D01*
X114640032Y-94603050D01*
X114630732Y-94604900D01*
X114181221Y-94905254D01*
X113880867Y-95354765D01*
X113775397Y-95885000D01*
X99822000Y-95885000D01*
X99822000Y-81067815D01*
X109751630Y-81067815D01*
X110075980Y-81852800D01*
X110676041Y-82453909D01*
X111460459Y-82779628D01*
X112309815Y-82780370D01*
X113094800Y-82456020D01*
X113695909Y-81855959D01*
X114021628Y-81071541D01*
X114022370Y-80222185D01*
X113698020Y-79437200D01*
X113097959Y-78836091D01*
X112313541Y-78510372D01*
X111464185Y-78509630D01*
X110679200Y-78833980D01*
X110078091Y-79434041D01*
X109752372Y-80218459D01*
X109751630Y-81067815D01*
X99822000Y-81067815D01*
X99822000Y-70865931D01*
X110080560Y-70865931D01*
X110518917Y-71926835D01*
X111329896Y-72739231D01*
X112390033Y-73179438D01*
X113537931Y-73180440D01*
X114598835Y-72742083D01*
X115411231Y-71931104D01*
X115851438Y-70870967D01*
X115852344Y-69832403D01*
X118814682Y-69832403D01*
X119093455Y-70507086D01*
X119609199Y-71023730D01*
X120283395Y-71303681D01*
X121013403Y-71304318D01*
X121688086Y-71025545D01*
X122204730Y-70509801D01*
X122484681Y-69835605D01*
X122485318Y-69105597D01*
X122206545Y-68430914D01*
X121690801Y-67914270D01*
X121016605Y-67634319D01*
X120286597Y-67633682D01*
X119611914Y-67912455D01*
X119095270Y-68428199D01*
X118815319Y-69102395D01*
X118814682Y-69832403D01*
X115852344Y-69832403D01*
X115852440Y-69723069D01*
X115414083Y-68662165D01*
X114603104Y-67849769D01*
X113542967Y-67409562D01*
X112395069Y-67408560D01*
X111334165Y-67846917D01*
X110521769Y-68657896D01*
X110081562Y-69718033D01*
X110080560Y-70865931D01*
X99822000Y-70865931D01*
X99822000Y-67099540D01*
X101354518Y-67099540D01*
X101777616Y-68123515D01*
X102560365Y-68907631D01*
X103583599Y-69332515D01*
X104691540Y-69333482D01*
X105715515Y-68910384D01*
X106499631Y-68127635D01*
X106924515Y-67104401D01*
X106925478Y-66000286D01*
X111090319Y-66000286D01*
X111341611Y-66397033D01*
X112403842Y-66832164D01*
X113551733Y-66827673D01*
X114591389Y-66397033D01*
X114842681Y-66000286D01*
X112966500Y-64124105D01*
X111090319Y-66000286D01*
X106925478Y-66000286D01*
X106925482Y-65996460D01*
X106502384Y-64972485D01*
X105719635Y-64188369D01*
X104696401Y-63763485D01*
X103588460Y-63762518D01*
X102564485Y-64185616D01*
X101780369Y-64968365D01*
X101355485Y-65991599D01*
X101354518Y-67099540D01*
X99822000Y-67099540D01*
X99822000Y-63381842D01*
X110078836Y-63381842D01*
X110083327Y-64529733D01*
X110513967Y-65569389D01*
X110910714Y-65820681D01*
X112786895Y-63944500D01*
X113146105Y-63944500D01*
X115022286Y-65820681D01*
X115108341Y-65766175D01*
X119532430Y-65766175D01*
X119655565Y-66053788D01*
X120337734Y-66313707D01*
X121067443Y-66292786D01*
X121644435Y-66053788D01*
X121767570Y-65766175D01*
X120650000Y-64648605D01*
X119532430Y-65766175D01*
X115108341Y-65766175D01*
X115419033Y-65569389D01*
X115854164Y-64507158D01*
X115852794Y-64156734D01*
X118805293Y-64156734D01*
X118826214Y-64886443D01*
X119065212Y-65463435D01*
X119352825Y-65586570D01*
X120470395Y-64469000D01*
X120829605Y-64469000D01*
X121947175Y-65586570D01*
X122234788Y-65463435D01*
X122494707Y-64781266D01*
X122473786Y-64051557D01*
X122234788Y-63474565D01*
X121947175Y-63351430D01*
X120829605Y-64469000D01*
X120470395Y-64469000D01*
X119352825Y-63351430D01*
X119065212Y-63474565D01*
X118805293Y-64156734D01*
X115852794Y-64156734D01*
X115849673Y-63359267D01*
X115772032Y-63171825D01*
X119532430Y-63171825D01*
X120650000Y-64289395D01*
X121767570Y-63171825D01*
X121644435Y-62884212D01*
X120962266Y-62624293D01*
X120232557Y-62645214D01*
X119655565Y-62884212D01*
X119532430Y-63171825D01*
X115772032Y-63171825D01*
X115419033Y-62319611D01*
X115022286Y-62068319D01*
X113146105Y-63944500D01*
X112786895Y-63944500D01*
X110910714Y-62068319D01*
X110513967Y-62319611D01*
X110078836Y-63381842D01*
X99822000Y-63381842D01*
X99822000Y-61087000D01*
X112319287Y-61087000D01*
X111341611Y-61491967D01*
X111341611Y-61491967D01*
G37*
X111341611Y-61491967D02*
X111090319Y-61888714D01*
X112966500Y-63764895D01*
X114842681Y-61888714D01*
X114591389Y-61491967D01*
X113602794Y-61087000D01*
X123698000Y-61087000D01*
X123698000Y-72853891D01*
X111787341Y-87932278D01*
X111764566Y-87977253D01*
X111760062Y-88007033D01*
X111633062Y-92071033D01*
X111633000Y-92075000D01*
X111633000Y-92329000D01*
X111643006Y-92378410D01*
X111671447Y-92420035D01*
X111713841Y-92447315D01*
X111760000Y-92456000D01*
X114127829Y-92456000D01*
X113869190Y-92932097D01*
X113855007Y-93003725D01*
X113977661Y-93218000D01*
X115570000Y-93218000D01*
X115570000Y-93198000D01*
X115824000Y-93198000D01*
X115824000Y-93218000D01*
X117416339Y-93218000D01*
X117538993Y-93003725D01*
X117524810Y-92932097D01*
X117266171Y-92456000D01*
X120286034Y-92456000D01*
X123424329Y-114173000D01*
X99822000Y-114173000D01*
X99822000Y-106467815D01*
X109751630Y-106467815D01*
X110075980Y-107252800D01*
X110676041Y-107853909D01*
X111460459Y-108179628D01*
X112309815Y-108180370D01*
X113094800Y-107856020D01*
X113695909Y-107255959D01*
X114021628Y-106471541D01*
X114022370Y-105622185D01*
X113698020Y-104837200D01*
X113097959Y-104236091D01*
X112313541Y-103910372D01*
X111464185Y-103909630D01*
X110679200Y-104233980D01*
X110078091Y-104834041D01*
X109752372Y-105618459D01*
X109751630Y-106467815D01*
X99822000Y-106467815D01*
X99822000Y-95885000D01*
X113775397Y-95885000D01*
X113880867Y-96415235D01*
X114181221Y-96864746D01*
X114630732Y-97165100D01*
X115160967Y-97270570D01*
X116233033Y-97270570D01*
X116763268Y-97165100D01*
X117212779Y-96864746D01*
X117513133Y-96415235D01*
X117618603Y-95885000D01*
X117513133Y-95354765D01*
X117212779Y-94905254D01*
X116763268Y-94604900D01*
X116753968Y-94603050D01*
X116843677Y-94576499D01*
X117265658Y-94234944D01*
X117524810Y-93757903D01*
X117538993Y-93686275D01*
X117416339Y-93472000D01*
X115824000Y-93472000D01*
X115824000Y-93492000D01*
X115570000Y-93492000D01*
X115570000Y-93472000D01*
X113977661Y-93472000D01*
X113855007Y-93686275D01*
X113869190Y-93757903D01*
X114128342Y-94234944D01*
X114550323Y-94576499D01*
X114640032Y-94603050D01*
X114630732Y-94604900D01*
X114181221Y-94905254D01*
X113880867Y-95354765D01*
X113775397Y-95885000D01*
X99822000Y-95885000D01*
X99822000Y-81067815D01*
X109751630Y-81067815D01*
X110075980Y-81852800D01*
X110676041Y-82453909D01*
X111460459Y-82779628D01*
X112309815Y-82780370D01*
X113094800Y-82456020D01*
X113695909Y-81855959D01*
X114021628Y-81071541D01*
X114022370Y-80222185D01*
X113698020Y-79437200D01*
X113097959Y-78836091D01*
X112313541Y-78510372D01*
X111464185Y-78509630D01*
X110679200Y-78833980D01*
X110078091Y-79434041D01*
X109752372Y-80218459D01*
X109751630Y-81067815D01*
X99822000Y-81067815D01*
X99822000Y-70865931D01*
X110080560Y-70865931D01*
X110518917Y-71926835D01*
X111329896Y-72739231D01*
X112390033Y-73179438D01*
X113537931Y-73180440D01*
X114598835Y-72742083D01*
X115411231Y-71931104D01*
X115851438Y-70870967D01*
X115852344Y-69832403D01*
X118814682Y-69832403D01*
X119093455Y-70507086D01*
X119609199Y-71023730D01*
X120283395Y-71303681D01*
X121013403Y-71304318D01*
X121688086Y-71025545D01*
X122204730Y-70509801D01*
X122484681Y-69835605D01*
X122485318Y-69105597D01*
X122206545Y-68430914D01*
X121690801Y-67914270D01*
X121016605Y-67634319D01*
X120286597Y-67633682D01*
X119611914Y-67912455D01*
X119095270Y-68428199D01*
X118815319Y-69102395D01*
X118814682Y-69832403D01*
X115852344Y-69832403D01*
X115852440Y-69723069D01*
X115414083Y-68662165D01*
X114603104Y-67849769D01*
X113542967Y-67409562D01*
X112395069Y-67408560D01*
X111334165Y-67846917D01*
X110521769Y-68657896D01*
X110081562Y-69718033D01*
X110080560Y-70865931D01*
X99822000Y-70865931D01*
X99822000Y-67099540D01*
X101354518Y-67099540D01*
X101777616Y-68123515D01*
X102560365Y-68907631D01*
X103583599Y-69332515D01*
X104691540Y-69333482D01*
X105715515Y-68910384D01*
X106499631Y-68127635D01*
X106924515Y-67104401D01*
X106925478Y-66000286D01*
X111090319Y-66000286D01*
X111341611Y-66397033D01*
X112403842Y-66832164D01*
X113551733Y-66827673D01*
X114591389Y-66397033D01*
X114842681Y-66000286D01*
X112966500Y-64124105D01*
X111090319Y-66000286D01*
X106925478Y-66000286D01*
X106925482Y-65996460D01*
X106502384Y-64972485D01*
X105719635Y-64188369D01*
X104696401Y-63763485D01*
X103588460Y-63762518D01*
X102564485Y-64185616D01*
X101780369Y-64968365D01*
X101355485Y-65991599D01*
X101354518Y-67099540D01*
X99822000Y-67099540D01*
X99822000Y-63381842D01*
X110078836Y-63381842D01*
X110083327Y-64529733D01*
X110513967Y-65569389D01*
X110910714Y-65820681D01*
X112786895Y-63944500D01*
X113146105Y-63944500D01*
X115022286Y-65820681D01*
X115108341Y-65766175D01*
X119532430Y-65766175D01*
X119655565Y-66053788D01*
X120337734Y-66313707D01*
X121067443Y-66292786D01*
X121644435Y-66053788D01*
X121767570Y-65766175D01*
X120650000Y-64648605D01*
X119532430Y-65766175D01*
X115108341Y-65766175D01*
X115419033Y-65569389D01*
X115854164Y-64507158D01*
X115852794Y-64156734D01*
X118805293Y-64156734D01*
X118826214Y-64886443D01*
X119065212Y-65463435D01*
X119352825Y-65586570D01*
X120470395Y-64469000D01*
X120829605Y-64469000D01*
X121947175Y-65586570D01*
X122234788Y-65463435D01*
X122494707Y-64781266D01*
X122473786Y-64051557D01*
X122234788Y-63474565D01*
X121947175Y-63351430D01*
X120829605Y-64469000D01*
X120470395Y-64469000D01*
X119352825Y-63351430D01*
X119065212Y-63474565D01*
X118805293Y-64156734D01*
X115852794Y-64156734D01*
X115849673Y-63359267D01*
X115772032Y-63171825D01*
X119532430Y-63171825D01*
X120650000Y-64289395D01*
X121767570Y-63171825D01*
X121644435Y-62884212D01*
X120962266Y-62624293D01*
X120232557Y-62645214D01*
X119655565Y-62884212D01*
X119532430Y-63171825D01*
X115772032Y-63171825D01*
X115419033Y-62319611D01*
X115022286Y-62068319D01*
X113146105Y-63944500D01*
X112786895Y-63944500D01*
X110910714Y-62068319D01*
X110513967Y-62319611D01*
X110078836Y-63381842D01*
X99822000Y-63381842D01*
X99822000Y-61087000D01*
X112319287Y-61087000D01*
X111341611Y-61491967D01*
G36*
X159908560Y-61211000D02*
X159908560Y-63897045D01*
X159820090Y-63759559D01*
X159607890Y-63614569D01*
X159356000Y-63563560D01*
X155856000Y-63563560D01*
X155620683Y-63607838D01*
X155404559Y-63746910D01*
X155259569Y-63959110D01*
X155208560Y-64211000D01*
X155208560Y-67711000D01*
X155252838Y-67946317D01*
X155391910Y-68162441D01*
X155604110Y-68307431D01*
X155856000Y-68358440D01*
X159356000Y-68358440D01*
X159591317Y-68314162D01*
X159807441Y-68175090D01*
X159921000Y-68008891D01*
X159921000Y-68675250D01*
X160079750Y-68834000D01*
X162179000Y-68834000D01*
X162179000Y-66734750D01*
X162433000Y-66734750D01*
X162433000Y-68834000D01*
X164532250Y-68834000D01*
X164691000Y-68675250D01*
X164691000Y-67084691D01*
X164594327Y-66851302D01*
X164415699Y-66672673D01*
X164182310Y-66576000D01*
X162591750Y-66576000D01*
X162433000Y-66734750D01*
X162179000Y-66734750D01*
X162020250Y-66576000D01*
X160429690Y-66576000D01*
X160196301Y-66672673D01*
X160017673Y-66851302D01*
X160003440Y-66885663D01*
X160003440Y-65024955D01*
X160091910Y-65162441D01*
X160304110Y-65307431D01*
X160556000Y-65358440D01*
X164056000Y-65358440D01*
X164291317Y-65314162D01*
X164507441Y-65175090D01*
X164652431Y-64962890D01*
X164703440Y-64711000D01*
X164703440Y-61211000D01*
X164680108Y-61087000D01*
X170053000Y-61087000D01*
X170053000Y-112014000D01*
X169647286Y-112014000D01*
X169647286Y-111149000D01*
X166648715Y-111149000D01*
X166648715Y-114173000D01*
X136398000Y-114173000D01*
X136398000Y-110551630D01*
X137221157Y-109728474D01*
X137401110Y-109851431D01*
X137414197Y-109854081D01*
X137201559Y-109990910D01*
X137056569Y-110203110D01*
X137005560Y-110455000D01*
X137005560Y-111955000D01*
X137049838Y-112190317D01*
X137188910Y-112406441D01*
X137401110Y-112551431D01*
X137653000Y-112602440D01*
X138953000Y-112602440D01*
X139188317Y-112558162D01*
X139404441Y-112419090D01*
X139549431Y-112206890D01*
X139598010Y-111967000D01*
X141759182Y-111967000D01*
X141848910Y-112106441D01*
X142061110Y-112251431D01*
X142313000Y-112302440D01*
X143613000Y-112302440D01*
X143848317Y-112258162D01*
X144064441Y-112119090D01*
X144209431Y-111906890D01*
X144260440Y-111655000D01*
X144260440Y-110355000D01*
X144216162Y-110119683D01*
X144077090Y-109903559D01*
X144007289Y-109855866D01*
X144064441Y-109819090D01*
X144209431Y-109606890D01*
X144237759Y-109467000D01*
X144532929Y-109467000D01*
X144606341Y-109540540D01*
X144965630Y-109689730D01*
X145354663Y-109690069D01*
X145714212Y-109541507D01*
X145989540Y-109266659D01*
X146138730Y-108907370D01*
X146138775Y-108855000D01*
X147165560Y-108855000D01*
X147165560Y-110855000D01*
X147209838Y-111090317D01*
X147348910Y-111306441D01*
X147561110Y-111451431D01*
X147813000Y-111502440D01*
X149113000Y-111502440D01*
X149348317Y-111458162D01*
X149564441Y-111319090D01*
X149709431Y-111106890D01*
X149760440Y-110855000D01*
X149760440Y-109635190D01*
X151668816Y-107726815D01*
X151833997Y-107479604D01*
X151892000Y-107188000D01*
X151892000Y-106173618D01*
X152180054Y-105981147D01*
X152400000Y-105651974D01*
X152619946Y-105981147D01*
X152908000Y-106173618D01*
X152908000Y-107253370D01*
X152242185Y-107919185D01*
X152077004Y-108166395D01*
X152019000Y-108458000D01*
X152019000Y-109119560D01*
X151931000Y-109119560D01*
X151695683Y-109163838D01*
X151479559Y-109302910D01*
X151334569Y-109515110D01*
X151283560Y-109767000D01*
X151283560Y-111467000D01*
X151327838Y-111702317D01*
X151466910Y-111918441D01*
X151679110Y-112063431D01*
X151931000Y-112114440D01*
X153631000Y-112114440D01*
X153866317Y-112070162D01*
X154082441Y-111931090D01*
X154227431Y-111718890D01*
X154241086Y-111651459D01*
X154270946Y-111696147D01*
X154752715Y-112018054D01*
X155321000Y-112131093D01*
X155889285Y-112018054D01*
X156371054Y-111696147D01*
X156692961Y-111214378D01*
X156754947Y-110902750D01*
X159424000Y-110902750D01*
X159424000Y-111593309D01*
X159520673Y-111826698D01*
X159699301Y-112005327D01*
X159932690Y-112102000D01*
X160623250Y-112102000D01*
X160782000Y-111943250D01*
X160782000Y-110744000D01*
X159582750Y-110744000D01*
X159424000Y-110902750D01*
X156754947Y-110902750D01*
X156806000Y-110646093D01*
X156806000Y-110587907D01*
X156692961Y-110019622D01*
X156439768Y-109640691D01*
X159424000Y-109640691D01*
X159424000Y-110331250D01*
X159582750Y-110490000D01*
X160782000Y-110490000D01*
X160782000Y-109290750D01*
X161036000Y-109290750D01*
X161036000Y-110490000D01*
X161056000Y-110490000D01*
X161056000Y-110744000D01*
X161036000Y-110744000D01*
X161036000Y-111943250D01*
X161194750Y-112102000D01*
X161885310Y-112102000D01*
X162118699Y-112005327D01*
X162297327Y-111826698D01*
X162369597Y-111652223D01*
X162398946Y-111696147D01*
X162880715Y-112018054D01*
X163449000Y-112131093D01*
X164017285Y-112018054D01*
X164499054Y-111696147D01*
X164820961Y-111214378D01*
X164934000Y-110646093D01*
X164934000Y-110587907D01*
X164820961Y-110019622D01*
X164499054Y-109537853D01*
X164017285Y-109215946D01*
X163449000Y-109102907D01*
X162880715Y-109215946D01*
X162398946Y-109537853D01*
X162369597Y-109581777D01*
X162297327Y-109407302D01*
X162118699Y-109228673D01*
X161885310Y-109132000D01*
X161194750Y-109132000D01*
X161036000Y-109290750D01*
X160782000Y-109290750D01*
X160623250Y-109132000D01*
X159932690Y-109132000D01*
X159699301Y-109228673D01*
X159520673Y-109407302D01*
X159424000Y-109640691D01*
X156439768Y-109640691D01*
X156371054Y-109537853D01*
X155889285Y-109215946D01*
X155321000Y-109102907D01*
X154752715Y-109215946D01*
X154270946Y-109537853D01*
X154243150Y-109579452D01*
X154234162Y-109531683D01*
X154095090Y-109315559D01*
X153882890Y-109170569D01*
X153631000Y-109119560D01*
X153543000Y-109119560D01*
X153543000Y-108773630D01*
X154208815Y-108107815D01*
X154314264Y-107950000D01*
X154373996Y-107860605D01*
X154432000Y-107569000D01*
X154432000Y-106173618D01*
X154720054Y-105981147D01*
X154747850Y-105939548D01*
X154756838Y-105987317D01*
X154895910Y-106203441D01*
X155108110Y-106348431D01*
X155360000Y-106399440D01*
X157060000Y-106399440D01*
X157295317Y-106355162D01*
X157511441Y-106216090D01*
X157656431Y-106003890D01*
X157707440Y-105752000D01*
X157707440Y-104691540D01*
X162949518Y-104691540D01*
X163372616Y-105715515D01*
X164155365Y-106499631D01*
X165178599Y-106924515D01*
X166286540Y-106925482D01*
X167310515Y-106502384D01*
X168094631Y-105719635D01*
X168519515Y-104696401D01*
X168520482Y-103588460D01*
X168097384Y-102564485D01*
X167314635Y-101780369D01*
X166291401Y-101355485D01*
X165183460Y-101354518D01*
X164159485Y-101777616D01*
X163375369Y-102560365D01*
X162950485Y-103583599D01*
X162949518Y-104691540D01*
X157707440Y-104691540D01*
X157707440Y-104052000D01*
X157663162Y-103816683D01*
X157524090Y-103600559D01*
X157311890Y-103455569D01*
X157060000Y-103404560D01*
X156845000Y-103404560D01*
X156845000Y-102135440D01*
X157083000Y-102135440D01*
X157318317Y-102091162D01*
X157534441Y-101952090D01*
X157679431Y-101739890D01*
X157730440Y-101488000D01*
X157730440Y-100188000D01*
X157686162Y-99952683D01*
X157547090Y-99736559D01*
X157334890Y-99591569D01*
X157083000Y-99540560D01*
X155083000Y-99540560D01*
X154847683Y-99584838D01*
X154631559Y-99723910D01*
X154486569Y-99936110D01*
X154435560Y-100188000D01*
X154435560Y-101488000D01*
X154479838Y-101723317D01*
X154618910Y-101939441D01*
X154831110Y-102084431D01*
X155083000Y-102135440D01*
X155321000Y-102135440D01*
X155321000Y-103411898D01*
X155124683Y-103448838D01*
X154908559Y-103587910D01*
X154763569Y-103800110D01*
X154749914Y-103867541D01*
X154720054Y-103822853D01*
X154238285Y-103500946D01*
X153670000Y-103387907D01*
X153101715Y-103500946D01*
X152619946Y-103822853D01*
X152400000Y-104152026D01*
X152180054Y-103822853D01*
X151698285Y-103500946D01*
X151130000Y-103387907D01*
X150561715Y-103500946D01*
X150079946Y-103822853D01*
X149758039Y-104304622D01*
X149645000Y-104872907D01*
X149645000Y-104931093D01*
X149758039Y-105499378D01*
X150079946Y-105981147D01*
X150368000Y-106173618D01*
X150368000Y-106872369D01*
X149032810Y-108207560D01*
X147813000Y-108207560D01*
X147577683Y-108251838D01*
X147361559Y-108390910D01*
X147216569Y-108603110D01*
X147165560Y-108855000D01*
X146138775Y-108855000D01*
X146139069Y-108518337D01*
X145990507Y-108158788D01*
X145715659Y-107883460D01*
X145356370Y-107734270D01*
X144967337Y-107733931D01*
X144607788Y-107882493D01*
X144547175Y-107943000D01*
X144239366Y-107943000D01*
X144216162Y-107819683D01*
X144077090Y-107603559D01*
X143864890Y-107458569D01*
X143613000Y-107407560D01*
X142313000Y-107407560D01*
X142077683Y-107451838D01*
X141861559Y-107590910D01*
X141716569Y-107803110D01*
X141665560Y-108055000D01*
X141665560Y-109355000D01*
X141709838Y-109590317D01*
X141848910Y-109806441D01*
X141918711Y-109854134D01*
X141861559Y-109890910D01*
X141716569Y-110103110D01*
X141665560Y-110355000D01*
X141665560Y-110443000D01*
X139598182Y-110443000D01*
X139556162Y-110219683D01*
X139417090Y-110003559D01*
X139204890Y-109858569D01*
X139191803Y-109855919D01*
X139404441Y-109719090D01*
X139549431Y-109506890D01*
X139600440Y-109255000D01*
X139600440Y-107755000D01*
X139556162Y-107519683D01*
X139417090Y-107303559D01*
X139204890Y-107158569D01*
X138953000Y-107107560D01*
X137653000Y-107107560D01*
X137417683Y-107151838D01*
X137201559Y-107290910D01*
X137056569Y-107503110D01*
X137005560Y-107755000D01*
X137005560Y-107847666D01*
X136986198Y-107860604D01*
X136828185Y-107966184D01*
X135097185Y-109697185D01*
X134932004Y-109944395D01*
X134874000Y-110236000D01*
X134874000Y-113411000D01*
X133646502Y-113411000D01*
X134175491Y-113057541D01*
X134573269Y-112462224D01*
X134712950Y-111760000D01*
X134573269Y-111057776D01*
X134175491Y-110462459D01*
X133580174Y-110064681D01*
X132877950Y-109925000D01*
X132806050Y-109925000D01*
X132103826Y-110064681D01*
X131508509Y-110462459D01*
X131110731Y-111057776D01*
X131064000Y-111292709D01*
X131064000Y-107216821D01*
X131445009Y-107787041D01*
X132040326Y-108184819D01*
X132742550Y-108324500D01*
X132814450Y-108324500D01*
X133516674Y-108184819D01*
X134111991Y-107787041D01*
X134509769Y-107191724D01*
X134649450Y-106489500D01*
X134509769Y-105787276D01*
X134111991Y-105191959D01*
X133516674Y-104794181D01*
X132814450Y-104654500D01*
X132742550Y-104654500D01*
X132040326Y-104794181D01*
X131445009Y-105191959D01*
X131064000Y-105762179D01*
X131064000Y-104648000D01*
X138303000Y-104648000D01*
X138594605Y-104589996D01*
X138841815Y-104424815D01*
X139877815Y-103388816D01*
X140042996Y-103141605D01*
X140064280Y-103034604D01*
X140096829Y-102870967D01*
X140324317Y-102828162D01*
X140540441Y-102689090D01*
X140588134Y-102619289D01*
X140624910Y-102676441D01*
X140837110Y-102821431D01*
X141089000Y-102872440D01*
X142589000Y-102872440D01*
X142824317Y-102828162D01*
X143040441Y-102689090D01*
X143185431Y-102476890D01*
X143208697Y-102362000D01*
X144210370Y-102362000D01*
X144227321Y-102378951D01*
X144154907Y-102743000D01*
X144267946Y-103311285D01*
X144589853Y-103793054D01*
X145071622Y-104114961D01*
X145639907Y-104228000D01*
X145698093Y-104228000D01*
X146266378Y-104114961D01*
X146748147Y-103793054D01*
X147070054Y-103311285D01*
X147183093Y-102743000D01*
X147070054Y-102174715D01*
X146748147Y-101692946D01*
X146418974Y-101473000D01*
X146748147Y-101253054D01*
X147070054Y-100771285D01*
X147183093Y-100203000D01*
X147152820Y-100050810D01*
X147985815Y-99217816D01*
X148150996Y-98970605D01*
X148178757Y-98831039D01*
X148209000Y-98679000D01*
X148209000Y-98312630D01*
X148562560Y-98666191D01*
X148562560Y-99636000D01*
X148606838Y-99871317D01*
X148745910Y-100087441D01*
X148958110Y-100232431D01*
X149210000Y-100283440D01*
X150510000Y-100283440D01*
X150745317Y-100239162D01*
X150961441Y-100100090D01*
X151106431Y-99887890D01*
X151157440Y-99636000D01*
X151157440Y-98710750D01*
X160821000Y-98710750D01*
X160821000Y-99401310D01*
X160917673Y-99634699D01*
X161096302Y-99813327D01*
X161329691Y-99910000D01*
X162020250Y-99910000D01*
X162179000Y-99751250D01*
X162179000Y-98552000D01*
X162433000Y-98552000D01*
X162433000Y-99751250D01*
X162591750Y-99910000D01*
X163282309Y-99910000D01*
X163515698Y-99813327D01*
X163694327Y-99634699D01*
X163729514Y-99549750D01*
X164895000Y-99549750D01*
X164895000Y-100230309D01*
X164991673Y-100463698D01*
X165170301Y-100642327D01*
X165403690Y-100739000D01*
X166084250Y-100739000D01*
X166243000Y-100580250D01*
X166243000Y-99391000D01*
X166497000Y-99391000D01*
X166497000Y-100580250D01*
X166655750Y-100739000D01*
X167336310Y-100739000D01*
X167569699Y-100642327D01*
X167748327Y-100463698D01*
X167845000Y-100230309D01*
X167845000Y-99549750D01*
X167686250Y-99391000D01*
X166497000Y-99391000D01*
X166243000Y-99391000D01*
X165053750Y-99391000D01*
X164895000Y-99549750D01*
X163729514Y-99549750D01*
X163791000Y-99401310D01*
X163791000Y-98710750D01*
X163632250Y-98552000D01*
X162433000Y-98552000D01*
X162179000Y-98552000D01*
X160979750Y-98552000D01*
X160821000Y-98710750D01*
X151157440Y-98710750D01*
X151157440Y-98136000D01*
X151113162Y-97900683D01*
X150974090Y-97684559D01*
X150761890Y-97539569D01*
X150748803Y-97536919D01*
X150961441Y-97400090D01*
X151106431Y-97187890D01*
X151155010Y-96948000D01*
X154085000Y-96948000D01*
X154376605Y-96889996D01*
X154623815Y-96724815D01*
X154713190Y-96635440D01*
X155583000Y-96635440D01*
X155818317Y-96591162D01*
X156034441Y-96452090D01*
X156082134Y-96382289D01*
X156118910Y-96439441D01*
X156331110Y-96584431D01*
X156471000Y-96612759D01*
X156471000Y-96780929D01*
X156397460Y-96854341D01*
X156248270Y-97213630D01*
X156247931Y-97602663D01*
X156396493Y-97962212D01*
X156671341Y-98237540D01*
X157030630Y-98386730D01*
X157419663Y-98387069D01*
X157779212Y-98238507D01*
X158054540Y-97963659D01*
X158203730Y-97604370D01*
X158204069Y-97215337D01*
X158055507Y-96855788D01*
X157995000Y-96795175D01*
X157995000Y-96614366D01*
X158118317Y-96591162D01*
X158334441Y-96452090D01*
X158479431Y-96239890D01*
X158530440Y-95988000D01*
X158530440Y-94688000D01*
X158486162Y-94452683D01*
X158347090Y-94236559D01*
X158134890Y-94091569D01*
X157883000Y-94040560D01*
X156583000Y-94040560D01*
X156347683Y-94084838D01*
X156131559Y-94223910D01*
X156083866Y-94293711D01*
X156047090Y-94236559D01*
X155834890Y-94091569D01*
X155583000Y-94040560D01*
X154283000Y-94040560D01*
X154047683Y-94084838D01*
X153831559Y-94223910D01*
X153686569Y-94436110D01*
X153635560Y-94688000D01*
X153635560Y-95424000D01*
X151155182Y-95424000D01*
X151113162Y-95200683D01*
X150974090Y-94984559D01*
X150761890Y-94839569D01*
X150510000Y-94788560D01*
X149444477Y-94788560D01*
X149479000Y-94615000D01*
X149479000Y-94225319D01*
X149687000Y-94267440D01*
X150287000Y-94267440D01*
X150522317Y-94223162D01*
X150738441Y-94084090D01*
X150883431Y-93871890D01*
X150934440Y-93620000D01*
X150934440Y-92120000D01*
X150890162Y-91884683D01*
X150751090Y-91668559D01*
X150538890Y-91523569D01*
X150287000Y-91472560D01*
X149687000Y-91472560D01*
X149451683Y-91516838D01*
X149352472Y-91580678D01*
X149268890Y-91523569D01*
X149017000Y-91472560D01*
X148417000Y-91472560D01*
X148181683Y-91516838D01*
X148082472Y-91580678D01*
X147998890Y-91523569D01*
X147747000Y-91472560D01*
X147147000Y-91472560D01*
X146911683Y-91516838D01*
X146812472Y-91580678D01*
X146728890Y-91523569D01*
X146703690Y-91518466D01*
X146730212Y-91507507D01*
X147005540Y-91232659D01*
X147154730Y-90873370D01*
X147155069Y-90484337D01*
X147025188Y-90170000D01*
X148082000Y-90170000D01*
X148373605Y-90111996D01*
X148620815Y-89946815D01*
X149255816Y-89311815D01*
X149365999Y-89146914D01*
X149420996Y-89064605D01*
X149468996Y-88823293D01*
X149687000Y-88867440D01*
X149892810Y-88867440D01*
X151607185Y-90581815D01*
X151854395Y-90746996D01*
X152146000Y-90805000D01*
X152270560Y-90805000D01*
X152270560Y-92170000D01*
X152314838Y-92405317D01*
X152453910Y-92621441D01*
X152629348Y-92741313D01*
X152565270Y-92895630D01*
X152564931Y-93284663D01*
X152713493Y-93644212D01*
X152988341Y-93919540D01*
X153347630Y-94068730D01*
X153736663Y-94069069D01*
X154096212Y-93920507D01*
X154371540Y-93645659D01*
X154520730Y-93286370D01*
X154521069Y-92897337D01*
X154455805Y-92739387D01*
X154619441Y-92634090D01*
X154764431Y-92421890D01*
X154815440Y-92170000D01*
X154815440Y-90805000D01*
X155005370Y-90805000D01*
X155798185Y-91597815D01*
X156045395Y-91762996D01*
X156337000Y-91821000D01*
X160700938Y-91821000D01*
X160900235Y-92020645D01*
X161317244Y-92193803D01*
X161666560Y-92194108D01*
X161666560Y-92829000D01*
X161710838Y-93064317D01*
X161849910Y-93280441D01*
X161925000Y-93331748D01*
X161925000Y-94469999D01*
X161708622Y-94513039D01*
X161226853Y-94834946D01*
X160904946Y-95316715D01*
X160791907Y-95885000D01*
X160904946Y-96453285D01*
X161226853Y-96935054D01*
X161270777Y-96964403D01*
X161096302Y-97036673D01*
X160917673Y-97215301D01*
X160821000Y-97448690D01*
X160821000Y-98139250D01*
X160979750Y-98298000D01*
X162179000Y-98298000D01*
X162179000Y-98278000D01*
X162433000Y-98278000D01*
X162433000Y-98298000D01*
X163632250Y-98298000D01*
X163632559Y-98297691D01*
X164895000Y-98297691D01*
X164895000Y-98978250D01*
X165053750Y-99137000D01*
X166243000Y-99137000D01*
X166243000Y-97947750D01*
X166497000Y-97947750D01*
X166497000Y-99137000D01*
X167686250Y-99137000D01*
X167845000Y-98978250D01*
X167845000Y-98297691D01*
X167748327Y-98064302D01*
X167569699Y-97885673D01*
X167336310Y-97789000D01*
X166655750Y-97789000D01*
X166497000Y-97947750D01*
X166243000Y-97947750D01*
X166084250Y-97789000D01*
X165403690Y-97789000D01*
X165170301Y-97885673D01*
X164991673Y-98064302D01*
X164895000Y-98297691D01*
X163632559Y-98297691D01*
X163791000Y-98139250D01*
X163791000Y-97448690D01*
X163694327Y-97215301D01*
X163515698Y-97036673D01*
X163341223Y-96964403D01*
X163385147Y-96935054D01*
X163707054Y-96453285D01*
X163719045Y-96393000D01*
X164891780Y-96393000D01*
X164926838Y-96579317D01*
X165065910Y-96795441D01*
X165278110Y-96940431D01*
X165530000Y-96991440D01*
X167210000Y-96991440D01*
X167445317Y-96947162D01*
X167661441Y-96808090D01*
X167806431Y-96595890D01*
X167857440Y-96344000D01*
X167857440Y-94664000D01*
X167813162Y-94428683D01*
X167674090Y-94212559D01*
X167461890Y-94067569D01*
X167210000Y-94016560D01*
X165530000Y-94016560D01*
X165294683Y-94060838D01*
X165078559Y-94199910D01*
X164933569Y-94412110D01*
X164892483Y-94615000D01*
X163703000Y-94615000D01*
X163703000Y-93333270D01*
X163765441Y-93293090D01*
X163910431Y-93080890D01*
X163961440Y-92829000D01*
X163961440Y-91829000D01*
X163917162Y-91593683D01*
X163778090Y-91377559D01*
X163565890Y-91232569D01*
X163314000Y-91181560D01*
X162678894Y-91181560D01*
X162679119Y-90923883D01*
X163038775Y-90924197D01*
X163456086Y-90751767D01*
X163775645Y-90432765D01*
X163948803Y-90015756D01*
X163949197Y-89564225D01*
X163776767Y-89146914D01*
X163703000Y-89073018D01*
X163703000Y-88138000D01*
X163664956Y-87946741D01*
X163665069Y-87817337D01*
X163516507Y-87457788D01*
X163241659Y-87182460D01*
X162882370Y-87033270D01*
X162493337Y-87032931D01*
X162133788Y-87181493D01*
X161858460Y-87456341D01*
X161709270Y-87815630D01*
X161708931Y-88204663D01*
X161857493Y-88564212D01*
X161925000Y-88631837D01*
X161925000Y-89072717D01*
X161852355Y-89145235D01*
X161679197Y-89562244D01*
X161678881Y-89924117D01*
X161319225Y-89923803D01*
X160901914Y-90096233D01*
X160700796Y-90297000D01*
X156652630Y-90297000D01*
X155859815Y-89504185D01*
X155715864Y-89408000D01*
X155612605Y-89339004D01*
X155321000Y-89281000D01*
X154803000Y-89281000D01*
X154803000Y-89205750D01*
X154644250Y-89047000D01*
X153670000Y-89047000D01*
X153670000Y-89067000D01*
X153416000Y-89067000D01*
X153416000Y-89047000D01*
X152441750Y-89047000D01*
X152334690Y-89154060D01*
X151224321Y-88043691D01*
X152283000Y-88043691D01*
X152283000Y-88634250D01*
X152441750Y-88793000D01*
X153416000Y-88793000D01*
X153416000Y-87693750D01*
X153670000Y-87693750D01*
X153670000Y-88793000D01*
X154644250Y-88793000D01*
X154803000Y-88634250D01*
X154803000Y-88043691D01*
X154706327Y-87810302D01*
X154527699Y-87631673D01*
X154294310Y-87535000D01*
X153828750Y-87535000D01*
X153670000Y-87693750D01*
X153416000Y-87693750D01*
X153257250Y-87535000D01*
X152791690Y-87535000D01*
X152558301Y-87631673D01*
X152379673Y-87810302D01*
X152283000Y-88043691D01*
X151224321Y-88043691D01*
X150934440Y-87753810D01*
X150934440Y-86720000D01*
X150890603Y-86487027D01*
X151191190Y-86186440D01*
X152161000Y-86186440D01*
X152396317Y-86142162D01*
X152612441Y-86003090D01*
X152757431Y-85790890D01*
X152808440Y-85539000D01*
X152808440Y-84846950D01*
X152839004Y-85000605D01*
X152923863Y-85127605D01*
X153004185Y-85247815D01*
X154281185Y-86524816D01*
X154365560Y-86581193D01*
X154365560Y-86636000D01*
X154409838Y-86871317D01*
X154548910Y-87087441D01*
X154761110Y-87232431D01*
X155013000Y-87283440D01*
X156313000Y-87283440D01*
X156548317Y-87239162D01*
X156764441Y-87100090D01*
X156909431Y-86887890D01*
X156960440Y-86636000D01*
X156960440Y-85336000D01*
X156916162Y-85100683D01*
X156777090Y-84884559D01*
X156707289Y-84836866D01*
X156764441Y-84800090D01*
X156909431Y-84587890D01*
X156960440Y-84336000D01*
X156960440Y-83836000D01*
X159865560Y-83836000D01*
X159865560Y-85836000D01*
X159909838Y-86071317D01*
X160048910Y-86287441D01*
X160261110Y-86432431D01*
X160513000Y-86483440D01*
X161813000Y-86483440D01*
X162048317Y-86439162D01*
X162264441Y-86300090D01*
X162409431Y-86087890D01*
X162460440Y-85836000D01*
X162460440Y-85611547D01*
X162513341Y-85664540D01*
X162872630Y-85813730D01*
X162968182Y-85813813D01*
X163017184Y-85862815D01*
X163201544Y-85986000D01*
X163264395Y-86027996D01*
X163446560Y-86064231D01*
X163446560Y-86074000D01*
X163490838Y-86309317D01*
X163629910Y-86525441D01*
X163842110Y-86670431D01*
X164094000Y-86721440D01*
X165344000Y-86721440D01*
X165579317Y-86677162D01*
X165795441Y-86538090D01*
X165940431Y-86325890D01*
X165991440Y-86074000D01*
X165991440Y-84574000D01*
X165947162Y-84338683D01*
X165808090Y-84122559D01*
X165739994Y-84076031D01*
X165882327Y-83933698D01*
X165979000Y-83700309D01*
X165979000Y-83109750D01*
X165820250Y-82951000D01*
X164846000Y-82951000D01*
X164846000Y-82971000D01*
X164592000Y-82971000D01*
X164592000Y-82951000D01*
X163617750Y-82951000D01*
X163459000Y-83109750D01*
X163459000Y-83700309D01*
X163555673Y-83933698D01*
X163696910Y-84074936D01*
X163692713Y-84077637D01*
X163622659Y-84007460D01*
X163263370Y-83858270D01*
X162874337Y-83857931D01*
X162514788Y-84006493D01*
X162460440Y-84060746D01*
X162460440Y-83836000D01*
X162416162Y-83600683D01*
X162277090Y-83384559D01*
X162064890Y-83239569D01*
X161813000Y-83188560D01*
X160513000Y-83188560D01*
X160277683Y-83232838D01*
X160061559Y-83371910D01*
X159916569Y-83584110D01*
X159865560Y-83836000D01*
X156960440Y-83836000D01*
X156960440Y-83036000D01*
X156916162Y-82800683D01*
X156777090Y-82584559D01*
X156564890Y-82439569D01*
X156425000Y-82411241D01*
X156425000Y-81947691D01*
X163459000Y-81947691D01*
X163459000Y-82538250D01*
X163617750Y-82697000D01*
X164592000Y-82697000D01*
X164592000Y-81597750D01*
X164846000Y-81597750D01*
X164846000Y-82697000D01*
X165820250Y-82697000D01*
X165979000Y-82538250D01*
X165979000Y-81947691D01*
X165882327Y-81714302D01*
X165703699Y-81535673D01*
X165470310Y-81439000D01*
X165004750Y-81439000D01*
X164846000Y-81597750D01*
X164592000Y-81597750D01*
X164433250Y-81439000D01*
X163967690Y-81439000D01*
X163734301Y-81535673D01*
X163555673Y-81714302D01*
X163459000Y-81947691D01*
X156425000Y-81947691D01*
X156425000Y-81879440D01*
X157714000Y-81879440D01*
X157949317Y-81835162D01*
X158165441Y-81696090D01*
X158310431Y-81483890D01*
X158361440Y-81232000D01*
X158361440Y-81034510D01*
X158554630Y-81114730D01*
X158943663Y-81115069D01*
X159303212Y-80966507D01*
X159578540Y-80691659D01*
X159727730Y-80332370D01*
X159728069Y-79943337D01*
X159579507Y-79583788D01*
X159304659Y-79308460D01*
X158945370Y-79159270D01*
X158556337Y-79158931D01*
X158361440Y-79239460D01*
X158361440Y-79232000D01*
X158317162Y-78996683D01*
X158178090Y-78780559D01*
X157965890Y-78635569D01*
X157714000Y-78584560D01*
X155214000Y-78584560D01*
X154978683Y-78628838D01*
X154762559Y-78767910D01*
X154617569Y-78980110D01*
X154566560Y-79232000D01*
X154566560Y-81232000D01*
X154610838Y-81467317D01*
X154749910Y-81683441D01*
X154901000Y-81786676D01*
X154901000Y-82409634D01*
X154777683Y-82432838D01*
X154561559Y-82571910D01*
X154416569Y-82784110D01*
X154365560Y-83036000D01*
X154365560Y-84336000D01*
X154392893Y-84481263D01*
X154305000Y-84393370D01*
X154305000Y-84121000D01*
X154246996Y-83829395D01*
X154081815Y-83582185D01*
X152808440Y-82308810D01*
X152808440Y-81339000D01*
X152764162Y-81103683D01*
X152625090Y-80887559D01*
X152412890Y-80742569D01*
X152247723Y-80709122D01*
X152396317Y-80681162D01*
X152612441Y-80542090D01*
X152757431Y-80329890D01*
X152808440Y-80078000D01*
X152808440Y-78578000D01*
X152764162Y-78342683D01*
X152625090Y-78126559D01*
X152471390Y-78021540D01*
X162949518Y-78021540D01*
X163372616Y-79045515D01*
X164155365Y-79829631D01*
X165178599Y-80254515D01*
X166286540Y-80255482D01*
X167310515Y-79832384D01*
X168094631Y-79049635D01*
X168519515Y-78026401D01*
X168520482Y-76918460D01*
X168097384Y-75894485D01*
X167314635Y-75110369D01*
X166291401Y-74685485D01*
X165183460Y-74684518D01*
X164159485Y-75107616D01*
X163375369Y-75890365D01*
X162950485Y-76913599D01*
X162949518Y-78021540D01*
X152471390Y-78021540D01*
X152412890Y-77981569D01*
X152379510Y-77974809D01*
X152520699Y-77916327D01*
X152699327Y-77737698D01*
X152796000Y-77504309D01*
X152796000Y-76913750D01*
X152637250Y-76755000D01*
X151638000Y-76755000D01*
X151638000Y-76775000D01*
X151384000Y-76775000D01*
X151384000Y-76755000D01*
X150384750Y-76755000D01*
X150226000Y-76913750D01*
X150226000Y-77504309D01*
X150322673Y-77737698D01*
X150501301Y-77916327D01*
X150637287Y-77972654D01*
X150625683Y-77974838D01*
X150409559Y-78113910D01*
X150264569Y-78326110D01*
X150213560Y-78578000D01*
X150213560Y-78740000D01*
X149734618Y-78740000D01*
X149542147Y-78451946D01*
X149212974Y-78232000D01*
X149542147Y-78012054D01*
X149864054Y-77530285D01*
X149977093Y-76962000D01*
X149888727Y-76517750D01*
X154579000Y-76517750D01*
X154579000Y-77358309D01*
X154675673Y-77591698D01*
X154854301Y-77770327D01*
X155087690Y-77867000D01*
X156178250Y-77867000D01*
X156337000Y-77708250D01*
X156337000Y-76359000D01*
X156591000Y-76359000D01*
X156591000Y-77708250D01*
X156749750Y-77867000D01*
X157840310Y-77867000D01*
X158073699Y-77770327D01*
X158252327Y-77591698D01*
X158349000Y-77358309D01*
X158349000Y-76517750D01*
X158190250Y-76359000D01*
X156591000Y-76359000D01*
X156337000Y-76359000D01*
X154737750Y-76359000D01*
X154579000Y-76517750D01*
X149888727Y-76517750D01*
X149864054Y-76393715D01*
X149542147Y-75911946D01*
X149302308Y-75751691D01*
X150226000Y-75751691D01*
X150226000Y-76342250D01*
X150384750Y-76501000D01*
X151384000Y-76501000D01*
X151384000Y-75401750D01*
X151638000Y-75401750D01*
X151638000Y-76501000D01*
X152637250Y-76501000D01*
X152796000Y-76342250D01*
X152796000Y-75751691D01*
X152699327Y-75518302D01*
X152520699Y-75339673D01*
X152287310Y-75243000D01*
X151796750Y-75243000D01*
X151638000Y-75401750D01*
X151384000Y-75401750D01*
X151225250Y-75243000D01*
X150734690Y-75243000D01*
X150501301Y-75339673D01*
X150322673Y-75518302D01*
X150226000Y-75751691D01*
X149302308Y-75751691D01*
X149060378Y-75590039D01*
X148492093Y-75477000D01*
X148433907Y-75477000D01*
X147865622Y-75590039D01*
X147383853Y-75911946D01*
X147061946Y-76393715D01*
X146948907Y-76962000D01*
X147061946Y-77530285D01*
X147383853Y-78012054D01*
X147713026Y-78232000D01*
X147383853Y-78451946D01*
X147061946Y-78933715D01*
X146948907Y-79502000D01*
X147061946Y-80070285D01*
X147383853Y-80552054D01*
X147425452Y-80579850D01*
X147377683Y-80588838D01*
X147161559Y-80727910D01*
X147016569Y-80940110D01*
X146965560Y-81192000D01*
X146965560Y-82892000D01*
X147009838Y-83127317D01*
X147148910Y-83343441D01*
X147361110Y-83488431D01*
X147613000Y-83539440D01*
X148982930Y-83539440D01*
X146908185Y-85614185D01*
X146743004Y-85861395D01*
X146691278Y-86121438D01*
X146603310Y-86085000D01*
X146462750Y-86085000D01*
X146304000Y-86243750D01*
X146304000Y-87343000D01*
X146324000Y-87343000D01*
X146324000Y-87597000D01*
X146304000Y-87597000D01*
X146304000Y-87617000D01*
X146050000Y-87617000D01*
X146050000Y-87597000D01*
X146030000Y-87597000D01*
X146030000Y-87343000D01*
X146050000Y-87343000D01*
X146050000Y-86243750D01*
X145891250Y-86085000D01*
X145750690Y-86085000D01*
X145669000Y-86118837D01*
X145669000Y-83466440D01*
X145737000Y-83466440D01*
X145972317Y-83422162D01*
X146188441Y-83283090D01*
X146333431Y-83070890D01*
X146384440Y-82819000D01*
X146384440Y-81519000D01*
X146340162Y-81283683D01*
X146201090Y-81067559D01*
X145988890Y-80922569D01*
X145749000Y-80873990D01*
X145749000Y-80672440D01*
X145864000Y-80672440D01*
X146099317Y-80628162D01*
X146315441Y-80489090D01*
X146460431Y-80276890D01*
X146511440Y-80025000D01*
X146511440Y-78725000D01*
X146467162Y-78489683D01*
X146328090Y-78273559D01*
X146115890Y-78128569D01*
X145876000Y-78079990D01*
X145876000Y-77622182D01*
X146099317Y-77580162D01*
X146315441Y-77441090D01*
X146460431Y-77228890D01*
X146511440Y-76977000D01*
X146511440Y-75677000D01*
X146467162Y-75441683D01*
X146328090Y-75225559D01*
X146152658Y-75105691D01*
X154579000Y-75105691D01*
X154579000Y-75946250D01*
X154737750Y-76105000D01*
X156337000Y-76105000D01*
X156337000Y-74755750D01*
X156591000Y-74755750D01*
X156591000Y-76105000D01*
X158190250Y-76105000D01*
X158349000Y-75946250D01*
X158349000Y-75105691D01*
X158252327Y-74872302D01*
X158073699Y-74693673D01*
X157840310Y-74597000D01*
X156749750Y-74597000D01*
X156591000Y-74755750D01*
X156337000Y-74755750D01*
X156178250Y-74597000D01*
X155087690Y-74597000D01*
X154854301Y-74693673D01*
X154675673Y-74872302D01*
X154579000Y-75105691D01*
X146152658Y-75105691D01*
X146115890Y-75080569D01*
X145864000Y-75029560D01*
X144364000Y-75029560D01*
X144128683Y-75073838D01*
X143912559Y-75212910D01*
X143767569Y-75425110D01*
X143760809Y-75458490D01*
X143702327Y-75317301D01*
X143523698Y-75138673D01*
X143290309Y-75042000D01*
X142699750Y-75042000D01*
X142541000Y-75200750D01*
X142541000Y-76200000D01*
X142561000Y-76200000D01*
X142561000Y-76454000D01*
X142541000Y-76454000D01*
X142541000Y-77453250D01*
X142699750Y-77612000D01*
X143290309Y-77612000D01*
X143523698Y-77515327D01*
X143702327Y-77336699D01*
X143758654Y-77200713D01*
X143760838Y-77212317D01*
X143899910Y-77428441D01*
X144112110Y-77573431D01*
X144352000Y-77622010D01*
X144352000Y-78079818D01*
X144128683Y-78121838D01*
X143912559Y-78260910D01*
X143767569Y-78473110D01*
X143764919Y-78486197D01*
X143628090Y-78273559D01*
X143415890Y-78128569D01*
X143164000Y-78077560D01*
X141664000Y-78077560D01*
X141428683Y-78121838D01*
X141212559Y-78260910D01*
X141119416Y-78397230D01*
X140819502Y-78396969D01*
X140740090Y-78273559D01*
X140527890Y-78128569D01*
X140276000Y-78077560D01*
X138776000Y-78077560D01*
X138540683Y-78121838D01*
X138324559Y-78260910D01*
X138179569Y-78473110D01*
X138176919Y-78486197D01*
X138040090Y-78273559D01*
X137827890Y-78128569D01*
X137588000Y-78079990D01*
X137588000Y-77622182D01*
X137811317Y-77580162D01*
X138027441Y-77441090D01*
X138172431Y-77228890D01*
X138179191Y-77195510D01*
X138237673Y-77336699D01*
X138416302Y-77515327D01*
X138649691Y-77612000D01*
X139240250Y-77612000D01*
X139399000Y-77453250D01*
X139399000Y-76454000D01*
X139653000Y-76454000D01*
X139653000Y-77453250D01*
X139811750Y-77612000D01*
X140402309Y-77612000D01*
X140635698Y-77515327D01*
X140814327Y-77336699D01*
X140911000Y-77103310D01*
X140911000Y-76612750D01*
X141029000Y-76612750D01*
X141029000Y-77103310D01*
X141125673Y-77336699D01*
X141304302Y-77515327D01*
X141537691Y-77612000D01*
X142128250Y-77612000D01*
X142287000Y-77453250D01*
X142287000Y-76454000D01*
X141187750Y-76454000D01*
X141029000Y-76612750D01*
X140911000Y-76612750D01*
X140752250Y-76454000D01*
X139653000Y-76454000D01*
X139399000Y-76454000D01*
X139379000Y-76454000D01*
X139379000Y-76200000D01*
X139399000Y-76200000D01*
X139399000Y-75200750D01*
X139653000Y-75200750D01*
X139653000Y-76200000D01*
X140752250Y-76200000D01*
X140911000Y-76041250D01*
X140911000Y-75550690D01*
X141029000Y-75550690D01*
X141029000Y-76041250D01*
X141187750Y-76200000D01*
X142287000Y-76200000D01*
X142287000Y-75200750D01*
X142128250Y-75042000D01*
X141537691Y-75042000D01*
X141304302Y-75138673D01*
X141125673Y-75317301D01*
X141029000Y-75550690D01*
X140911000Y-75550690D01*
X140814327Y-75317301D01*
X140635698Y-75138673D01*
X140402309Y-75042000D01*
X139811750Y-75042000D01*
X139653000Y-75200750D01*
X139399000Y-75200750D01*
X139240250Y-75042000D01*
X138649691Y-75042000D01*
X138416302Y-75138673D01*
X138237673Y-75317301D01*
X138181346Y-75453287D01*
X138179162Y-75441683D01*
X138040090Y-75225559D01*
X137827890Y-75080569D01*
X137576000Y-75029560D01*
X136076000Y-75029560D01*
X135840683Y-75073838D01*
X135763000Y-75123826D01*
X135763000Y-74229630D01*
X137395630Y-72597000D01*
X139928818Y-72597000D01*
X139970838Y-72820317D01*
X140109910Y-73036441D01*
X140322110Y-73181431D01*
X140574000Y-73232440D01*
X141874000Y-73232440D01*
X142109317Y-73188162D01*
X142325441Y-73049090D01*
X142470431Y-72836890D01*
X142521440Y-72585000D01*
X142521440Y-72120750D01*
X148067000Y-72120750D01*
X148067000Y-72711309D01*
X148163673Y-72944698D01*
X148342301Y-73123327D01*
X148575690Y-73220000D01*
X149066250Y-73220000D01*
X149225000Y-73061250D01*
X149225000Y-71962000D01*
X149479000Y-71962000D01*
X149479000Y-73061250D01*
X149637750Y-73220000D01*
X150128310Y-73220000D01*
X150361699Y-73123327D01*
X150428275Y-73056750D01*
X151035000Y-73056750D01*
X151035000Y-73522310D01*
X151131673Y-73755699D01*
X151310302Y-73934327D01*
X151543691Y-74031000D01*
X152134250Y-74031000D01*
X152293000Y-73872250D01*
X152293000Y-72898000D01*
X151193750Y-72898000D01*
X151035000Y-73056750D01*
X150428275Y-73056750D01*
X150540327Y-72944698D01*
X150637000Y-72711309D01*
X150637000Y-72120750D01*
X150535940Y-72019690D01*
X151035000Y-72019690D01*
X151035000Y-72485250D01*
X151193750Y-72644000D01*
X152293000Y-72644000D01*
X152293000Y-71669750D01*
X152547000Y-71669750D01*
X152547000Y-72644000D01*
X152567000Y-72644000D01*
X152567000Y-72898000D01*
X152547000Y-72898000D01*
X152547000Y-73872250D01*
X152705750Y-74031000D01*
X153296309Y-74031000D01*
X153529698Y-73934327D01*
X153670936Y-73793090D01*
X153705910Y-73847441D01*
X153918110Y-73992431D01*
X154170000Y-74043440D01*
X155670000Y-74043440D01*
X155905317Y-73999162D01*
X156121441Y-73860090D01*
X156266431Y-73647890D01*
X156278603Y-73587782D01*
X156290341Y-73599540D01*
X156649630Y-73748730D01*
X157038663Y-73749069D01*
X157398212Y-73600507D01*
X157673540Y-73325659D01*
X157822730Y-72966370D01*
X157823069Y-72577337D01*
X157674507Y-72217788D01*
X157399659Y-71942460D01*
X157040370Y-71793270D01*
X156651337Y-71792931D01*
X156291788Y-71941493D01*
X156280988Y-71952274D01*
X156273162Y-71910683D01*
X156134090Y-71694559D01*
X155921890Y-71549569D01*
X155670000Y-71498560D01*
X154170000Y-71498560D01*
X153934683Y-71542838D01*
X153718559Y-71681910D01*
X153672031Y-71750006D01*
X153529698Y-71607673D01*
X153296309Y-71511000D01*
X152705750Y-71511000D01*
X152547000Y-71669750D01*
X152293000Y-71669750D01*
X152134250Y-71511000D01*
X151543691Y-71511000D01*
X151310302Y-71607673D01*
X151131673Y-71786301D01*
X151035000Y-72019690D01*
X150535940Y-72019690D01*
X150478250Y-71962000D01*
X149479000Y-71962000D01*
X149225000Y-71962000D01*
X148225750Y-71962000D01*
X148067000Y-72120750D01*
X142521440Y-72120750D01*
X142521440Y-71085000D01*
X142477162Y-70849683D01*
X142338090Y-70633559D01*
X142125890Y-70488569D01*
X142112803Y-70485919D01*
X142325441Y-70349090D01*
X142470431Y-70136890D01*
X142521440Y-69885000D01*
X142521440Y-68385000D01*
X142477162Y-68149683D01*
X142338090Y-67933559D01*
X142125890Y-67788569D01*
X141986000Y-67760241D01*
X141986000Y-67005020D01*
X142092371Y-66961068D01*
X142524551Y-66529643D01*
X142758733Y-65965670D01*
X142759265Y-65355009D01*
X142526068Y-64790629D01*
X142358120Y-64622387D01*
X142359317Y-64622162D01*
X142575441Y-64483090D01*
X142720431Y-64270890D01*
X142771440Y-64019000D01*
X142771440Y-62219000D01*
X147931560Y-62219000D01*
X147931560Y-64019000D01*
X147975838Y-64254317D01*
X148114910Y-64470441D01*
X148327110Y-64615431D01*
X148347534Y-64619567D01*
X148178449Y-64788357D01*
X147944267Y-65352330D01*
X147943735Y-65962991D01*
X148176932Y-66527371D01*
X148590000Y-66941162D01*
X148590000Y-67758634D01*
X148466683Y-67781838D01*
X148250559Y-67920910D01*
X148105569Y-68133110D01*
X148054560Y-68385000D01*
X148054560Y-69885000D01*
X148098838Y-70120317D01*
X148237910Y-70336441D01*
X148450110Y-70481431D01*
X148483490Y-70488191D01*
X148342301Y-70546673D01*
X148163673Y-70725302D01*
X148067000Y-70958691D01*
X148067000Y-71549250D01*
X148225750Y-71708000D01*
X149225000Y-71708000D01*
X149225000Y-71688000D01*
X149479000Y-71688000D01*
X149479000Y-71708000D01*
X150478250Y-71708000D01*
X150637000Y-71549250D01*
X150637000Y-70958691D01*
X150540327Y-70725302D01*
X150361699Y-70546673D01*
X150225713Y-70490346D01*
X150237317Y-70488162D01*
X150453441Y-70349090D01*
X150598431Y-70136890D01*
X150649440Y-69885000D01*
X150649440Y-69246750D01*
X159921000Y-69246750D01*
X159921000Y-70837309D01*
X160017673Y-71070698D01*
X160196301Y-71249327D01*
X160429690Y-71346000D01*
X162020250Y-71346000D01*
X162179000Y-71187250D01*
X162179000Y-69088000D01*
X162433000Y-69088000D01*
X162433000Y-71187250D01*
X162591750Y-71346000D01*
X164182310Y-71346000D01*
X164415699Y-71249327D01*
X164594327Y-71070698D01*
X164691000Y-70837309D01*
X164691000Y-69246750D01*
X164532250Y-69088000D01*
X162433000Y-69088000D01*
X162179000Y-69088000D01*
X160079750Y-69088000D01*
X159921000Y-69246750D01*
X150649440Y-69246750D01*
X150649440Y-68385000D01*
X150605162Y-68149683D01*
X150466090Y-67933559D01*
X150253890Y-67788569D01*
X150114000Y-67760241D01*
X150114000Y-67057495D01*
X150347371Y-66961068D01*
X150779551Y-66529643D01*
X151013733Y-65965670D01*
X151014265Y-65355009D01*
X150781068Y-64790629D01*
X150613120Y-64622387D01*
X150614317Y-64622162D01*
X150830441Y-64483090D01*
X150975431Y-64270890D01*
X151026440Y-64019000D01*
X151026440Y-62219000D01*
X150982162Y-61983683D01*
X150843090Y-61767559D01*
X150630890Y-61622569D01*
X150379000Y-61571560D01*
X148579000Y-61571560D01*
X148343683Y-61615838D01*
X148127559Y-61754910D01*
X147982569Y-61967110D01*
X147931560Y-62219000D01*
X142771440Y-62219000D01*
X142727162Y-61983683D01*
X142588090Y-61767559D01*
X142375890Y-61622569D01*
X142124000Y-61571560D01*
X140324000Y-61571560D01*
X140088683Y-61615838D01*
X139872559Y-61754910D01*
X139727569Y-61967110D01*
X139676560Y-62219000D01*
X139676560Y-64019000D01*
X139720838Y-64254317D01*
X139859910Y-64470441D01*
X140072110Y-64615431D01*
X140092534Y-64619567D01*
X139923449Y-64788357D01*
X139689267Y-65352330D01*
X139688735Y-65962991D01*
X139921932Y-66527371D01*
X140353357Y-66959551D01*
X140462000Y-67004664D01*
X140462000Y-67758634D01*
X140338683Y-67781838D01*
X140122559Y-67920910D01*
X139977569Y-68133110D01*
X139926560Y-68385000D01*
X139926560Y-69885000D01*
X139970838Y-70120317D01*
X140109910Y-70336441D01*
X140322110Y-70481431D01*
X140335197Y-70484081D01*
X140122559Y-70620910D01*
X139977569Y-70833110D01*
X139928990Y-71073000D01*
X137080000Y-71073000D01*
X136788395Y-71131004D01*
X136611313Y-71249327D01*
X136541185Y-71296185D01*
X134462185Y-73375185D01*
X134349638Y-73543623D01*
X134111991Y-73187959D01*
X133516674Y-72790181D01*
X132814450Y-72650500D01*
X132742550Y-72650500D01*
X132040326Y-72790181D01*
X131445009Y-73187959D01*
X131064000Y-73758179D01*
X131064000Y-69878821D01*
X131445009Y-70449041D01*
X132040326Y-70846819D01*
X132742550Y-70986500D01*
X132814450Y-70986500D01*
X133516674Y-70846819D01*
X134111991Y-70449041D01*
X134509769Y-69853724D01*
X134649450Y-69151500D01*
X134509769Y-68449276D01*
X134111991Y-67853959D01*
X133516674Y-67456181D01*
X132814450Y-67316500D01*
X132742550Y-67316500D01*
X132040326Y-67456181D01*
X131445009Y-67853959D01*
X131064000Y-68424179D01*
X131064000Y-64544821D01*
X131445009Y-65115041D01*
X132040326Y-65512819D01*
X132742550Y-65652500D01*
X132814450Y-65652500D01*
X133516674Y-65512819D01*
X134111991Y-65115041D01*
X134509769Y-64519724D01*
X134649450Y-63817500D01*
X134509769Y-63115276D01*
X134111991Y-62519959D01*
X133516674Y-62122181D01*
X132814450Y-61982500D01*
X132742550Y-61982500D01*
X132040326Y-62122181D01*
X131445009Y-62519959D01*
X131064000Y-63090179D01*
X131064000Y-61087000D01*
X159933671Y-61087000D01*
X159908560Y-61211000D01*
X159908560Y-61211000D01*
G37*
X159908560Y-61211000D02*
X159908560Y-63897045D01*
X159820090Y-63759559D01*
X159607890Y-63614569D01*
X159356000Y-63563560D01*
X155856000Y-63563560D01*
X155620683Y-63607838D01*
X155404559Y-63746910D01*
X155259569Y-63959110D01*
X155208560Y-64211000D01*
X155208560Y-67711000D01*
X155252838Y-67946317D01*
X155391910Y-68162441D01*
X155604110Y-68307431D01*
X155856000Y-68358440D01*
X159356000Y-68358440D01*
X159591317Y-68314162D01*
X159807441Y-68175090D01*
X159921000Y-68008891D01*
X159921000Y-68675250D01*
X160079750Y-68834000D01*
X162179000Y-68834000D01*
X162179000Y-66734750D01*
X162433000Y-66734750D01*
X162433000Y-68834000D01*
X164532250Y-68834000D01*
X164691000Y-68675250D01*
X164691000Y-67084691D01*
X164594327Y-66851302D01*
X164415699Y-66672673D01*
X164182310Y-66576000D01*
X162591750Y-66576000D01*
X162433000Y-66734750D01*
X162179000Y-66734750D01*
X162020250Y-66576000D01*
X160429690Y-66576000D01*
X160196301Y-66672673D01*
X160017673Y-66851302D01*
X160003440Y-66885663D01*
X160003440Y-65024955D01*
X160091910Y-65162441D01*
X160304110Y-65307431D01*
X160556000Y-65358440D01*
X164056000Y-65358440D01*
X164291317Y-65314162D01*
X164507441Y-65175090D01*
X164652431Y-64962890D01*
X164703440Y-64711000D01*
X164703440Y-61211000D01*
X164680108Y-61087000D01*
X170053000Y-61087000D01*
X170053000Y-112014000D01*
X169647286Y-112014000D01*
X169647286Y-111149000D01*
X166648715Y-111149000D01*
X166648715Y-114173000D01*
X136398000Y-114173000D01*
X136398000Y-110551630D01*
X137221157Y-109728474D01*
X137401110Y-109851431D01*
X137414197Y-109854081D01*
X137201559Y-109990910D01*
X137056569Y-110203110D01*
X137005560Y-110455000D01*
X137005560Y-111955000D01*
X137049838Y-112190317D01*
X137188910Y-112406441D01*
X137401110Y-112551431D01*
X137653000Y-112602440D01*
X138953000Y-112602440D01*
X139188317Y-112558162D01*
X139404441Y-112419090D01*
X139549431Y-112206890D01*
X139598010Y-111967000D01*
X141759182Y-111967000D01*
X141848910Y-112106441D01*
X142061110Y-112251431D01*
X142313000Y-112302440D01*
X143613000Y-112302440D01*
X143848317Y-112258162D01*
X144064441Y-112119090D01*
X144209431Y-111906890D01*
X144260440Y-111655000D01*
X144260440Y-110355000D01*
X144216162Y-110119683D01*
X144077090Y-109903559D01*
X144007289Y-109855866D01*
X144064441Y-109819090D01*
X144209431Y-109606890D01*
X144237759Y-109467000D01*
X144532929Y-109467000D01*
X144606341Y-109540540D01*
X144965630Y-109689730D01*
X145354663Y-109690069D01*
X145714212Y-109541507D01*
X145989540Y-109266659D01*
X146138730Y-108907370D01*
X146138775Y-108855000D01*
X147165560Y-108855000D01*
X147165560Y-110855000D01*
X147209838Y-111090317D01*
X147348910Y-111306441D01*
X147561110Y-111451431D01*
X147813000Y-111502440D01*
X149113000Y-111502440D01*
X149348317Y-111458162D01*
X149564441Y-111319090D01*
X149709431Y-111106890D01*
X149760440Y-110855000D01*
X149760440Y-109635190D01*
X151668816Y-107726815D01*
X151833997Y-107479604D01*
X151892000Y-107188000D01*
X151892000Y-106173618D01*
X152180054Y-105981147D01*
X152400000Y-105651974D01*
X152619946Y-105981147D01*
X152908000Y-106173618D01*
X152908000Y-107253370D01*
X152242185Y-107919185D01*
X152077004Y-108166395D01*
X152019000Y-108458000D01*
X152019000Y-109119560D01*
X151931000Y-109119560D01*
X151695683Y-109163838D01*
X151479559Y-109302910D01*
X151334569Y-109515110D01*
X151283560Y-109767000D01*
X151283560Y-111467000D01*
X151327838Y-111702317D01*
X151466910Y-111918441D01*
X151679110Y-112063431D01*
X151931000Y-112114440D01*
X153631000Y-112114440D01*
X153866317Y-112070162D01*
X154082441Y-111931090D01*
X154227431Y-111718890D01*
X154241086Y-111651459D01*
X154270946Y-111696147D01*
X154752715Y-112018054D01*
X155321000Y-112131093D01*
X155889285Y-112018054D01*
X156371054Y-111696147D01*
X156692961Y-111214378D01*
X156754947Y-110902750D01*
X159424000Y-110902750D01*
X159424000Y-111593309D01*
X159520673Y-111826698D01*
X159699301Y-112005327D01*
X159932690Y-112102000D01*
X160623250Y-112102000D01*
X160782000Y-111943250D01*
X160782000Y-110744000D01*
X159582750Y-110744000D01*
X159424000Y-110902750D01*
X156754947Y-110902750D01*
X156806000Y-110646093D01*
X156806000Y-110587907D01*
X156692961Y-110019622D01*
X156439768Y-109640691D01*
X159424000Y-109640691D01*
X159424000Y-110331250D01*
X159582750Y-110490000D01*
X160782000Y-110490000D01*
X160782000Y-109290750D01*
X161036000Y-109290750D01*
X161036000Y-110490000D01*
X161056000Y-110490000D01*
X161056000Y-110744000D01*
X161036000Y-110744000D01*
X161036000Y-111943250D01*
X161194750Y-112102000D01*
X161885310Y-112102000D01*
X162118699Y-112005327D01*
X162297327Y-111826698D01*
X162369597Y-111652223D01*
X162398946Y-111696147D01*
X162880715Y-112018054D01*
X163449000Y-112131093D01*
X164017285Y-112018054D01*
X164499054Y-111696147D01*
X164820961Y-111214378D01*
X164934000Y-110646093D01*
X164934000Y-110587907D01*
X164820961Y-110019622D01*
X164499054Y-109537853D01*
X164017285Y-109215946D01*
X163449000Y-109102907D01*
X162880715Y-109215946D01*
X162398946Y-109537853D01*
X162369597Y-109581777D01*
X162297327Y-109407302D01*
X162118699Y-109228673D01*
X161885310Y-109132000D01*
X161194750Y-109132000D01*
X161036000Y-109290750D01*
X160782000Y-109290750D01*
X160623250Y-109132000D01*
X159932690Y-109132000D01*
X159699301Y-109228673D01*
X159520673Y-109407302D01*
X159424000Y-109640691D01*
X156439768Y-109640691D01*
X156371054Y-109537853D01*
X155889285Y-109215946D01*
X155321000Y-109102907D01*
X154752715Y-109215946D01*
X154270946Y-109537853D01*
X154243150Y-109579452D01*
X154234162Y-109531683D01*
X154095090Y-109315559D01*
X153882890Y-109170569D01*
X153631000Y-109119560D01*
X153543000Y-109119560D01*
X153543000Y-108773630D01*
X154208815Y-108107815D01*
X154314264Y-107950000D01*
X154373996Y-107860605D01*
X154432000Y-107569000D01*
X154432000Y-106173618D01*
X154720054Y-105981147D01*
X154747850Y-105939548D01*
X154756838Y-105987317D01*
X154895910Y-106203441D01*
X155108110Y-106348431D01*
X155360000Y-106399440D01*
X157060000Y-106399440D01*
X157295317Y-106355162D01*
X157511441Y-106216090D01*
X157656431Y-106003890D01*
X157707440Y-105752000D01*
X157707440Y-104691540D01*
X162949518Y-104691540D01*
X163372616Y-105715515D01*
X164155365Y-106499631D01*
X165178599Y-106924515D01*
X166286540Y-106925482D01*
X167310515Y-106502384D01*
X168094631Y-105719635D01*
X168519515Y-104696401D01*
X168520482Y-103588460D01*
X168097384Y-102564485D01*
X167314635Y-101780369D01*
X166291401Y-101355485D01*
X165183460Y-101354518D01*
X164159485Y-101777616D01*
X163375369Y-102560365D01*
X162950485Y-103583599D01*
X162949518Y-104691540D01*
X157707440Y-104691540D01*
X157707440Y-104052000D01*
X157663162Y-103816683D01*
X157524090Y-103600559D01*
X157311890Y-103455569D01*
X157060000Y-103404560D01*
X156845000Y-103404560D01*
X156845000Y-102135440D01*
X157083000Y-102135440D01*
X157318317Y-102091162D01*
X157534441Y-101952090D01*
X157679431Y-101739890D01*
X157730440Y-101488000D01*
X157730440Y-100188000D01*
X157686162Y-99952683D01*
X157547090Y-99736559D01*
X157334890Y-99591569D01*
X157083000Y-99540560D01*
X155083000Y-99540560D01*
X154847683Y-99584838D01*
X154631559Y-99723910D01*
X154486569Y-99936110D01*
X154435560Y-100188000D01*
X154435560Y-101488000D01*
X154479838Y-101723317D01*
X154618910Y-101939441D01*
X154831110Y-102084431D01*
X155083000Y-102135440D01*
X155321000Y-102135440D01*
X155321000Y-103411898D01*
X155124683Y-103448838D01*
X154908559Y-103587910D01*
X154763569Y-103800110D01*
X154749914Y-103867541D01*
X154720054Y-103822853D01*
X154238285Y-103500946D01*
X153670000Y-103387907D01*
X153101715Y-103500946D01*
X152619946Y-103822853D01*
X152400000Y-104152026D01*
X152180054Y-103822853D01*
X151698285Y-103500946D01*
X151130000Y-103387907D01*
X150561715Y-103500946D01*
X150079946Y-103822853D01*
X149758039Y-104304622D01*
X149645000Y-104872907D01*
X149645000Y-104931093D01*
X149758039Y-105499378D01*
X150079946Y-105981147D01*
X150368000Y-106173618D01*
X150368000Y-106872369D01*
X149032810Y-108207560D01*
X147813000Y-108207560D01*
X147577683Y-108251838D01*
X147361559Y-108390910D01*
X147216569Y-108603110D01*
X147165560Y-108855000D01*
X146138775Y-108855000D01*
X146139069Y-108518337D01*
X145990507Y-108158788D01*
X145715659Y-107883460D01*
X145356370Y-107734270D01*
X144967337Y-107733931D01*
X144607788Y-107882493D01*
X144547175Y-107943000D01*
X144239366Y-107943000D01*
X144216162Y-107819683D01*
X144077090Y-107603559D01*
X143864890Y-107458569D01*
X143613000Y-107407560D01*
X142313000Y-107407560D01*
X142077683Y-107451838D01*
X141861559Y-107590910D01*
X141716569Y-107803110D01*
X141665560Y-108055000D01*
X141665560Y-109355000D01*
X141709838Y-109590317D01*
X141848910Y-109806441D01*
X141918711Y-109854134D01*
X141861559Y-109890910D01*
X141716569Y-110103110D01*
X141665560Y-110355000D01*
X141665560Y-110443000D01*
X139598182Y-110443000D01*
X139556162Y-110219683D01*
X139417090Y-110003559D01*
X139204890Y-109858569D01*
X139191803Y-109855919D01*
X139404441Y-109719090D01*
X139549431Y-109506890D01*
X139600440Y-109255000D01*
X139600440Y-107755000D01*
X139556162Y-107519683D01*
X139417090Y-107303559D01*
X139204890Y-107158569D01*
X138953000Y-107107560D01*
X137653000Y-107107560D01*
X137417683Y-107151838D01*
X137201559Y-107290910D01*
X137056569Y-107503110D01*
X137005560Y-107755000D01*
X137005560Y-107847666D01*
X136986198Y-107860604D01*
X136828185Y-107966184D01*
X135097185Y-109697185D01*
X134932004Y-109944395D01*
X134874000Y-110236000D01*
X134874000Y-113411000D01*
X133646502Y-113411000D01*
X134175491Y-113057541D01*
X134573269Y-112462224D01*
X134712950Y-111760000D01*
X134573269Y-111057776D01*
X134175491Y-110462459D01*
X133580174Y-110064681D01*
X132877950Y-109925000D01*
X132806050Y-109925000D01*
X132103826Y-110064681D01*
X131508509Y-110462459D01*
X131110731Y-111057776D01*
X131064000Y-111292709D01*
X131064000Y-107216821D01*
X131445009Y-107787041D01*
X132040326Y-108184819D01*
X132742550Y-108324500D01*
X132814450Y-108324500D01*
X133516674Y-108184819D01*
X134111991Y-107787041D01*
X134509769Y-107191724D01*
X134649450Y-106489500D01*
X134509769Y-105787276D01*
X134111991Y-105191959D01*
X133516674Y-104794181D01*
X132814450Y-104654500D01*
X132742550Y-104654500D01*
X132040326Y-104794181D01*
X131445009Y-105191959D01*
X131064000Y-105762179D01*
X131064000Y-104648000D01*
X138303000Y-104648000D01*
X138594605Y-104589996D01*
X138841815Y-104424815D01*
X139877815Y-103388816D01*
X140042996Y-103141605D01*
X140064280Y-103034604D01*
X140096829Y-102870967D01*
X140324317Y-102828162D01*
X140540441Y-102689090D01*
X140588134Y-102619289D01*
X140624910Y-102676441D01*
X140837110Y-102821431D01*
X141089000Y-102872440D01*
X142589000Y-102872440D01*
X142824317Y-102828162D01*
X143040441Y-102689090D01*
X143185431Y-102476890D01*
X143208697Y-102362000D01*
X144210370Y-102362000D01*
X144227321Y-102378951D01*
X144154907Y-102743000D01*
X144267946Y-103311285D01*
X144589853Y-103793054D01*
X145071622Y-104114961D01*
X145639907Y-104228000D01*
X145698093Y-104228000D01*
X146266378Y-104114961D01*
X146748147Y-103793054D01*
X147070054Y-103311285D01*
X147183093Y-102743000D01*
X147070054Y-102174715D01*
X146748147Y-101692946D01*
X146418974Y-101473000D01*
X146748147Y-101253054D01*
X147070054Y-100771285D01*
X147183093Y-100203000D01*
X147152820Y-100050810D01*
X147985815Y-99217816D01*
X148150996Y-98970605D01*
X148178757Y-98831039D01*
X148209000Y-98679000D01*
X148209000Y-98312630D01*
X148562560Y-98666191D01*
X148562560Y-99636000D01*
X148606838Y-99871317D01*
X148745910Y-100087441D01*
X148958110Y-100232431D01*
X149210000Y-100283440D01*
X150510000Y-100283440D01*
X150745317Y-100239162D01*
X150961441Y-100100090D01*
X151106431Y-99887890D01*
X151157440Y-99636000D01*
X151157440Y-98710750D01*
X160821000Y-98710750D01*
X160821000Y-99401310D01*
X160917673Y-99634699D01*
X161096302Y-99813327D01*
X161329691Y-99910000D01*
X162020250Y-99910000D01*
X162179000Y-99751250D01*
X162179000Y-98552000D01*
X162433000Y-98552000D01*
X162433000Y-99751250D01*
X162591750Y-99910000D01*
X163282309Y-99910000D01*
X163515698Y-99813327D01*
X163694327Y-99634699D01*
X163729514Y-99549750D01*
X164895000Y-99549750D01*
X164895000Y-100230309D01*
X164991673Y-100463698D01*
X165170301Y-100642327D01*
X165403690Y-100739000D01*
X166084250Y-100739000D01*
X166243000Y-100580250D01*
X166243000Y-99391000D01*
X166497000Y-99391000D01*
X166497000Y-100580250D01*
X166655750Y-100739000D01*
X167336310Y-100739000D01*
X167569699Y-100642327D01*
X167748327Y-100463698D01*
X167845000Y-100230309D01*
X167845000Y-99549750D01*
X167686250Y-99391000D01*
X166497000Y-99391000D01*
X166243000Y-99391000D01*
X165053750Y-99391000D01*
X164895000Y-99549750D01*
X163729514Y-99549750D01*
X163791000Y-99401310D01*
X163791000Y-98710750D01*
X163632250Y-98552000D01*
X162433000Y-98552000D01*
X162179000Y-98552000D01*
X160979750Y-98552000D01*
X160821000Y-98710750D01*
X151157440Y-98710750D01*
X151157440Y-98136000D01*
X151113162Y-97900683D01*
X150974090Y-97684559D01*
X150761890Y-97539569D01*
X150748803Y-97536919D01*
X150961441Y-97400090D01*
X151106431Y-97187890D01*
X151155010Y-96948000D01*
X154085000Y-96948000D01*
X154376605Y-96889996D01*
X154623815Y-96724815D01*
X154713190Y-96635440D01*
X155583000Y-96635440D01*
X155818317Y-96591162D01*
X156034441Y-96452090D01*
X156082134Y-96382289D01*
X156118910Y-96439441D01*
X156331110Y-96584431D01*
X156471000Y-96612759D01*
X156471000Y-96780929D01*
X156397460Y-96854341D01*
X156248270Y-97213630D01*
X156247931Y-97602663D01*
X156396493Y-97962212D01*
X156671341Y-98237540D01*
X157030630Y-98386730D01*
X157419663Y-98387069D01*
X157779212Y-98238507D01*
X158054540Y-97963659D01*
X158203730Y-97604370D01*
X158204069Y-97215337D01*
X158055507Y-96855788D01*
X157995000Y-96795175D01*
X157995000Y-96614366D01*
X158118317Y-96591162D01*
X158334441Y-96452090D01*
X158479431Y-96239890D01*
X158530440Y-95988000D01*
X158530440Y-94688000D01*
X158486162Y-94452683D01*
X158347090Y-94236559D01*
X158134890Y-94091569D01*
X157883000Y-94040560D01*
X156583000Y-94040560D01*
X156347683Y-94084838D01*
X156131559Y-94223910D01*
X156083866Y-94293711D01*
X156047090Y-94236559D01*
X155834890Y-94091569D01*
X155583000Y-94040560D01*
X154283000Y-94040560D01*
X154047683Y-94084838D01*
X153831559Y-94223910D01*
X153686569Y-94436110D01*
X153635560Y-94688000D01*
X153635560Y-95424000D01*
X151155182Y-95424000D01*
X151113162Y-95200683D01*
X150974090Y-94984559D01*
X150761890Y-94839569D01*
X150510000Y-94788560D01*
X149444477Y-94788560D01*
X149479000Y-94615000D01*
X149479000Y-94225319D01*
X149687000Y-94267440D01*
X150287000Y-94267440D01*
X150522317Y-94223162D01*
X150738441Y-94084090D01*
X150883431Y-93871890D01*
X150934440Y-93620000D01*
X150934440Y-92120000D01*
X150890162Y-91884683D01*
X150751090Y-91668559D01*
X150538890Y-91523569D01*
X150287000Y-91472560D01*
X149687000Y-91472560D01*
X149451683Y-91516838D01*
X149352472Y-91580678D01*
X149268890Y-91523569D01*
X149017000Y-91472560D01*
X148417000Y-91472560D01*
X148181683Y-91516838D01*
X148082472Y-91580678D01*
X147998890Y-91523569D01*
X147747000Y-91472560D01*
X147147000Y-91472560D01*
X146911683Y-91516838D01*
X146812472Y-91580678D01*
X146728890Y-91523569D01*
X146703690Y-91518466D01*
X146730212Y-91507507D01*
X147005540Y-91232659D01*
X147154730Y-90873370D01*
X147155069Y-90484337D01*
X147025188Y-90170000D01*
X148082000Y-90170000D01*
X148373605Y-90111996D01*
X148620815Y-89946815D01*
X149255816Y-89311815D01*
X149365999Y-89146914D01*
X149420996Y-89064605D01*
X149468996Y-88823293D01*
X149687000Y-88867440D01*
X149892810Y-88867440D01*
X151607185Y-90581815D01*
X151854395Y-90746996D01*
X152146000Y-90805000D01*
X152270560Y-90805000D01*
X152270560Y-92170000D01*
X152314838Y-92405317D01*
X152453910Y-92621441D01*
X152629348Y-92741313D01*
X152565270Y-92895630D01*
X152564931Y-93284663D01*
X152713493Y-93644212D01*
X152988341Y-93919540D01*
X153347630Y-94068730D01*
X153736663Y-94069069D01*
X154096212Y-93920507D01*
X154371540Y-93645659D01*
X154520730Y-93286370D01*
X154521069Y-92897337D01*
X154455805Y-92739387D01*
X154619441Y-92634090D01*
X154764431Y-92421890D01*
X154815440Y-92170000D01*
X154815440Y-90805000D01*
X155005370Y-90805000D01*
X155798185Y-91597815D01*
X156045395Y-91762996D01*
X156337000Y-91821000D01*
X160700938Y-91821000D01*
X160900235Y-92020645D01*
X161317244Y-92193803D01*
X161666560Y-92194108D01*
X161666560Y-92829000D01*
X161710838Y-93064317D01*
X161849910Y-93280441D01*
X161925000Y-93331748D01*
X161925000Y-94469999D01*
X161708622Y-94513039D01*
X161226853Y-94834946D01*
X160904946Y-95316715D01*
X160791907Y-95885000D01*
X160904946Y-96453285D01*
X161226853Y-96935054D01*
X161270777Y-96964403D01*
X161096302Y-97036673D01*
X160917673Y-97215301D01*
X160821000Y-97448690D01*
X160821000Y-98139250D01*
X160979750Y-98298000D01*
X162179000Y-98298000D01*
X162179000Y-98278000D01*
X162433000Y-98278000D01*
X162433000Y-98298000D01*
X163632250Y-98298000D01*
X163632559Y-98297691D01*
X164895000Y-98297691D01*
X164895000Y-98978250D01*
X165053750Y-99137000D01*
X166243000Y-99137000D01*
X166243000Y-97947750D01*
X166497000Y-97947750D01*
X166497000Y-99137000D01*
X167686250Y-99137000D01*
X167845000Y-98978250D01*
X167845000Y-98297691D01*
X167748327Y-98064302D01*
X167569699Y-97885673D01*
X167336310Y-97789000D01*
X166655750Y-97789000D01*
X166497000Y-97947750D01*
X166243000Y-97947750D01*
X166084250Y-97789000D01*
X165403690Y-97789000D01*
X165170301Y-97885673D01*
X164991673Y-98064302D01*
X164895000Y-98297691D01*
X163632559Y-98297691D01*
X163791000Y-98139250D01*
X163791000Y-97448690D01*
X163694327Y-97215301D01*
X163515698Y-97036673D01*
X163341223Y-96964403D01*
X163385147Y-96935054D01*
X163707054Y-96453285D01*
X163719045Y-96393000D01*
X164891780Y-96393000D01*
X164926838Y-96579317D01*
X165065910Y-96795441D01*
X165278110Y-96940431D01*
X165530000Y-96991440D01*
X167210000Y-96991440D01*
X167445317Y-96947162D01*
X167661441Y-96808090D01*
X167806431Y-96595890D01*
X167857440Y-96344000D01*
X167857440Y-94664000D01*
X167813162Y-94428683D01*
X167674090Y-94212559D01*
X167461890Y-94067569D01*
X167210000Y-94016560D01*
X165530000Y-94016560D01*
X165294683Y-94060838D01*
X165078559Y-94199910D01*
X164933569Y-94412110D01*
X164892483Y-94615000D01*
X163703000Y-94615000D01*
X163703000Y-93333270D01*
X163765441Y-93293090D01*
X163910431Y-93080890D01*
X163961440Y-92829000D01*
X163961440Y-91829000D01*
X163917162Y-91593683D01*
X163778090Y-91377559D01*
X163565890Y-91232569D01*
X163314000Y-91181560D01*
X162678894Y-91181560D01*
X162679119Y-90923883D01*
X163038775Y-90924197D01*
X163456086Y-90751767D01*
X163775645Y-90432765D01*
X163948803Y-90015756D01*
X163949197Y-89564225D01*
X163776767Y-89146914D01*
X163703000Y-89073018D01*
X163703000Y-88138000D01*
X163664956Y-87946741D01*
X163665069Y-87817337D01*
X163516507Y-87457788D01*
X163241659Y-87182460D01*
X162882370Y-87033270D01*
X162493337Y-87032931D01*
X162133788Y-87181493D01*
X161858460Y-87456341D01*
X161709270Y-87815630D01*
X161708931Y-88204663D01*
X161857493Y-88564212D01*
X161925000Y-88631837D01*
X161925000Y-89072717D01*
X161852355Y-89145235D01*
X161679197Y-89562244D01*
X161678881Y-89924117D01*
X161319225Y-89923803D01*
X160901914Y-90096233D01*
X160700796Y-90297000D01*
X156652630Y-90297000D01*
X155859815Y-89504185D01*
X155715864Y-89408000D01*
X155612605Y-89339004D01*
X155321000Y-89281000D01*
X154803000Y-89281000D01*
X154803000Y-89205750D01*
X154644250Y-89047000D01*
X153670000Y-89047000D01*
X153670000Y-89067000D01*
X153416000Y-89067000D01*
X153416000Y-89047000D01*
X152441750Y-89047000D01*
X152334690Y-89154060D01*
X151224321Y-88043691D01*
X152283000Y-88043691D01*
X152283000Y-88634250D01*
X152441750Y-88793000D01*
X153416000Y-88793000D01*
X153416000Y-87693750D01*
X153670000Y-87693750D01*
X153670000Y-88793000D01*
X154644250Y-88793000D01*
X154803000Y-88634250D01*
X154803000Y-88043691D01*
X154706327Y-87810302D01*
X154527699Y-87631673D01*
X154294310Y-87535000D01*
X153828750Y-87535000D01*
X153670000Y-87693750D01*
X153416000Y-87693750D01*
X153257250Y-87535000D01*
X152791690Y-87535000D01*
X152558301Y-87631673D01*
X152379673Y-87810302D01*
X152283000Y-88043691D01*
X151224321Y-88043691D01*
X150934440Y-87753810D01*
X150934440Y-86720000D01*
X150890603Y-86487027D01*
X151191190Y-86186440D01*
X152161000Y-86186440D01*
X152396317Y-86142162D01*
X152612441Y-86003090D01*
X152757431Y-85790890D01*
X152808440Y-85539000D01*
X152808440Y-84846950D01*
X152839004Y-85000605D01*
X152923863Y-85127605D01*
X153004185Y-85247815D01*
X154281185Y-86524816D01*
X154365560Y-86581193D01*
X154365560Y-86636000D01*
X154409838Y-86871317D01*
X154548910Y-87087441D01*
X154761110Y-87232431D01*
X155013000Y-87283440D01*
X156313000Y-87283440D01*
X156548317Y-87239162D01*
X156764441Y-87100090D01*
X156909431Y-86887890D01*
X156960440Y-86636000D01*
X156960440Y-85336000D01*
X156916162Y-85100683D01*
X156777090Y-84884559D01*
X156707289Y-84836866D01*
X156764441Y-84800090D01*
X156909431Y-84587890D01*
X156960440Y-84336000D01*
X156960440Y-83836000D01*
X159865560Y-83836000D01*
X159865560Y-85836000D01*
X159909838Y-86071317D01*
X160048910Y-86287441D01*
X160261110Y-86432431D01*
X160513000Y-86483440D01*
X161813000Y-86483440D01*
X162048317Y-86439162D01*
X162264441Y-86300090D01*
X162409431Y-86087890D01*
X162460440Y-85836000D01*
X162460440Y-85611547D01*
X162513341Y-85664540D01*
X162872630Y-85813730D01*
X162968182Y-85813813D01*
X163017184Y-85862815D01*
X163201544Y-85986000D01*
X163264395Y-86027996D01*
X163446560Y-86064231D01*
X163446560Y-86074000D01*
X163490838Y-86309317D01*
X163629910Y-86525441D01*
X163842110Y-86670431D01*
X164094000Y-86721440D01*
X165344000Y-86721440D01*
X165579317Y-86677162D01*
X165795441Y-86538090D01*
X165940431Y-86325890D01*
X165991440Y-86074000D01*
X165991440Y-84574000D01*
X165947162Y-84338683D01*
X165808090Y-84122559D01*
X165739994Y-84076031D01*
X165882327Y-83933698D01*
X165979000Y-83700309D01*
X165979000Y-83109750D01*
X165820250Y-82951000D01*
X164846000Y-82951000D01*
X164846000Y-82971000D01*
X164592000Y-82971000D01*
X164592000Y-82951000D01*
X163617750Y-82951000D01*
X163459000Y-83109750D01*
X163459000Y-83700309D01*
X163555673Y-83933698D01*
X163696910Y-84074936D01*
X163692713Y-84077637D01*
X163622659Y-84007460D01*
X163263370Y-83858270D01*
X162874337Y-83857931D01*
X162514788Y-84006493D01*
X162460440Y-84060746D01*
X162460440Y-83836000D01*
X162416162Y-83600683D01*
X162277090Y-83384559D01*
X162064890Y-83239569D01*
X161813000Y-83188560D01*
X160513000Y-83188560D01*
X160277683Y-83232838D01*
X160061559Y-83371910D01*
X159916569Y-83584110D01*
X159865560Y-83836000D01*
X156960440Y-83836000D01*
X156960440Y-83036000D01*
X156916162Y-82800683D01*
X156777090Y-82584559D01*
X156564890Y-82439569D01*
X156425000Y-82411241D01*
X156425000Y-81947691D01*
X163459000Y-81947691D01*
X163459000Y-82538250D01*
X163617750Y-82697000D01*
X164592000Y-82697000D01*
X164592000Y-81597750D01*
X164846000Y-81597750D01*
X164846000Y-82697000D01*
X165820250Y-82697000D01*
X165979000Y-82538250D01*
X165979000Y-81947691D01*
X165882327Y-81714302D01*
X165703699Y-81535673D01*
X165470310Y-81439000D01*
X165004750Y-81439000D01*
X164846000Y-81597750D01*
X164592000Y-81597750D01*
X164433250Y-81439000D01*
X163967690Y-81439000D01*
X163734301Y-81535673D01*
X163555673Y-81714302D01*
X163459000Y-81947691D01*
X156425000Y-81947691D01*
X156425000Y-81879440D01*
X157714000Y-81879440D01*
X157949317Y-81835162D01*
X158165441Y-81696090D01*
X158310431Y-81483890D01*
X158361440Y-81232000D01*
X158361440Y-81034510D01*
X158554630Y-81114730D01*
X158943663Y-81115069D01*
X159303212Y-80966507D01*
X159578540Y-80691659D01*
X159727730Y-80332370D01*
X159728069Y-79943337D01*
X159579507Y-79583788D01*
X159304659Y-79308460D01*
X158945370Y-79159270D01*
X158556337Y-79158931D01*
X158361440Y-79239460D01*
X158361440Y-79232000D01*
X158317162Y-78996683D01*
X158178090Y-78780559D01*
X157965890Y-78635569D01*
X157714000Y-78584560D01*
X155214000Y-78584560D01*
X154978683Y-78628838D01*
X154762559Y-78767910D01*
X154617569Y-78980110D01*
X154566560Y-79232000D01*
X154566560Y-81232000D01*
X154610838Y-81467317D01*
X154749910Y-81683441D01*
X154901000Y-81786676D01*
X154901000Y-82409634D01*
X154777683Y-82432838D01*
X154561559Y-82571910D01*
X154416569Y-82784110D01*
X154365560Y-83036000D01*
X154365560Y-84336000D01*
X154392893Y-84481263D01*
X154305000Y-84393370D01*
X154305000Y-84121000D01*
X154246996Y-83829395D01*
X154081815Y-83582185D01*
X152808440Y-82308810D01*
X152808440Y-81339000D01*
X152764162Y-81103683D01*
X152625090Y-80887559D01*
X152412890Y-80742569D01*
X152247723Y-80709122D01*
X152396317Y-80681162D01*
X152612441Y-80542090D01*
X152757431Y-80329890D01*
X152808440Y-80078000D01*
X152808440Y-78578000D01*
X152764162Y-78342683D01*
X152625090Y-78126559D01*
X152471390Y-78021540D01*
X162949518Y-78021540D01*
X163372616Y-79045515D01*
X164155365Y-79829631D01*
X165178599Y-80254515D01*
X166286540Y-80255482D01*
X167310515Y-79832384D01*
X168094631Y-79049635D01*
X168519515Y-78026401D01*
X168520482Y-76918460D01*
X168097384Y-75894485D01*
X167314635Y-75110369D01*
X166291401Y-74685485D01*
X165183460Y-74684518D01*
X164159485Y-75107616D01*
X163375369Y-75890365D01*
X162950485Y-76913599D01*
X162949518Y-78021540D01*
X152471390Y-78021540D01*
X152412890Y-77981569D01*
X152379510Y-77974809D01*
X152520699Y-77916327D01*
X152699327Y-77737698D01*
X152796000Y-77504309D01*
X152796000Y-76913750D01*
X152637250Y-76755000D01*
X151638000Y-76755000D01*
X151638000Y-76775000D01*
X151384000Y-76775000D01*
X151384000Y-76755000D01*
X150384750Y-76755000D01*
X150226000Y-76913750D01*
X150226000Y-77504309D01*
X150322673Y-77737698D01*
X150501301Y-77916327D01*
X150637287Y-77972654D01*
X150625683Y-77974838D01*
X150409559Y-78113910D01*
X150264569Y-78326110D01*
X150213560Y-78578000D01*
X150213560Y-78740000D01*
X149734618Y-78740000D01*
X149542147Y-78451946D01*
X149212974Y-78232000D01*
X149542147Y-78012054D01*
X149864054Y-77530285D01*
X149977093Y-76962000D01*
X149888727Y-76517750D01*
X154579000Y-76517750D01*
X154579000Y-77358309D01*
X154675673Y-77591698D01*
X154854301Y-77770327D01*
X155087690Y-77867000D01*
X156178250Y-77867000D01*
X156337000Y-77708250D01*
X156337000Y-76359000D01*
X156591000Y-76359000D01*
X156591000Y-77708250D01*
X156749750Y-77867000D01*
X157840310Y-77867000D01*
X158073699Y-77770327D01*
X158252327Y-77591698D01*
X158349000Y-77358309D01*
X158349000Y-76517750D01*
X158190250Y-76359000D01*
X156591000Y-76359000D01*
X156337000Y-76359000D01*
X154737750Y-76359000D01*
X154579000Y-76517750D01*
X149888727Y-76517750D01*
X149864054Y-76393715D01*
X149542147Y-75911946D01*
X149302308Y-75751691D01*
X150226000Y-75751691D01*
X150226000Y-76342250D01*
X150384750Y-76501000D01*
X151384000Y-76501000D01*
X151384000Y-75401750D01*
X151638000Y-75401750D01*
X151638000Y-76501000D01*
X152637250Y-76501000D01*
X152796000Y-76342250D01*
X152796000Y-75751691D01*
X152699327Y-75518302D01*
X152520699Y-75339673D01*
X152287310Y-75243000D01*
X151796750Y-75243000D01*
X151638000Y-75401750D01*
X151384000Y-75401750D01*
X151225250Y-75243000D01*
X150734690Y-75243000D01*
X150501301Y-75339673D01*
X150322673Y-75518302D01*
X150226000Y-75751691D01*
X149302308Y-75751691D01*
X149060378Y-75590039D01*
X148492093Y-75477000D01*
X148433907Y-75477000D01*
X147865622Y-75590039D01*
X147383853Y-75911946D01*
X147061946Y-76393715D01*
X146948907Y-76962000D01*
X147061946Y-77530285D01*
X147383853Y-78012054D01*
X147713026Y-78232000D01*
X147383853Y-78451946D01*
X147061946Y-78933715D01*
X146948907Y-79502000D01*
X147061946Y-80070285D01*
X147383853Y-80552054D01*
X147425452Y-80579850D01*
X147377683Y-80588838D01*
X147161559Y-80727910D01*
X147016569Y-80940110D01*
X146965560Y-81192000D01*
X146965560Y-82892000D01*
X147009838Y-83127317D01*
X147148910Y-83343441D01*
X147361110Y-83488431D01*
X147613000Y-83539440D01*
X148982930Y-83539440D01*
X146908185Y-85614185D01*
X146743004Y-85861395D01*
X146691278Y-86121438D01*
X146603310Y-86085000D01*
X146462750Y-86085000D01*
X146304000Y-86243750D01*
X146304000Y-87343000D01*
X146324000Y-87343000D01*
X146324000Y-87597000D01*
X146304000Y-87597000D01*
X146304000Y-87617000D01*
X146050000Y-87617000D01*
X146050000Y-87597000D01*
X146030000Y-87597000D01*
X146030000Y-87343000D01*
X146050000Y-87343000D01*
X146050000Y-86243750D01*
X145891250Y-86085000D01*
X145750690Y-86085000D01*
X145669000Y-86118837D01*
X145669000Y-83466440D01*
X145737000Y-83466440D01*
X145972317Y-83422162D01*
X146188441Y-83283090D01*
X146333431Y-83070890D01*
X146384440Y-82819000D01*
X146384440Y-81519000D01*
X146340162Y-81283683D01*
X146201090Y-81067559D01*
X145988890Y-80922569D01*
X145749000Y-80873990D01*
X145749000Y-80672440D01*
X145864000Y-80672440D01*
X146099317Y-80628162D01*
X146315441Y-80489090D01*
X146460431Y-80276890D01*
X146511440Y-80025000D01*
X146511440Y-78725000D01*
X146467162Y-78489683D01*
X146328090Y-78273559D01*
X146115890Y-78128569D01*
X145876000Y-78079990D01*
X145876000Y-77622182D01*
X146099317Y-77580162D01*
X146315441Y-77441090D01*
X146460431Y-77228890D01*
X146511440Y-76977000D01*
X146511440Y-75677000D01*
X146467162Y-75441683D01*
X146328090Y-75225559D01*
X146152658Y-75105691D01*
X154579000Y-75105691D01*
X154579000Y-75946250D01*
X154737750Y-76105000D01*
X156337000Y-76105000D01*
X156337000Y-74755750D01*
X156591000Y-74755750D01*
X156591000Y-76105000D01*
X158190250Y-76105000D01*
X158349000Y-75946250D01*
X158349000Y-75105691D01*
X158252327Y-74872302D01*
X158073699Y-74693673D01*
X157840310Y-74597000D01*
X156749750Y-74597000D01*
X156591000Y-74755750D01*
X156337000Y-74755750D01*
X156178250Y-74597000D01*
X155087690Y-74597000D01*
X154854301Y-74693673D01*
X154675673Y-74872302D01*
X154579000Y-75105691D01*
X146152658Y-75105691D01*
X146115890Y-75080569D01*
X145864000Y-75029560D01*
X144364000Y-75029560D01*
X144128683Y-75073838D01*
X143912559Y-75212910D01*
X143767569Y-75425110D01*
X143760809Y-75458490D01*
X143702327Y-75317301D01*
X143523698Y-75138673D01*
X143290309Y-75042000D01*
X142699750Y-75042000D01*
X142541000Y-75200750D01*
X142541000Y-76200000D01*
X142561000Y-76200000D01*
X142561000Y-76454000D01*
X142541000Y-76454000D01*
X142541000Y-77453250D01*
X142699750Y-77612000D01*
X143290309Y-77612000D01*
X143523698Y-77515327D01*
X143702327Y-77336699D01*
X143758654Y-77200713D01*
X143760838Y-77212317D01*
X143899910Y-77428441D01*
X144112110Y-77573431D01*
X144352000Y-77622010D01*
X144352000Y-78079818D01*
X144128683Y-78121838D01*
X143912559Y-78260910D01*
X143767569Y-78473110D01*
X143764919Y-78486197D01*
X143628090Y-78273559D01*
X143415890Y-78128569D01*
X143164000Y-78077560D01*
X141664000Y-78077560D01*
X141428683Y-78121838D01*
X141212559Y-78260910D01*
X141119416Y-78397230D01*
X140819502Y-78396969D01*
X140740090Y-78273559D01*
X140527890Y-78128569D01*
X140276000Y-78077560D01*
X138776000Y-78077560D01*
X138540683Y-78121838D01*
X138324559Y-78260910D01*
X138179569Y-78473110D01*
X138176919Y-78486197D01*
X138040090Y-78273559D01*
X137827890Y-78128569D01*
X137588000Y-78079990D01*
X137588000Y-77622182D01*
X137811317Y-77580162D01*
X138027441Y-77441090D01*
X138172431Y-77228890D01*
X138179191Y-77195510D01*
X138237673Y-77336699D01*
X138416302Y-77515327D01*
X138649691Y-77612000D01*
X139240250Y-77612000D01*
X139399000Y-77453250D01*
X139399000Y-76454000D01*
X139653000Y-76454000D01*
X139653000Y-77453250D01*
X139811750Y-77612000D01*
X140402309Y-77612000D01*
X140635698Y-77515327D01*
X140814327Y-77336699D01*
X140911000Y-77103310D01*
X140911000Y-76612750D01*
X141029000Y-76612750D01*
X141029000Y-77103310D01*
X141125673Y-77336699D01*
X141304302Y-77515327D01*
X141537691Y-77612000D01*
X142128250Y-77612000D01*
X142287000Y-77453250D01*
X142287000Y-76454000D01*
X141187750Y-76454000D01*
X141029000Y-76612750D01*
X140911000Y-76612750D01*
X140752250Y-76454000D01*
X139653000Y-76454000D01*
X139399000Y-76454000D01*
X139379000Y-76454000D01*
X139379000Y-76200000D01*
X139399000Y-76200000D01*
X139399000Y-75200750D01*
X139653000Y-75200750D01*
X139653000Y-76200000D01*
X140752250Y-76200000D01*
X140911000Y-76041250D01*
X140911000Y-75550690D01*
X141029000Y-75550690D01*
X141029000Y-76041250D01*
X141187750Y-76200000D01*
X142287000Y-76200000D01*
X142287000Y-75200750D01*
X142128250Y-75042000D01*
X141537691Y-75042000D01*
X141304302Y-75138673D01*
X141125673Y-75317301D01*
X141029000Y-75550690D01*
X140911000Y-75550690D01*
X140814327Y-75317301D01*
X140635698Y-75138673D01*
X140402309Y-75042000D01*
X139811750Y-75042000D01*
X139653000Y-75200750D01*
X139399000Y-75200750D01*
X139240250Y-75042000D01*
X138649691Y-75042000D01*
X138416302Y-75138673D01*
X138237673Y-75317301D01*
X138181346Y-75453287D01*
X138179162Y-75441683D01*
X138040090Y-75225559D01*
X137827890Y-75080569D01*
X137576000Y-75029560D01*
X136076000Y-75029560D01*
X135840683Y-75073838D01*
X135763000Y-75123826D01*
X135763000Y-74229630D01*
X137395630Y-72597000D01*
X139928818Y-72597000D01*
X139970838Y-72820317D01*
X140109910Y-73036441D01*
X140322110Y-73181431D01*
X140574000Y-73232440D01*
X141874000Y-73232440D01*
X142109317Y-73188162D01*
X142325441Y-73049090D01*
X142470431Y-72836890D01*
X142521440Y-72585000D01*
X142521440Y-72120750D01*
X148067000Y-72120750D01*
X148067000Y-72711309D01*
X148163673Y-72944698D01*
X148342301Y-73123327D01*
X148575690Y-73220000D01*
X149066250Y-73220000D01*
X149225000Y-73061250D01*
X149225000Y-71962000D01*
X149479000Y-71962000D01*
X149479000Y-73061250D01*
X149637750Y-73220000D01*
X150128310Y-73220000D01*
X150361699Y-73123327D01*
X150428275Y-73056750D01*
X151035000Y-73056750D01*
X151035000Y-73522310D01*
X151131673Y-73755699D01*
X151310302Y-73934327D01*
X151543691Y-74031000D01*
X152134250Y-74031000D01*
X152293000Y-73872250D01*
X152293000Y-72898000D01*
X151193750Y-72898000D01*
X151035000Y-73056750D01*
X150428275Y-73056750D01*
X150540327Y-72944698D01*
X150637000Y-72711309D01*
X150637000Y-72120750D01*
X150535940Y-72019690D01*
X151035000Y-72019690D01*
X151035000Y-72485250D01*
X151193750Y-72644000D01*
X152293000Y-72644000D01*
X152293000Y-71669750D01*
X152547000Y-71669750D01*
X152547000Y-72644000D01*
X152567000Y-72644000D01*
X152567000Y-72898000D01*
X152547000Y-72898000D01*
X152547000Y-73872250D01*
X152705750Y-74031000D01*
X153296309Y-74031000D01*
X153529698Y-73934327D01*
X153670936Y-73793090D01*
X153705910Y-73847441D01*
X153918110Y-73992431D01*
X154170000Y-74043440D01*
X155670000Y-74043440D01*
X155905317Y-73999162D01*
X156121441Y-73860090D01*
X156266431Y-73647890D01*
X156278603Y-73587782D01*
X156290341Y-73599540D01*
X156649630Y-73748730D01*
X157038663Y-73749069D01*
X157398212Y-73600507D01*
X157673540Y-73325659D01*
X157822730Y-72966370D01*
X157823069Y-72577337D01*
X157674507Y-72217788D01*
X157399659Y-71942460D01*
X157040370Y-71793270D01*
X156651337Y-71792931D01*
X156291788Y-71941493D01*
X156280988Y-71952274D01*
X156273162Y-71910683D01*
X156134090Y-71694559D01*
X155921890Y-71549569D01*
X155670000Y-71498560D01*
X154170000Y-71498560D01*
X153934683Y-71542838D01*
X153718559Y-71681910D01*
X153672031Y-71750006D01*
X153529698Y-71607673D01*
X153296309Y-71511000D01*
X152705750Y-71511000D01*
X152547000Y-71669750D01*
X152293000Y-71669750D01*
X152134250Y-71511000D01*
X151543691Y-71511000D01*
X151310302Y-71607673D01*
X151131673Y-71786301D01*
X151035000Y-72019690D01*
X150535940Y-72019690D01*
X150478250Y-71962000D01*
X149479000Y-71962000D01*
X149225000Y-71962000D01*
X148225750Y-71962000D01*
X148067000Y-72120750D01*
X142521440Y-72120750D01*
X142521440Y-71085000D01*
X142477162Y-70849683D01*
X142338090Y-70633559D01*
X142125890Y-70488569D01*
X142112803Y-70485919D01*
X142325441Y-70349090D01*
X142470431Y-70136890D01*
X142521440Y-69885000D01*
X142521440Y-68385000D01*
X142477162Y-68149683D01*
X142338090Y-67933559D01*
X142125890Y-67788569D01*
X141986000Y-67760241D01*
X141986000Y-67005020D01*
X142092371Y-66961068D01*
X142524551Y-66529643D01*
X142758733Y-65965670D01*
X142759265Y-65355009D01*
X142526068Y-64790629D01*
X142358120Y-64622387D01*
X142359317Y-64622162D01*
X142575441Y-64483090D01*
X142720431Y-64270890D01*
X142771440Y-64019000D01*
X142771440Y-62219000D01*
X147931560Y-62219000D01*
X147931560Y-64019000D01*
X147975838Y-64254317D01*
X148114910Y-64470441D01*
X148327110Y-64615431D01*
X148347534Y-64619567D01*
X148178449Y-64788357D01*
X147944267Y-65352330D01*
X147943735Y-65962991D01*
X148176932Y-66527371D01*
X148590000Y-66941162D01*
X148590000Y-67758634D01*
X148466683Y-67781838D01*
X148250559Y-67920910D01*
X148105569Y-68133110D01*
X148054560Y-68385000D01*
X148054560Y-69885000D01*
X148098838Y-70120317D01*
X148237910Y-70336441D01*
X148450110Y-70481431D01*
X148483490Y-70488191D01*
X148342301Y-70546673D01*
X148163673Y-70725302D01*
X148067000Y-70958691D01*
X148067000Y-71549250D01*
X148225750Y-71708000D01*
X149225000Y-71708000D01*
X149225000Y-71688000D01*
X149479000Y-71688000D01*
X149479000Y-71708000D01*
X150478250Y-71708000D01*
X150637000Y-71549250D01*
X150637000Y-70958691D01*
X150540327Y-70725302D01*
X150361699Y-70546673D01*
X150225713Y-70490346D01*
X150237317Y-70488162D01*
X150453441Y-70349090D01*
X150598431Y-70136890D01*
X150649440Y-69885000D01*
X150649440Y-69246750D01*
X159921000Y-69246750D01*
X159921000Y-70837309D01*
X160017673Y-71070698D01*
X160196301Y-71249327D01*
X160429690Y-71346000D01*
X162020250Y-71346000D01*
X162179000Y-71187250D01*
X162179000Y-69088000D01*
X162433000Y-69088000D01*
X162433000Y-71187250D01*
X162591750Y-71346000D01*
X164182310Y-71346000D01*
X164415699Y-71249327D01*
X164594327Y-71070698D01*
X164691000Y-70837309D01*
X164691000Y-69246750D01*
X164532250Y-69088000D01*
X162433000Y-69088000D01*
X162179000Y-69088000D01*
X160079750Y-69088000D01*
X159921000Y-69246750D01*
X150649440Y-69246750D01*
X150649440Y-68385000D01*
X150605162Y-68149683D01*
X150466090Y-67933559D01*
X150253890Y-67788569D01*
X150114000Y-67760241D01*
X150114000Y-67057495D01*
X150347371Y-66961068D01*
X150779551Y-66529643D01*
X151013733Y-65965670D01*
X151014265Y-65355009D01*
X150781068Y-64790629D01*
X150613120Y-64622387D01*
X150614317Y-64622162D01*
X150830441Y-64483090D01*
X150975431Y-64270890D01*
X151026440Y-64019000D01*
X151026440Y-62219000D01*
X150982162Y-61983683D01*
X150843090Y-61767559D01*
X150630890Y-61622569D01*
X150379000Y-61571560D01*
X148579000Y-61571560D01*
X148343683Y-61615838D01*
X148127559Y-61754910D01*
X147982569Y-61967110D01*
X147931560Y-62219000D01*
X142771440Y-62219000D01*
X142727162Y-61983683D01*
X142588090Y-61767559D01*
X142375890Y-61622569D01*
X142124000Y-61571560D01*
X140324000Y-61571560D01*
X140088683Y-61615838D01*
X139872559Y-61754910D01*
X139727569Y-61967110D01*
X139676560Y-62219000D01*
X139676560Y-64019000D01*
X139720838Y-64254317D01*
X139859910Y-64470441D01*
X140072110Y-64615431D01*
X140092534Y-64619567D01*
X139923449Y-64788357D01*
X139689267Y-65352330D01*
X139688735Y-65962991D01*
X139921932Y-66527371D01*
X140353357Y-66959551D01*
X140462000Y-67004664D01*
X140462000Y-67758634D01*
X140338683Y-67781838D01*
X140122559Y-67920910D01*
X139977569Y-68133110D01*
X139926560Y-68385000D01*
X139926560Y-69885000D01*
X139970838Y-70120317D01*
X140109910Y-70336441D01*
X140322110Y-70481431D01*
X140335197Y-70484081D01*
X140122559Y-70620910D01*
X139977569Y-70833110D01*
X139928990Y-71073000D01*
X137080000Y-71073000D01*
X136788395Y-71131004D01*
X136611313Y-71249327D01*
X136541185Y-71296185D01*
X134462185Y-73375185D01*
X134349638Y-73543623D01*
X134111991Y-73187959D01*
X133516674Y-72790181D01*
X132814450Y-72650500D01*
X132742550Y-72650500D01*
X132040326Y-72790181D01*
X131445009Y-73187959D01*
X131064000Y-73758179D01*
X131064000Y-69878821D01*
X131445009Y-70449041D01*
X132040326Y-70846819D01*
X132742550Y-70986500D01*
X132814450Y-70986500D01*
X133516674Y-70846819D01*
X134111991Y-70449041D01*
X134509769Y-69853724D01*
X134649450Y-69151500D01*
X134509769Y-68449276D01*
X134111991Y-67853959D01*
X133516674Y-67456181D01*
X132814450Y-67316500D01*
X132742550Y-67316500D01*
X132040326Y-67456181D01*
X131445009Y-67853959D01*
X131064000Y-68424179D01*
X131064000Y-64544821D01*
X131445009Y-65115041D01*
X132040326Y-65512819D01*
X132742550Y-65652500D01*
X132814450Y-65652500D01*
X133516674Y-65512819D01*
X134111991Y-65115041D01*
X134509769Y-64519724D01*
X134649450Y-63817500D01*
X134509769Y-63115276D01*
X134111991Y-62519959D01*
X133516674Y-62122181D01*
X132814450Y-61982500D01*
X132742550Y-61982500D01*
X132040326Y-62122181D01*
X131445009Y-62519959D01*
X131064000Y-63090179D01*
X131064000Y-61087000D01*
X159933671Y-61087000D01*
X159908560Y-61211000D01*
M02*
